G04 Layer: TopSolderMaskLayer*
G04 EasyEDA Pro v2.1.63, 2024-06-10 19:41:30*
G04 Gerber Generator version 0.3*
G04 Scale: 100 percent, Rotated: No, Reflected: No*
G04 Dimensions in millimeters*
G04 Leading zeros omitted, absolute positions, 3 integers and 5 decimals*
%FSLAX35Y35*%
%MOMM*%
%AMRoundRect*1,1,$1,$2,$3*1,1,$1,$4,$5*1,1,$1,0-$2,0-$3*1,1,$1,0-$4,0-$5*20,1,$1,$2,$3,$4,$5,0*20,1,$1,$4,$5,0-$2,0-$3,0*20,1,$1,0-$2,0-$3,0-$4,0-$5,0*20,1,$1,0-$4,0-$5,$2,$3,0*4,1,4,$2,$3,$4,$5,0-$2,0-$3,0-$4,0-$5,$2,$3,0*%
%ADD10O,0.67559X2.13959*%
%ADD11O,0.66159X1.84661*%
%ADD12RoundRect,0.09138X-0.40835X0.43712X0.40835X0.43712*%
%ADD13RoundRect,0.09387X-0.57013X0.69237X0.57013X0.69237*%
%ADD14RoundRect,0.08771X0.40199X-0.27695X-0.40199X-0.27695*%
%ADD15RoundRect,0.09131X0.40514X-0.45514X-0.40514X-0.45514*%
%ADD16RoundRect,0.07779X-0.61111X0.13612X0.61111X0.13612*%
%ADD17RoundRect,0.09131X0.45514X0.40514X0.45514X-0.40514*%
%ADD18RoundRect,0.0910X-0.40514X0.45514X0.40514X0.45514*%
%ADD19RoundRect,0.09131X-0.40514X0.45514X0.40514X0.45514*%
%ADD20RoundRect,0.09424X0.70368X-0.60368X-0.70368X-0.60368*%
%ADD21RoundRect,0.08771X-0.28977X0.27695X0.28977X0.27695*%
%ADD22RoundRect,0.08771X0.28977X-0.27695X-0.28977X-0.27695*%
%ADD23RoundRect,0.0977X2.05116X-2.05116X-2.05116X-2.05116*%
%ADD24O,0.38003X1.10002*%
%ADD25O,1.10002X0.38003*%
%ADD26O,2.5016X0.35161*%
%ADD27O,2.80162X1.6016*%
%ADD28O,3.40157X1.6016*%
%ADD29RoundRect,0.07604X-0.35314X-0.11311X-0.35314X0.11311*%
%ADD30RoundRect,0.08445X-0.34893X-0.20796X-0.34893X0.20796*%
%ADD31RoundRect,0.09424X-0.60368X-0.70368X-0.60368X0.70368*%
%ADD32O,1.9666X0.7316*%
%ADD33RoundRect,0.08771X-0.40199X0.27695X0.40199X0.27695*%
%ADD34RoundRect,0.08771X-0.27695X-0.40199X-0.27695X0.40199*%
%ADD35RoundRect,0.08771X0.27695X0.28977X0.27695X-0.28977*%
%ADD36RoundRect,0.08771X-0.27695X-0.28977X-0.27695X0.28977*%
%ADD37RoundRect,0.09131X-0.43715X-0.40514X-0.43715X0.40514*%
%ADD38RoundRect,0.08771X0.27695X0.40199X0.27695X-0.40199*%
%ADD39RoundRect,0.09131X-0.45514X-0.40514X-0.45514X0.40514*%
%ADD40RoundRect,0.09138X-0.43712X-0.40835X-0.43712X0.40835*%
%ADD41RoundRect,0.09138X0.43712X0.40835X0.43712X-0.40835*%
%ADD42RoundRect,0.09131X-0.40514X0.43715X0.40514X0.43715*%
%ADD43RoundRect,0.08875X-0.50642X0.30643X0.50642X0.30643*%
%ADD44RoundRect,0.09302X-0.8643X-0.50429X-0.8643X0.50429*%
%ADD45RoundRect,0.09302X0.50429X-0.8643X-0.50429X-0.8643*%
%ADD46RoundRect,0.08671X-0.58594X-0.25244X-0.58594X0.25244*%
%ADD47RoundRect,0.08671X-0.59495X-0.25244X-0.59495X0.25244*%
%ADD48O,2.90002X1.40002*%
%ADD49C,1.70002*%
%ADD50RoundRect,0.09447X-0.80278X-0.80278X-0.80278X0.80278*%
%ADD51RoundRect,0.09424X-0.70368X0.60368X0.70368X0.60368*%
%ADD52O,1.72161X0.38161*%
%ADD53C,1.6256*%
%ADD54O,2.3016X1.5016*%
%ADD55RoundRect,0.09138X0.40835X-0.43712X-0.40835X-0.43712*%
%ADD56RoundRect,0.08X0.735X0.16X0.735X-0.16*%
%ADD57O,1.7016X1.1016*%
%ADD58O,2.2016X1.1016*%
%ADD59RoundRect,0.08X-0.735X-0.16X-0.735X0.16*%
%ADD60RoundRect,0.08875X-0.54143X0.30643X0.54143X0.30643*%
%ADD61RoundRect,0.08875X-0.30643X-0.54143X-0.30643X0.54143*%
G75*


G04 Pad Start*
G54D10*
G01X2184400Y-886511D03*
G01X2311400Y-886511D03*
G01X2438400Y-886511D03*
G01X2565400Y-886511D03*
G01X2692400Y-886511D03*
G01X2819400Y-886511D03*
G01X2946400Y-886511D03*
G01X3073400Y-886511D03*
G01X2184400Y-332689D03*
G01X2311400Y-332689D03*
G01X2438400Y-332689D03*
G01X2565400Y-332689D03*
G01X2692400Y-332689D03*
G01X2819400Y-332689D03*
G01X2946400Y-332689D03*
G01X3073400Y-332689D03*
G54D11*
G01X3683000Y-922249D03*
G01X3810000Y-922249D03*
G01X3937000Y-922249D03*
G01X4064000Y-922249D03*
G01X4191000Y-922249D03*
G01X4318000Y-922249D03*
G01X4445000Y-922249D03*
G01X4572000Y-922249D03*
G01X3683000Y-347751D03*
G01X3810000Y-347751D03*
G01X3937000Y-347751D03*
G01X4064000Y-347751D03*
G01X4191000Y-347751D03*
G01X4318000Y-347751D03*
G01X4445000Y-347751D03*
G01X4572000Y-347751D03*
G54D12*
G01X3859936Y-1270000D03*
G01X3709264Y-1270000D03*
G01X3415436Y-876300D03*
G01X3264764Y-876300D03*
G54D13*
G01X1084478Y-419100D03*
G01X1277722Y-419100D03*
G01X4500778Y-1384300D03*
G01X4694022Y-1384300D03*
G54D14*
G01X1799692Y-558800D03*
G01X1908708Y-558800D03*
G01X3717392Y-1422400D03*
G01X3826408Y-1422400D03*
G01X4530192Y-1739900D03*
G01X4639208Y-1739900D03*
G01X1532992Y-914400D03*
G01X1642008Y-914400D03*
G54D15*
G01X4070198Y-1663700D03*
G01X4210202Y-1663700D03*
G54D16*
G01X3236290Y-2608504D03*
G01X3236290Y-2661514D03*
G01X3236290Y-2714498D03*
G01X3236290Y-2767508D03*
G01X3236290Y-2820492D03*
G01X3236290Y-2873502D03*
G01X3236290Y-2926512D03*
G01X3236290Y-2979496D03*
G01X3596310Y-2979496D03*
G01X3596310Y-2926512D03*
G01X3596310Y-2873502D03*
G01X3596310Y-2820492D03*
G01X3596310Y-2767508D03*
G01X3596310Y-2714498D03*
G01X3596310Y-2661514D03*
G01X3596310Y-2608504D03*
G54D15*
G01X3549498Y-3556000D03*
G01X3689502Y-3556000D03*
G54D17*
G01X3378200Y-3333902D03*
G01X3378200Y-3193898D03*
G54D19*
G01X3981602Y-4025900D03*
G01X3841598Y-4025900D03*
G54D17*
G01X3987800Y-3841902D03*
G01X3987800Y-3701898D03*
G54D20*
G01X4301007Y-3318599D03*
G01X4080993Y-3318599D03*
G01X4080993Y-3488601D03*
G01X4301007Y-3488601D03*
G54D21*
G01X4183482Y-2616200D03*
G01X4096918Y-2616200D03*
G54D22*
G01X3842918Y-2362200D03*
G01X3929482Y-2362200D03*
G54D23*
G01X2476487Y-2603513D03*
G54D24*
G01X2751501Y-2953499D03*
G01X2701501Y-2953499D03*
G01X2651501Y-2953499D03*
G01X2601501Y-2953499D03*
G01X2551501Y-2953499D03*
G01X2501501Y-2953499D03*
G01X2451499Y-2953499D03*
G01X2401499Y-2953499D03*
G01X2351499Y-2953499D03*
G01X2301499Y-2953499D03*
G01X2251499Y-2953499D03*
G01X2201499Y-2953499D03*
G54D25*
G01X2126501Y-2878501D03*
G01X2126501Y-2828501D03*
G01X2126501Y-2778501D03*
G01X2126501Y-2728501D03*
G01X2126501Y-2678501D03*
G01X2126501Y-2628501D03*
G01X2126501Y-2578499D03*
G01X2126501Y-2528499D03*
G01X2126501Y-2478499D03*
G01X2126501Y-2428499D03*
G01X2126501Y-2378499D03*
G01X2126501Y-2328499D03*
G54D24*
G01X2201499Y-2253501D03*
G01X2251499Y-2253501D03*
G01X2301499Y-2253501D03*
G01X2351499Y-2253501D03*
G01X2401499Y-2253501D03*
G01X2451499Y-2253501D03*
G01X2501501Y-2253501D03*
G01X2551501Y-2253501D03*
G01X2601501Y-2253501D03*
G01X2651501Y-2253501D03*
G01X2701501Y-2253501D03*
G01X2751501Y-2253501D03*
G54D25*
G01X2826499Y-2328499D03*
G01X2826499Y-2378499D03*
G01X2826499Y-2428499D03*
G01X2826499Y-2478499D03*
G01X2826499Y-2528499D03*
G01X2826499Y-2578499D03*
G01X2826499Y-2628501D03*
G01X2826499Y-2678501D03*
G01X2826499Y-2728501D03*
G01X2826499Y-2778501D03*
G01X2826499Y-2828501D03*
G01X2826499Y-2878501D03*
G54D26*
G01X1088921Y-2400300D03*
G01X1088921Y-2450313D03*
G01X1088921Y-2500325D03*
G01X1088921Y-2550338D03*
G01X1088921Y-2600325D03*
G01X1088921Y-2650338D03*
G01X1088921Y-2700350D03*
G01X1088921Y-2750363D03*
G01X1088921Y-2800375D03*
G01X1088921Y-2850388D03*
G01X1088921Y-2350287D03*
G01X1088921Y-2300275D03*
G01X1088921Y-2250262D03*
G01X1088921Y-2200275D03*
G01X1088921Y-2150262D03*
G01X1088921Y-2100250D03*
G01X1088921Y-2050237D03*
G01X1088921Y-2000225D03*
G01X1088921Y-1950212D03*
G54D27*
G01X409674Y-3125292D03*
G01X409674Y-1675308D03*
G54D28*
G01X1005685Y-3125292D03*
G01X1005685Y-1675308D03*
G54D29*
G01X1378458Y-2855976D03*
G01X1378458Y-2805938D03*
G54D30*
G01X1378458Y-2755900D03*
G54D29*
G01X1378458Y-2705862D03*
G01X1378458Y-2655824D03*
G01X1466342Y-2655824D03*
G01X1466342Y-2705862D03*
G54D30*
G01X1466342Y-2755900D03*
G54D29*
G01X1466342Y-2805938D03*
G01X1466342Y-2855976D03*
G01X1378458Y-2551176D03*
G01X1378458Y-2501138D03*
G54D30*
G01X1378458Y-2451100D03*
G54D29*
G01X1378458Y-2401062D03*
G01X1378458Y-2351024D03*
G01X1466342Y-2351024D03*
G01X1466342Y-2401062D03*
G54D30*
G01X1466342Y-2451100D03*
G54D29*
G01X1466342Y-2501138D03*
G01X1466342Y-2551176D03*
G54D31*
G01X3148203Y-3488207D03*
G01X3148203Y-3268193D03*
G01X2973197Y-3268193D03*
G01X2973197Y-3488207D03*
G54D32*
G01X3316249Y-1562100D03*
G01X3316249Y-1435100D03*
G01X3316249Y-1308100D03*
G01X3316249Y-1181100D03*
G01X2779751Y-1562100D03*
G01X2779751Y-1435100D03*
G01X2779751Y-1308100D03*
G01X2779751Y-1181100D03*
G54D14*
G01X745592Y-1409700D03*
G01X854608Y-1409700D03*
G54D33*
G01X2581808Y-3302000D03*
G01X2472792Y-3302000D03*
G01X2581808Y-3175000D03*
G01X2472792Y-3175000D03*
G01X2569108Y-1905000D03*
G01X2460092Y-1905000D03*
G54D34*
G01X2120900Y-4047592D03*
G01X2120900Y-4156608D03*
G54D33*
G01X1997608Y-2247900D03*
G01X1888592Y-2247900D03*
G54D34*
G01X2705100Y-3526892D03*
G01X2705100Y-3635908D03*
G54D33*
G01X1934108Y-2438400D03*
G01X1825092Y-2438400D03*
G01X2340508Y-3302000D03*
G01X2231492Y-3302000D03*
G54D34*
G01X1905000Y-3158592D03*
G01X1905000Y-3267608D03*
G54D33*
G01X1946808Y-2743200D03*
G01X1837792Y-2743200D03*
G54D14*
G01X2434692Y-1536700D03*
G01X2543708Y-1536700D03*
G54D34*
G01X3365500Y-3476092D03*
G01X3365500Y-3585108D03*
G54D33*
G01X3064408Y-3111500D03*
G01X2955392Y-3111500D03*
G54D22*
G01X1810918Y-2044700D03*
G01X1897482Y-2044700D03*
G01X502818Y-1409700D03*
G01X589382Y-1409700D03*
G54D35*
G01X1371600Y-2087982D03*
G01X1371600Y-2001418D03*
G54D36*
G01X3060700Y-2877718D03*
G01X3060700Y-2964282D03*
G54D22*
G01X2839618Y-1790700D03*
G01X2926182Y-1790700D03*
G54D36*
G01X2832100Y-1925218D03*
G01X2832100Y-2011782D03*
G54D21*
G01X2710282Y-1752600D03*
G01X2623718Y-1752600D03*
G54D37*
G01X3111500Y-2279510D03*
G01X3111500Y-2419490D03*
G54D33*
G01X1921408Y-3962400D03*
G01X1812392Y-3962400D03*
G54D38*
G01X1549400Y-1705508D03*
G01X1549400Y-1596492D03*
G01X3263900Y-1984908D03*
G01X3263900Y-1875892D03*
G54D19*
G01X1784502Y-3162300D03*
G01X1644498Y-3162300D03*
G54D15*
G01X3371698Y-2247900D03*
G01X3511702Y-2247900D03*
G01X2584298Y-3949700D03*
G01X2724302Y-3949700D03*
G01X2584298Y-3784600D03*
G01X2724302Y-3784600D03*
G54D39*
G01X2260600Y-4044798D03*
G01X2260600Y-4184802D03*
G01X2425700Y-4044798D03*
G01X2425700Y-4184802D03*
G54D40*
G01X3822700Y-1893164D03*
G01X3822700Y-2043836D03*
G54D12*
G01X1954936Y-3822700D03*
G01X1804264Y-3822700D03*
G54D41*
G01X1600200Y-3948836D03*
G01X1600200Y-3798164D03*
G54D40*
G01X1409700Y-1588364D03*
G01X1409700Y-1739036D03*
G54D42*
G01X2432190Y-1714500D03*
G01X2292210Y-1714500D03*
G54D43*
G01X1787690Y-3638296D03*
G01X1787690Y-3448304D03*
G01X2047710Y-3448304D03*
G01X2047710Y-3543300D03*
G01X2047710Y-3638296D03*
G01X1559090Y-1377696D03*
G01X1559090Y-1187704D03*
G01X1819110Y-1187704D03*
G01X1819110Y-1282700D03*
G01X1819110Y-1377696D03*
G54D44*
G01X2044700Y-1212596D03*
G01X2044700Y-1378204D03*
G54D45*
G01X2203196Y-3530600D03*
G01X2368804Y-3530600D03*
G54D46*
G01X3645967Y-2063496D03*
G01X3645967Y-1968500D03*
G01X3645967Y-1873504D03*
G54D47*
G01X3415233Y-1873504D03*
G01X3415233Y-2063496D03*
G54D48*
G01X801294Y-4848695D03*
G01X801294Y-3558705D03*
G54D49*
G01X951306Y-4553699D03*
G01X951306Y-4303712D03*
G01X951306Y-4103713D03*
G54D50*
G01X951306Y-3853701D03*
G54D16*
G01X2702890Y-4157904D03*
G01X2702890Y-4210914D03*
G01X2702890Y-4263898D03*
G01X2702890Y-4316908D03*
G01X2702890Y-4369892D03*
G01X2702890Y-4422902D03*
G01X2702890Y-4475912D03*
G01X2702890Y-4528896D03*
G01X3062910Y-4528896D03*
G01X3062910Y-4475912D03*
G01X3062910Y-4422902D03*
G01X3062910Y-4369892D03*
G01X3062910Y-4316908D03*
G01X3062910Y-4263898D03*
G01X3062910Y-4210914D03*
G01X3062910Y-4157904D03*
G54D19*
G01X3067202Y-4686300D03*
G01X2927198Y-4686300D03*
G54D15*
G01X2609698Y-4686300D03*
G01X2749702Y-4686300D03*
G54D19*
G01X3511702Y-4457700D03*
G01X3371698Y-4457700D03*
G01X3511702Y-4622800D03*
G01X3371698Y-4622800D03*
G54D51*
G01X3369793Y-4161701D03*
G01X3589807Y-4161701D03*
G01X3589807Y-3991699D03*
G01X3369793Y-3991699D03*
G54D52*
G01X1325702Y-4294200D03*
G01X1325702Y-4344213D03*
G01X1325702Y-4394200D03*
G01X1325702Y-4444213D03*
G01X1325702Y-4494200D03*
G01X1747698Y-4294200D03*
G01X1747698Y-4344213D03*
G01X1747698Y-4394200D03*
G01X1747698Y-4444213D03*
G01X1747698Y-4494200D03*
G54D53*
G01X4724400Y-4378300D03*
G01X4724400Y-4178300D03*
G01X4724400Y-3978300D03*
G54D54*
G01X4724400Y-3763289D03*
G01X4724400Y-4593311D03*
G54D40*
G01X4724400Y-3417164D03*
G01X4724400Y-3567836D03*
G54D55*
G01X4179164Y-4013200D03*
G01X4329836Y-4013200D03*
G54D22*
G01X985418Y-215900D03*
G01X1071982Y-215900D03*
G54D36*
G01X990600Y-604418D03*
G01X990600Y-690982D03*
G54D56*
G01X711797Y-246710D03*
G01X711797Y-275412D03*
G01X711543Y-325501D03*
G01X711543Y-354203D03*
G01X711949Y-409194D03*
G01X711949Y-459207D03*
G01X711797Y-509194D03*
G01X711949Y-559206D03*
G01X711797Y-609194D03*
G01X711949Y-659206D03*
G01X711949Y-709168D03*
G01X711949Y-759206D03*
G01X711949Y-814197D03*
G01X711949Y-842899D03*
G01X711949Y-893013D03*
G01X711949Y-921690D03*
G54D57*
G01X202451Y-152197D03*
G01X202451Y-1016203D03*
G54D58*
G01X620459Y-1016203D03*
G01X620433Y-152197D03*
G54D59*
G01X4355503Y-2826690D03*
G01X4355503Y-2797988D03*
G01X4355757Y-2747899D03*
G01X4355757Y-2719197D03*
G01X4355351Y-2664206D03*
G01X4355351Y-2614193D03*
G01X4355503Y-2564206D03*
G01X4355351Y-2514194D03*
G01X4355503Y-2464206D03*
G01X4355351Y-2414194D03*
G01X4355351Y-2364232D03*
G01X4355351Y-2314194D03*
G01X4355351Y-2259203D03*
G01X4355351Y-2230501D03*
G01X4355351Y-2180387D03*
G01X4355351Y-2151710D03*
G54D57*
G01X4864849Y-2921203D03*
G01X4864849Y-2057197D03*
G54D58*
G01X4446842Y-2057197D03*
G01X4446867Y-2921203D03*
G54D60*
G01X1330008Y-907796D03*
G01X1330008Y-717804D03*
G01X1082993Y-812800D03*
G54D61*
G01X4247896Y-1832292D03*
G01X4057904Y-1832292D03*
G01X4152900Y-2079307D03*
G54D35*
G01X1689100Y-1681582D03*
G01X1689100Y-1595018D03*
G54D19*
G01X1911502Y-711200D03*
G01X1771498Y-711200D03*
G01X4654702Y-1587500D03*
G01X4514698Y-1587500D03*
G54D39*
G01X1600200Y-3447898D03*
G01X1600200Y-3587902D03*
G54D19*
G01X1365402Y-1193800D03*
G01X1225398Y-1193800D03*
G54D15*
G01X2127098Y-3822700D03*
G01X2267102Y-3822700D03*
G54D33*
G01X1908708Y-368300D03*
G01X1799692Y-368300D03*
G04 Pad End*

M02*
