;TYPE=PLATED
;Layer: PTH_Through_Via
;EasyEDA Pro v2.1.63, 2024-06-10 19:41:30
;Gerber Generator version 0.3
M48
METRIC,LZ,000.00000
;Hole size 1 = 0.30000 METRIC
T01C0.30000
;Hole size 2 = 0.30400 METRIC
T02C0.30400
;Hole size 3 = 0.30480 METRIC
T03C0.30480
;Hole size 4 = 0.30500 METRIC
T04C0.30500
%
G05
G90
T01
X02133600Y-02260600
X02222500Y-02578100
X02222698Y-02753901
X04191000Y-01981200
X03378200Y-02463800
X03429000Y-02374900
X03784600Y-02743200
X02772719Y-01790700
X02478707Y-01805607
X01346200Y-02273300
X01460500Y-02273300
X01581223Y-02273300
X01701800Y-02273300
X01397000Y-01854200
X01498600Y-01854200
X01206500Y-01879600
X01092200Y-01879600
X00939800Y-01892300
X00990600Y-02971800
X01124857Y-02971800
X01259114Y-02971800
X01393371Y-02971800
X01527629Y-02971800
X01930400Y-02971800
X02044700Y-03009900
X02400300Y-02314300
X00901700Y-02070100
X01993900Y-01854200
X02103433Y-01854200
X02197100Y-01854200
X01682396Y-01854200
X01752600Y-02438400
X01727200Y-02755900
X01943100Y-03517900
X02362873Y-01789481
X04279900Y-02882900
X01981200Y-01600200
X01661886Y-02971800
X01796143Y-02971800
X02476500Y-03632200
X02273300Y-03086100
X02247900Y-03213100
X02590800Y-04470400
X02501900Y-04457700
X02857500Y-03695700
X02921000Y-03746500
X01511300Y-04406900
X01955800Y-04584700
X02082800Y-04635500
X03746500Y-03771900
X02476500Y-03035300
X01193800Y-04559300
X03949700Y-01638300
X04191000Y-00774700
X04318000Y-00774700
X02565400Y-00558800
X02692400Y-00508000
X03657600Y-01587500
X03721100Y-01638300
X00885060Y-00482600
X00863600Y-00647700
X04483100Y-01244600
X01193800Y-00571500
X04203700Y-01511300
X04584700Y-01854200
X04152900Y-01783637
X02146300Y-03695700
X02768600Y-03352800
X03238500Y-03136900
X03543300Y-01320800
X03543300Y-00965200
X04025900Y-02222500
X04089400Y-02755900
X04038600Y-02946400
T02
X00392000Y-02751401
X00392000Y-02451401
X00392000Y-02151401
X00392000Y-01851401
X00392000Y-01589501
X00392000Y-01289501
X00444500Y-00990600
X00392000Y-00689501
X00392000Y-00389501
X00692000Y-03089501
X00692000Y-02751401
X00692000Y-02451401
X00692000Y-02151401
X00692000Y-01289501
X00992000Y-01851401
X00992000Y-01589501
X00990600Y-00990600
X01291999Y-03089501
X01308100Y-01866900
X01384300Y-00990600
X01591999Y-01851401
X01891999Y-03689500
X01891999Y-01851401
X01879600Y-00977900
X01625600Y-00812800
X02191999Y-01589501
X02491999Y-01289501
X03568700Y-00635000
X04891998Y-03089501
X04891998Y-02789501
X04891998Y-02489501
X04891998Y-02189501
X01778000Y-01854200
T03
X01945582Y-03441096
X03962400Y-02527300
X04089400Y-02400300
X02933700Y-01912533
X02171700Y-03048000
X02997200Y-02273300
X03987800Y-02082800
T04
X03975100Y-02628900
X03886200Y-02667000
X02413000Y-02146300
X02222500Y-02461798
X02552700Y-02870200
X02578100Y-02349500
X02705100Y-03200400
X02463800Y-03759200
X02286000Y-01866900
X01689100Y-01482445
M30