G04 Layer: TopLayer*
G04 EasyEDA Pro v2.1.63, 2024-06-10 19:41:30*
G04 Gerber Generator version 0.3*
G04 Scale: 100 percent, Rotated: No, Reflected: No*
G04 Dimensions in millimeters*
G04 Leading zeros omitted, absolute positions, 3 integers and 5 decimals*
%FSLAX35Y35*%
%MOMM*%
%ADD8191C,0.2032*%
%ADD10C,0.254*%
%ADD11O,0.57399X2.03799*%
%ADD12O,0.55999X1.74501*%
%ADD13R,0.80648X0.86401*%
%ADD14R,1.13254X1.37701*%
%ADD15R,0.79009X0.54*%
%ADD16R,0.8X0.9*%
%ADD17R,1.2076X0.25001*%
%ADD18R,1.2X0.25001*%
%ADD19R,0.9X0.8*%
%ADD20R,0.8X0.9*%
%ADD21R,1.4X1.2*%
%ADD22R,0.56566X0.54*%
%ADD23R,0.56566X0.54*%
%ADD24R,4.09999X4.09999*%
%ADD25O,0.28001X1.0*%
%ADD26O,1.0X0.28001*%
%ADD27O,2.4X0.25001*%
%ADD28O,2.70002X1.5*%
%ADD29O,3.29997X1.5*%
%ADD30R,0.68072X0.20066*%
%ADD31R,0.68072X0.39878*%
%ADD32R,1.2X1.4*%
%ADD33O,1.865X0.63*%
%ADD34R,0.79009X0.54*%
%ADD35R,0.54X0.79009*%
%ADD36R,0.54X0.56566*%
%ADD37R,0.54X0.56566*%
%ADD38R,0.86401X0.8*%
%ADD39R,0.54X0.79009*%
%ADD40R,0.9X0.8*%
%ADD41R,0.86401X0.80648*%
%ADD42R,0.86401X0.80648*%
%ADD43R,0.8X0.86401*%
%ADD44R,1.0X0.6*%
%ADD45R,1.72001X1.0*%
%ADD46R,1.0X1.72001*%
%ADD47R,1.157X0.48999*%
%ADD48R,1.175X0.48999*%
%ADD49O,2.79999X1.3*%
%ADD50C,1.6*%
%ADD51R,1.6X1.6*%
%ADD52R,1.4X1.2*%
%ADD53O,1.62001X0.28001*%
%ADD54C,1.524*%
%ADD55O,2.2X1.4*%
%ADD56R,0.80648X0.86401*%
%ADD57R,1.45001X0.3*%
%ADD58O,1.6X1.0*%
%ADD59O,2.1X1.0*%
%ADD60R,1.45001X0.3*%
%ADD61R,1.07X0.6*%
%ADD62R,0.6X1.07*%
%ADD63C,0.61*%
%ADD64C,0.508*%
%ADD65C,0.5*%
%ADD66C,0.762*%
%ADD67C,0.381*%
%ADD68C,0.3*%
%ADD69C,0.6*%
G75*


G04 Copper Start*
G36*
G01X4994186Y-4900000D02*
G02X4980000Y-4914186I-14186J0D01*
G01X1678814D01*
G01Y-4646400D01*
G03X1643000Y-4610586I-35814J0D01*
G01X1438000D01*
G03X1402186Y-4646400I0J-35814D01*
G01Y-4914186D01*
G01X952938D01*
G03X977108Y-4848695I-76644J65491D01*
G03X876294Y-4747881I-100814J0D01*
G01X726294D01*
G03X625480Y-4848695I0J-100814D01*
G03X649650Y-4914186I100814J0D01*
G01X100000D01*
G02X85814Y-4900000I0J14186D01*
G01Y-110000D01*
G02X100000Y-95814I14186J0D01*
G01X107759D01*
G03X86637Y-152197I64692J-56383D01*
G03X172451Y-238011I85814J0D01*
G01X232451D01*
G03X318265Y-152197I0J85814D01*
G03X297142Y-95814I-85814J0D01*
G01X500742D01*
G03X479619Y-152197I64692J-56383D01*
G03X534802Y-232358I85814J0D01*
G03X496634Y-295199I32646J-62841D01*
G03X535358Y-358326I70815J0D01*
G01X508394Y-385290D01*
G03X459886Y-444845I12306J-59556D01*
G01Y-698500D01*
G03X508394Y-758056I60814J0D01*
G01X554011Y-803673D01*
G03X496634Y-873201I13438J-69529D01*
G03X534813Y-936048I70815J0D01*
G03X479645Y-1016203I30646J-80155D01*
G03X565459Y-1102017I85814J0D01*
G01X675458D01*
G03X761272Y-1016203I0J85814D01*
G03X749312Y-972504I-85814J0D01*
G01X784450D01*
G03X820264Y-936690I0J35814D01*
G01Y-908013D01*
G01Y-906690D01*
G01Y-893514D01*
G01X1058989D01*
G01X1058990D01*
G03X1098867Y-878614I0J60814D01*
G01X1136493D01*
G01X1240693D01*
G01Y-937796D01*
G03X1276507Y-973610I35814J0D01*
G01X1383508D01*
G03X1419322Y-937796I0J35814D01*
G01Y-893805D01*
G01X1457673Y-932156D01*
G01Y-941400D01*
G03X1493487Y-977214I35814J0D01*
G01X1513349D01*
G03X1532992Y-980214I19643J62814D01*
G03X1552635Y-977214I0J65814D01*
G01X1572496D01*
G03X1587500Y-973920I0J35814D01*
G03X1602504Y-977214I15004J32520D01*
G01X1681513D01*
G03X1717327Y-941400I0J35814D01*
G01Y-887400D01*
G03X1681513Y-851586I-35814J0D01*
G01X1602504D01*
G03X1587500Y-854880I0J-35814D01*
G03X1572496Y-851586I-15004J-32520D01*
G01X1563252D01*
G01X1477929Y-766263D01*
G03X1431392Y-746986I-46537J-46537D01*
G01X1419322D01*
G01Y-687804D01*
G03X1383508Y-651990I-35814J0D01*
G01X1350197D01*
G01X1251970Y-553762D01*
G03X1231478Y-523765I-58170J-17738D01*
G01X1334348D01*
G03X1365447Y-505714I0J35814D01*
G01X1470637D01*
G01X1481828Y-516905D01*
G03X1516132Y-531114I34305J34305D01*
G01X1724380D01*
G01X1724373Y-531800D01*
G01Y-585800D01*
G03X1760187Y-621614I35814J0D01*
G01X1839196D01*
G03X1854200Y-618320I0J35814D01*
G03X1860194Y-620462I15004J32520D01*
G01Y-632218D01*
G03X1841500Y-646643I11308J-33982D01*
G03X1811498Y-630386I-30002J-19557D01*
G01X1731498D01*
G03X1695684Y-666200I0J-35814D01*
G01Y-756200D01*
G03X1731498Y-792014I35814J0D01*
G01X1811498D01*
G03X1841500Y-775757I0J35814D01*
G03X1871502Y-792014I30002J19557D01*
G01X1951502D01*
G03X1987316Y-756200I0J35814D01*
G01Y-666200D01*
G03X1957222Y-630846I-35814J0D01*
G01Y-620462D01*
G03X1984027Y-585800I-9009J34662D01*
G01Y-531800D01*
G01X1984020Y-531114D01*
G01X2273300D01*
G03X2307605Y-516905I0J48514D01*
G01X2345705Y-478805D01*
G03X2359739Y-448613I-34305J34305D01*
G03X2374900Y-417280I-48339J42723D01*
G03X2438400Y-470403I63500J11390D01*
G03X2501900Y-417280I0J64513D01*
G03X2516886Y-448414I63500J11390D01*
G01Y-522129D01*
G03X2504586Y-558800I48514J-36671D01*
G03X2565400Y-619614I60814J0D01*
G03X2626214Y-558800I0J60814D01*
G03X2613914Y-522129I-60814J0D01*
G01Y-448414D01*
G03X2628900Y-417280I-48514J42525D01*
G03X2643886Y-448414I63500J11390D01*
G01Y-471329D01*
G03X2631586Y-508000I48514J-36671D01*
G03X2692400Y-568814I60814J0D01*
G03X2753214Y-508000I0J60814D01*
G03X2740914Y-471329I-60814J0D01*
G01Y-448414D01*
G03X2755900Y-417280I-48514J42525D01*
G03X2819400Y-470403I63500J11390D01*
G03X2882900Y-417280I0J64513D01*
G03X2946400Y-470403I63500J11390D01*
G03X3009900Y-417280I0J64513D01*
G03X3073400Y-470403I63500J11390D01*
G03X3137913Y-405889I0J64513D01*
G01Y-259489D01*
G03X3073400Y-194975I-64513J0D01*
G03X3009900Y-248099I0J-64513D01*
G03X2946400Y-194975I-63500J-11390D01*
G03X2882900Y-248099I0J-64513D01*
G03X2819400Y-194975I-63500J-11390D01*
G03X2755900Y-248099I0J-64513D01*
G03X2692400Y-194975I-63500J-11390D01*
G03X2628900Y-248099I0J-64513D01*
G03X2565400Y-194975I-63500J-11390D01*
G03X2501900Y-248099I0J-64513D01*
G03X2438400Y-194975I-63500J-11390D01*
G03X2374900Y-248099I0J-64513D01*
G03X2311400Y-194975I-63500J-11390D01*
G03X2247900Y-248099I0J-64513D01*
G03X2184400Y-194975I-63500J-11390D01*
G03X2119887Y-259489I0J-64513D01*
G01Y-307086D01*
G01X1958799D01*
G03X1948213Y-305486I-10586J-34214D01*
G01X1869204D01*
G03X1854200Y-308780I0J-35814D01*
G03X1839196Y-305486I-15004J-32520D01*
G01X1760187D01*
G03X1724373Y-341300I0J-35814D01*
G01Y-395300D01*
G03X1760187Y-431114I35814J0D01*
G01X1839196D01*
G03X1854200Y-427820I0J35814D01*
G03X1869204Y-431114I15004J32520D01*
G01X1948213D01*
G03X1958799Y-429514I0J35814D01*
G01X2124368D01*
G03X2126375Y-434086I60032J23625D01*
G01X1911012D01*
G01X1536228D01*
G01X1525037Y-422895D01*
G03X1490732Y-408686I-34305J-34305D01*
G01X1370162D01*
G01Y-350249D01*
G03X1334348Y-314435I-35814J0D01*
G01X1221095D01*
G03X1185281Y-350249I0J-35814D01*
G01Y-487073D01*
G01X1176919Y-478712D01*
G01Y-350249D01*
G03X1141105Y-314435I-35814J0D01*
G01X1027852D01*
G03X992038Y-350249I0J-35814D01*
G01Y-487951D01*
G03X1027852Y-523765I35814J0D01*
G01X1050341D01*
G03X1054176Y-527977I46837J38790D01*
G01X1240693Y-714494D01*
G01Y-746986D01*
G01X1136493D01*
G01X1082993D01*
G01X1040275D01*
G03X1053414Y-719264I-22675J27722D01*
G01Y-662699D01*
G03X1050122Y-647700I-35814J0D01*
G03X1053414Y-632701I-32522J14999D01*
G01Y-576136D01*
G01Y-576135D01*
G03X1017600Y-540321I-35814J0D01*
G01X963600D01*
G03X927786Y-576135I0J-35814D01*
G01Y-576136D01*
G01Y-632701D01*
G03X931078Y-647700I35814J0D01*
G03X927786Y-662699I32522J-14999D01*
G01Y-685187D01*
G01X899486Y-713486D01*
G01X820264D01*
G01Y-708914D01*
G01X863600D01*
G03X877120Y-706992I0J48514D01*
G03X924414Y-647700I-13520J59292D01*
G03X912114Y-611029I-60814J0D01*
G01Y-591247D01*
G03X897905Y-556943I-48514J0D01*
G01X884372Y-543410D01*
G01X885060Y-543414D01*
G03X945874Y-482600I0J60814D01*
G03X913183Y-428679I-60814J0D01*
G01X924931Y-416931D01*
G03X939814Y-381000I-35931J35931D01*
G01Y-351248D01*
G01X1012348Y-278714D01*
G01X1013701D01*
G03X1028700Y-275422I0J35814D01*
G03X1043699Y-278714I14999J32522D01*
G01X1100264D01*
G01X1100265D01*
G03X1136079Y-242900I0J35814D01*
G01Y-188900D01*
G03X1100265Y-153086I-35814J0D01*
G01X1100264D01*
G01X1043699D01*
G03X1028700Y-156378I0J-35814D01*
G03X1013701Y-153086I-14999J-32522D01*
G01X957136D01*
G03X921322Y-188900I0J-35814D01*
G01Y-226017D01*
G01X853069Y-294269D01*
G03X838186Y-330200I35931J-35931D01*
G01Y-359952D01*
G01X818215Y-379923D01*
G03X819857Y-369203I-34172J10720D01*
G01Y-340501D01*
G01Y-339203D01*
G01Y-310501D01*
G03X818544Y-300891I-35814J0D01*
G03X820111Y-290412I-34247J10479D01*
G01Y-261710D01*
G01Y-260412D01*
G01Y-231710D01*
G03X784297Y-195896I-35814J0D01*
G01X749287D01*
G03X761247Y-152197I-73854J43699D01*
G03X740125Y-95814I-85814J0D01*
G01X1402186D01*
G01Y-360000D01*
G03X1438000Y-395814I35814J0D01*
G01X1643000D01*
G03X1678814Y-360000I0J35814D01*
G01Y-95814D01*
G01X4980000D01*
G02X4994186Y-110000I0J-14186D01*
G01Y-4900000D01*
G37*
%LPC*%
G36*
G01X2789702Y-4767114D02*
G03X2825516Y-4731300I0J35814D01*
G01Y-4728312D01*
G01X2851384D01*
G01Y-4731300D01*
G03X2887198Y-4767114I35814J0D01*
G01X2967198D01*
G03X2997200Y-4750857I0J35814D01*
G03X3027202Y-4767114I30002J19557D01*
G01X3107202D01*
G03X3143016Y-4731300I0J35814D01*
G01Y-4641300D01*
G03X3107202Y-4605486I-35814J0D01*
G01X3027202D01*
G03X2997200Y-4621743I0J-35814D01*
G03X2982196Y-4608778I-30002J-19557D01*
G03X2968005Y-4575795I-48496J-1322D01*
G01X2868121Y-4475912D01*
G01X2967096Y-4376937D01*
G01Y-4382393D01*
G03X2969947Y-4396397I35814J0D01*
G03X2967096Y-4410401I32962J-14004D01*
G01Y-4435403D01*
G03X2969947Y-4449407I35814J0D01*
G03X2967096Y-4463411I32962J-14004D01*
G01Y-4488412D01*
G03X2969942Y-4502404I35814J0D01*
G03X2967096Y-4516396I32968J-13992D01*
G01Y-4541397D01*
G03X3002910Y-4577211I35814J0D01*
G01X3058516D01*
G03X3062910Y-4577410I4394J48315D01*
G01X3257699D01*
G01X3295884Y-4615595D01*
G01Y-4667800D01*
G03X3331698Y-4703614I35814J0D01*
G01X3411698D01*
G03X3441700Y-4687357I0J35814D01*
G03X3471702Y-4703614I30002J19557D01*
G01X3551702D01*
G03X3587516Y-4667800I0J35814D01*
G01Y-4577800D01*
G03X3551702Y-4541986I-35814J0D01*
G01X3471702D01*
G03X3441700Y-4558243I0J-35814D01*
G03X3411698Y-4541986I-30002J-19557D01*
G01X3359493D01*
G01X3356021Y-4538514D01*
G01X3411698D01*
G03X3441700Y-4522257I0J35814D01*
G03X3471702Y-4538514I30002J19557D01*
G01X3551702D01*
G03X3587516Y-4502700I0J35814D01*
G01Y-4412700D01*
G03X3551702Y-4376886I-35814J0D01*
G01X3471702D01*
G03X3441700Y-4393143I0J-35814D01*
G03X3411698Y-4376886I-30002J-19557D01*
G01X3331698D01*
G03X3323464Y-4377845I0J-35814D01*
G01X3334795Y-4366514D01*
G01X3657600D01*
G03X3691905Y-4352305I0J48514D01*
G01X3780805Y-4263405D01*
G03X3795014Y-4229100I-34305J34305D01*
G01Y-4148392D01*
G01Y-4148391D01*
G03X3780805Y-4114087I-48514J0D01*
G01X3695621Y-4028904D01*
G01Y-3931699D01*
G03X3659807Y-3895885I-35814J0D01*
G01X3519808D01*
G03X3483994Y-3931699I0J-35814D01*
G01Y-4051699D01*
G03X3494164Y-4076700I35814J0D01*
G03X3483994Y-4101701I25643J-25001D01*
G01Y-4221701D01*
G03X3519808Y-4257515I35814J0D01*
G01X3649476D01*
G01X3637505Y-4269486D01*
G01X3330617D01*
G01X3342588Y-4257515D01*
G01X3439792D01*
G03X3475606Y-4221701I0J35814D01*
G01Y-4101701D01*
G03X3465436Y-4076700I-35814J0D01*
G03X3475606Y-4051699I-25643J25001D01*
G01Y-3931699D01*
G03X3439792Y-3895885I-35814J0D01*
G01X3418227D01*
G01X3677298Y-3636814D01*
G01X3697986D01*
G01Y-3735229D01*
G03X3685686Y-3771900I48514J-36671D01*
G03X3746500Y-3832714I60814J0D01*
G03X3793084Y-3810994I0J60814D01*
G01Y-3946113D01*
G03X3765784Y-3980900I8514J-34787D01*
G01Y-4070900D01*
G03X3801598Y-4106714I35814J0D01*
G01X3881598D01*
G03X3911600Y-4090457I0J35814D01*
G03X3941602Y-4106714I30002J19557D01*
G01X4021602D01*
G03X4057416Y-4070900I0J35814D01*
G01Y-3980900D01*
G03X4021602Y-3945086I-35814J0D01*
G01X3941602D01*
G03X3911600Y-3961343I0J-35814D01*
G03X3890112Y-3946113I-30002J-19557D01*
G01Y-3615821D01*
G01X3914387Y-3640096D01*
G03X3906986Y-3661898I28413J-21802D01*
G01Y-3741898D01*
G03X3923243Y-3771900I35814J0D01*
G03X3906986Y-3801902I19557J-30002D01*
G01Y-3881902D01*
G03X3942800Y-3917716I35814J0D01*
G01X4032800D01*
G03X4068614Y-3881902I0J35814D01*
G01Y-3801902D01*
G03X4052357Y-3771900I-35814J0D01*
G03X4068614Y-3741898I-19557J30002D01*
G01Y-3661898D01*
G03X4032800Y-3626084I-35814J0D01*
G01X4032516D01*
G03X4022105Y-3610595I-44716J-18816D01*
G01X3668014Y-3256505D01*
G01Y-3025844D01*
G03X3692124Y-2991997I-11704J33847D01*
G01Y-2966996D01*
G03X3689278Y-2953004I-35814J0D01*
G03X3691216Y-2947025I-32968J13992D01*
G01X3837686Y-3093495D01*
G01Y-3390900D01*
G03X3851895Y-3425205I48514J0D01*
G01X3949597Y-3522906D01*
G03X3975179Y-3536325I34305J34305D01*
G01Y-3548601D01*
G03X4010993Y-3584415I35814J0D01*
G01X4150992D01*
G03X4186806Y-3548601I0J35814D01*
G01Y-3428601D01*
G03X4176636Y-3403600I-35814J0D01*
G03X4186806Y-3378599I-25643J25001D01*
G01Y-3273007D01*
G01X4195194Y-3281394D01*
G01Y-3378599D01*
G03X4205364Y-3403600I35814J0D01*
G03X4195194Y-3428601I25643J-25001D01*
G01Y-3548601D01*
G03X4231008Y-3584415I35814J0D01*
G01X4371007D01*
G03X4406821Y-3548601I0J35814D01*
G01Y-3428601D01*
G03X4396651Y-3403600I-35814J0D01*
G03X4406821Y-3378599I-25643J25001D01*
G01Y-3258599D01*
G03X4371007Y-3222785I-35814J0D01*
G01X4273803D01*
G01X3855432Y-2804414D01*
G01X3930521D01*
G01X4129786Y-3003679D01*
G01Y-3022600D01*
G03X4147715Y-3065885I61214J0D01*
G01X4185815Y-3103985D01*
G03X4229100Y-3121914I43285J43285D01*
G01X4546644D01*
G01X4663186Y-3238456D01*
G01Y-3345886D01*
G03X4645386Y-3376840I18014J-30954D01*
G01Y-3457487D01*
G03X4673666Y-3492500I35814J0D01*
G03X4645386Y-3527513I7534J-35013D01*
G01Y-3608160D01*
G03X4681200Y-3643974I35814J0D01*
G01X4767600D01*
G01X4769132Y-3643941D01*
G01X4784615Y-3659425D01*
G03X4764400Y-3657476I-20215J-103865D01*
G01X4684400D01*
G03X4578586Y-3763289I0J-105814D01*
G03X4684400Y-3869103I105814J0D01*
G01X4699438D01*
G03X4613216Y-3964686I24962J-109197D01*
G01X4405578D01*
G03X4370160Y-3934186I-35418J-5314D01*
G01X4289513D01*
G03X4254500Y-3962466I0J-35814D01*
G03X4219487Y-3934186I-35013J-7534D01*
G01X4138840D01*
G03X4103026Y-3970000I0J-35814D01*
G01Y-4056400D01*
G03X4138840Y-4092214I35814J0D01*
G01X4219487D01*
G03X4254500Y-4063934I0J35814D01*
G03X4289513Y-4092214I35013J7534D01*
G01X4370160D01*
G03X4405578Y-4061714I0J35814D01*
G01X4649638D01*
G03X4673930Y-4078300I74762J83414D01*
G03X4612386Y-4178300I50470J-100000D01*
G03X4673930Y-4278300I112014J0D01*
G03X4612386Y-4378300I50470J-100000D01*
G03X4699438Y-4487497I112014J0D01*
G01X4684400D01*
G03X4578586Y-4593311I0J-105814D01*
G03X4684400Y-4699124I105814J0D01*
G01X4764400D01*
G03X4870214Y-4593311I0J105814D01*
G03X4764400Y-4487497I-105814J0D01*
G01X4749362D01*
G03X4836414Y-4378300I-24962J109197D01*
G03X4830096Y-4341213I-112014J0D01*
G01X4936505Y-4234804D01*
G03X4950714Y-4200500I-34305J34305D01*
G01Y-3708400D01*
G03X4936505Y-3674095I-48514J0D01*
G01X4803414Y-3541005D01*
G01Y-3527513D01*
G03X4775134Y-3492500I-35814J0D01*
G03X4803414Y-3457487I-7534J35013D01*
G01Y-3376840D01*
G03X4785614Y-3345886I-35814J0D01*
G01Y-3213100D01*
G03X4767685Y-3169815I-61214J0D01*
G01X4615285Y-3017415D01*
G03X4572000Y-2999486I-43285J-43285D01*
G01X4537021D01*
G03X4587681Y-2921203I-35154J78283D01*
G03X4532498Y-2841042I-85814J0D01*
G03X4570667Y-2778201I-32646J62841D01*
G03X4499851Y-2707386I-70815J0D01*
G03X4464072Y-2717090I0J-70815D01*
G01Y-2704197D01*
G03X4461613Y-2691156I-35814J0D01*
G03X4463665Y-2679206I-33762J11950D01*
G01Y-2649206D01*
G03X4462239Y-2639200I-35814J0D01*
G03X4463665Y-2629193I-34388J10006D01*
G01Y-2599193D01*
G03X4462318Y-2589462I-35814J0D01*
G03X4463818Y-2579206I-34314J10256D01*
G01Y-2563114D01*
G01X4470400D01*
G03X4504705Y-2548905I0J48514D01*
G01X4530105Y-2523505D01*
G03X4544314Y-2489200I-34305J34305D01*
G01Y-2438400D01*
G03X4530105Y-2404095I-48514J0D01*
G01X4505898Y-2379889D01*
G03X4471594Y-2365680I-34305J-34305D01*
G01X4463665D01*
G01Y-2349232D01*
G03X4462235Y-2339213I-35814J0D01*
G03X4463665Y-2329194I-34384J10019D01*
G01Y-2299194D01*
G03X4461415Y-2286698I-35814J0D01*
G03X4463665Y-2274203I-33563J12496D01*
G01Y-2261070D01*
G03X4499851Y-2271014I36186J60872D01*
G03X4570667Y-2200199I0J70815D01*
G03X4532487Y-2137352I-70815J0D01*
G03X4587655Y-2057197I-30646J80155D01*
G03X4501841Y-1971383I-85814J0D01*
G01X4414387D01*
G01X4462885Y-1922885D01*
G03X4480814Y-1879600I-43285J43285D01*
G01Y-1803400D01*
G01X4480779Y-1801316D01*
G03X4490687Y-1802714I9908J34416D01*
G01X4569696D01*
G03X4584700Y-1799420I0J35814D01*
G03X4599704Y-1802714I15004J32520D01*
G01X4678713D01*
G03X4714527Y-1766900I0J35814D01*
G01Y-1741847D01*
G03X4722114Y-1712329I-53627J29518D01*
G01Y-1655549D01*
G03X4730516Y-1632500I-27412J23049D01*
G01Y-1542500D01*
G03X4722114Y-1519451I-35814J0D01*
G01Y-1488965D01*
G01X4750648D01*
G03X4786462Y-1453151I0J35814D01*
G01Y-1315449D01*
G03X4750648Y-1279635I-35814J0D01*
G01X4722114D01*
G01Y-1226877D01*
G01X4780385Y-1168606D01*
G03X4798314Y-1125322I-43285J43285D01*
G01Y-787400D01*
G03X4780385Y-744115I-61214J0D01*
G01X4577185Y-540915D01*
G03X4533900Y-522986I-43285J-43285D01*
G01X3832154D01*
G01X3744214Y-435046D01*
G01Y-425031D01*
G03X3746500Y-413322I-61214J18029D01*
G03X3810000Y-470816I63500J6320D01*
G03X3873500Y-413322I0J63814D01*
G03X3937000Y-470816I63500J6320D01*
G03X4000500Y-413322I0J63814D01*
G03X4064000Y-470816I63500J6320D01*
G03X4127500Y-413322I0J63814D01*
G03X4191000Y-470816I63500J6320D01*
G03X4254500Y-413322I0J63814D01*
G03X4318000Y-470816I63500J6320D01*
G03X4381500Y-413322I0J63814D01*
G03X4445000Y-470816I63500J6320D01*
G03X4508500Y-413322I0J63814D01*
G03X4572000Y-470816I63500J6320D01*
G03X4635814Y-407002I0J63814D01*
G01Y-288501D01*
G03X4572000Y-224687I-63814J0D01*
G03X4508500Y-282181I0J-63814D01*
G03X4445000Y-224687I-63500J-6320D01*
G03X4381500Y-282181I0J-63814D01*
G03X4318000Y-224687I-63500J-6320D01*
G03X4254500Y-282181I0J-63814D01*
G03X4191000Y-224687I-63500J-6320D01*
G03X4127500Y-282181I0J-63814D01*
G03X4064000Y-224687I-63500J-6320D01*
G03X4000500Y-282181I0J-63814D01*
G03X3937000Y-224687I-63500J-6320D01*
G03X3873500Y-282181I0J-63814D01*
G03X3810000Y-224687I-63500J-6320D01*
G03X3746500Y-282181I0J-63814D01*
G03X3683000Y-224687I-63500J-6320D01*
G03X3619186Y-288501I0J-63814D01*
G01Y-407002D01*
G03X3621786Y-425031I63814J0D01*
G01Y-460402D01*
G03X3639715Y-503687I61214J0D01*
G01X3763513Y-627485D01*
G03X3806798Y-645414I43285J43285D01*
G01X4508544D01*
G01X4675886Y-812756D01*
G01Y-1099966D01*
G01X4617615Y-1158237D01*
G03X4599686Y-1201522I43285J-43285D01*
G01Y-1509986D01*
G03X4584700Y-1522943I15016J-32514D01*
G03X4554698Y-1506686I-30002J-19557D01*
G01X4474698D01*
G03X4438884Y-1542500I0J-35814D01*
G01Y-1632500D01*
G03X4474698Y-1668314I35814J0D01*
G01X4554698D01*
G03X4584700Y-1652057I0J35814D01*
G03X4599686Y-1665014I30002J19557D01*
G01Y-1677086D01*
G03X4584700Y-1680380I18J-35814D01*
G03X4569696Y-1677086I-15004J-32520D01*
G01X4490687D01*
G03X4454873Y-1712900I0J-35814D01*
G01Y-1752103D01*
G01X4391914Y-1689144D01*
G01Y-1549356D01*
G01X4452305Y-1488965D01*
G01X4557405D01*
G03X4593219Y-1453151I0J35814D01*
G01Y-1315449D01*
G03X4557405Y-1279635I-35814J0D01*
G01X4557014D01*
G01Y-1257300D01*
G03X4539085Y-1214015I-61214J0D01*
G01X4526385Y-1201315D01*
G03X4483100Y-1183386I-43285J-43285D01*
G03X4421886Y-1244600I0J-61214D01*
G03X4433969Y-1281114I61214J0D01*
G03X4408338Y-1315449I10183J-34336D01*
G01Y-1359793D01*
G01X4287415Y-1480715D01*
G03X4269486Y-1524000I43285J-43285D01*
G01Y-1588521D01*
G03X4250202Y-1582886I-19284J-30179D01*
G01X4170202D01*
G03X4140200Y-1599143I0J-35814D01*
G03X4110198Y-1582886I-30002J-19557D01*
G01X4083506D01*
G03X4066201Y-1577708I-26009J-55414D01*
G01X4352305Y-1291605D01*
G03X4366514Y-1257300I-34305J34305D01*
G01Y-1022955D01*
G03X4381500Y-987819I-48514J41456D01*
G03X4445000Y-1045313I63500J6320D01*
G03X4508500Y-987819I0J63814D01*
G03X4572000Y-1045313I63500J6320D01*
G03X4635814Y-981499I0J63814D01*
G01Y-862998D01*
G03X4572000Y-799184I-63814J0D01*
G03X4508500Y-856678I0J-63814D01*
G03X4445000Y-799184I-63500J-6320D01*
G03X4381500Y-856678I0J-63814D01*
G03X4379214Y-844969I-63500J-6320D01*
G01Y-774700D01*
G03X4318000Y-713486I-61214J0D01*
G03X4256786Y-774700I0J-61214D01*
G01Y-844969D01*
G03X4254500Y-856678I61214J-18029D01*
G03X4252214Y-844969I-63500J-6320D01*
G01Y-774700D01*
G03X4191000Y-713486I-61214J0D01*
G03X4129786Y-774700I0J-61214D01*
G01Y-844969D01*
G03X4127500Y-856678I61214J-18029D01*
G03X4064000Y-799184I-63500J-6320D01*
G03X4000500Y-856678I0J-63814D01*
G03X3937000Y-799184I-63500J-6320D01*
G03X3873500Y-856678I0J-63814D01*
G03X3839255Y-806285I-63500J-6320D01*
G01X3751685Y-718715D01*
G03X3708400Y-700786I-43285J-43285D01*
G01X3529736D01*
G03X3486452Y-718715I0J-61214D01*
G01X3407881Y-797286D01*
G01X3375113D01*
G03X3340100Y-825566I0J-35814D01*
G03X3305087Y-797286I-35013J-7534D01*
G01X3224440D01*
G03X3189486Y-825297I0J-35814D01*
G01X3137913D01*
G01Y-813311D01*
G03X3073400Y-748797I-64513J0D01*
G03X3009900Y-801920I0J-64513D01*
G03X2946400Y-748797I-63500J-11390D01*
G03X2882900Y-801920I0J-64513D01*
G03X2819400Y-748797I-63500J-11390D01*
G03X2755900Y-801920I0J-64513D01*
G03X2692400Y-748797I-63500J-11390D01*
G03X2628900Y-801920I0J-64513D01*
G03X2565400Y-748797I-63500J-11390D01*
G03X2501900Y-801920I0J-64513D01*
G03X2438400Y-748797I-63500J-11390D01*
G03X2374900Y-801920I0J-64513D01*
G03X2311400Y-748797I-63500J-11390D01*
G03X2247900Y-801920I0J-64513D01*
G03X2184400Y-748797I-63500J-11390D01*
G03X2119887Y-813311I0J-64513D01*
G01Y-959711D01*
G03X2158248Y-1018686I64513J0D01*
G01X1667294D01*
G03X1624292Y-1036498I0J-60814D01*
G01X1538900Y-1121890D01*
G01X1509090D01*
G03X1475498Y-1145286I0J-35814D01*
G01X1441044D01*
G03X1405402Y-1112986I-35641J-3514D01*
G01X1325402D01*
G03X1295400Y-1129243I0J-35814D01*
G03X1265398Y-1112986I-30002J-19557D01*
G01X1185398D01*
G03X1149584Y-1148800I0J-35814D01*
G01Y-1238800D01*
G03X1185398Y-1274614I35814J0D01*
G01X1265398D01*
G03X1295400Y-1258357I0J35814D01*
G03X1325402Y-1274614I30002J19557D01*
G01X1405402D01*
G03X1441044Y-1242314I0J35814D01*
G01X1483071D01*
G03X1509090Y-1253518I26019J24610D01*
G01X1538334D01*
G01X1596698Y-1311882D01*
G01X1509090D01*
G03X1473276Y-1347696I0J-35814D01*
G01Y-1407696D01*
G03X1500886Y-1442558I35814J0D01*
G01Y-1527150D01*
G01X1481991D01*
G03X1452900Y-1512226I-29090J-20890D01*
G01X1366500D01*
G03X1330686Y-1548040I0J-35814D01*
G01Y-1628687D01*
G03X1358966Y-1663700I35814J0D01*
G03X1330686Y-1698713I7534J-35013D01*
G01Y-1779360D01*
G03X1366500Y-1815174I35814J0D01*
G01X1452900D01*
G03X1488714Y-1779360I0J35814D01*
G01Y-1757176D01*
G03X1522400Y-1780827I33685J12163D01*
G01X1576400D01*
G03X1604946Y-1766642I0J35814D01*
G03X1645085Y-1748793I-3146J61133D01*
G01X1650226Y-1743653D01*
G03X1662100Y-1745678I11874J33788D01*
G01X1716100D01*
G03X1738741Y-1737614I0J35814D01*
G01X1778000D01*
G03X1821285Y-1719685I0J61214D01*
G01X2065846Y-1475123D01*
G03X2082800Y-1477518I16954J58819D01*
G01X2288940D01*
G01X2359373Y-1547951D01*
G01Y-1563700D01*
G03X2373478Y-1592184I35814J0D01*
G01Y-1640763D01*
G03X2362200Y-1651723I18712J-30537D01*
G03X2332210Y-1635486I-29990J-19577D01*
G01X2252210D01*
G03X2216396Y-1671300I0J-35814D01*
G01Y-1757700D01*
G03X2243696Y-1792488I35814J0D01*
G01Y-1815832D01*
G03X2219686Y-1866900I42304J-51068D01*
G03X2221401Y-1881886I66314J0D01*
G01X1346200D01*
G03X1332430Y-1883881I0J-48514D01*
G02X1209470Y-1901698I-122960J415389D01*
G01X1088921D01*
G03X1084527Y-1901897I0J-48514D01*
G01X981422D01*
G03X933107Y-1950212I0J-48315D01*
G01X933127Y-1951612D01*
G02X923305Y-1946895I1802J16341D01*
G03X921169Y-1944886I-34305J-34305D01*
G02X739496Y-1541241I357573J403644D01*
G01Y-1484405D01*
G01X751387Y-1472514D01*
G01X785096D01*
G03X800100Y-1469220I0J35814D01*
G03X815104Y-1472514I15004J32520D01*
G01X894113D01*
G03X929927Y-1436700I0J35814D01*
G01Y-1382700D01*
G03X894113Y-1346886I-35814J0D01*
G01X815104D01*
G03X800100Y-1350180I0J-35814D01*
G03X785096Y-1346886I-15004J-32520D01*
G01X706087D01*
G03X695501Y-1348486I0J-35814D01*
G01X628250D01*
G03X617665Y-1346886I-10586J-34214D01*
G01X617664D01*
G01X561099D01*
G03X546100Y-1350178I0J-35814D01*
G03X531101Y-1346886I-14999J-32522D01*
G01X474536D01*
G03X438722Y-1382700I0J-35814D01*
G01Y-1436700D01*
G03X442413Y-1452537I35814J0D01*
G03X494910Y-1503319I60405J9919D01*
G01X543204Y-1551614D01*
G01Y-1569201D01*
G03X543543Y-1592705I816378J0D01*
G03X469675Y-1564494I-73868J-82603D01*
G01X349673D01*
G03X238859Y-1675308I0J-110814D01*
G03X349673Y-1786122I110814J0D01*
G01X469675D01*
G03X560894Y-1738227I0J110814D01*
G03X791756Y-2155757I798689J169026D01*
G03X803884Y-2164332I33744J34857D01*
G03X894851Y-2196847I90967J110991D01*
G03X913362Y-2195648I0J143506D01*
G01X933329D01*
G03X933107Y-2200275I48093J-4627D01*
G03X940074Y-2225269I48315J0D01*
G03X933107Y-2250262I41348J-24994D01*
G03X940082Y-2275268I48315J0D01*
G03X933107Y-2300275I41340J-25006D01*
G03X940082Y-2325281I48315J0D01*
G03X933107Y-2350287I41340J-25006D01*
G03X940082Y-2375294I48315J0D01*
G03X933107Y-2400300I41340J-25006D01*
G03X940082Y-2425306I48315J0D01*
G03X933107Y-2450313I41340J-25006D01*
G03X940082Y-2475319I48315J0D01*
G03X933107Y-2500325I41340J-25006D01*
G03X940082Y-2525331I48315J0D01*
G03X933107Y-2550338I41340J-25006D01*
G03X940074Y-2575331I48315J0D01*
G03X933107Y-2600325I41348J-24994D01*
G03X940082Y-2625331I48315J0D01*
G03X933107Y-2650338I41340J-25006D01*
G03X940082Y-2675344I48315J0D01*
G03X933107Y-2700350I41340J-25006D01*
G03X940082Y-2725356I48315J0D01*
G03X933107Y-2750363I41340J-25006D01*
G03X940082Y-2775369I48315J0D01*
G03X933107Y-2800375I41340J-25006D01*
G03X940082Y-2825382I48315J0D01*
G03X933107Y-2850388I41340J-25006D01*
G03X981422Y-2898703I48315J0D01*
G01X1084527D01*
G03X1088921Y-2898902I4394J48315D01*
G01X1219312D01*
G03X1244600Y-2906014I25288J41402D01*
G01X1374779D01*
G03X1387483Y-2904490I-0J53717D01*
G01X1466342D01*
G01X1667460D01*
G01X1667495Y-2904505D01*
G03X1701800Y-2918714I34305J34305D01*
G01X1983379D01*
G03X2047018Y-2902805I0J135235D01*
G03X2090501Y-2928315I43483J24304D01*
G01X2151685D01*
G01Y-2989499D01*
G01X2151689Y-2990149D01*
G03X2110486Y-3048000I20011J-57851D01*
G03X2137471Y-3098750I61214J0D01*
G01X1961480D01*
G03X1932000Y-3083273I-29479J-20337D01*
G01X1878000D01*
G03X1852046Y-3094409I0J-35814D01*
G03X1824502Y-3081486I-27543J-22891D01*
G01X1744502D01*
G03X1714500Y-3097743I0J-35814D01*
G03X1684498Y-3081486I-30002J-19557D01*
G01X1604498D01*
G03X1568684Y-3117300I0J-35814D01*
G01Y-3207300D01*
G03X1604498Y-3243114I35814J0D01*
G01X1684498D01*
G03X1714500Y-3226857I0J35814D01*
G03X1744502Y-3243114I30002J19557D01*
G01X1824502D01*
G03X1842186Y-3238444I0J35814D01*
G01Y-3307113D01*
G03X1878000Y-3342927I35814J0D01*
G01X1932000D01*
G03X1967814Y-3307113I0J35814D01*
G01Y-3228104D01*
G03X1964520Y-3213100I-35814J0D01*
G03X1967814Y-3198096I-32520J15004D01*
G01Y-3195778D01*
G01X2313686D01*
G01Y-3239186D01*
G01X2301004D01*
G03X2286000Y-3242480I0J-35814D01*
G03X2270996Y-3239186I-15004J-32520D01*
G01X2191987D01*
G03X2156173Y-3275000I0J-35814D01*
G01Y-3329000D01*
G03X2191987Y-3364814I35814J0D01*
G01X2270996D01*
G03X2286000Y-3361520I0J35814D01*
G03X2301004Y-3364814I15004J32520D01*
G01X2313686D01*
G01Y-3409153D01*
G03X2286000Y-3430228I5118J-35446D01*
G03X2253196Y-3408785I-32804J-14371D01*
G01X2237941D01*
G03X2209800Y-3399790I-28141J-39519D01*
G01X2128367D01*
G03X2097710Y-3382490I-30657J-18514D01*
G01X1997710D01*
G03X1977404Y-3388803I0J-35814D01*
G03X1945582Y-3379882I-31821J-52293D01*
G03X1908252Y-3392582I0J-61214D01*
G01X1862610D01*
G03X1837690Y-3382490I-24920J-25722D01*
G01X1737690D01*
G03X1704098Y-3405886I0J-35814D01*
G01X1680957D01*
G03X1645200Y-3372084I-35757J-2012D01*
G01X1555200D01*
G03X1543690Y-3373984I0J-35814D01*
G01X1454302D01*
G03X1402037Y-3395633I0J-73914D01*
G01X1052695Y-3744975D01*
G03X1031306Y-3737887I-21389J-28726D01*
G01X871306D01*
G03X835492Y-3773701I0J-35814D01*
G01Y-3933701D01*
G03X871306Y-3969515I35814J0D01*
G01X1009025D01*
G01X1138936Y-4099425D01*
G01Y-4241800D01*
G03X1155005Y-4280595I54864J0D01*
G01X1207405Y-4332995D01*
G03X1209715Y-4335174I38795J38795D01*
G03X1208888Y-4344213I48988J-9039D01*
G01X1208909Y-4345686D01*
G01X1112295D01*
G01X1067075Y-4300465D01*
G03X1009726Y-4203713I-115768J-3247D01*
G03X1067120Y-4103713I-58420J100000D01*
G03X951306Y-3987899I-115814J0D01*
G03X835492Y-4103713I0J-115814D01*
G03X842640Y-4143770I115814J0D01*
G01X778495Y-4207915D01*
G03X764286Y-4242219I34305J-34305D01*
G01Y-4356100D01*
G03X778495Y-4390405I48514J0D01*
G01X864794Y-4476703D01*
G03X835492Y-4553699I86512J-76996D01*
G03X951306Y-4669513I115814J0D01*
G03X1067120Y-4553699I0J115814D01*
G03X1049770Y-4492727I-115814J0D01*
G01X1208909D01*
G01X1208888Y-4494200D01*
G03X1258702Y-4544014I49814J0D01*
G01X1392702D01*
G03X1442517Y-4494200I0J49814D01*
G03X1435793Y-4469206I-49814J0D01*
G03X1442517Y-4444213I-43091J24994D01*
G03X1435786Y-4419206I-49814J0D01*
G03X1441232Y-4405441I-43083J25006D01*
G01X1451065Y-4415275D01*
G03X1511300Y-4467714I60235J8375D01*
G03X1572114Y-4406900I0J60814D01*
G03X1519675Y-4346665I-60814J0D01*
G01X1482917Y-4309908D01*
G03X1448613Y-4295699I-34305J-34305D01*
G01X1442494D01*
G01X1442517Y-4294200D01*
G03X1392702Y-4244386I-49814J0D01*
G01X1348693D01*
G03X1325702Y-4239336I-22991J-49814D01*
G01X1268926D01*
G01X1248664Y-4219075D01*
G01Y-4076700D01*
G03X1232595Y-4037905I-54864J0D01*
G01X1100710Y-3906020D01*
G01X1484919Y-3521812D01*
G01X1530666D01*
G03X1519386Y-3547902I24534J-26091D01*
G01Y-3627902D01*
G03X1555200Y-3663716I35814J0D01*
G01X1645200D01*
G03X1681014Y-3627902I0J35814D01*
G01Y-3547902D01*
G03X1664757Y-3517900I-35814J0D01*
G03X1677714Y-3502914I-19557J30002D01*
G01X1711671D01*
G03X1737690Y-3514118I26019J24610D01*
G01X1784895D01*
G01X1843781Y-3573004D01*
G03X1837690Y-3572482I-6091J-35292D01*
G01X1737690D01*
G03X1701876Y-3608296I0J-35814D01*
G01Y-3668296D01*
G03X1737690Y-3704110I35814J0D01*
G01X1739176D01*
G01Y-3753627D01*
G03X1728126Y-3779500I24764J-25873D01*
G01Y-3865900D01*
G03X1755750Y-3900765I35814J0D01*
G01Y-3903952D01*
G03X1744925Y-3913022I17137J-31448D01*
G01X1679214D01*
G01Y-3908513D01*
G03X1650934Y-3873500I-35814J0D01*
G03X1679214Y-3838487I-7534J35013D01*
G01Y-3757840D01*
G03X1643400Y-3722026I-35814J0D01*
G01X1557000D01*
G03X1521186Y-3757840I0J-35814D01*
G01Y-3838487D01*
G03X1549466Y-3873500I35814J0D01*
G03X1521186Y-3908513I7534J-35013D01*
G01Y-3989160D01*
G03X1557000Y-4024974I35814J0D01*
G01X1643400D01*
G03X1672491Y-4010050I0J35814D01*
G01X1743626D01*
G03X1772887Y-4025214I29261J20650D01*
G01X1851896D01*
G03X1866900Y-4021920I0J35814D01*
G03X1881904Y-4025214I15004J32520D01*
G01X1960913D01*
G03X1996727Y-3989400I0J35814D01*
G01Y-3935400D01*
G03X1973076Y-3901714I-35814J0D01*
G01X1995260D01*
G03X2030678Y-3871214I0J35814D01*
G01X2051456D01*
G03X2087098Y-3903514I35641J3514D01*
G01X2167098D01*
G03X2197100Y-3887257I0J35814D01*
G03X2227102Y-3903514I30002J19557D01*
G01X2307102D01*
G03X2315336Y-3902555I0J35814D01*
G01X2248907Y-3968984D01*
G01X2215600D01*
G03X2184650Y-3986778I0J-35814D01*
G01X2176685D01*
G03X2147900Y-3972273I-28785J-21309D01*
G01X2093900D01*
G03X2058086Y-4008087I0J-35814D01*
G01Y-4087096D01*
G03X2061380Y-4102100I35814J0D01*
G03X2058086Y-4117104I32520J-15004D01*
G01Y-4196113D01*
G03X2093900Y-4231927I35814J0D01*
G01X2147900D01*
G03X2179786Y-4212420I0J35814D01*
G01Y-4224802D01*
G03X2215600Y-4260616I35814J0D01*
G01X2305600D01*
G03X2341414Y-4224802I0J35814D01*
G01Y-4144802D01*
G03X2325157Y-4114800I-35814J0D01*
G03X2332531Y-4108406I-19557J30002D01*
G01X2353769D01*
G03X2361143Y-4114800I26931J23608D01*
G03X2344886Y-4144802I19557J-30002D01*
G01Y-4224802D01*
G03X2380700Y-4260616I35814J0D01*
G01X2414475D01*
G01X2380205Y-4294886D01*
G01X1864508D01*
G01X1864512Y-4294200D01*
G03X1814698Y-4244386I-49814J0D01*
G01X1680698D01*
G03X1630883Y-4294200I0J-49814D01*
G03X1637614Y-4319206I49814J0D01*
G03X1630883Y-4344213I43083J-25006D01*
G03X1637607Y-4369206I49814J0D01*
G03X1630883Y-4394200I43091J-24994D01*
G03X1637614Y-4419206I49814J0D01*
G03X1630883Y-4444213I43083J-25006D01*
G03X1637607Y-4469206I49814J0D01*
G03X1630883Y-4494200I43091J-24994D01*
G03X1680698Y-4544014I49814J0D01*
G01X1743914D01*
G03X1749298Y-4544314I5384J48214D01*
G01X1846805D01*
G01X1895565Y-4593075D01*
G03X1955800Y-4645514I60235J8375D01*
G03X2012008Y-4607917I0J60814D01*
G01X2024015Y-4619924D01*
G03X2021986Y-4635500I58785J-15576D01*
G03X2082800Y-4696314I60814J0D01*
G03X2143614Y-4635500I0J60814D01*
G03X2129318Y-4596329I-60814J0D01*
G03X2117105Y-4575795I-46518J-13771D01*
G01X1984023Y-4442714D01*
G01X2407590D01*
G03X2441895Y-4428505I0J48514D01*
G01X2607076Y-4263323D01*
G01Y-4276399D01*
G03X2609928Y-4290403I35814J0D01*
G03X2607076Y-4304407I32962J-14004D01*
G01Y-4321378D01*
G01X2589708D01*
G03X2555403Y-4335588I0J-48514D01*
G01X2493525Y-4397465D01*
G03X2441086Y-4457700I8375J-60235D01*
G03X2501900Y-4518514I60814J0D01*
G03X2540550Y-4504653I0J60814D01*
G03X2590800Y-4531214I50250J34253D01*
G03X2607076Y-4528995I0J60814D01*
G01Y-4541397D01*
G03X2642890Y-4577211I35814J0D01*
G01X2762890D01*
G03X2798634Y-4543643I0J35814D01*
G01X2866831Y-4611841D01*
G03X2852813Y-4631284I20366J-29459D01*
G01X2824087D01*
G03X2789702Y-4605486I-34385J-10016D01*
G01X2709702D01*
G03X2679700Y-4621743I0J-35814D01*
G03X2649698Y-4605486I-30002J-19557D01*
G01X2569698D01*
G03X2533884Y-4641300I0J-35814D01*
G01Y-4731300D01*
G03X2569698Y-4767114I35814J0D01*
G01X2649698D01*
G03X2679700Y-4750857I0J35814D01*
G03X2709702Y-4767114I30002J19557D01*
G01X2789702D01*
G37*
G36*
G01X1095684Y-3236106D02*
G03X1206497Y-3125292I0J110814D01*
G03X1095684Y-3014478I-110814J0D01*
G01X915687D01*
G03X804873Y-3125292I0J-110814D01*
G03X915687Y-3236106I110814J0D01*
G01X1095684D01*
G37*
G36*
G01X804873Y-1675308D02*
G03X915687Y-1786122I110814J0D01*
G01X1095684D01*
G03X1206497Y-1675308I0J110814D01*
G03X1095684Y-1564494I-110814J0D01*
G01X915687D01*
G03X804873Y-1675308I0J-110814D01*
G37*
G36*
G01X238859Y-3125292D02*
G03X349673Y-3236106I110814J0D01*
G01X469675D01*
G03X580489Y-3125292I0J110814D01*
G03X469675Y-3014478I-110814J0D01*
G01X349673D01*
G03X238859Y-3125292I0J-110814D01*
G37*
G36*
G01X625480Y-3558705D02*
G03X726294Y-3659519I100814J0D01*
G01X876294D01*
G03X977108Y-3558705I0J100814D01*
G03X876294Y-3457891I-100814J0D01*
G01X726294D01*
G03X625480Y-3558705I0J-100814D01*
G37*
G36*
G01X4749035Y-2921203D02*
G03X4834849Y-3007017I85814J0D01*
G01X4894849D01*
G03X4980663Y-2921203I0J85814D01*
G03X4894849Y-2835389I-85814J0D01*
G01X4834849D01*
G03X4749035Y-2921203I0J-85814D01*
G37*
G36*
G01X86637Y-1016203D02*
G03X172451Y-1102017I85814J0D01*
G01X232451D01*
G03X318265Y-1016203I0J85814D01*
G03X232451Y-930389I-85814J0D01*
G01X172451D01*
G03X86637Y-1016203I0J-85814D01*
G37*
G36*
G01X4894849Y-2143011D02*
G03X4980663Y-2057197I0J85814D01*
G03X4894849Y-1971383I-85814J0D01*
G01X4834849D01*
G03X4749035Y-2057197I0J-85814D01*
G03X4834849Y-2143011I85814J0D01*
G01X4894849D01*
G37*
%LPD*%
G36*
G01X904416Y-2098824D02*
G02X894851Y-2099819I-9565J45483D01*
G02X861986Y-2086206I0J46478D01*
G03X851077Y-2078011I-34305J-34305D01*
G02X640232Y-1569201I508506J508809D01*
G01Y-1531518D01*
G03X626023Y-1497214I-48514J0D01*
G01X601323Y-1472514D01*
G01X617664D01*
G01X617665D01*
G03X628250Y-1470914I0J35814D01*
G01X642468D01*
G01Y-1541241D01*
G03X855864Y-2016657I636275J0D01*
G03X933131Y-2048724I79065J81386D01*
G01X933107Y-2050237D01*
G03X940082Y-2075243I48315J0D01*
G03X933135Y-2098620I41340J-25006D01*
G01X923359D01*
G03X914400Y-2097786I-8959J-47680D01*
G03X904416Y-2098824I0J-48514D01*
G37*
G36*
G01X1373100Y-2302510D02*
G02X1342405Y-2289795I0J43410D01*
G03X1250581Y-2251761I-91824J-91824D01*
G01X1244711D01*
G01X1244735Y-2250262D01*
G03X1237768Y-2225269I-48315J0D01*
G03X1244735Y-2200275I-41348J24994D01*
G03X1244513Y-2195648I-48315J0D01*
G01X1823690D01*
G03X1813273Y-2220900I25397J-25251D01*
G01Y-2274900D01*
G03X1813636Y-2279985I35814J0D01*
G01X1721840D01*
G01X1721839D01*
G03X1667495Y-2302495I0J-76854D01*
G01X1667460Y-2302510D01*
G01X1466342D01*
G01X1378458D01*
G01X1373100D01*
G37*
G36*
G01X1762473Y-2767243D02*
G03X1757974Y-2770886I28227J-39457D01*
G01X1722641D01*
G03X1689100Y-2757424I-33541J-35052D01*
G01X1536192D01*
G01Y-2754376D01*
G01X1694700D01*
G03X1759960Y-2728214I0J94476D01*
G01X1762473D01*
G01Y-2767243D01*
G37*
G36*
G01X1536192Y-2452624D02*
G01X1536192Y-2448814D01*
G01X1689100D01*
G03X1710055Y-2444055I0J48514D01*
G02X1749773Y-2430641I75037J-156679D01*
G01Y-2452624D01*
G01X1536192D01*
G37*
G36*
G01X1751914Y-1615186D02*
G01X1751914Y-1566736D01*
G01Y-1566735D01*
G03X1716100Y-1530921I-35814J0D01*
G01X1662100D01*
G03X1648022Y-1533804I0J-35814D01*
G01X1623314D01*
G01Y-1440564D01*
G03X1644904Y-1407696I-14224J32868D01*
G01Y-1360088D01*
G01X1661304Y-1376488D01*
G03X1671215Y-1389485I53196J30288D01*
G01X1702711Y-1420981D01*
G03X1745996Y-1438910I43285J43285D01*
G01X1751551D01*
G03X1769110Y-1443510I17559J31214D01*
G01X1869110D01*
G03X1904924Y-1407696I0J35814D01*
G01Y-1347696D01*
G03X1900358Y-1330198I-35814J0D01*
G03X1904924Y-1312700I-31248J17498D01*
G01Y-1252700D01*
G03X1904724Y-1248918I-35814J0D01*
G01X1922885D01*
G01Y-1262596D01*
G03X1944328Y-1295400I35814J0D01*
G03X1922885Y-1328204I14371J-32804D01*
G01Y-1428204D01*
G03X1925703Y-1442128I35814J0D01*
G01X1752644Y-1615186D01*
G01X1751914D01*
G37*
G36*
G01X2087098Y-3741886D02*
G03X2051456Y-3774186I0J-35814D01*
G01X2030678D01*
G03X1995260Y-3743686I-35418J-5314D01*
G01X1914613D01*
G03X1879600Y-3771966I0J-35814D01*
G03X1844587Y-3743686I-35013J-7534D01*
G01X1836204D01*
G01Y-3704110D01*
G01X1837690D01*
G03X1873504Y-3668296I0J35814D01*
G01Y-3608296D01*
G03X1872982Y-3602205I-35814J0D01*
G01X1943378Y-3672601D01*
G03X1966271Y-3685449I34305J34305D01*
G03X1997710Y-3704110I31439J17153D01*
G01X2097710D01*
G03X2133524Y-3668296I0J35814D01*
G01Y-3646528D01*
G03X2153196Y-3652415I19672J29927D01*
G01X2228774D01*
G01X2139302Y-3741886D01*
G01X2087098D01*
G37*
G36*
G01X1961896Y-3513300D02*
G01X1961896Y-3553901D01*
G01X1897605Y-3489610D01*
G01X1908252D01*
G03X1945582Y-3502310I37330J48514D01*
G03X1964779Y-3499222I0J61214D01*
G03X1961896Y-3513300I32931J-14078D01*
G37*
G36*
G01X2504204Y-1473886D02*
G03X2489200Y-1477180I0J-35814D01*
G03X2474196Y-1473886I-15004J-32520D01*
G01X2458447D01*
G01X2357580Y-1373019D01*
G03X2314296Y-1355090I-43285J-43285D01*
G01X2166515D01*
G01Y-1328204D01*
G03X2145072Y-1295400I-35814J0D01*
G03X2166515Y-1262596I-14371J32804D01*
G01Y-1162596D01*
G03X2158739Y-1140314I-35814J0D01*
G01X2664450D01*
G03X2652657Y-1164934I53550J-40786D01*
G01X2594595Y-1222995D01*
G03X2580386Y-1257300I34305J-34305D01*
G01Y-1473886D01*
G01X2504204D01*
G37*
G36*
G01X2327895Y-3064495D02*
G03X2313686Y-3098750I34305J-34305D01*
G01X2205929D01*
G03X2232401Y-3055908I-34229J50750D01*
G01X2235804Y-3052505D01*
G03X2245360Y-3038933I-34305J34305D01*
G03X2251499Y-3039313I6139J49435D01*
G03X2276499Y-3032586I0J49814D01*
G03X2301499Y-3039313I25000J43087D01*
G03X2326499Y-3032586I0J49814D01*
G03X2351499Y-3039313I25000J43087D01*
G01X2352985Y-3039291D01*
G01Y-3039406D01*
G01X2327895Y-3064495D01*
G37*
G36*
G01X2341957Y-3875934D02*
G03X2342916Y-3867700I-34855J8234D01*
G01Y-3777700D01*
G03X2307102Y-3741886I-35814J0D01*
G01X2276521D01*
G01X2365992Y-3652415D01*
G01X2418804D01*
G03X2454618Y-3616601I0J35814D01*
G01Y-3444599D01*
G03X2418804Y-3408785I-35814J0D01*
G01X2410714D01*
G01Y-3356805D01*
G03X2433287Y-3364814I22573J27805D01*
G01X2504186D01*
G01Y-3706602D01*
G03X2463800Y-3692886I-40386J-52598D01*
G03X2397486Y-3759200I0J-66314D01*
G03X2414424Y-3803467I66314J0D01*
G01X2341957Y-3875934D01*
G37*
G36*
G01X2384773Y-1878000D02*
G01X2384773Y-1912922D01*
G03X2344346Y-1898416I-153557J-364362D01*
G03X2352314Y-1866900I-58346J31516D01*
G03X2340724Y-1829446I-66314J0D01*
G01Y-1792488D01*
G03X2362200Y-1777277I-8514J34787D01*
G03X2392190Y-1793514I29990J19577D01*
G01X2398005D01*
G01X2418473Y-1813982D01*
G03X2430124Y-1842186I60235J8375D01*
G01X2420587D01*
G03X2384773Y-1878000I0J-35814D01*
G37*
G36*
G01X2506514Y-4168577D02*
G01X2506514Y-4144802D01*
G03X2490257Y-4114800I-35814J0D01*
G03X2506514Y-4084798I-19557J30002D01*
G01Y-4004798D01*
G03X2470700Y-3968984I-35814J0D01*
G01X2386125D01*
G01X2498105Y-3857005D01*
G03X2504186Y-3849581I-34305J34305D01*
G01Y-3918102D01*
G03X2508484Y-3938065I48514J0D01*
G01Y-3994700D01*
G03X2544298Y-4030514I35814J0D01*
G01X2624298D01*
G03X2654300Y-4014257I0J35814D01*
G03X2684302Y-4030514I30002J19557D01*
G01X2764302D01*
G03X2800116Y-3994700I0J35814D01*
G01Y-3904700D01*
G03X2764302Y-3868886I-35814J0D01*
G01X2684302D01*
G03X2654300Y-3885143I0J-35814D01*
G03X2624298Y-3868886I-30002J-19557D01*
G01X2601214D01*
G01Y-3865414D01*
G01X2624298D01*
G03X2654300Y-3849157I0J35814D01*
G03X2684302Y-3865414I30002J19557D01*
G01X2764302D01*
G03X2800116Y-3829600I0J35814D01*
G01Y-3739600D01*
G03X2764302Y-3703786I-35814J0D01*
G01X2753955D01*
G03X2767914Y-3675413I-21854J28373D01*
G01Y-3596404D01*
G03X2764620Y-3581400I-35814J0D01*
G03X2767914Y-3566396I-32520J15004D01*
G01Y-3487387D01*
G03X2753614Y-3458755I-35814J0D01*
G01Y-3245610D01*
G03X2771414Y-3200400I-48514J45210D01*
G03X2753614Y-3155190I-66314J0D01*
G01Y-3039268D01*
G03X2777985Y-3031689I-2113J49770D01*
G01Y-3550399D01*
G03X2792195Y-3584704I48514J0D01*
G01X2843914Y-3636423D01*
G03X2796686Y-3695700I13586J-59277D01*
G03X2808986Y-3732371I60814J0D01*
G01Y-4062262D01*
G03X2781300Y-4053586I-27686J-39838D01*
G01X2641600D01*
G03X2607295Y-4067795I0J-48514D01*
G01X2506514Y-4168577D01*
G37*
G36*
G01X2433287Y-3239186D02*
G03X2410714Y-3247195I0J-35814D01*
G01Y-3229805D01*
G03X2433287Y-3237814I22573J27805D01*
G01X2504186D01*
G01Y-3239186D01*
G01X2433287D01*
G37*
G36*
G01X2433287Y-3112186D02*
G03X2410714Y-3120195I0J-35814D01*
G01Y-3118895D01*
G01X2435803Y-3093806D01*
G03X2450013Y-3059501I-34305J34305D01*
G01Y-3039291D01*
G01X2451499Y-3039313D01*
G03X2476500Y-3032585I0J49814D01*
G03X2501501Y-3039313I25001J43086D01*
G03X2504186Y-3039241I0J49814D01*
G01Y-3112186D01*
G01X2433287D01*
G37*
G36*
G01X2486386Y-2870034D02*
G03X2476500Y-2874414I15115J-47466D01*
G03X2451499Y-2867685I-25001J-43086D01*
G03X2440775Y-2868853I0J-49814D01*
G03X2434605Y-2861295I-40475J-26747D01*
G01X2417635Y-2844326D01*
G01X2491642D01*
G03X2486386Y-2870034I61058J-25874D01*
G37*
G36*
G01X2580386Y-1838677D02*
G01X2538942Y-1797233D01*
G03X2508004Y-1752315I-60235J-8375D01*
G01Y-1671300D01*
G03X2495906Y-1644463I-35814J0D01*
G01Y-1598540D01*
G03X2504204Y-1599514I8298J34839D01*
G01X2580386D01*
G01Y-1693101D01*
G03X2559622Y-1725600I15050J-32499D01*
G01Y-1779600D01*
G03X2580386Y-1812099I35814J0D01*
G01Y-1838677D01*
G37*
G36*
G01X2665684Y-3709006D02*
G03X2654300Y-3720043I18618J-30594D01*
G03X2624298Y-3703786I-30002J-19557D01*
G01X2601214D01*
G01Y-3364814D01*
G01X2621313D01*
G03X2656586Y-3335202I0J35814D01*
G01Y-3458755D01*
G03X2642286Y-3487387I21514J-28632D01*
G01Y-3566396D01*
G03X2645580Y-3581400I35814J0D01*
G03X2642286Y-3596404I32520J-15004D01*
G01Y-3675413D01*
G03X2665684Y-3709006I35814J0D01*
G37*
G36*
G01X2741666Y-2868666D02*
G03X2726501Y-2874413I9835J-48834D01*
G03X2701501Y-2867685I-25000J-43087D01*
G03X2676501Y-2874413I0J-49814D01*
G03X2651501Y-2867685I-25000J-43087D01*
G03X2626501Y-2874413I0J-49814D01*
G03X2619011Y-2870864I-25000J-43087D01*
G01X2619014Y-2870200D01*
G03X2613758Y-2844326I-66314J0D01*
G01X2681487D01*
G03X2717301Y-2808512I0J35814D01*
G01Y-2659997D01*
G01X2720509Y-2663205D01*
G03X2740786Y-2675342I34305J34305D01*
G03X2740685Y-2678501I49714J-3159D01*
G03X2747413Y-2703501I49814J0D01*
G03X2740685Y-2728501I43087J-25000D01*
G03X2747413Y-2753501I49814J0D01*
G03X2740685Y-2778501I43087J-25000D01*
G03X2747413Y-2803501I49814J0D01*
G03X2740685Y-2828501I43087J-25000D01*
G03X2747413Y-2853501I49814J0D01*
G03X2741666Y-2868666I43087J-25000D01*
G37*
G36*
G01X2717301Y-2509990D02*
G01X2717301Y-2398513D01*
G03X2681487Y-2362699I-35814J0D01*
G01X2643087D01*
G03X2644414Y-2349500I-64987J13199D01*
G01X2644410Y-2348736D01*
G03X2648211Y-2339206I-42909J22637D01*
G03X2651501Y-2339315I3290J49706D01*
G03X2676002Y-2332873I0J49814D01*
G03X2701501Y-2340115I25499J41272D01*
G03X2726501Y-2333177I0J48514D01*
G03X2741836Y-2339142I25000J41577D01*
G03X2747413Y-2353499I48664J10643D01*
G03X2740685Y-2378499I43087J-25000D01*
G03X2747413Y-2403499I49814J0D01*
G03X2740685Y-2428499I43087J-25000D01*
G03X2747413Y-2453499I49814J0D01*
G03X2740685Y-2478499I43087J-25000D01*
G03X2741434Y-2487105I49814J0D01*
G03X2734295Y-2492995I27166J-40195D01*
G01X2717301Y-2509990D01*
G37*
G36*
G01X3241660Y-3570986D02*
G03X3244017Y-3558207I-33457J12779D01*
G01Y-3418208D01*
G03X3208203Y-3382394I-35814J0D01*
G01X3088203D01*
G03X3060700Y-3395268I0J-35814D01*
G03X3033197Y-3382394I-27503J-22940D01*
G01X2913197D01*
G03X2877383Y-3418208I0J-35814D01*
G01Y-3532674D01*
G01X2875013Y-3530304D01*
G01Y-2926718D01*
G03X2897886Y-2913561I-12515J48217D01*
G01Y-3053538D01*
G03X2880073Y-3084500I18001J-30961D01*
G01Y-3138500D01*
G03X2894813Y-3167457I35814J0D01*
G03X2877383Y-3198193I18384J-30735D01*
G01Y-3338192D01*
G03X2913197Y-3374006I35814J0D01*
G01X3033197D01*
G03X3060700Y-3361132I0J35814D01*
G03X3088203Y-3374006I27503J22940D01*
G01X3208203D01*
G03X3244017Y-3338192I0J35814D01*
G01Y-3198193D01*
G03X3208203Y-3162379I-35814J0D01*
G01X3130605D01*
G03X3139727Y-3138500I-26692J23879D01*
G01Y-3084500D01*
G03X3103913Y-3048686I-35814J0D01*
G01X3024904D01*
G03X3009900Y-3051980I0J-35814D01*
G03X2994914Y-3048686I-15004J-32520D01*
G01Y-2882900D01*
G01X2994854Y-2880481D01*
G01X2997886Y-2883513D01*
G01Y-2906001D01*
G03X3001178Y-2921000I35814J0D01*
G03X2997886Y-2935999I32522J-14999D01*
G01Y-2992564D01*
G03X3033700Y-3028378I35814J0D01*
G01X3087700D01*
G03X3123514Y-2992564I0J35814D01*
G01Y-2935999D01*
G03X3120222Y-2921000I-35814J0D01*
G03X3123514Y-2906001I-32522J14999D01*
G01Y-2849436D01*
G01Y-2849435D01*
G03X3097935Y-2815115I-35814J0D01*
G01X3140476D01*
G01Y-2832993D01*
G03X3143328Y-2846997I35814J0D01*
G03X3140476Y-2861001I32962J-14004D01*
G01Y-2886003D01*
G03X3143328Y-2900007I35814J0D01*
G03X3140476Y-2914011I32962J-14004D01*
G01Y-2939012D01*
G03X3143322Y-2953004I35814J0D01*
G03X3140476Y-2966996I32968J-13992D01*
G01Y-2991997D01*
G03X3176290Y-3027811I35814J0D01*
G01X3296290D01*
G03X3329780Y-3004689I0J35814D01*
G01X3342386Y-3017295D01*
G01Y-3118084D01*
G01X3333200D01*
G03X3297386Y-3153898I0J-35814D01*
G01Y-3233898D01*
G03X3313643Y-3263900I35814J0D01*
G03X3297386Y-3293902I19557J-30002D01*
G01Y-3373902D01*
G03X3318785Y-3406687I35814J0D01*
G03X3302686Y-3436587I19714J-29900D01*
G01Y-3515596D01*
G03X3305980Y-3530600I35814J0D01*
G03X3302686Y-3545604I32520J-15004D01*
G01Y-3570986D01*
G01X3241660D01*
G37*
G36*
G01X3039095Y-3839195D02*
G01X2969514Y-3908777D01*
G01Y-3783171D01*
G03X2981814Y-3746500I-48514J36671D01*
G03X2921000Y-3685686I-60814J0D01*
G03X2917501Y-3685787I0J-60814D01*
G03X2911646Y-3668014I-60001J-9913D01*
G01X3155024D01*
G01X3331108D01*
G03X3357158Y-3660427I0J48514D01*
G01X3392500D01*
G03X3428314Y-3624613I0J35814D01*
G01Y-3545604D01*
G03X3425020Y-3530600I-35814J0D01*
G03X3428314Y-3515596I-32520J15004D01*
G01Y-3436587D01*
G03X3416177Y-3409716I-35814J0D01*
G01X3423200D01*
G03X3459014Y-3373902I0J35814D01*
G01Y-3349823D01*
G01X3584377Y-3475186D01*
G01X3509498D01*
G03X3473684Y-3511000I0J-35814D01*
G01Y-3601000D01*
G03X3509498Y-3636814I35814J0D01*
G01X3540079D01*
G01X3351907Y-3824986D01*
G01X3073400D01*
G03X3039095Y-3839195I0J-48514D01*
G37*
G36*
G01X3784600Y-1219266D02*
G03X3749587Y-1190986I-35013J-7534D01*
G01X3668940D01*
G03X3647148Y-1198378I0J-35814D01*
G01X3497685Y-1048915D01*
G03X3454400Y-1030986I-43285J-43285D01*
G01X3047956D01*
G01X3007614Y-990644D01*
G01Y-980079D01*
G03X3009900Y-971101I-61214J20367D01*
G03X3073400Y-1024225I63500J11390D01*
G03X3137913Y-959711I0J64513D01*
G01Y-947725D01*
G01X3202394D01*
G03X3224440Y-955314I22046J28224D01*
G01X3305087D01*
G03X3340100Y-927034I0J35814D01*
G03X3375113Y-955314I35013J7534D01*
G01X3455760D01*
G03X3491574Y-919500I0J35814D01*
G01Y-886732D01*
G01X3555092Y-823214D01*
G01X3633106D01*
G03X3619186Y-862998I49894J-39784D01*
G01Y-981499D01*
G03X3683000Y-1045313I63814J0D01*
G03X3746500Y-987819I0J63814D01*
G03X3810000Y-1045313I63500J6320D01*
G03X3873500Y-987819I0J63814D01*
G03X3875786Y-999528I63500J6320D01*
G01Y-1129481D01*
G01X3816652Y-1188615D01*
G03X3814012Y-1191426I43285J-43285D01*
G03X3784600Y-1219266I5600J-35373D01*
G37*
G36*
G01X3158723Y-4304162D02*
G03X3155872Y-4290403I-35813J-245D01*
G03X3158724Y-4276399I-32962J14004D01*
G01Y-4251397D01*
G03X3155878Y-4237406I-35814J0D01*
G03X3158724Y-4223414I-32968J13992D01*
G01Y-4198413D01*
G03X3155872Y-4184409I-35814J0D01*
G03X3158724Y-4170404I-32962J14004D01*
G01Y-4145403D01*
G03X3122910Y-4109589I-35814J0D01*
G01X3020314D01*
G01Y-3995195D01*
G01X3093495Y-3922014D01*
G01X3265313D01*
G03X3263979Y-3931699I34480J-9685D01*
G01Y-4051699D01*
G03X3274149Y-4076700I35814J0D01*
G03X3263979Y-4101701I25643J-25001D01*
G01Y-4198906D01*
G01X3158723Y-4304162D01*
G37*
G36*
G01X3496295Y-2429495D02*
G01X3429788Y-2496003D01*
G03X3439014Y-2463800I-51588J32203D01*
G03X3432099Y-2435635I-60814J0D01*
G03X3489814Y-2374900I-3099J60735D01*
G03X3468382Y-2328560I-60814J0D01*
G03X3471702Y-2328714I3321J35660D01*
G01X3551702D01*
G03X3587516Y-2292900I0J35814D01*
G01Y-2202900D01*
G03X3551702Y-2167086I-35814J0D01*
G01X3471702D01*
G03X3449104Y-2175116I0J-35814D01*
G01Y-2123810D01*
G01X3473983D01*
G03X3509797Y-2087996I0J35814D01*
G01Y-2038996D01*
G03X3473983Y-2003182I-35814J0D01*
G01X3356483D01*
G03X3326714Y-2019085I0J-35814D01*
G01Y-1945404D01*
G03X3323420Y-1930400I-35814J0D01*
G03X3326520Y-1919122I-32520J15004D01*
G01X3327558D01*
G03X3356483Y-1933818I28925J21119D01*
G01X3473983D01*
G03X3509797Y-1898004I0J35814D01*
G01Y-1849004D01*
G03X3473983Y-1813190I-35814J0D01*
G01X3356483D01*
G03X3332851Y-1822094I0J-35814D01*
G01X3323739D01*
G03X3290900Y-1800573I-32838J-14293D01*
G01X3236900D01*
G03X3201086Y-1836387I0J-35814D01*
G01Y-1915396D01*
G03X3204380Y-1930400I35814J0D01*
G03X3201086Y-1945404I32520J-15004D01*
G01Y-2024413D01*
G03X3236900Y-2060227I35814J0D01*
G01X3290900D01*
G03X3320669Y-2044324I0J35814D01*
G01Y-2087996D01*
G03X3352076Y-2123537I35814J0D01*
G01Y-2167086D01*
G01X3331698D01*
G03X3295884Y-2202900I0J-35814D01*
G01Y-2292900D01*
G03X3299568Y-2308722I35814J0D01*
G01X3190514Y-2417777D01*
G01Y-2379490D01*
G03X3174277Y-2349500I-35814J0D01*
G03X3190514Y-2319510I-19577J29990D01*
G01Y-2239510D01*
G03X3172314Y-2208327I-35814J0D01*
G01Y-1308100D01*
G03X3154502Y-1265098I-60814J0D01*
G01X3042818Y-1153414D01*
G01X3193143D01*
G03X3187186Y-1181100I61357J-27686D01*
G03X3232163Y-1244600I67314J0D01*
G03X3187186Y-1308100I22336J-63500D01*
G03X3232163Y-1371600I67314J0D01*
G03X3187186Y-1435100I22336J-63500D01*
G03X3232163Y-1498600I67314J0D01*
G03X3187186Y-1562100I22336J-63500D01*
G03X3254499Y-1629414I67314J0D01*
G01X3377999D01*
G03X3445313Y-1562100I0J67314D01*
G03X3400335Y-1498600I-67314J0D01*
G03X3445313Y-1435100I-22336J63500D01*
G03X3400335Y-1371600I-67314J0D01*
G03X3445313Y-1308100I-22336J63500D01*
G03X3400335Y-1244600I-67314J0D01*
G03X3445313Y-1181100I-22336J63500D01*
G03X3444122Y-1168491I-67314J0D01*
G01X3588915Y-1313285D01*
G03X3632200Y-1331214I43285J43285D01*
G01X3637986D01*
G03X3668940Y-1349014I30954J18014D01*
G01X3749587D01*
G03X3784600Y-1320734I0J35814D01*
G03X3819613Y-1349014I35013J7534D01*
G01X3885716D01*
G01X3878828Y-1355903D01*
G01X3826408D01*
G03X3805496Y-1359586I0J-61214D01*
G01X3786904D01*
G03X3771900Y-1362880I0J-35814D01*
G03X3756896Y-1359586I-15004J-32520D01*
G01X3677887D01*
G03X3642073Y-1395400I0J-35814D01*
G01Y-1449400D01*
G03X3677887Y-1485214I35814J0D01*
G01X3691277D01*
G01X3649225Y-1527265D01*
G03X3596786Y-1587500I8375J-60235D01*
G03X3657600Y-1648314I60814J0D01*
G03X3661099Y-1648213I0J60814D01*
G03X3721100Y-1699114I60001J9913D01*
G03X3781335Y-1646675I0J60814D01*
G01X3817395Y-1610614D01*
G01X3895105D01*
G03X3888486Y-1638300I54595J-27686D01*
G01Y-1825045D01*
G03X3865900Y-1817026I-22586J-27794D01*
G01X3779500D01*
G03X3756982Y-1824990I0J-35814D01*
G01X3730386D01*
G03X3703817Y-1813190I-26570J-24014D01*
G01X3588117D01*
G03X3552303Y-1849004I0J-35814D01*
G01Y-1898004D01*
G03X3560663Y-1921002I35814J0D01*
G03X3552303Y-1944000I27454J-22998D01*
G01Y-1993000D01*
G03X3560663Y-2015998I35814J0D01*
G03X3552303Y-2038996I27454J-22998D01*
G01Y-2087996D01*
G03X3588117Y-2123810I35814J0D01*
G01X3703817D01*
G03X3730386Y-2112010I0J35814D01*
G01X3756982D01*
G03X3779500Y-2119974I22517J27850D01*
G01X3865900D01*
G03X3894351Y-2105914I0J35814D01*
G01X3924344D01*
G01X3944515Y-2126085D01*
G03X3987800Y-2144014I43285J43285D01*
G03X3994787Y-2143614I0J61214D01*
G01X4088594D01*
G01Y-2155507D01*
G03X4106406Y-2198509I60814J0D01*
G01X4173576Y-2265680D01*
G01X4061206D01*
G03X4026901Y-2279889I0J-48514D01*
G01X3993105Y-2313686D01*
G01X3986397D01*
G03X3957765Y-2299386I-28632J-21514D01*
G01X3957764D01*
G01X3901199D01*
G03X3886200Y-2302678I0J-35814D01*
G03X3871201Y-2299386I-14999J-32522D01*
G01X3814636D01*
G03X3778822Y-2335200I0J-35814D01*
G01Y-2389200D01*
G03X3790096Y-2415286I35814J0D01*
G01X3530600D01*
G03X3496295Y-2429495I0J-48514D01*
G37*
G36*
G01X3732091Y-2014982D02*
G03X3739631Y-1993000I-28274J21982D01*
G01Y-1944000D01*
G03X3732091Y-1922018I-35814J0D01*
G01X3743686D01*
G01Y-1933487D01*
G03X3771966Y-1968500I35814J0D01*
G03X3743686Y-2003513I7534J-35013D01*
G01Y-2014982D01*
G01X3732091D01*
G37*
G36*
G01X3985349Y-3403600D02*
G03X3978174Y-3414264I25643J-25001D01*
G01X3934714Y-3370805D01*
G01Y-3073400D01*
G03X3920505Y-3039095I-48514J0D01*
G01X3749323Y-2867914D01*
G01X3781713D01*
G01X4136584Y-3222785D01*
G01X4010993D01*
G03X3975179Y-3258599I0J-35814D01*
G01Y-3378599D01*
G03X3985349Y-3403600I35814J0D01*
G37*
G36*
G01X4129786Y-2794000D02*
G01X4129786Y-2830540D01*
G01X3999161Y-2699915D01*
G03X3991225Y-2693224I-43285J-43285D01*
G03X4035390Y-2656517I-16125J64324D01*
G03X4068636Y-2679014I33246J13317D01*
G01X4125201D01*
G03X4140200Y-2675722I0J35814D01*
G03X4155199Y-2679014I14999J32522D01*
G01X4211764D01*
G01X4211765D01*
G03X4241800Y-2662707I0J35814D01*
G01X4247036D01*
G01Y-2669743D01*
G03X4211215Y-2687215I7464J-60757D01*
G01X4147715Y-2750715D01*
G03X4129786Y-2794000I43285J-43285D01*
G37*
G36*
G01X4032822Y-2589200D02*
G01X4032822Y-2596254D01*
G03X4006027Y-2570240I-57721J-32646D01*
G03X4023614Y-2527300I-43627J42940D01*
G03X4021751Y-2512314I-61214J0D01*
G01X4191412D01*
G01Y-2538126D01*
G03X4193875Y-2553386I48514J0D01*
G01X4155199D01*
G03X4140200Y-2556678I0J-35814D01*
G03X4125201Y-2553386I-14999J-32522D01*
G01X4068636D01*
G03X4032822Y-2589200I0J-35814D01*
G37*
G36*
G01X4182082Y-1778792D02*
G01X4182082Y-1869901D01*
G01X4123718Y-1811537D01*
G01Y-1778792D01*
G03X4098278Y-1744514I-35814J0D01*
G01X4110198D01*
G03X4140200Y-1728257I0J35814D01*
G03X4170202Y-1744514I30002J19557D01*
G01X4207522D01*
G03X4182082Y-1778792I10374J-34279D01*
G37*
G36*
G01X4247036Y-2166710D02*
G01X4247036Y-2167132D01*
G01X4218279Y-2138375D01*
G03X4218714Y-2132808I-35379J5567D01*
G01Y-2042414D01*
G01X4307311D01*
G03X4306028Y-2057197I84531J-14783D01*
G03X4317988Y-2100896I85814J0D01*
G01X4282850D01*
G03X4247036Y-2136710I0J-35814D01*
G01Y-2165387D01*
G01Y-2166710D01*
G37*
G36*
G01X4306053Y-2921203D02*
G03X4356713Y-2999486I85814J0D01*
G01X4254456D01*
G01X4252214Y-2997244D01*
G01Y-2978324D01*
G01Y-2859985D01*
G03X4283003Y-2877504I30789J18295D01*
G01X4318013D01*
G03X4306053Y-2921203I73854J-43699D01*
G37*
G36*
G01X4308886Y-1903745D02*
G03X4313710Y-1885793I-30990J17952D01*
G01Y-1784080D01*
G01X4358386Y-1828756D01*
G01Y-1854244D01*
G01X4308886Y-1903745D01*
G37*
G54D8191*
G01X4994186Y-4900000D02*
G02X4980000Y-4914186I-14186J0D01*
G01X1678814D01*
G01Y-4646400D01*
G03X1643000Y-4610586I-35814J0D01*
G01X1438000D01*
G03X1402186Y-4646400I0J-35814D01*
G01Y-4914186D01*
G01X952938D01*
G03X977108Y-4848695I-76644J65491D01*
G03X876294Y-4747881I-100814J0D01*
G01X726294D01*
G03X625480Y-4848695I0J-100814D01*
G03X649650Y-4914186I100814J0D01*
G01X100000D01*
G02X85814Y-4900000I0J14186D01*
G01Y-110000D01*
G02X100000Y-95814I14186J0D01*
G01X107759D01*
G03X86637Y-152197I64692J-56383D01*
G03X172451Y-238011I85814J0D01*
G01X232451D01*
G03X318265Y-152197I0J85814D01*
G03X297142Y-95814I-85814J0D01*
G01X500742D01*
G03X479619Y-152197I64692J-56383D01*
G03X534802Y-232358I85814J0D01*
G03X496634Y-295199I32646J-62841D01*
G03X535358Y-358326I70815J0D01*
G01X508394Y-385290D01*
G03X459886Y-444845I12306J-59556D01*
G01Y-698500D01*
G03X508394Y-758056I60814J0D01*
G01X554011Y-803673D01*
G03X496634Y-873201I13438J-69529D01*
G03X534813Y-936048I70815J0D01*
G03X479645Y-1016203I30646J-80155D01*
G03X565459Y-1102017I85814J0D01*
G01X675458D01*
G03X761272Y-1016203I0J85814D01*
G03X749312Y-972504I-85814J0D01*
G01X784450D01*
G03X820264Y-936690I0J35814D01*
G01Y-908013D01*
G01Y-906690D01*
G01Y-893514D01*
G01X1058989D01*
G01X1058990D01*
G03X1098867Y-878614I0J60814D01*
G01X1136493D01*
G01X1240693D01*
G01Y-937796D01*
G03X1276507Y-973610I35814J0D01*
G01X1383508D01*
G03X1419322Y-937796I0J35814D01*
G01Y-893805D01*
G01X1457673Y-932156D01*
G01Y-941400D01*
G03X1493487Y-977214I35814J0D01*
G01X1513349D01*
G03X1532992Y-980214I19643J62814D01*
G03X1552635Y-977214I0J65814D01*
G01X1572496D01*
G03X1587500Y-973920I0J35814D01*
G03X1602504Y-977214I15004J32520D01*
G01X1681513D01*
G03X1717327Y-941400I0J35814D01*
G01Y-887400D01*
G03X1681513Y-851586I-35814J0D01*
G01X1602504D01*
G03X1587500Y-854880I0J-35814D01*
G03X1572496Y-851586I-15004J-32520D01*
G01X1563252D01*
G01X1477929Y-766263D01*
G03X1431392Y-746986I-46537J-46537D01*
G01X1419322D01*
G01Y-687804D01*
G03X1383508Y-651990I-35814J0D01*
G01X1350197D01*
G01X1251970Y-553762D01*
G03X1231478Y-523765I-58170J-17738D01*
G01X1334348D01*
G03X1365447Y-505714I0J35814D01*
G01X1470637D01*
G01X1481828Y-516905D01*
G03X1516132Y-531114I34305J34305D01*
G01X1724380D01*
G01X1724373Y-531800D01*
G01Y-585800D01*
G03X1760187Y-621614I35814J0D01*
G01X1839196D01*
G03X1854200Y-618320I0J35814D01*
G03X1860194Y-620462I15004J32520D01*
G01Y-632218D01*
G03X1841500Y-646643I11308J-33982D01*
G03X1811498Y-630386I-30002J-19557D01*
G01X1731498D01*
G03X1695684Y-666200I0J-35814D01*
G01Y-756200D01*
G03X1731498Y-792014I35814J0D01*
G01X1811498D01*
G03X1841500Y-775757I0J35814D01*
G03X1871502Y-792014I30002J19557D01*
G01X1951502D01*
G03X1987316Y-756200I0J35814D01*
G01Y-666200D01*
G03X1957222Y-630846I-35814J0D01*
G01Y-620462D01*
G03X1984027Y-585800I-9009J34662D01*
G01Y-531800D01*
G01X1984020Y-531114D01*
G01X2273300D01*
G03X2307605Y-516905I0J48514D01*
G01X2345705Y-478805D01*
G03X2359739Y-448613I-34305J34305D01*
G03X2374900Y-417280I-48339J42723D01*
G03X2438400Y-470403I63500J11390D01*
G03X2501900Y-417280I0J64513D01*
G03X2516886Y-448414I63500J11390D01*
G01Y-522129D01*
G03X2504586Y-558800I48514J-36671D01*
G03X2565400Y-619614I60814J0D01*
G03X2626214Y-558800I0J60814D01*
G03X2613914Y-522129I-60814J0D01*
G01Y-448414D01*
G03X2628900Y-417280I-48514J42525D01*
G03X2643886Y-448414I63500J11390D01*
G01Y-471329D01*
G03X2631586Y-508000I48514J-36671D01*
G03X2692400Y-568814I60814J0D01*
G03X2753214Y-508000I0J60814D01*
G03X2740914Y-471329I-60814J0D01*
G01Y-448414D01*
G03X2755900Y-417280I-48514J42525D01*
G03X2819400Y-470403I63500J11390D01*
G03X2882900Y-417280I0J64513D01*
G03X2946400Y-470403I63500J11390D01*
G03X3009900Y-417280I0J64513D01*
G03X3073400Y-470403I63500J11390D01*
G03X3137913Y-405889I0J64513D01*
G01Y-259489D01*
G03X3073400Y-194975I-64513J0D01*
G03X3009900Y-248099I0J-64513D01*
G03X2946400Y-194975I-63500J-11390D01*
G03X2882900Y-248099I0J-64513D01*
G03X2819400Y-194975I-63500J-11390D01*
G03X2755900Y-248099I0J-64513D01*
G03X2692400Y-194975I-63500J-11390D01*
G03X2628900Y-248099I0J-64513D01*
G03X2565400Y-194975I-63500J-11390D01*
G03X2501900Y-248099I0J-64513D01*
G03X2438400Y-194975I-63500J-11390D01*
G03X2374900Y-248099I0J-64513D01*
G03X2311400Y-194975I-63500J-11390D01*
G03X2247900Y-248099I0J-64513D01*
G03X2184400Y-194975I-63500J-11390D01*
G03X2119887Y-259489I0J-64513D01*
G01Y-307086D01*
G01X1958799D01*
G03X1948213Y-305486I-10586J-34214D01*
G01X1869204D01*
G03X1854200Y-308780I0J-35814D01*
G03X1839196Y-305486I-15004J-32520D01*
G01X1760187D01*
G03X1724373Y-341300I0J-35814D01*
G01Y-395300D01*
G03X1760187Y-431114I35814J0D01*
G01X1839196D01*
G03X1854200Y-427820I0J35814D01*
G03X1869204Y-431114I15004J32520D01*
G01X1948213D01*
G03X1958799Y-429514I0J35814D01*
G01X2124368D01*
G03X2126375Y-434086I60032J23625D01*
G01X1911012D01*
G01X1536228D01*
G01X1525037Y-422895D01*
G03X1490732Y-408686I-34305J-34305D01*
G01X1370162D01*
G01Y-350249D01*
G03X1334348Y-314435I-35814J0D01*
G01X1221095D01*
G03X1185281Y-350249I0J-35814D01*
G01Y-487073D01*
G01X1176919Y-478712D01*
G01Y-350249D01*
G03X1141105Y-314435I-35814J0D01*
G01X1027852D01*
G03X992038Y-350249I0J-35814D01*
G01Y-487951D01*
G03X1027852Y-523765I35814J0D01*
G01X1050341D01*
G03X1054176Y-527977I46837J38790D01*
G01X1240693Y-714494D01*
G01Y-746986D01*
G01X1136493D01*
G01X1082993D01*
G01X1040275D01*
G03X1053414Y-719264I-22675J27722D01*
G01Y-662699D01*
G03X1050122Y-647700I-35814J0D01*
G03X1053414Y-632701I-32522J14999D01*
G01Y-576136D01*
G01Y-576135D01*
G03X1017600Y-540321I-35814J0D01*
G01X963600D01*
G03X927786Y-576135I0J-35814D01*
G01Y-576136D01*
G01Y-632701D01*
G03X931078Y-647700I35814J0D01*
G03X927786Y-662699I32522J-14999D01*
G01Y-685187D01*
G01X899486Y-713486D01*
G01X820264D01*
G01Y-708914D01*
G01X863600D01*
G03X877120Y-706992I0J48514D01*
G03X924414Y-647700I-13520J59292D01*
G03X912114Y-611029I-60814J0D01*
G01Y-591247D01*
G03X897905Y-556943I-48514J0D01*
G01X884372Y-543410D01*
G01X885060Y-543414D01*
G03X945874Y-482600I0J60814D01*
G03X913183Y-428679I-60814J0D01*
G01X924931Y-416931D01*
G03X939814Y-381000I-35931J35931D01*
G01Y-351248D01*
G01X1012348Y-278714D01*
G01X1013701D01*
G03X1028700Y-275422I0J35814D01*
G03X1043699Y-278714I14999J32522D01*
G01X1100264D01*
G01X1100265D01*
G03X1136079Y-242900I0J35814D01*
G01Y-188900D01*
G03X1100265Y-153086I-35814J0D01*
G01X1100264D01*
G01X1043699D01*
G03X1028700Y-156378I0J-35814D01*
G03X1013701Y-153086I-14999J-32522D01*
G01X957136D01*
G03X921322Y-188900I0J-35814D01*
G01Y-226017D01*
G01X853069Y-294269D01*
G03X838186Y-330200I35931J-35931D01*
G01Y-359952D01*
G01X818215Y-379923D01*
G03X819857Y-369203I-34172J10720D01*
G01Y-340501D01*
G01Y-339203D01*
G01Y-310501D01*
G03X818544Y-300891I-35814J0D01*
G03X820111Y-290412I-34247J10479D01*
G01Y-261710D01*
G01Y-260412D01*
G01Y-231710D01*
G03X784297Y-195896I-35814J0D01*
G01X749287D01*
G03X761247Y-152197I-73854J43699D01*
G03X740125Y-95814I-85814J0D01*
G01X1402186D01*
G01Y-360000D01*
G03X1438000Y-395814I35814J0D01*
G01X1643000D01*
G03X1678814Y-360000I0J35814D01*
G01Y-95814D01*
G01X4980000D01*
G02X4994186Y-110000I0J-14186D01*
G01Y-4900000D01*
G01X2789702Y-4767114D02*
G03X2825516Y-4731300I0J35814D01*
G01Y-4728312D01*
G01X2851384D01*
G01Y-4731300D01*
G03X2887198Y-4767114I35814J0D01*
G01X2967198D01*
G03X2997200Y-4750857I0J35814D01*
G03X3027202Y-4767114I30002J19557D01*
G01X3107202D01*
G03X3143016Y-4731300I0J35814D01*
G01Y-4641300D01*
G03X3107202Y-4605486I-35814J0D01*
G01X3027202D01*
G03X2997200Y-4621743I0J-35814D01*
G03X2982196Y-4608778I-30002J-19557D01*
G03X2968005Y-4575795I-48496J-1322D01*
G01X2868121Y-4475912D01*
G01X2967096Y-4376937D01*
G01Y-4382393D01*
G03X2969947Y-4396397I35814J0D01*
G03X2967096Y-4410401I32962J-14004D01*
G01Y-4435403D01*
G03X2969947Y-4449407I35814J0D01*
G03X2967096Y-4463411I32962J-14004D01*
G01Y-4488412D01*
G03X2969942Y-4502404I35814J0D01*
G03X2967096Y-4516396I32968J-13992D01*
G01Y-4541397D01*
G03X3002910Y-4577211I35814J0D01*
G01X3058516D01*
G03X3062910Y-4577410I4394J48315D01*
G01X3257699D01*
G01X3295884Y-4615595D01*
G01Y-4667800D01*
G03X3331698Y-4703614I35814J0D01*
G01X3411698D01*
G03X3441700Y-4687357I0J35814D01*
G03X3471702Y-4703614I30002J19557D01*
G01X3551702D01*
G03X3587516Y-4667800I0J35814D01*
G01Y-4577800D01*
G03X3551702Y-4541986I-35814J0D01*
G01X3471702D01*
G03X3441700Y-4558243I0J-35814D01*
G03X3411698Y-4541986I-30002J-19557D01*
G01X3359493D01*
G01X3356021Y-4538514D01*
G01X3411698D01*
G03X3441700Y-4522257I0J35814D01*
G03X3471702Y-4538514I30002J19557D01*
G01X3551702D01*
G03X3587516Y-4502700I0J35814D01*
G01Y-4412700D01*
G03X3551702Y-4376886I-35814J0D01*
G01X3471702D01*
G03X3441700Y-4393143I0J-35814D01*
G03X3411698Y-4376886I-30002J-19557D01*
G01X3331698D01*
G03X3323464Y-4377845I0J-35814D01*
G01X3334795Y-4366514D01*
G01X3657600D01*
G03X3691905Y-4352305I0J48514D01*
G01X3780805Y-4263405D01*
G03X3795014Y-4229100I-34305J34305D01*
G01Y-4148392D01*
G01Y-4148391D01*
G03X3780805Y-4114087I-48514J0D01*
G01X3695621Y-4028904D01*
G01Y-3931699D01*
G03X3659807Y-3895885I-35814J0D01*
G01X3519808D01*
G03X3483994Y-3931699I0J-35814D01*
G01Y-4051699D01*
G03X3494164Y-4076700I35814J0D01*
G03X3483994Y-4101701I25643J-25001D01*
G01Y-4221701D01*
G03X3519808Y-4257515I35814J0D01*
G01X3649476D01*
G01X3637505Y-4269486D01*
G01X3330617D01*
G01X3342588Y-4257515D01*
G01X3439792D01*
G03X3475606Y-4221701I0J35814D01*
G01Y-4101701D01*
G03X3465436Y-4076700I-35814J0D01*
G03X3475606Y-4051699I-25643J25001D01*
G01Y-3931699D01*
G03X3439792Y-3895885I-35814J0D01*
G01X3418227D01*
G01X3677298Y-3636814D01*
G01X3697986D01*
G01Y-3735229D01*
G03X3685686Y-3771900I48514J-36671D01*
G03X3746500Y-3832714I60814J0D01*
G03X3793084Y-3810994I0J60814D01*
G01Y-3946113D01*
G03X3765784Y-3980900I8514J-34787D01*
G01Y-4070900D01*
G03X3801598Y-4106714I35814J0D01*
G01X3881598D01*
G03X3911600Y-4090457I0J35814D01*
G03X3941602Y-4106714I30002J19557D01*
G01X4021602D01*
G03X4057416Y-4070900I0J35814D01*
G01Y-3980900D01*
G03X4021602Y-3945086I-35814J0D01*
G01X3941602D01*
G03X3911600Y-3961343I0J-35814D01*
G03X3890112Y-3946113I-30002J-19557D01*
G01Y-3615821D01*
G01X3914387Y-3640096D01*
G03X3906986Y-3661898I28413J-21802D01*
G01Y-3741898D01*
G03X3923243Y-3771900I35814J0D01*
G03X3906986Y-3801902I19557J-30002D01*
G01Y-3881902D01*
G03X3942800Y-3917716I35814J0D01*
G01X4032800D01*
G03X4068614Y-3881902I0J35814D01*
G01Y-3801902D01*
G03X4052357Y-3771900I-35814J0D01*
G03X4068614Y-3741898I-19557J30002D01*
G01Y-3661898D01*
G03X4032800Y-3626084I-35814J0D01*
G01X4032516D01*
G03X4022105Y-3610595I-44716J-18816D01*
G01X3668014Y-3256505D01*
G01Y-3025844D01*
G03X3692124Y-2991997I-11704J33847D01*
G01Y-2966996D01*
G03X3689278Y-2953004I-35814J0D01*
G03X3691216Y-2947025I-32968J13992D01*
G01X3837686Y-3093495D01*
G01Y-3390900D01*
G03X3851895Y-3425205I48514J0D01*
G01X3949597Y-3522906D01*
G03X3975179Y-3536325I34305J34305D01*
G01Y-3548601D01*
G03X4010993Y-3584415I35814J0D01*
G01X4150992D01*
G03X4186806Y-3548601I0J35814D01*
G01Y-3428601D01*
G03X4176636Y-3403600I-35814J0D01*
G03X4186806Y-3378599I-25643J25001D01*
G01Y-3273007D01*
G01X4195194Y-3281394D01*
G01Y-3378599D01*
G03X4205364Y-3403600I35814J0D01*
G03X4195194Y-3428601I25643J-25001D01*
G01Y-3548601D01*
G03X4231008Y-3584415I35814J0D01*
G01X4371007D01*
G03X4406821Y-3548601I0J35814D01*
G01Y-3428601D01*
G03X4396651Y-3403600I-35814J0D01*
G03X4406821Y-3378599I-25643J25001D01*
G01Y-3258599D01*
G03X4371007Y-3222785I-35814J0D01*
G01X4273803D01*
G01X3855432Y-2804414D01*
G01X3930521D01*
G01X4129786Y-3003679D01*
G01Y-3022600D01*
G03X4147715Y-3065885I61214J0D01*
G01X4185815Y-3103985D01*
G03X4229100Y-3121914I43285J43285D01*
G01X4546644D01*
G01X4663186Y-3238456D01*
G01Y-3345886D01*
G03X4645386Y-3376840I18014J-30954D01*
G01Y-3457487D01*
G03X4673666Y-3492500I35814J0D01*
G03X4645386Y-3527513I7534J-35013D01*
G01Y-3608160D01*
G03X4681200Y-3643974I35814J0D01*
G01X4767600D01*
G01X4769132Y-3643941D01*
G01X4784615Y-3659425D01*
G03X4764400Y-3657476I-20215J-103865D01*
G01X4684400D01*
G03X4578586Y-3763289I0J-105814D01*
G03X4684400Y-3869103I105814J0D01*
G01X4699438D01*
G03X4613216Y-3964686I24962J-109197D01*
G01X4405578D01*
G03X4370160Y-3934186I-35418J-5314D01*
G01X4289513D01*
G03X4254500Y-3962466I0J-35814D01*
G03X4219487Y-3934186I-35013J-7534D01*
G01X4138840D01*
G03X4103026Y-3970000I0J-35814D01*
G01Y-4056400D01*
G03X4138840Y-4092214I35814J0D01*
G01X4219487D01*
G03X4254500Y-4063934I0J35814D01*
G03X4289513Y-4092214I35013J7534D01*
G01X4370160D01*
G03X4405578Y-4061714I0J35814D01*
G01X4649638D01*
G03X4673930Y-4078300I74762J83414D01*
G03X4612386Y-4178300I50470J-100000D01*
G03X4673930Y-4278300I112014J0D01*
G03X4612386Y-4378300I50470J-100000D01*
G03X4699438Y-4487497I112014J0D01*
G01X4684400D01*
G03X4578586Y-4593311I0J-105814D01*
G03X4684400Y-4699124I105814J0D01*
G01X4764400D01*
G03X4870214Y-4593311I0J105814D01*
G03X4764400Y-4487497I-105814J0D01*
G01X4749362D01*
G03X4836414Y-4378300I-24962J109197D01*
G03X4830096Y-4341213I-112014J0D01*
G01X4936505Y-4234804D01*
G03X4950714Y-4200500I-34305J34305D01*
G01Y-3708400D01*
G03X4936505Y-3674095I-48514J0D01*
G01X4803414Y-3541005D01*
G01Y-3527513D01*
G03X4775134Y-3492500I-35814J0D01*
G03X4803414Y-3457487I-7534J35013D01*
G01Y-3376840D01*
G03X4785614Y-3345886I-35814J0D01*
G01Y-3213100D01*
G03X4767685Y-3169815I-61214J0D01*
G01X4615285Y-3017415D01*
G03X4572000Y-2999486I-43285J-43285D01*
G01X4537021D01*
G03X4587681Y-2921203I-35154J78283D01*
G03X4532498Y-2841042I-85814J0D01*
G03X4570667Y-2778201I-32646J62841D01*
G03X4499851Y-2707386I-70815J0D01*
G03X4464072Y-2717090I0J-70815D01*
G01Y-2704197D01*
G03X4461613Y-2691156I-35814J0D01*
G03X4463665Y-2679206I-33762J11950D01*
G01Y-2649206D01*
G03X4462239Y-2639200I-35814J0D01*
G03X4463665Y-2629193I-34388J10006D01*
G01Y-2599193D01*
G03X4462318Y-2589462I-35814J0D01*
G03X4463818Y-2579206I-34314J10256D01*
G01Y-2563114D01*
G01X4470400D01*
G03X4504705Y-2548905I0J48514D01*
G01X4530105Y-2523505D01*
G03X4544314Y-2489200I-34305J34305D01*
G01Y-2438400D01*
G03X4530105Y-2404095I-48514J0D01*
G01X4505898Y-2379889D01*
G03X4471594Y-2365680I-34305J-34305D01*
G01X4463665D01*
G01Y-2349232D01*
G03X4462235Y-2339213I-35814J0D01*
G03X4463665Y-2329194I-34384J10019D01*
G01Y-2299194D01*
G03X4461415Y-2286698I-35814J0D01*
G03X4463665Y-2274203I-33563J12496D01*
G01Y-2261070D01*
G03X4499851Y-2271014I36186J60872D01*
G03X4570667Y-2200199I0J70815D01*
G03X4532487Y-2137352I-70815J0D01*
G03X4587655Y-2057197I-30646J80155D01*
G03X4501841Y-1971383I-85814J0D01*
G01X4414387D01*
G01X4462885Y-1922885D01*
G03X4480814Y-1879600I-43285J43285D01*
G01Y-1803400D01*
G01X4480779Y-1801316D01*
G03X4490687Y-1802714I9908J34416D01*
G01X4569696D01*
G03X4584700Y-1799420I0J35814D01*
G03X4599704Y-1802714I15004J32520D01*
G01X4678713D01*
G03X4714527Y-1766900I0J35814D01*
G01Y-1741847D01*
G03X4722114Y-1712329I-53627J29518D01*
G01Y-1655549D01*
G03X4730516Y-1632500I-27412J23049D01*
G01Y-1542500D01*
G03X4722114Y-1519451I-35814J0D01*
G01Y-1488965D01*
G01X4750648D01*
G03X4786462Y-1453151I0J35814D01*
G01Y-1315449D01*
G03X4750648Y-1279635I-35814J0D01*
G01X4722114D01*
G01Y-1226877D01*
G01X4780385Y-1168606D01*
G03X4798314Y-1125322I-43285J43285D01*
G01Y-787400D01*
G03X4780385Y-744115I-61214J0D01*
G01X4577185Y-540915D01*
G03X4533900Y-522986I-43285J-43285D01*
G01X3832154D01*
G01X3744214Y-435046D01*
G01Y-425031D01*
G03X3746500Y-413322I-61214J18029D01*
G03X3810000Y-470816I63500J6320D01*
G03X3873500Y-413322I0J63814D01*
G03X3937000Y-470816I63500J6320D01*
G03X4000500Y-413322I0J63814D01*
G03X4064000Y-470816I63500J6320D01*
G03X4127500Y-413322I0J63814D01*
G03X4191000Y-470816I63500J6320D01*
G03X4254500Y-413322I0J63814D01*
G03X4318000Y-470816I63500J6320D01*
G03X4381500Y-413322I0J63814D01*
G03X4445000Y-470816I63500J6320D01*
G03X4508500Y-413322I0J63814D01*
G03X4572000Y-470816I63500J6320D01*
G03X4635814Y-407002I0J63814D01*
G01Y-288501D01*
G03X4572000Y-224687I-63814J0D01*
G03X4508500Y-282181I0J-63814D01*
G03X4445000Y-224687I-63500J-6320D01*
G03X4381500Y-282181I0J-63814D01*
G03X4318000Y-224687I-63500J-6320D01*
G03X4254500Y-282181I0J-63814D01*
G03X4191000Y-224687I-63500J-6320D01*
G03X4127500Y-282181I0J-63814D01*
G03X4064000Y-224687I-63500J-6320D01*
G03X4000500Y-282181I0J-63814D01*
G03X3937000Y-224687I-63500J-6320D01*
G03X3873500Y-282181I0J-63814D01*
G03X3810000Y-224687I-63500J-6320D01*
G03X3746500Y-282181I0J-63814D01*
G03X3683000Y-224687I-63500J-6320D01*
G03X3619186Y-288501I0J-63814D01*
G01Y-407002D01*
G03X3621786Y-425031I63814J0D01*
G01Y-460402D01*
G03X3639715Y-503687I61214J0D01*
G01X3763513Y-627485D01*
G03X3806798Y-645414I43285J43285D01*
G01X4508544D01*
G01X4675886Y-812756D01*
G01Y-1099966D01*
G01X4617615Y-1158237D01*
G03X4599686Y-1201522I43285J-43285D01*
G01Y-1509986D01*
G03X4584700Y-1522943I15016J-32514D01*
G03X4554698Y-1506686I-30002J-19557D01*
G01X4474698D01*
G03X4438884Y-1542500I0J-35814D01*
G01Y-1632500D01*
G03X4474698Y-1668314I35814J0D01*
G01X4554698D01*
G03X4584700Y-1652057I0J35814D01*
G03X4599686Y-1665014I30002J19557D01*
G01Y-1677086D01*
G03X4584700Y-1680380I18J-35814D01*
G03X4569696Y-1677086I-15004J-32520D01*
G01X4490687D01*
G03X4454873Y-1712900I0J-35814D01*
G01Y-1752103D01*
G01X4391914Y-1689144D01*
G01Y-1549356D01*
G01X4452305Y-1488965D01*
G01X4557405D01*
G03X4593219Y-1453151I0J35814D01*
G01Y-1315449D01*
G03X4557405Y-1279635I-35814J0D01*
G01X4557014D01*
G01Y-1257300D01*
G03X4539085Y-1214015I-61214J0D01*
G01X4526385Y-1201315D01*
G03X4483100Y-1183386I-43285J-43285D01*
G03X4421886Y-1244600I0J-61214D01*
G03X4433969Y-1281114I61214J0D01*
G03X4408338Y-1315449I10183J-34336D01*
G01Y-1359793D01*
G01X4287415Y-1480715D01*
G03X4269486Y-1524000I43285J-43285D01*
G01Y-1588521D01*
G03X4250202Y-1582886I-19284J-30179D01*
G01X4170202D01*
G03X4140200Y-1599143I0J-35814D01*
G03X4110198Y-1582886I-30002J-19557D01*
G01X4083506D01*
G03X4066201Y-1577708I-26009J-55414D01*
G01X4352305Y-1291605D01*
G03X4366514Y-1257300I-34305J34305D01*
G01Y-1022955D01*
G03X4381500Y-987819I-48514J41456D01*
G03X4445000Y-1045313I63500J6320D01*
G03X4508500Y-987819I0J63814D01*
G03X4572000Y-1045313I63500J6320D01*
G03X4635814Y-981499I0J63814D01*
G01Y-862998D01*
G03X4572000Y-799184I-63814J0D01*
G03X4508500Y-856678I0J-63814D01*
G03X4445000Y-799184I-63500J-6320D01*
G03X4381500Y-856678I0J-63814D01*
G03X4379214Y-844969I-63500J-6320D01*
G01Y-774700D01*
G03X4318000Y-713486I-61214J0D01*
G03X4256786Y-774700I0J-61214D01*
G01Y-844969D01*
G03X4254500Y-856678I61214J-18029D01*
G03X4252214Y-844969I-63500J-6320D01*
G01Y-774700D01*
G03X4191000Y-713486I-61214J0D01*
G03X4129786Y-774700I0J-61214D01*
G01Y-844969D01*
G03X4127500Y-856678I61214J-18029D01*
G03X4064000Y-799184I-63500J-6320D01*
G03X4000500Y-856678I0J-63814D01*
G03X3937000Y-799184I-63500J-6320D01*
G03X3873500Y-856678I0J-63814D01*
G03X3839255Y-806285I-63500J-6320D01*
G01X3751685Y-718715D01*
G03X3708400Y-700786I-43285J-43285D01*
G01X3529736D01*
G03X3486452Y-718715I0J-61214D01*
G01X3407881Y-797286D01*
G01X3375113D01*
G03X3340100Y-825566I0J-35814D01*
G03X3305087Y-797286I-35013J-7534D01*
G01X3224440D01*
G03X3189486Y-825297I0J-35814D01*
G01X3137913D01*
G01Y-813311D01*
G03X3073400Y-748797I-64513J0D01*
G03X3009900Y-801920I0J-64513D01*
G03X2946400Y-748797I-63500J-11390D01*
G03X2882900Y-801920I0J-64513D01*
G03X2819400Y-748797I-63500J-11390D01*
G03X2755900Y-801920I0J-64513D01*
G03X2692400Y-748797I-63500J-11390D01*
G03X2628900Y-801920I0J-64513D01*
G03X2565400Y-748797I-63500J-11390D01*
G03X2501900Y-801920I0J-64513D01*
G03X2438400Y-748797I-63500J-11390D01*
G03X2374900Y-801920I0J-64513D01*
G03X2311400Y-748797I-63500J-11390D01*
G03X2247900Y-801920I0J-64513D01*
G03X2184400Y-748797I-63500J-11390D01*
G03X2119887Y-813311I0J-64513D01*
G01Y-959711D01*
G03X2158248Y-1018686I64513J0D01*
G01X1667294D01*
G03X1624292Y-1036498I0J-60814D01*
G01X1538900Y-1121890D01*
G01X1509090D01*
G03X1475498Y-1145286I0J-35814D01*
G01X1441044D01*
G03X1405402Y-1112986I-35641J-3514D01*
G01X1325402D01*
G03X1295400Y-1129243I0J-35814D01*
G03X1265398Y-1112986I-30002J-19557D01*
G01X1185398D01*
G03X1149584Y-1148800I0J-35814D01*
G01Y-1238800D01*
G03X1185398Y-1274614I35814J0D01*
G01X1265398D01*
G03X1295400Y-1258357I0J35814D01*
G03X1325402Y-1274614I30002J19557D01*
G01X1405402D01*
G03X1441044Y-1242314I0J35814D01*
G01X1483071D01*
G03X1509090Y-1253518I26019J24610D01*
G01X1538334D01*
G01X1596698Y-1311882D01*
G01X1509090D01*
G03X1473276Y-1347696I0J-35814D01*
G01Y-1407696D01*
G03X1500886Y-1442558I35814J0D01*
G01Y-1527150D01*
G01X1481991D01*
G03X1452900Y-1512226I-29090J-20890D01*
G01X1366500D01*
G03X1330686Y-1548040I0J-35814D01*
G01Y-1628687D01*
G03X1358966Y-1663700I35814J0D01*
G03X1330686Y-1698713I7534J-35013D01*
G01Y-1779360D01*
G03X1366500Y-1815174I35814J0D01*
G01X1452900D01*
G03X1488714Y-1779360I0J35814D01*
G01Y-1757176D01*
G03X1522400Y-1780827I33685J12163D01*
G01X1576400D01*
G03X1604946Y-1766642I0J35814D01*
G03X1645085Y-1748793I-3146J61133D01*
G01X1650226Y-1743653D01*
G03X1662100Y-1745678I11874J33788D01*
G01X1716100D01*
G03X1738741Y-1737614I0J35814D01*
G01X1778000D01*
G03X1821285Y-1719685I0J61214D01*
G01X2065846Y-1475123D01*
G03X2082800Y-1477518I16954J58819D01*
G01X2288940D01*
G01X2359373Y-1547951D01*
G01Y-1563700D01*
G03X2373478Y-1592184I35814J0D01*
G01Y-1640763D01*
G03X2362200Y-1651723I18712J-30537D01*
G03X2332210Y-1635486I-29990J-19577D01*
G01X2252210D01*
G03X2216396Y-1671300I0J-35814D01*
G01Y-1757700D01*
G03X2243696Y-1792488I35814J0D01*
G01Y-1815832D01*
G03X2219686Y-1866900I42304J-51068D01*
G03X2221401Y-1881886I66314J0D01*
G01X1346200D01*
G03X1332430Y-1883881I0J-48514D01*
G02X1209470Y-1901698I-122960J415389D01*
G01X1088921D01*
G03X1084527Y-1901897I0J-48514D01*
G01X981422D01*
G03X933107Y-1950212I0J-48315D01*
G01X933127Y-1951612D01*
G02X923305Y-1946895I1802J16341D01*
G03X921169Y-1944886I-34305J-34305D01*
G02X739496Y-1541241I357573J403644D01*
G01Y-1484405D01*
G01X751387Y-1472514D01*
G01X785096D01*
G03X800100Y-1469220I0J35814D01*
G03X815104Y-1472514I15004J32520D01*
G01X894113D01*
G03X929927Y-1436700I0J35814D01*
G01Y-1382700D01*
G03X894113Y-1346886I-35814J0D01*
G01X815104D01*
G03X800100Y-1350180I0J-35814D01*
G03X785096Y-1346886I-15004J-32520D01*
G01X706087D01*
G03X695501Y-1348486I0J-35814D01*
G01X628250D01*
G03X617665Y-1346886I-10586J-34214D01*
G01X617664D01*
G01X561099D01*
G03X546100Y-1350178I0J-35814D01*
G03X531101Y-1346886I-14999J-32522D01*
G01X474536D01*
G03X438722Y-1382700I0J-35814D01*
G01Y-1436700D01*
G03X442413Y-1452537I35814J0D01*
G03X494910Y-1503319I60405J9919D01*
G01X543204Y-1551614D01*
G01Y-1569201D01*
G03X543543Y-1592705I816378J0D01*
G03X469675Y-1564494I-73868J-82603D01*
G01X349673D01*
G03X238859Y-1675308I0J-110814D01*
G03X349673Y-1786122I110814J0D01*
G01X469675D01*
G03X560894Y-1738227I0J110814D01*
G03X791756Y-2155757I798689J169026D01*
G03X803884Y-2164332I33744J34857D01*
G03X894851Y-2196847I90967J110991D01*
G03X913362Y-2195648I0J143506D01*
G01X933329D01*
G03X933107Y-2200275I48093J-4627D01*
G03X940074Y-2225269I48315J0D01*
G03X933107Y-2250262I41348J-24994D01*
G03X940082Y-2275268I48315J0D01*
G03X933107Y-2300275I41340J-25006D01*
G03X940082Y-2325281I48315J0D01*
G03X933107Y-2350287I41340J-25006D01*
G03X940082Y-2375294I48315J0D01*
G03X933107Y-2400300I41340J-25006D01*
G03X940082Y-2425306I48315J0D01*
G03X933107Y-2450313I41340J-25006D01*
G03X940082Y-2475319I48315J0D01*
G03X933107Y-2500325I41340J-25006D01*
G03X940082Y-2525331I48315J0D01*
G03X933107Y-2550338I41340J-25006D01*
G03X940074Y-2575331I48315J0D01*
G03X933107Y-2600325I41348J-24994D01*
G03X940082Y-2625331I48315J0D01*
G03X933107Y-2650338I41340J-25006D01*
G03X940082Y-2675344I48315J0D01*
G03X933107Y-2700350I41340J-25006D01*
G03X940082Y-2725356I48315J0D01*
G03X933107Y-2750363I41340J-25006D01*
G03X940082Y-2775369I48315J0D01*
G03X933107Y-2800375I41340J-25006D01*
G03X940082Y-2825382I48315J0D01*
G03X933107Y-2850388I41340J-25006D01*
G03X981422Y-2898703I48315J0D01*
G01X1084527D01*
G03X1088921Y-2898902I4394J48315D01*
G01X1219312D01*
G03X1244600Y-2906014I25288J41402D01*
G01X1374779D01*
G03X1387483Y-2904490I-0J53717D01*
G01X1466342D01*
G01X1667460D01*
G01X1667495Y-2904505D01*
G03X1701800Y-2918714I34305J34305D01*
G01X1983379D01*
G03X2047018Y-2902805I0J135235D01*
G03X2090501Y-2928315I43483J24304D01*
G01X2151685D01*
G01Y-2989499D01*
G01X2151689Y-2990149D01*
G03X2110486Y-3048000I20011J-57851D01*
G03X2137471Y-3098750I61214J0D01*
G01X1961480D01*
G03X1932000Y-3083273I-29479J-20337D01*
G01X1878000D01*
G03X1852046Y-3094409I0J-35814D01*
G03X1824502Y-3081486I-27543J-22891D01*
G01X1744502D01*
G03X1714500Y-3097743I0J-35814D01*
G03X1684498Y-3081486I-30002J-19557D01*
G01X1604498D01*
G03X1568684Y-3117300I0J-35814D01*
G01Y-3207300D01*
G03X1604498Y-3243114I35814J0D01*
G01X1684498D01*
G03X1714500Y-3226857I0J35814D01*
G03X1744502Y-3243114I30002J19557D01*
G01X1824502D01*
G03X1842186Y-3238444I0J35814D01*
G01Y-3307113D01*
G03X1878000Y-3342927I35814J0D01*
G01X1932000D01*
G03X1967814Y-3307113I0J35814D01*
G01Y-3228104D01*
G03X1964520Y-3213100I-35814J0D01*
G03X1967814Y-3198096I-32520J15004D01*
G01Y-3195778D01*
G01X2313686D01*
G01Y-3239186D01*
G01X2301004D01*
G03X2286000Y-3242480I0J-35814D01*
G03X2270996Y-3239186I-15004J-32520D01*
G01X2191987D01*
G03X2156173Y-3275000I0J-35814D01*
G01Y-3329000D01*
G03X2191987Y-3364814I35814J0D01*
G01X2270996D01*
G03X2286000Y-3361520I0J35814D01*
G03X2301004Y-3364814I15004J32520D01*
G01X2313686D01*
G01Y-3409153D01*
G03X2286000Y-3430228I5118J-35446D01*
G03X2253196Y-3408785I-32804J-14371D01*
G01X2237941D01*
G03X2209800Y-3399790I-28141J-39519D01*
G01X2128367D01*
G03X2097710Y-3382490I-30657J-18514D01*
G01X1997710D01*
G03X1977404Y-3388803I0J-35814D01*
G03X1945582Y-3379882I-31821J-52293D01*
G03X1908252Y-3392582I0J-61214D01*
G01X1862610D01*
G03X1837690Y-3382490I-24920J-25722D01*
G01X1737690D01*
G03X1704098Y-3405886I0J-35814D01*
G01X1680957D01*
G03X1645200Y-3372084I-35757J-2012D01*
G01X1555200D01*
G03X1543690Y-3373984I0J-35814D01*
G01X1454302D01*
G03X1402037Y-3395633I0J-73914D01*
G01X1052695Y-3744975D01*
G03X1031306Y-3737887I-21389J-28726D01*
G01X871306D01*
G03X835492Y-3773701I0J-35814D01*
G01Y-3933701D01*
G03X871306Y-3969515I35814J0D01*
G01X1009025D01*
G01X1138936Y-4099425D01*
G01Y-4241800D01*
G03X1155005Y-4280595I54864J0D01*
G01X1207405Y-4332995D01*
G03X1209715Y-4335174I38795J38795D01*
G03X1208888Y-4344213I48988J-9039D01*
G01X1208909Y-4345686D01*
G01X1112295D01*
G01X1067075Y-4300465D01*
G03X1009726Y-4203713I-115768J-3247D01*
G03X1067120Y-4103713I-58420J100000D01*
G03X951306Y-3987899I-115814J0D01*
G03X835492Y-4103713I0J-115814D01*
G03X842640Y-4143770I115814J0D01*
G01X778495Y-4207915D01*
G03X764286Y-4242219I34305J-34305D01*
G01Y-4356100D01*
G03X778495Y-4390405I48514J0D01*
G01X864794Y-4476703D01*
G03X835492Y-4553699I86512J-76996D01*
G03X951306Y-4669513I115814J0D01*
G03X1067120Y-4553699I0J115814D01*
G03X1049770Y-4492727I-115814J0D01*
G01X1208909D01*
G01X1208888Y-4494200D01*
G03X1258702Y-4544014I49814J0D01*
G01X1392702D01*
G03X1442517Y-4494200I0J49814D01*
G03X1435793Y-4469206I-49814J0D01*
G03X1442517Y-4444213I-43091J24994D01*
G03X1435786Y-4419206I-49814J0D01*
G03X1441232Y-4405441I-43083J25006D01*
G01X1451065Y-4415275D01*
G03X1511300Y-4467714I60235J8375D01*
G03X1572114Y-4406900I0J60814D01*
G03X1519675Y-4346665I-60814J0D01*
G01X1482917Y-4309908D01*
G03X1448613Y-4295699I-34305J-34305D01*
G01X1442494D01*
G01X1442517Y-4294200D01*
G03X1392702Y-4244386I-49814J0D01*
G01X1348693D01*
G03X1325702Y-4239336I-22991J-49814D01*
G01X1268926D01*
G01X1248664Y-4219075D01*
G01Y-4076700D01*
G03X1232595Y-4037905I-54864J0D01*
G01X1100710Y-3906020D01*
G01X1484919Y-3521812D01*
G01X1530666D01*
G03X1519386Y-3547902I24534J-26091D01*
G01Y-3627902D01*
G03X1555200Y-3663716I35814J0D01*
G01X1645200D01*
G03X1681014Y-3627902I0J35814D01*
G01Y-3547902D01*
G03X1664757Y-3517900I-35814J0D01*
G03X1677714Y-3502914I-19557J30002D01*
G01X1711671D01*
G03X1737690Y-3514118I26019J24610D01*
G01X1784895D01*
G01X1843781Y-3573004D01*
G03X1837690Y-3572482I-6091J-35292D01*
G01X1737690D01*
G03X1701876Y-3608296I0J-35814D01*
G01Y-3668296D01*
G03X1737690Y-3704110I35814J0D01*
G01X1739176D01*
G01Y-3753627D01*
G03X1728126Y-3779500I24764J-25873D01*
G01Y-3865900D01*
G03X1755750Y-3900765I35814J0D01*
G01Y-3903952D01*
G03X1744925Y-3913022I17137J-31448D01*
G01X1679214D01*
G01Y-3908513D01*
G03X1650934Y-3873500I-35814J0D01*
G03X1679214Y-3838487I-7534J35013D01*
G01Y-3757840D01*
G03X1643400Y-3722026I-35814J0D01*
G01X1557000D01*
G03X1521186Y-3757840I0J-35814D01*
G01Y-3838487D01*
G03X1549466Y-3873500I35814J0D01*
G03X1521186Y-3908513I7534J-35013D01*
G01Y-3989160D01*
G03X1557000Y-4024974I35814J0D01*
G01X1643400D01*
G03X1672491Y-4010050I0J35814D01*
G01X1743626D01*
G03X1772887Y-4025214I29261J20650D01*
G01X1851896D01*
G03X1866900Y-4021920I0J35814D01*
G03X1881904Y-4025214I15004J32520D01*
G01X1960913D01*
G03X1996727Y-3989400I0J35814D01*
G01Y-3935400D01*
G03X1973076Y-3901714I-35814J0D01*
G01X1995260D01*
G03X2030678Y-3871214I0J35814D01*
G01X2051456D01*
G03X2087098Y-3903514I35641J3514D01*
G01X2167098D01*
G03X2197100Y-3887257I0J35814D01*
G03X2227102Y-3903514I30002J19557D01*
G01X2307102D01*
G03X2315336Y-3902555I0J35814D01*
G01X2248907Y-3968984D01*
G01X2215600D01*
G03X2184650Y-3986778I0J-35814D01*
G01X2176685D01*
G03X2147900Y-3972273I-28785J-21309D01*
G01X2093900D01*
G03X2058086Y-4008087I0J-35814D01*
G01Y-4087096D01*
G03X2061380Y-4102100I35814J0D01*
G03X2058086Y-4117104I32520J-15004D01*
G01Y-4196113D01*
G03X2093900Y-4231927I35814J0D01*
G01X2147900D01*
G03X2179786Y-4212420I0J35814D01*
G01Y-4224802D01*
G03X2215600Y-4260616I35814J0D01*
G01X2305600D01*
G03X2341414Y-4224802I0J35814D01*
G01Y-4144802D01*
G03X2325157Y-4114800I-35814J0D01*
G03X2332531Y-4108406I-19557J30002D01*
G01X2353769D01*
G03X2361143Y-4114800I26931J23608D01*
G03X2344886Y-4144802I19557J-30002D01*
G01Y-4224802D01*
G03X2380700Y-4260616I35814J0D01*
G01X2414475D01*
G01X2380205Y-4294886D01*
G01X1864508D01*
G01X1864512Y-4294200D01*
G03X1814698Y-4244386I-49814J0D01*
G01X1680698D01*
G03X1630883Y-4294200I0J-49814D01*
G03X1637614Y-4319206I49814J0D01*
G03X1630883Y-4344213I43083J-25006D01*
G03X1637607Y-4369206I49814J0D01*
G03X1630883Y-4394200I43091J-24994D01*
G03X1637614Y-4419206I49814J0D01*
G03X1630883Y-4444213I43083J-25006D01*
G03X1637607Y-4469206I49814J0D01*
G03X1630883Y-4494200I43091J-24994D01*
G03X1680698Y-4544014I49814J0D01*
G01X1743914D01*
G03X1749298Y-4544314I5384J48214D01*
G01X1846805D01*
G01X1895565Y-4593075D01*
G03X1955800Y-4645514I60235J8375D01*
G03X2012008Y-4607917I0J60814D01*
G01X2024015Y-4619924D01*
G03X2021986Y-4635500I58785J-15576D01*
G03X2082800Y-4696314I60814J0D01*
G03X2143614Y-4635500I0J60814D01*
G03X2129318Y-4596329I-60814J0D01*
G03X2117105Y-4575795I-46518J-13771D01*
G01X1984023Y-4442714D01*
G01X2407590D01*
G03X2441895Y-4428505I0J48514D01*
G01X2607076Y-4263323D01*
G01Y-4276399D01*
G03X2609928Y-4290403I35814J0D01*
G03X2607076Y-4304407I32962J-14004D01*
G01Y-4321378D01*
G01X2589708D01*
G03X2555403Y-4335588I0J-48514D01*
G01X2493525Y-4397465D01*
G03X2441086Y-4457700I8375J-60235D01*
G03X2501900Y-4518514I60814J0D01*
G03X2540550Y-4504653I0J60814D01*
G03X2590800Y-4531214I50250J34253D01*
G03X2607076Y-4528995I0J60814D01*
G01Y-4541397D01*
G03X2642890Y-4577211I35814J0D01*
G01X2762890D01*
G03X2798634Y-4543643I0J35814D01*
G01X2866831Y-4611841D01*
G03X2852813Y-4631284I20366J-29459D01*
G01X2824087D01*
G03X2789702Y-4605486I-34385J-10016D01*
G01X2709702D01*
G03X2679700Y-4621743I0J-35814D01*
G03X2649698Y-4605486I-30002J-19557D01*
G01X2569698D01*
G03X2533884Y-4641300I0J-35814D01*
G01Y-4731300D01*
G03X2569698Y-4767114I35814J0D01*
G01X2649698D01*
G03X2679700Y-4750857I0J35814D01*
G03X2709702Y-4767114I30002J19557D01*
G01X2789702D01*
G01X1095684Y-3236106D02*
G03X1206497Y-3125292I0J110814D01*
G03X1095684Y-3014478I-110814J0D01*
G01X915687D01*
G03X804873Y-3125292I0J-110814D01*
G03X915687Y-3236106I110814J0D01*
G01X1095684D01*
G01X804873Y-1675308D02*
G03X915687Y-1786122I110814J0D01*
G01X1095684D01*
G03X1206497Y-1675308I0J110814D01*
G03X1095684Y-1564494I-110814J0D01*
G01X915687D01*
G03X804873Y-1675308I0J-110814D01*
G01X238859Y-3125292D02*
G03X349673Y-3236106I110814J0D01*
G01X469675D01*
G03X580489Y-3125292I0J110814D01*
G03X469675Y-3014478I-110814J0D01*
G01X349673D01*
G03X238859Y-3125292I0J-110814D01*
G01X625480Y-3558705D02*
G03X726294Y-3659519I100814J0D01*
G01X876294D01*
G03X977108Y-3558705I0J100814D01*
G03X876294Y-3457891I-100814J0D01*
G01X726294D01*
G03X625480Y-3558705I0J-100814D01*
G01X4749035Y-2921203D02*
G03X4834849Y-3007017I85814J0D01*
G01X4894849D01*
G03X4980663Y-2921203I0J85814D01*
G03X4894849Y-2835389I-85814J0D01*
G01X4834849D01*
G03X4749035Y-2921203I0J-85814D01*
G01X86637Y-1016203D02*
G03X172451Y-1102017I85814J0D01*
G01X232451D01*
G03X318265Y-1016203I0J85814D01*
G03X232451Y-930389I-85814J0D01*
G01X172451D01*
G03X86637Y-1016203I0J-85814D01*
G01X4894849Y-2143011D02*
G03X4980663Y-2057197I0J85814D01*
G03X4894849Y-1971383I-85814J0D01*
G01X4834849D01*
G03X4749035Y-2057197I0J-85814D01*
G03X4834849Y-2143011I85814J0D01*
G01X4894849D01*
G01X904416Y-2098824D02*
G02X894851Y-2099819I-9565J45483D01*
G02X861986Y-2086206I0J46478D01*
G03X851077Y-2078011I-34305J-34305D01*
G02X640232Y-1569201I508506J508809D01*
G01Y-1531518D01*
G03X626023Y-1497214I-48514J0D01*
G01X601323Y-1472514D01*
G01X617664D01*
G01X617665D01*
G03X628250Y-1470914I0J35814D01*
G01X642468D01*
G01Y-1541241D01*
G03X855864Y-2016657I636275J0D01*
G03X933131Y-2048724I79065J81386D01*
G01X933107Y-2050237D01*
G03X940082Y-2075243I48315J0D01*
G03X933135Y-2098620I41340J-25006D01*
G01X923359D01*
G03X914400Y-2097786I-8959J-47680D01*
G03X904416Y-2098824I0J-48514D01*
G01X1373100Y-2302510D02*
G02X1342405Y-2289795I0J43410D01*
G03X1250581Y-2251761I-91824J-91824D01*
G01X1244711D01*
G01X1244735Y-2250262D01*
G03X1237768Y-2225269I-48315J0D01*
G03X1244735Y-2200275I-41348J24994D01*
G03X1244513Y-2195648I-48315J0D01*
G01X1823690D01*
G03X1813273Y-2220900I25397J-25251D01*
G01Y-2274900D01*
G03X1813636Y-2279985I35814J0D01*
G01X1721840D01*
G01X1721839D01*
G03X1667495Y-2302495I0J-76854D01*
G01X1667460Y-2302510D01*
G01X1466342D01*
G01X1378458D01*
G01X1373100D01*
G01X1762473Y-2767243D02*
G03X1757974Y-2770886I28227J-39457D01*
G01X1722641D01*
G03X1689100Y-2757424I-33541J-35052D01*
G01X1536192D01*
G01Y-2754376D01*
G01X1694700D01*
G03X1759960Y-2728214I0J94476D01*
G01X1762473D01*
G01Y-2767243D01*
G01X1536192Y-2452624D02*
G01X1536192Y-2448814D01*
G01X1689100D01*
G03X1710055Y-2444055I0J48514D01*
G02X1749773Y-2430641I75037J-156679D01*
G01Y-2452624D01*
G01X1536192D01*
G01X1751914Y-1615186D02*
G01X1751914Y-1566736D01*
G01Y-1566735D01*
G03X1716100Y-1530921I-35814J0D01*
G01X1662100D01*
G03X1648022Y-1533804I0J-35814D01*
G01X1623314D01*
G01Y-1440564D01*
G03X1644904Y-1407696I-14224J32868D01*
G01Y-1360088D01*
G01X1661304Y-1376488D01*
G03X1671215Y-1389485I53196J30288D01*
G01X1702711Y-1420981D01*
G03X1745996Y-1438910I43285J43285D01*
G01X1751551D01*
G03X1769110Y-1443510I17559J31214D01*
G01X1869110D01*
G03X1904924Y-1407696I0J35814D01*
G01Y-1347696D01*
G03X1900358Y-1330198I-35814J0D01*
G03X1904924Y-1312700I-31248J17498D01*
G01Y-1252700D01*
G03X1904724Y-1248918I-35814J0D01*
G01X1922885D01*
G01Y-1262596D01*
G03X1944328Y-1295400I35814J0D01*
G03X1922885Y-1328204I14371J-32804D01*
G01Y-1428204D01*
G03X1925703Y-1442128I35814J0D01*
G01X1752644Y-1615186D01*
G01X1751914D01*
G01X2087098Y-3741886D02*
G03X2051456Y-3774186I0J-35814D01*
G01X2030678D01*
G03X1995260Y-3743686I-35418J-5314D01*
G01X1914613D01*
G03X1879600Y-3771966I0J-35814D01*
G03X1844587Y-3743686I-35013J-7534D01*
G01X1836204D01*
G01Y-3704110D01*
G01X1837690D01*
G03X1873504Y-3668296I0J35814D01*
G01Y-3608296D01*
G03X1872982Y-3602205I-35814J0D01*
G01X1943378Y-3672601D01*
G03X1966271Y-3685449I34305J34305D01*
G03X1997710Y-3704110I31439J17153D01*
G01X2097710D01*
G03X2133524Y-3668296I0J35814D01*
G01Y-3646528D01*
G03X2153196Y-3652415I19672J29927D01*
G01X2228774D01*
G01X2139302Y-3741886D01*
G01X2087098D01*
G01X1961896Y-3513300D02*
G01X1961896Y-3553901D01*
G01X1897605Y-3489610D01*
G01X1908252D01*
G03X1945582Y-3502310I37330J48514D01*
G03X1964779Y-3499222I0J61214D01*
G03X1961896Y-3513300I32931J-14078D01*
G01X2504204Y-1473886D02*
G03X2489200Y-1477180I0J-35814D01*
G03X2474196Y-1473886I-15004J-32520D01*
G01X2458447D01*
G01X2357580Y-1373019D01*
G03X2314296Y-1355090I-43285J-43285D01*
G01X2166515D01*
G01Y-1328204D01*
G03X2145072Y-1295400I-35814J0D01*
G03X2166515Y-1262596I-14371J32804D01*
G01Y-1162596D01*
G03X2158739Y-1140314I-35814J0D01*
G01X2664450D01*
G03X2652657Y-1164934I53550J-40786D01*
G01X2594595Y-1222995D01*
G03X2580386Y-1257300I34305J-34305D01*
G01Y-1473886D01*
G01X2504204D01*
G01X2327895Y-3064495D02*
G03X2313686Y-3098750I34305J-34305D01*
G01X2205929D01*
G03X2232401Y-3055908I-34229J50750D01*
G01X2235804Y-3052505D01*
G03X2245360Y-3038933I-34305J34305D01*
G03X2251499Y-3039313I6139J49435D01*
G03X2276499Y-3032586I0J49814D01*
G03X2301499Y-3039313I25000J43087D01*
G03X2326499Y-3032586I0J49814D01*
G03X2351499Y-3039313I25000J43087D01*
G01X2352985Y-3039291D01*
G01Y-3039406D01*
G01X2327895Y-3064495D01*
G01X2341957Y-3875934D02*
G03X2342916Y-3867700I-34855J8234D01*
G01Y-3777700D01*
G03X2307102Y-3741886I-35814J0D01*
G01X2276521D01*
G01X2365992Y-3652415D01*
G01X2418804D01*
G03X2454618Y-3616601I0J35814D01*
G01Y-3444599D01*
G03X2418804Y-3408785I-35814J0D01*
G01X2410714D01*
G01Y-3356805D01*
G03X2433287Y-3364814I22573J27805D01*
G01X2504186D01*
G01Y-3706602D01*
G03X2463800Y-3692886I-40386J-52598D01*
G03X2397486Y-3759200I0J-66314D01*
G03X2414424Y-3803467I66314J0D01*
G01X2341957Y-3875934D01*
G01X2384773Y-1878000D02*
G01X2384773Y-1912922D01*
G03X2344346Y-1898416I-153557J-364362D01*
G03X2352314Y-1866900I-58346J31516D01*
G03X2340724Y-1829446I-66314J0D01*
G01Y-1792488D01*
G03X2362200Y-1777277I-8514J34787D01*
G03X2392190Y-1793514I29990J19577D01*
G01X2398005D01*
G01X2418473Y-1813982D01*
G03X2430124Y-1842186I60235J8375D01*
G01X2420587D01*
G03X2384773Y-1878000I0J-35814D01*
G01X2506514Y-4168577D02*
G01X2506514Y-4144802D01*
G03X2490257Y-4114800I-35814J0D01*
G03X2506514Y-4084798I-19557J30002D01*
G01Y-4004798D01*
G03X2470700Y-3968984I-35814J0D01*
G01X2386125D01*
G01X2498105Y-3857005D01*
G03X2504186Y-3849581I-34305J34305D01*
G01Y-3918102D01*
G03X2508484Y-3938065I48514J0D01*
G01Y-3994700D01*
G03X2544298Y-4030514I35814J0D01*
G01X2624298D01*
G03X2654300Y-4014257I0J35814D01*
G03X2684302Y-4030514I30002J19557D01*
G01X2764302D01*
G03X2800116Y-3994700I0J35814D01*
G01Y-3904700D01*
G03X2764302Y-3868886I-35814J0D01*
G01X2684302D01*
G03X2654300Y-3885143I0J-35814D01*
G03X2624298Y-3868886I-30002J-19557D01*
G01X2601214D01*
G01Y-3865414D01*
G01X2624298D01*
G03X2654300Y-3849157I0J35814D01*
G03X2684302Y-3865414I30002J19557D01*
G01X2764302D01*
G03X2800116Y-3829600I0J35814D01*
G01Y-3739600D01*
G03X2764302Y-3703786I-35814J0D01*
G01X2753955D01*
G03X2767914Y-3675413I-21854J28373D01*
G01Y-3596404D01*
G03X2764620Y-3581400I-35814J0D01*
G03X2767914Y-3566396I-32520J15004D01*
G01Y-3487387D01*
G03X2753614Y-3458755I-35814J0D01*
G01Y-3245610D01*
G03X2771414Y-3200400I-48514J45210D01*
G03X2753614Y-3155190I-66314J0D01*
G01Y-3039268D01*
G03X2777985Y-3031689I-2113J49770D01*
G01Y-3550399D01*
G03X2792195Y-3584704I48514J0D01*
G01X2843914Y-3636423D01*
G03X2796686Y-3695700I13586J-59277D01*
G03X2808986Y-3732371I60814J0D01*
G01Y-4062262D01*
G03X2781300Y-4053586I-27686J-39838D01*
G01X2641600D01*
G03X2607295Y-4067795I0J-48514D01*
G01X2506514Y-4168577D01*
G01X2433287Y-3239186D02*
G03X2410714Y-3247195I0J-35814D01*
G01Y-3229805D01*
G03X2433287Y-3237814I22573J27805D01*
G01X2504186D01*
G01Y-3239186D01*
G01X2433287D01*
G01X2433287Y-3112186D02*
G03X2410714Y-3120195I0J-35814D01*
G01Y-3118895D01*
G01X2435803Y-3093806D01*
G03X2450013Y-3059501I-34305J34305D01*
G01Y-3039291D01*
G01X2451499Y-3039313D01*
G03X2476500Y-3032585I0J49814D01*
G03X2501501Y-3039313I25001J43086D01*
G03X2504186Y-3039241I0J49814D01*
G01Y-3112186D01*
G01X2433287D01*
G01X2486386Y-2870034D02*
G03X2476500Y-2874414I15115J-47466D01*
G03X2451499Y-2867685I-25001J-43086D01*
G03X2440775Y-2868853I0J-49814D01*
G03X2434605Y-2861295I-40475J-26747D01*
G01X2417635Y-2844326D01*
G01X2491642D01*
G03X2486386Y-2870034I61058J-25874D01*
G01X2580386Y-1838677D02*
G01X2538942Y-1797233D01*
G03X2508004Y-1752315I-60235J-8375D01*
G01Y-1671300D01*
G03X2495906Y-1644463I-35814J0D01*
G01Y-1598540D01*
G03X2504204Y-1599514I8298J34839D01*
G01X2580386D01*
G01Y-1693101D01*
G03X2559622Y-1725600I15050J-32499D01*
G01Y-1779600D01*
G03X2580386Y-1812099I35814J0D01*
G01Y-1838677D01*
G01X2665684Y-3709006D02*
G03X2654300Y-3720043I18618J-30594D01*
G03X2624298Y-3703786I-30002J-19557D01*
G01X2601214D01*
G01Y-3364814D01*
G01X2621313D01*
G03X2656586Y-3335202I0J35814D01*
G01Y-3458755D01*
G03X2642286Y-3487387I21514J-28632D01*
G01Y-3566396D01*
G03X2645580Y-3581400I35814J0D01*
G03X2642286Y-3596404I32520J-15004D01*
G01Y-3675413D01*
G03X2665684Y-3709006I35814J0D01*
G01X2741666Y-2868666D02*
G03X2726501Y-2874413I9835J-48834D01*
G03X2701501Y-2867685I-25000J-43087D01*
G03X2676501Y-2874413I0J-49814D01*
G03X2651501Y-2867685I-25000J-43087D01*
G03X2626501Y-2874413I0J-49814D01*
G03X2619011Y-2870864I-25000J-43087D01*
G01X2619014Y-2870200D01*
G03X2613758Y-2844326I-66314J0D01*
G01X2681487D01*
G03X2717301Y-2808512I0J35814D01*
G01Y-2659997D01*
G01X2720509Y-2663205D01*
G03X2740786Y-2675342I34305J34305D01*
G03X2740685Y-2678501I49714J-3159D01*
G03X2747413Y-2703501I49814J0D01*
G03X2740685Y-2728501I43087J-25000D01*
G03X2747413Y-2753501I49814J0D01*
G03X2740685Y-2778501I43087J-25000D01*
G03X2747413Y-2803501I49814J0D01*
G03X2740685Y-2828501I43087J-25000D01*
G03X2747413Y-2853501I49814J0D01*
G03X2741666Y-2868666I43087J-25000D01*
G01X2717301Y-2509990D02*
G01X2717301Y-2398513D01*
G03X2681487Y-2362699I-35814J0D01*
G01X2643087D01*
G03X2644414Y-2349500I-64987J13199D01*
G01X2644410Y-2348736D01*
G03X2648211Y-2339206I-42909J22637D01*
G03X2651501Y-2339315I3290J49706D01*
G03X2676002Y-2332873I0J49814D01*
G03X2701501Y-2340115I25499J41272D01*
G03X2726501Y-2333177I0J48514D01*
G03X2741836Y-2339142I25000J41577D01*
G03X2747413Y-2353499I48664J10643D01*
G03X2740685Y-2378499I43087J-25000D01*
G03X2747413Y-2403499I49814J0D01*
G03X2740685Y-2428499I43087J-25000D01*
G03X2747413Y-2453499I49814J0D01*
G03X2740685Y-2478499I43087J-25000D01*
G03X2741434Y-2487105I49814J0D01*
G03X2734295Y-2492995I27166J-40195D01*
G01X2717301Y-2509990D01*
G01X3241660Y-3570986D02*
G03X3244017Y-3558207I-33457J12779D01*
G01Y-3418208D01*
G03X3208203Y-3382394I-35814J0D01*
G01X3088203D01*
G03X3060700Y-3395268I0J-35814D01*
G03X3033197Y-3382394I-27503J-22940D01*
G01X2913197D01*
G03X2877383Y-3418208I0J-35814D01*
G01Y-3532674D01*
G01X2875013Y-3530304D01*
G01Y-2926718D01*
G03X2897886Y-2913561I-12515J48217D01*
G01Y-3053538D01*
G03X2880073Y-3084500I18001J-30961D01*
G01Y-3138500D01*
G03X2894813Y-3167457I35814J0D01*
G03X2877383Y-3198193I18384J-30735D01*
G01Y-3338192D01*
G03X2913197Y-3374006I35814J0D01*
G01X3033197D01*
G03X3060700Y-3361132I0J35814D01*
G03X3088203Y-3374006I27503J22940D01*
G01X3208203D01*
G03X3244017Y-3338192I0J35814D01*
G01Y-3198193D01*
G03X3208203Y-3162379I-35814J0D01*
G01X3130605D01*
G03X3139727Y-3138500I-26692J23879D01*
G01Y-3084500D01*
G03X3103913Y-3048686I-35814J0D01*
G01X3024904D01*
G03X3009900Y-3051980I0J-35814D01*
G03X2994914Y-3048686I-15004J-32520D01*
G01Y-2882900D01*
G01X2994854Y-2880481D01*
G01X2997886Y-2883513D01*
G01Y-2906001D01*
G03X3001178Y-2921000I35814J0D01*
G03X2997886Y-2935999I32522J-14999D01*
G01Y-2992564D01*
G03X3033700Y-3028378I35814J0D01*
G01X3087700D01*
G03X3123514Y-2992564I0J35814D01*
G01Y-2935999D01*
G03X3120222Y-2921000I-35814J0D01*
G03X3123514Y-2906001I-32522J14999D01*
G01Y-2849436D01*
G01Y-2849435D01*
G03X3097935Y-2815115I-35814J0D01*
G01X3140476D01*
G01Y-2832993D01*
G03X3143328Y-2846997I35814J0D01*
G03X3140476Y-2861001I32962J-14004D01*
G01Y-2886003D01*
G03X3143328Y-2900007I35814J0D01*
G03X3140476Y-2914011I32962J-14004D01*
G01Y-2939012D01*
G03X3143322Y-2953004I35814J0D01*
G03X3140476Y-2966996I32968J-13992D01*
G01Y-2991997D01*
G03X3176290Y-3027811I35814J0D01*
G01X3296290D01*
G03X3329780Y-3004689I0J35814D01*
G01X3342386Y-3017295D01*
G01Y-3118084D01*
G01X3333200D01*
G03X3297386Y-3153898I0J-35814D01*
G01Y-3233898D01*
G03X3313643Y-3263900I35814J0D01*
G03X3297386Y-3293902I19557J-30002D01*
G01Y-3373902D01*
G03X3318785Y-3406687I35814J0D01*
G03X3302686Y-3436587I19714J-29900D01*
G01Y-3515596D01*
G03X3305980Y-3530600I35814J0D01*
G03X3302686Y-3545604I32520J-15004D01*
G01Y-3570986D01*
G01X3241660D01*
G01X3039095Y-3839195D02*
G01X2969514Y-3908777D01*
G01Y-3783171D01*
G03X2981814Y-3746500I-48514J36671D01*
G03X2921000Y-3685686I-60814J0D01*
G03X2917501Y-3685787I0J-60814D01*
G03X2911646Y-3668014I-60001J-9913D01*
G01X3155024D01*
G01X3331108D01*
G03X3357158Y-3660427I0J48514D01*
G01X3392500D01*
G03X3428314Y-3624613I0J35814D01*
G01Y-3545604D01*
G03X3425020Y-3530600I-35814J0D01*
G03X3428314Y-3515596I-32520J15004D01*
G01Y-3436587D01*
G03X3416177Y-3409716I-35814J0D01*
G01X3423200D01*
G03X3459014Y-3373902I0J35814D01*
G01Y-3349823D01*
G01X3584377Y-3475186D01*
G01X3509498D01*
G03X3473684Y-3511000I0J-35814D01*
G01Y-3601000D01*
G03X3509498Y-3636814I35814J0D01*
G01X3540079D01*
G01X3351907Y-3824986D01*
G01X3073400D01*
G03X3039095Y-3839195I0J-48514D01*
G01X3784600Y-1219266D02*
G03X3749587Y-1190986I-35013J-7534D01*
G01X3668940D01*
G03X3647148Y-1198378I0J-35814D01*
G01X3497685Y-1048915D01*
G03X3454400Y-1030986I-43285J-43285D01*
G01X3047956D01*
G01X3007614Y-990644D01*
G01Y-980079D01*
G03X3009900Y-971101I-61214J20367D01*
G03X3073400Y-1024225I63500J11390D01*
G03X3137913Y-959711I0J64513D01*
G01Y-947725D01*
G01X3202394D01*
G03X3224440Y-955314I22046J28224D01*
G01X3305087D01*
G03X3340100Y-927034I0J35814D01*
G03X3375113Y-955314I35013J7534D01*
G01X3455760D01*
G03X3491574Y-919500I0J35814D01*
G01Y-886732D01*
G01X3555092Y-823214D01*
G01X3633106D01*
G03X3619186Y-862998I49894J-39784D01*
G01Y-981499D01*
G03X3683000Y-1045313I63814J0D01*
G03X3746500Y-987819I0J63814D01*
G03X3810000Y-1045313I63500J6320D01*
G03X3873500Y-987819I0J63814D01*
G03X3875786Y-999528I63500J6320D01*
G01Y-1129481D01*
G01X3816652Y-1188615D01*
G03X3814012Y-1191426I43285J-43285D01*
G03X3784600Y-1219266I5600J-35373D01*
G01X3158723Y-4304162D02*
G03X3155872Y-4290403I-35813J-245D01*
G03X3158724Y-4276399I-32962J14004D01*
G01Y-4251397D01*
G03X3155878Y-4237406I-35814J0D01*
G03X3158724Y-4223414I-32968J13992D01*
G01Y-4198413D01*
G03X3155872Y-4184409I-35814J0D01*
G03X3158724Y-4170404I-32962J14004D01*
G01Y-4145403D01*
G03X3122910Y-4109589I-35814J0D01*
G01X3020314D01*
G01Y-3995195D01*
G01X3093495Y-3922014D01*
G01X3265313D01*
G03X3263979Y-3931699I34480J-9685D01*
G01Y-4051699D01*
G03X3274149Y-4076700I35814J0D01*
G03X3263979Y-4101701I25643J-25001D01*
G01Y-4198906D01*
G01X3158723Y-4304162D01*
G01X3496295Y-2429495D02*
G01X3429788Y-2496003D01*
G03X3439014Y-2463800I-51588J32203D01*
G03X3432099Y-2435635I-60814J0D01*
G03X3489814Y-2374900I-3099J60735D01*
G03X3468382Y-2328560I-60814J0D01*
G03X3471702Y-2328714I3321J35660D01*
G01X3551702D01*
G03X3587516Y-2292900I0J35814D01*
G01Y-2202900D01*
G03X3551702Y-2167086I-35814J0D01*
G01X3471702D01*
G03X3449104Y-2175116I0J-35814D01*
G01Y-2123810D01*
G01X3473983D01*
G03X3509797Y-2087996I0J35814D01*
G01Y-2038996D01*
G03X3473983Y-2003182I-35814J0D01*
G01X3356483D01*
G03X3326714Y-2019085I0J-35814D01*
G01Y-1945404D01*
G03X3323420Y-1930400I-35814J0D01*
G03X3326520Y-1919122I-32520J15004D01*
G01X3327558D01*
G03X3356483Y-1933818I28925J21119D01*
G01X3473983D01*
G03X3509797Y-1898004I0J35814D01*
G01Y-1849004D01*
G03X3473983Y-1813190I-35814J0D01*
G01X3356483D01*
G03X3332851Y-1822094I0J-35814D01*
G01X3323739D01*
G03X3290900Y-1800573I-32838J-14293D01*
G01X3236900D01*
G03X3201086Y-1836387I0J-35814D01*
G01Y-1915396D01*
G03X3204380Y-1930400I35814J0D01*
G03X3201086Y-1945404I32520J-15004D01*
G01Y-2024413D01*
G03X3236900Y-2060227I35814J0D01*
G01X3290900D01*
G03X3320669Y-2044324I0J35814D01*
G01Y-2087996D01*
G03X3352076Y-2123537I35814J0D01*
G01Y-2167086D01*
G01X3331698D01*
G03X3295884Y-2202900I0J-35814D01*
G01Y-2292900D01*
G03X3299568Y-2308722I35814J0D01*
G01X3190514Y-2417777D01*
G01Y-2379490D01*
G03X3174277Y-2349500I-35814J0D01*
G03X3190514Y-2319510I-19577J29990D01*
G01Y-2239510D01*
G03X3172314Y-2208327I-35814J0D01*
G01Y-1308100D01*
G03X3154502Y-1265098I-60814J0D01*
G01X3042818Y-1153414D01*
G01X3193143D01*
G03X3187186Y-1181100I61357J-27686D01*
G03X3232163Y-1244600I67314J0D01*
G03X3187186Y-1308100I22336J-63500D01*
G03X3232163Y-1371600I67314J0D01*
G03X3187186Y-1435100I22336J-63500D01*
G03X3232163Y-1498600I67314J0D01*
G03X3187186Y-1562100I22336J-63500D01*
G03X3254499Y-1629414I67314J0D01*
G01X3377999D01*
G03X3445313Y-1562100I0J67314D01*
G03X3400335Y-1498600I-67314J0D01*
G03X3445313Y-1435100I-22336J63500D01*
G03X3400335Y-1371600I-67314J0D01*
G03X3445313Y-1308100I-22336J63500D01*
G03X3400335Y-1244600I-67314J0D01*
G03X3445313Y-1181100I-22336J63500D01*
G03X3444122Y-1168491I-67314J0D01*
G01X3588915Y-1313285D01*
G03X3632200Y-1331214I43285J43285D01*
G01X3637986D01*
G03X3668940Y-1349014I30954J18014D01*
G01X3749587D01*
G03X3784600Y-1320734I0J35814D01*
G03X3819613Y-1349014I35013J7534D01*
G01X3885716D01*
G01X3878828Y-1355903D01*
G01X3826408D01*
G03X3805496Y-1359586I0J-61214D01*
G01X3786904D01*
G03X3771900Y-1362880I0J-35814D01*
G03X3756896Y-1359586I-15004J-32520D01*
G01X3677887D01*
G03X3642073Y-1395400I0J-35814D01*
G01Y-1449400D01*
G03X3677887Y-1485214I35814J0D01*
G01X3691277D01*
G01X3649225Y-1527265D01*
G03X3596786Y-1587500I8375J-60235D01*
G03X3657600Y-1648314I60814J0D01*
G03X3661099Y-1648213I0J60814D01*
G03X3721100Y-1699114I60001J9913D01*
G03X3781335Y-1646675I0J60814D01*
G01X3817395Y-1610614D01*
G01X3895105D01*
G03X3888486Y-1638300I54595J-27686D01*
G01Y-1825045D01*
G03X3865900Y-1817026I-22586J-27794D01*
G01X3779500D01*
G03X3756982Y-1824990I0J-35814D01*
G01X3730386D01*
G03X3703817Y-1813190I-26570J-24014D01*
G01X3588117D01*
G03X3552303Y-1849004I0J-35814D01*
G01Y-1898004D01*
G03X3560663Y-1921002I35814J0D01*
G03X3552303Y-1944000I27454J-22998D01*
G01Y-1993000D01*
G03X3560663Y-2015998I35814J0D01*
G03X3552303Y-2038996I27454J-22998D01*
G01Y-2087996D01*
G03X3588117Y-2123810I35814J0D01*
G01X3703817D01*
G03X3730386Y-2112010I0J35814D01*
G01X3756982D01*
G03X3779500Y-2119974I22517J27850D01*
G01X3865900D01*
G03X3894351Y-2105914I0J35814D01*
G01X3924344D01*
G01X3944515Y-2126085D01*
G03X3987800Y-2144014I43285J43285D01*
G03X3994787Y-2143614I0J61214D01*
G01X4088594D01*
G01Y-2155507D01*
G03X4106406Y-2198509I60814J0D01*
G01X4173576Y-2265680D01*
G01X4061206D01*
G03X4026901Y-2279889I0J-48514D01*
G01X3993105Y-2313686D01*
G01X3986397D01*
G03X3957765Y-2299386I-28632J-21514D01*
G01X3957764D01*
G01X3901199D01*
G03X3886200Y-2302678I0J-35814D01*
G03X3871201Y-2299386I-14999J-32522D01*
G01X3814636D01*
G03X3778822Y-2335200I0J-35814D01*
G01Y-2389200D01*
G03X3790096Y-2415286I35814J0D01*
G01X3530600D01*
G03X3496295Y-2429495I0J-48514D01*
G01X3732091Y-2014982D02*
G03X3739631Y-1993000I-28274J21982D01*
G01Y-1944000D01*
G03X3732091Y-1922018I-35814J0D01*
G01X3743686D01*
G01Y-1933487D01*
G03X3771966Y-1968500I35814J0D01*
G03X3743686Y-2003513I7534J-35013D01*
G01Y-2014982D01*
G01X3732091D01*
G01X3985349Y-3403600D02*
G03X3978174Y-3414264I25643J-25001D01*
G01X3934714Y-3370805D01*
G01Y-3073400D01*
G03X3920505Y-3039095I-48514J0D01*
G01X3749323Y-2867914D01*
G01X3781713D01*
G01X4136584Y-3222785D01*
G01X4010993D01*
G03X3975179Y-3258599I0J-35814D01*
G01Y-3378599D01*
G03X3985349Y-3403600I35814J0D01*
G01X4129786Y-2794000D02*
G01X4129786Y-2830540D01*
G01X3999161Y-2699915D01*
G03X3991225Y-2693224I-43285J-43285D01*
G03X4035390Y-2656517I-16125J64324D01*
G03X4068636Y-2679014I33246J13317D01*
G01X4125201D01*
G03X4140200Y-2675722I0J35814D01*
G03X4155199Y-2679014I14999J32522D01*
G01X4211764D01*
G01X4211765D01*
G03X4241800Y-2662707I0J35814D01*
G01X4247036D01*
G01Y-2669743D01*
G03X4211215Y-2687215I7464J-60757D01*
G01X4147715Y-2750715D01*
G03X4129786Y-2794000I43285J-43285D01*
G01X4032822Y-2589200D02*
G01X4032822Y-2596254D01*
G03X4006027Y-2570240I-57721J-32646D01*
G03X4023614Y-2527300I-43627J42940D01*
G03X4021751Y-2512314I-61214J0D01*
G01X4191412D01*
G01Y-2538126D01*
G03X4193875Y-2553386I48514J0D01*
G01X4155199D01*
G03X4140200Y-2556678I0J-35814D01*
G03X4125201Y-2553386I-14999J-32522D01*
G01X4068636D01*
G03X4032822Y-2589200I0J-35814D01*
G01X4182082Y-1778792D02*
G01X4182082Y-1869901D01*
G01X4123718Y-1811537D01*
G01Y-1778792D01*
G03X4098278Y-1744514I-35814J0D01*
G01X4110198D01*
G03X4140200Y-1728257I0J35814D01*
G03X4170202Y-1744514I30002J19557D01*
G01X4207522D01*
G03X4182082Y-1778792I10374J-34279D01*
G01X4247036Y-2166710D02*
G01X4247036Y-2167132D01*
G01X4218279Y-2138375D01*
G03X4218714Y-2132808I-35379J5567D01*
G01Y-2042414D01*
G01X4307311D01*
G03X4306028Y-2057197I84531J-14783D01*
G03X4317988Y-2100896I85814J0D01*
G01X4282850D01*
G03X4247036Y-2136710I0J-35814D01*
G01Y-2165387D01*
G01Y-2166710D01*
G01X4306053Y-2921203D02*
G03X4356713Y-2999486I85814J0D01*
G01X4254456D01*
G01X4252214Y-2997244D01*
G01Y-2978324D01*
G01Y-2859985D01*
G03X4283003Y-2877504I30789J18295D01*
G01X4318013D01*
G03X4306053Y-2921203I73854J-43699D01*
G01X4308886Y-1903745D02*
G03X4313710Y-1885793I-30990J17952D01*
G01Y-1784080D01*
G01X4358386Y-1828756D01*
G01Y-1854244D01*
G01X4308886Y-1903745D01*
G54D10*
G01X1825092Y-2438400D02*
G01X1759679Y-2438400D01*
G01X969175Y-2650338D02*
G01X943013Y-2650338D01*
G01X969175Y-2500325D02*
G01X943013Y-2500325D01*
G01X969175Y-2350287D02*
G01X943013Y-2350287D01*
G01X3511702Y-2247900D02*
G01X3577610Y-2247900D01*
G01X3511702Y-2247900D02*
G01X3511702Y-2318808D01*
G01X3511702Y-2247900D02*
G01X3511702Y-2176992D01*
G01X1330008Y-907796D02*
G01X1250599Y-907796D01*
G01X1330008Y-907796D02*
G01X1409416Y-907796D01*
G01X1330008Y-907796D02*
G01X1330008Y-963704D01*
G01X990600Y-604418D02*
G01X990600Y-550227D01*
G01X990600Y-604418D02*
G01X937692Y-604418D01*
G01X990600Y-604418D02*
G01X1043508Y-604418D01*
G01X1799692Y-558800D02*
G01X1734279Y-558800D01*
G01X1799692Y-558800D02*
G01X1799692Y-611708D01*
G01X1799692Y-368300D02*
G01X1734279Y-368300D01*
G01X1799692Y-368300D02*
G01X1799692Y-315392D01*
G01X1799692Y-368300D02*
G01X1799692Y-421208D01*
G01X711797Y-246710D02*
G01X810205Y-246710D01*
G01X1071982Y-215900D02*
G01X1126173Y-215900D01*
G01X1071982Y-215900D02*
G01X1071982Y-268808D01*
G01X1071982Y-215900D02*
G01X1071982Y-162992D01*
G01X3369793Y-3991699D02*
G01X3273885Y-3991699D01*
G01X3369793Y-3991699D02*
G01X3465700Y-3991699D01*
G01X3589807Y-4161701D02*
G01X3493900Y-4161701D01*
G01X3589807Y-4161701D02*
G01X3589807Y-4247609D01*
G01X3981602Y-4025900D02*
G01X4047510Y-4025900D01*
G01X3981602Y-4025900D02*
G01X3981602Y-3954992D01*
G01X3981602Y-4025900D02*
G01X3981602Y-4096808D01*
G01X2973197Y-3488207D02*
G01X2973197Y-3392300D01*
G01X2973197Y-3488207D02*
G01X2887289Y-3488207D01*
G01X969175Y-2800375D02*
G01X943013Y-2800375D01*
G01X2267102Y-3822700D02*
G01X2333010Y-3822700D01*
G01X2267102Y-3822700D02*
G01X2267102Y-3893608D01*
G01X1600200Y-3798164D02*
G01X1600200Y-3731932D01*
G01X1600200Y-3798164D02*
G01X1669308Y-3798164D01*
G01X1600200Y-3798164D02*
G01X1531092Y-3798164D01*
G01X1600200Y-3587902D02*
G01X1600200Y-3653810D01*
G01X1600200Y-3587902D02*
G01X1529292Y-3587902D01*
G01X1600200Y-3587902D02*
G01X1671108Y-3587902D01*
G01X3365500Y-3476092D02*
G01X3312592Y-3476092D01*
G01X3365500Y-3476092D02*
G01X3418408Y-3476092D01*
G01X2724302Y-3949700D02*
G01X2790210Y-3949700D01*
G01X2724302Y-3949700D02*
G01X2724302Y-4020608D01*
G01X2724302Y-3949700D02*
G01X2724302Y-3878792D01*
G01X2724302Y-3784600D02*
G01X2790210Y-3784600D01*
G01X2724302Y-3784600D02*
G01X2724302Y-3855508D01*
G01X2705100Y-3635908D02*
G01X2652192Y-3635908D01*
G01X2705100Y-3635908D02*
G01X2758008Y-3635908D01*
G01X854608Y-1409700D02*
G01X920021Y-1409700D01*
G01X854608Y-1409700D02*
G01X854608Y-1462608D01*
G01X854608Y-1409700D02*
G01X854608Y-1356792D01*
G01X711949Y-921690D02*
G01X810358Y-921690D01*
G01X3683000Y-922249D02*
G01X3629092Y-922249D01*
G01X3683000Y-922249D02*
G01X3683000Y-1035407D01*
G01X3316249Y-1308100D02*
G01X3197092Y-1308100D01*
G01X3316249Y-1308100D02*
G01X3435407Y-1308100D01*
G01X3316249Y-1181100D02*
G01X3197092Y-1181100D01*
G01X3316249Y-1181100D02*
G01X3435407Y-1181100D01*
G01X1819110Y-1282700D02*
G01X1895018Y-1282700D01*
G01X2438400Y-886511D02*
G01X2438400Y-758703D01*
G01X2438400Y-332689D02*
G01X2438400Y-204881D01*
G01X2438400Y-332689D02*
G01X2438400Y-460497D01*
G01X1642008Y-914400D02*
G01X1707421Y-914400D01*
G01X1642008Y-914400D02*
G01X1642008Y-967308D01*
G01X1642008Y-914400D02*
G01X1642008Y-861492D01*
G01X1771498Y-711200D02*
G01X1705590Y-711200D01*
G01X1771498Y-711200D02*
G01X1771498Y-640292D01*
G01X1771498Y-711200D02*
G01X1771498Y-782108D01*
G01X3067202Y-4686300D02*
G01X3133110Y-4686300D01*
G01X3067202Y-4686300D02*
G01X3067202Y-4615392D01*
G01X3067202Y-4686300D02*
G01X3067202Y-4757208D01*
G01X2702890Y-4528896D02*
G01X2616982Y-4528896D01*
G01X2702890Y-4528896D02*
G01X2702890Y-4567305D01*
G01X3511702Y-4622800D02*
G01X3577610Y-4622800D01*
G01X3511702Y-4622800D02*
G01X3511702Y-4551892D01*
G01X3511702Y-4622800D02*
G01X3511702Y-4693708D01*
G01X3511702Y-4457700D02*
G01X3577610Y-4457700D01*
G01X3511702Y-4457700D02*
G01X3511702Y-4386792D01*
G01X3511702Y-4457700D02*
G01X3511702Y-4528608D01*
G01X1325702Y-4507946D02*
G01X1325702Y-4534108D01*
G01X2609698Y-4686300D02*
G01X2543790Y-4686300D01*
G01X2609698Y-4686300D02*
G01X2609698Y-4757208D01*
G01X2609698Y-4686300D02*
G01X2609698Y-4615392D01*
G01X2425700Y-4184802D02*
G01X2354792Y-4184802D01*
G01X2260600Y-4184802D02*
G01X2260600Y-4250710D01*
G01X2260600Y-4184802D02*
G01X2331508Y-4184802D01*
G01X2120900Y-4156608D02*
G01X2120900Y-4222021D01*
G01X2120900Y-4156608D02*
G01X2067992Y-4156608D01*
G01X1747698Y-4280454D02*
G01X1747698Y-4254292D01*
G01X3645967Y-1968500D02*
G01X3562209Y-1968500D01*
G01X3645967Y-1968500D02*
G01X3729725Y-1968500D01*
G01X3717392Y-1422400D02*
G01X3651979Y-1422400D01*
G01X3717392Y-1422400D02*
G01X3717392Y-1369492D01*
G01X3263900Y-1984908D02*
G01X3263900Y-2050321D01*
G01X3263900Y-1984908D02*
G01X3316808Y-1984908D01*
G01X3263900Y-1984908D02*
G01X3210992Y-1984908D01*
G01X3316249Y-1562100D02*
G01X3316249Y-1619508D01*
G01X3316249Y-1562100D02*
G01X3197092Y-1562100D01*
G01X3316249Y-1562100D02*
G01X3435407Y-1562100D01*
G01X3316249Y-1435100D02*
G01X3197092Y-1435100D01*
G01X3316249Y-1435100D02*
G01X3435407Y-1435100D01*
G01X2543708Y-1536700D02*
G01X2543708Y-1589608D01*
G01X2543708Y-1536700D02*
G01X2543708Y-1483792D01*
G01X1409700Y-1739036D02*
G01X1409700Y-1805268D01*
G01X1409700Y-1739036D02*
G01X1340592Y-1739036D01*
G01X1225398Y-1193800D02*
G01X1159490Y-1193800D01*
G01X1225398Y-1193800D02*
G01X1225398Y-1122892D01*
G01X1225398Y-1193800D02*
G01X1225398Y-1264708D01*
G01X1888592Y-2247900D02*
G01X1823179Y-2247900D01*
G01X2460092Y-1905000D02*
G01X2394679Y-1905000D01*
G01X3060700Y-2964282D02*
G01X3060700Y-3018472D01*
G01X3060700Y-2964282D02*
G01X3007792Y-2964282D01*
G01X3060700Y-2964282D02*
G01X3113608Y-2964282D01*
G01X1837792Y-2743200D02*
G01X1772379Y-2743200D01*
G01X2126501Y-2892247D02*
G01X2126501Y-2918409D01*
G01X3842918Y-2362200D02*
G01X3788728Y-2362200D01*
G01X3842918Y-2362200D02*
G01X3842918Y-2309292D01*
G01X2476487Y-2603513D02*
G01X2476487Y-2834420D01*
G01X3549498Y-3556000D02*
G01X3483590Y-3556000D01*
G01X3549498Y-3556000D02*
G01X3549498Y-3485092D01*
G01X2047710Y-3543300D02*
G01X1971802Y-3543300D01*
G01X1905000Y-3267608D02*
G01X1905000Y-3333021D01*
G01X1905000Y-3267608D02*
G01X1852092Y-3267608D01*
G01X1905000Y-3267608D02*
G01X1957908Y-3267608D01*
G01X2472792Y-3302000D02*
G01X2472792Y-3249092D01*
G01X2472792Y-3302000D02*
G01X2472792Y-3354908D01*
G01X2231492Y-3302000D02*
G01X2166079Y-3302000D01*
G01X2231492Y-3302000D02*
G01X2231492Y-3249092D01*
G01X2231492Y-3302000D02*
G01X2231492Y-3354908D01*
G01X3064408Y-3111500D02*
G01X3129821Y-3111500D01*
G01X3064408Y-3111500D02*
G01X3064408Y-3058592D01*
G01X3378200Y-3333902D02*
G01X3307292Y-3333902D01*
G01X3148203Y-3268193D02*
G01X3148203Y-3364100D01*
G01X3148203Y-3268193D02*
G01X3148203Y-3172285D01*
G01X3148203Y-3268193D02*
G01X3234111Y-3268193D01*
G01X3236290Y-2979496D02*
G01X3150382Y-2979496D01*
G01X3236290Y-2979496D02*
G01X3236290Y-3017905D01*
G01X2472792Y-3175000D02*
G01X2472792Y-3122092D01*
G01X2472792Y-3175000D02*
G01X2472792Y-3227908D01*
G01X1644498Y-3162300D02*
G01X1578590Y-3162300D01*
G01X1644498Y-3162300D02*
G01X1644498Y-3091392D01*
G01X1644498Y-3162300D02*
G01X1644498Y-3233208D01*
G01X4080993Y-3318599D02*
G01X4176900Y-3318599D01*
G01X4080993Y-3318599D02*
G01X3985085Y-3318599D01*
G01X4080993Y-3318599D02*
G01X4080993Y-3232691D01*
G01X4179164Y-4013200D02*
G01X4112932Y-4013200D01*
G01X4179164Y-4013200D02*
G01X4179164Y-4082308D01*
G01X4179164Y-4013200D02*
G01X4179164Y-3944092D01*
G01X3987800Y-3841902D02*
G01X3987800Y-3907810D01*
G01X3987800Y-3841902D02*
G01X4058708Y-3841902D01*
G01X3987800Y-3841902D02*
G01X3916892Y-3841902D01*
G01X4301007Y-3488601D02*
G01X4396915Y-3488601D01*
G01X4301007Y-3488601D02*
G01X4205100Y-3488601D01*
G01X4301007Y-3488601D02*
G01X4301007Y-3574509D01*
G01X4247896Y-1832292D02*
G01X4191988Y-1832292D01*
G01X4247896Y-1832292D02*
G01X4303804Y-1832292D01*
G01X4210202Y-1663700D02*
G01X4210202Y-1592792D01*
G01X4096918Y-2616200D02*
G01X4096918Y-2563292D01*
G01X4096918Y-2616200D02*
G01X4096918Y-2669108D01*
G01X4355351Y-2151710D02*
G01X4256942Y-2151710D01*
G01X4514698Y-1587500D02*
G01X4448790Y-1587500D01*
G01X4514698Y-1587500D02*
G01X4514698Y-1516592D01*
G01X4514698Y-1587500D02*
G01X4514698Y-1658408D01*
G01X4530192Y-1739900D02*
G01X4464779Y-1739900D01*
G01X4530192Y-1739900D02*
G01X4530192Y-1792808D01*
G01X4530192Y-1739900D02*
G01X4530192Y-1686992D01*
G01X620433Y-152197D02*
G01X751341Y-152197D01*
G01X620433Y-152197D02*
G01X489525Y-152197D01*
G01X202451Y-152197D02*
G01X202451Y-228105D01*
G01X202451Y-152197D02*
G01X308359Y-152197D01*
G01X202451Y-152197D02*
G01X96543Y-152197D01*
G01X620459Y-1016203D02*
G01X620459Y-1092111D01*
G01X620459Y-1016203D02*
G01X751366Y-1016203D01*
G01X620459Y-1016203D02*
G01X489551Y-1016203D01*
G01X202451Y-1016203D02*
G01X202451Y-940295D01*
G01X202451Y-1016203D02*
G01X202451Y-1092111D01*
G01X202451Y-1016203D02*
G01X308359Y-1016203D01*
G01X202451Y-1016203D02*
G01X96543Y-1016203D01*
G01X801294Y-3558705D02*
G01X801294Y-3649613D01*
G01X801294Y-3558705D02*
G01X801294Y-3467797D01*
G01X801294Y-3558705D02*
G01X635386Y-3558705D01*
G01X801294Y-3558705D02*
G01X967202Y-3558705D01*
G01X409674Y-3125292D02*
G01X409674Y-3024384D01*
G01X409674Y-3125292D02*
G01X409674Y-3226200D01*
G01X409674Y-3125292D02*
G01X570583Y-3125292D01*
G01X409674Y-3125292D02*
G01X248765Y-3125292D01*
G01X1005685Y-1675308D02*
G01X1005685Y-1574400D01*
G01X1005685Y-1675308D02*
G01X1005685Y-1776216D01*
G01X1005685Y-1675308D02*
G01X1196591Y-1675308D01*
G01X1005685Y-1675308D02*
G01X814779Y-1675308D01*
G01X409674Y-1675308D02*
G01X409674Y-1574400D01*
G01X409674Y-1675308D02*
G01X409674Y-1776216D01*
G01X409674Y-1675308D02*
G01X248765Y-1675308D01*
G01X1005685Y-3125292D02*
G01X1005685Y-3024384D01*
G01X1005685Y-3125292D02*
G01X1005685Y-3226200D01*
G01X1005685Y-3125292D02*
G01X1196591Y-3125292D01*
G01X1005685Y-3125292D02*
G01X814779Y-3125292D01*
G01X801294Y-4848695D02*
G01X801294Y-4757787D01*
G01X801294Y-4848695D02*
G01X635386Y-4848695D01*
G01X801294Y-4848695D02*
G01X967202Y-4848695D01*
G01X951306Y-4553699D02*
G01X951306Y-4659607D01*
G01X951306Y-4553699D02*
G01X845398Y-4553699D01*
G01X951306Y-4553699D02*
G01X1057214Y-4553699D01*
G01X4446842Y-2057197D02*
G01X4446842Y-1981289D01*
G01X4446842Y-2057197D02*
G01X4315934Y-2057197D01*
G01X4446842Y-2057197D02*
G01X4577749Y-2057197D01*
G01X4446867Y-2921203D02*
G01X4315959Y-2921203D01*
G01X4446867Y-2921203D02*
G01X4577775Y-2921203D01*
G01X4724400Y-4593311D02*
G01X4724400Y-4689218D01*
G01X4724400Y-4593311D02*
G01X4588492Y-4593311D01*
G01X4724400Y-4593311D02*
G01X4860308Y-4593311D01*
G01X4724400Y-3763289D02*
G01X4724400Y-3667382D01*
G01X4724400Y-3763289D02*
G01X4588492Y-3763289D01*
G01X4864849Y-2921203D02*
G01X4864849Y-2997111D01*
G01X4864849Y-2921203D02*
G01X4864849Y-2845295D01*
G01X4864849Y-2921203D02*
G01X4758941Y-2921203D01*
G01X4864849Y-2921203D02*
G01X4970757Y-2921203D01*
G01X4864849Y-2057197D02*
G01X4864849Y-2133105D01*
G01X4864849Y-2057197D02*
G01X4864849Y-1981289D01*
G01X4864849Y-2057197D02*
G01X4758941Y-2057197D01*
G01X4864849Y-2057197D02*
G01X4970757Y-2057197D01*
G04 Copper End*

G04 Pad Start*
G54D11*
G01X2184400Y-886511D03*
G01X2311400Y-886511D03*
G01X2438400Y-886511D03*
G01X2565400Y-886511D03*
G01X2692400Y-886511D03*
G01X2819400Y-886511D03*
G01X2946400Y-886511D03*
G01X3073400Y-886511D03*
G01X2184400Y-332689D03*
G01X2311400Y-332689D03*
G01X2438400Y-332689D03*
G01X2565400Y-332689D03*
G01X2692400Y-332689D03*
G01X2819400Y-332689D03*
G01X2946400Y-332689D03*
G01X3073400Y-332689D03*
G54D12*
G01X3683000Y-922249D03*
G01X3810000Y-922249D03*
G01X3937000Y-922249D03*
G01X4064000Y-922249D03*
G01X4191000Y-922249D03*
G01X4318000Y-922249D03*
G01X4445000Y-922249D03*
G01X4572000Y-922249D03*
G01X3683000Y-347751D03*
G01X3810000Y-347751D03*
G01X3937000Y-347751D03*
G01X4064000Y-347751D03*
G01X4191000Y-347751D03*
G01X4318000Y-347751D03*
G01X4445000Y-347751D03*
G01X4572000Y-347751D03*
G54D13*
G01X3859936Y-1270000D03*
G01X3709264Y-1270000D03*
G01X3415436Y-876300D03*
G01X3264764Y-876300D03*
G54D14*
G01X1084478Y-419100D03*
G01X1277722Y-419100D03*
G01X4500778Y-1384300D03*
G01X4694022Y-1384300D03*
G54D15*
G01X1799692Y-558800D03*
G01X1908708Y-558800D03*
G01X3717392Y-1422400D03*
G01X3826408Y-1422400D03*
G01X4530192Y-1739900D03*
G01X4639208Y-1739900D03*
G01X1532992Y-914400D03*
G01X1642008Y-914400D03*
G54D16*
G01X4070198Y-1663700D03*
G01X4210202Y-1663700D03*
G54D18*
G01X3236290Y-2608504D03*
G01X3236290Y-2661514D03*
G01X3236290Y-2714498D03*
G01X3236290Y-2767508D03*
G01X3236290Y-2820492D03*
G01X3236290Y-2873502D03*
G01X3236290Y-2926512D03*
G01X3236290Y-2979496D03*
G01X3596310Y-2979496D03*
G01X3596310Y-2926512D03*
G01X3596310Y-2873502D03*
G01X3596310Y-2820492D03*
G01X3596310Y-2767508D03*
G01X3596310Y-2714498D03*
G01X3596310Y-2661514D03*
G01X3596310Y-2608504D03*
G54D16*
G01X3549498Y-3556000D03*
G01X3689502Y-3556000D03*
G54D19*
G01X3378200Y-3333902D03*
G01X3378200Y-3193898D03*
G54D20*
G01X3981602Y-4025900D03*
G01X3841598Y-4025900D03*
G54D19*
G01X3987800Y-3841902D03*
G01X3987800Y-3701898D03*
G54D21*
G01X4301007Y-3318599D03*
G01X4080993Y-3318599D03*
G01X4080993Y-3488601D03*
G01X4301007Y-3488601D03*
G54D22*
G01X4183482Y-2616200D03*
G01X4096918Y-2616200D03*
G54D23*
G01X3842918Y-2362200D03*
G01X3929482Y-2362200D03*
G54D24*
G01X2476487Y-2603513D03*
G54D25*
G01X2751501Y-2953499D03*
G01X2701501Y-2953499D03*
G01X2651501Y-2953499D03*
G01X2601501Y-2953499D03*
G01X2551501Y-2953499D03*
G01X2501501Y-2953499D03*
G01X2451499Y-2953499D03*
G01X2401499Y-2953499D03*
G01X2351499Y-2953499D03*
G01X2301499Y-2953499D03*
G01X2251499Y-2953499D03*
G01X2201499Y-2953499D03*
G54D26*
G01X2126501Y-2878501D03*
G01X2126501Y-2828501D03*
G01X2126501Y-2778501D03*
G01X2126501Y-2728501D03*
G01X2126501Y-2678501D03*
G01X2126501Y-2628501D03*
G01X2126501Y-2578499D03*
G01X2126501Y-2528499D03*
G01X2126501Y-2478499D03*
G01X2126501Y-2428499D03*
G01X2126501Y-2378499D03*
G01X2126501Y-2328499D03*
G54D25*
G01X2201499Y-2253501D03*
G01X2251499Y-2253501D03*
G01X2301499Y-2253501D03*
G01X2351499Y-2253501D03*
G01X2401499Y-2253501D03*
G01X2451499Y-2253501D03*
G01X2501501Y-2253501D03*
G01X2551501Y-2253501D03*
G01X2601501Y-2253501D03*
G01X2651501Y-2253501D03*
G01X2701501Y-2253501D03*
G01X2751501Y-2253501D03*
G54D26*
G01X2826499Y-2328499D03*
G01X2826499Y-2378499D03*
G01X2826499Y-2428499D03*
G01X2826499Y-2478499D03*
G01X2826499Y-2528499D03*
G01X2826499Y-2578499D03*
G01X2826499Y-2628501D03*
G01X2826499Y-2678501D03*
G01X2826499Y-2728501D03*
G01X2826499Y-2778501D03*
G01X2826499Y-2828501D03*
G01X2826499Y-2878501D03*
G54D27*
G01X1088921Y-2400300D03*
G01X1088921Y-2450313D03*
G01X1088921Y-2500325D03*
G01X1088921Y-2550338D03*
G01X1088921Y-2600325D03*
G01X1088921Y-2650338D03*
G01X1088921Y-2700350D03*
G01X1088921Y-2750363D03*
G01X1088921Y-2800375D03*
G01X1088921Y-2850388D03*
G01X1088921Y-2350287D03*
G01X1088921Y-2300275D03*
G01X1088921Y-2250262D03*
G01X1088921Y-2200275D03*
G01X1088921Y-2150262D03*
G01X1088921Y-2100250D03*
G01X1088921Y-2050237D03*
G01X1088921Y-2000225D03*
G01X1088921Y-1950212D03*
G54D28*
G01X409674Y-3125292D03*
G01X409674Y-1675308D03*
G54D29*
G01X1005685Y-3125292D03*
G01X1005685Y-1675308D03*
G54D30*
G01X1378458Y-2855976D03*
G01X1378458Y-2805938D03*
G54D31*
G01X1378458Y-2755900D03*
G54D30*
G01X1378458Y-2705862D03*
G01X1378458Y-2655824D03*
G01X1466342Y-2655824D03*
G01X1466342Y-2705862D03*
G54D31*
G01X1466342Y-2755900D03*
G54D30*
G01X1466342Y-2805938D03*
G01X1466342Y-2855976D03*
G01X1378458Y-2551176D03*
G01X1378458Y-2501138D03*
G54D31*
G01X1378458Y-2451100D03*
G54D30*
G01X1378458Y-2401062D03*
G01X1378458Y-2351024D03*
G01X1466342Y-2351024D03*
G01X1466342Y-2401062D03*
G54D31*
G01X1466342Y-2451100D03*
G54D30*
G01X1466342Y-2501138D03*
G01X1466342Y-2551176D03*
G54D32*
G01X3148203Y-3488207D03*
G01X3148203Y-3268193D03*
G01X2973197Y-3268193D03*
G01X2973197Y-3488207D03*
G54D33*
G01X3316249Y-1562100D03*
G01X3316249Y-1435100D03*
G01X3316249Y-1308100D03*
G01X3316249Y-1181100D03*
G01X2779751Y-1562100D03*
G01X2779751Y-1435100D03*
G01X2779751Y-1308100D03*
G01X2779751Y-1181100D03*
G54D15*
G01X745592Y-1409700D03*
G01X854608Y-1409700D03*
G54D34*
G01X2581808Y-3302000D03*
G01X2472792Y-3302000D03*
G01X2581808Y-3175000D03*
G01X2472792Y-3175000D03*
G01X2569108Y-1905000D03*
G01X2460092Y-1905000D03*
G54D35*
G01X2120900Y-4047592D03*
G01X2120900Y-4156608D03*
G54D34*
G01X1997608Y-2247900D03*
G01X1888592Y-2247900D03*
G54D35*
G01X2705100Y-3526892D03*
G01X2705100Y-3635908D03*
G54D34*
G01X1934108Y-2438400D03*
G01X1825092Y-2438400D03*
G01X2340508Y-3302000D03*
G01X2231492Y-3302000D03*
G54D35*
G01X1905000Y-3158592D03*
G01X1905000Y-3267608D03*
G54D34*
G01X1946808Y-2743200D03*
G01X1837792Y-2743200D03*
G54D15*
G01X2434692Y-1536700D03*
G01X2543708Y-1536700D03*
G54D35*
G01X3365500Y-3476092D03*
G01X3365500Y-3585108D03*
G54D34*
G01X3064408Y-3111500D03*
G01X2955392Y-3111500D03*
G54D23*
G01X1810918Y-2044700D03*
G01X1897482Y-2044700D03*
G01X502818Y-1409700D03*
G01X589382Y-1409700D03*
G54D36*
G01X1371600Y-2087982D03*
G01X1371600Y-2001418D03*
G54D37*
G01X3060700Y-2877718D03*
G01X3060700Y-2964282D03*
G54D23*
G01X2839618Y-1790700D03*
G01X2926182Y-1790700D03*
G54D37*
G01X2832100Y-1925218D03*
G01X2832100Y-2011782D03*
G54D22*
G01X2710282Y-1752600D03*
G01X2623718Y-1752600D03*
G54D38*
G01X3111500Y-2279510D03*
G01X3111500Y-2419490D03*
G54D34*
G01X1921408Y-3962400D03*
G01X1812392Y-3962400D03*
G54D39*
G01X1549400Y-1705508D03*
G01X1549400Y-1596492D03*
G01X3263900Y-1984908D03*
G01X3263900Y-1875892D03*
G54D20*
G01X1784502Y-3162300D03*
G01X1644498Y-3162300D03*
G54D16*
G01X3371698Y-2247900D03*
G01X3511702Y-2247900D03*
G01X2584298Y-3949700D03*
G01X2724302Y-3949700D03*
G01X2584298Y-3784600D03*
G01X2724302Y-3784600D03*
G54D40*
G01X2260600Y-4044798D03*
G01X2260600Y-4184802D03*
G01X2425700Y-4044798D03*
G01X2425700Y-4184802D03*
G54D41*
G01X3822700Y-1893164D03*
G01X3822700Y-2043836D03*
G54D13*
G01X1954936Y-3822700D03*
G01X1804264Y-3822700D03*
G54D42*
G01X1600200Y-3948836D03*
G01X1600200Y-3798164D03*
G54D41*
G01X1409700Y-1588364D03*
G01X1409700Y-1739036D03*
G54D43*
G01X2432190Y-1714500D03*
G01X2292210Y-1714500D03*
G54D44*
G01X1787690Y-3638296D03*
G01X1787690Y-3448304D03*
G01X2047710Y-3448304D03*
G01X2047710Y-3543300D03*
G01X2047710Y-3638296D03*
G01X1559090Y-1377696D03*
G01X1559090Y-1187704D03*
G01X1819110Y-1187704D03*
G01X1819110Y-1282700D03*
G01X1819110Y-1377696D03*
G54D45*
G01X2044700Y-1212596D03*
G01X2044700Y-1378204D03*
G54D46*
G01X2203196Y-3530600D03*
G01X2368804Y-3530600D03*
G54D47*
G01X3645967Y-2063496D03*
G01X3645967Y-1968500D03*
G01X3645967Y-1873504D03*
G54D48*
G01X3415233Y-1873504D03*
G01X3415233Y-2063496D03*
G54D49*
G01X801294Y-4848695D03*
G01X801294Y-3558705D03*
G54D50*
G01X951306Y-4553699D03*
G01X951306Y-4303712D03*
G01X951306Y-4103713D03*
G54D51*
G01X951306Y-3853701D03*
G54D18*
G01X2702890Y-4157904D03*
G01X2702890Y-4210914D03*
G01X2702890Y-4263898D03*
G01X2702890Y-4316908D03*
G01X2702890Y-4369892D03*
G01X2702890Y-4422902D03*
G01X2702890Y-4475912D03*
G01X2702890Y-4528896D03*
G01X3062910Y-4528896D03*
G01X3062910Y-4475912D03*
G01X3062910Y-4422902D03*
G01X3062910Y-4369892D03*
G01X3062910Y-4316908D03*
G01X3062910Y-4263898D03*
G01X3062910Y-4210914D03*
G01X3062910Y-4157904D03*
G54D20*
G01X3067202Y-4686300D03*
G01X2927198Y-4686300D03*
G54D16*
G01X2609698Y-4686300D03*
G01X2749702Y-4686300D03*
G54D20*
G01X3511702Y-4457700D03*
G01X3371698Y-4457700D03*
G01X3511702Y-4622800D03*
G01X3371698Y-4622800D03*
G54D52*
G01X3369793Y-4161701D03*
G01X3589807Y-4161701D03*
G01X3589807Y-3991699D03*
G01X3369793Y-3991699D03*
G54D53*
G01X1325702Y-4294200D03*
G01X1325702Y-4344213D03*
G01X1325702Y-4394200D03*
G01X1325702Y-4444213D03*
G01X1325702Y-4494200D03*
G01X1747698Y-4294200D03*
G01X1747698Y-4344213D03*
G01X1747698Y-4394200D03*
G01X1747698Y-4444213D03*
G01X1747698Y-4494200D03*
G54D54*
G01X4724400Y-4378300D03*
G01X4724400Y-4178300D03*
G01X4724400Y-3978300D03*
G54D55*
G01X4724400Y-3763289D03*
G01X4724400Y-4593311D03*
G54D41*
G01X4724400Y-3417164D03*
G01X4724400Y-3567836D03*
G54D56*
G01X4179164Y-4013200D03*
G01X4329836Y-4013200D03*
G54D23*
G01X985418Y-215900D03*
G01X1071982Y-215900D03*
G54D37*
G01X990600Y-604418D03*
G01X990600Y-690982D03*
G54D57*
G01X711797Y-246710D03*
G01X711797Y-275412D03*
G01X711543Y-325501D03*
G01X711543Y-354203D03*
G01X711949Y-409194D03*
G01X711949Y-459207D03*
G01X711797Y-509194D03*
G01X711949Y-559206D03*
G01X711797Y-609194D03*
G01X711949Y-659206D03*
G01X711949Y-709168D03*
G01X711949Y-759206D03*
G01X711949Y-814197D03*
G01X711949Y-842899D03*
G01X711949Y-893013D03*
G01X711949Y-921690D03*
G54D58*
G01X202451Y-152197D03*
G01X202451Y-1016203D03*
G54D59*
G01X620459Y-1016203D03*
G01X620433Y-152197D03*
G54D60*
G01X4355503Y-2826690D03*
G01X4355503Y-2797988D03*
G01X4355757Y-2747899D03*
G01X4355757Y-2719197D03*
G01X4355351Y-2664206D03*
G01X4355351Y-2614193D03*
G01X4355503Y-2564206D03*
G01X4355351Y-2514194D03*
G01X4355503Y-2464206D03*
G01X4355351Y-2414194D03*
G01X4355351Y-2364232D03*
G01X4355351Y-2314194D03*
G01X4355351Y-2259203D03*
G01X4355351Y-2230501D03*
G01X4355351Y-2180387D03*
G01X4355351Y-2151710D03*
G54D58*
G01X4864849Y-2921203D03*
G01X4864849Y-2057197D03*
G54D59*
G01X4446842Y-2057197D03*
G01X4446867Y-2921203D03*
G54D61*
G01X1330008Y-907796D03*
G01X1330008Y-717804D03*
G01X1082993Y-812800D03*
G54D62*
G01X4247896Y-1832292D03*
G01X4057904Y-1832292D03*
G01X4152900Y-2079307D03*
G54D36*
G01X1689100Y-1681582D03*
G01X1689100Y-1595018D03*
G54D20*
G01X1911502Y-711200D03*
G01X1771498Y-711200D03*
G01X4654702Y-1587500D03*
G01X4514698Y-1587500D03*
G54D40*
G01X1600200Y-3447898D03*
G01X1600200Y-3587902D03*
G54D20*
G01X1365402Y-1193800D03*
G01X1225398Y-1193800D03*
G54D16*
G01X2127098Y-3822700D03*
G01X2267102Y-3822700D03*
G54D34*
G01X1908708Y-368300D03*
G01X1799692Y-368300D03*
G04 Pad End*

G04 Via Start*
G54D63*
G01X3975100Y-2628900D03*
G01X3886200Y-2667000D03*
G01X2413000Y-2146300D03*
G01X2222500Y-2461798D03*
G01X2552700Y-2870200D03*
G01X2578100Y-2349500D03*
G01X2705100Y-3200400D03*
G01X2463800Y-3759200D03*
G01X2286000Y-1866900D03*
G54D64*
G01X1945582Y-3441096D03*
G01X3962400Y-2527300D03*
G01X4089400Y-2400300D03*
G01X2933700Y-1912533D03*
G01X2171700Y-3048000D03*
G01X2997200Y-2273300D03*
G01X3987800Y-2082800D03*
G54D65*
G01X2133600Y-2260600D03*
G01X2222500Y-2578100D03*
G01X2222698Y-2753901D03*
G01X4191000Y-1981200D03*
G01X3378200Y-2463800D03*
G01X3429000Y-2374900D03*
G01X3784600Y-2743200D03*
G01X2772719Y-1790700D03*
G01X2478707Y-1805607D03*
G54D63*
G01X392000Y-2751401D03*
G01X392000Y-2451401D03*
G01X392000Y-2151401D03*
G01X392000Y-1851401D03*
G01X392000Y-1589501D03*
G01X392000Y-1289501D03*
G01X444500Y-990600D03*
G01X392000Y-689501D03*
G01X392000Y-389501D03*
G01X692000Y-3089501D03*
G01X692000Y-2751401D03*
G01X692000Y-2451401D03*
G01X692000Y-2151401D03*
G01X692000Y-1289501D03*
G01X992000Y-1851401D03*
G01X992000Y-1589501D03*
G01X990600Y-990600D03*
G01X1291999Y-3089501D03*
G01X1308100Y-1866900D03*
G01X1384300Y-990600D03*
G01X1591999Y-1851401D03*
G01X1891999Y-3689500D03*
G01X1891999Y-1851401D03*
G01X1879600Y-977900D03*
G01X1625600Y-812800D03*
G01X2191999Y-1589501D03*
G01X2491999Y-1289501D03*
G01X3568700Y-635000D03*
G01X4891998Y-3089501D03*
G01X4891998Y-2789501D03*
G01X4891998Y-2489501D03*
G01X4891998Y-2189501D03*
G54D65*
G01X1346200Y-2273300D03*
G01X1460500Y-2273300D03*
G01X1581223Y-2273300D03*
G01X1701800Y-2273300D03*
G01X1397000Y-1854200D03*
G01X1498600Y-1854200D03*
G01X1206500Y-1879600D03*
G01X1092200Y-1879600D03*
G01X939800Y-1892300D03*
G01X990600Y-2971800D03*
G01X1124857Y-2971800D03*
G01X1259114Y-2971800D03*
G01X1393371Y-2971800D03*
G01X1527629Y-2971800D03*
G01X1930400Y-2971800D03*
G01X2044700Y-3009900D03*
G01X2400300Y-2314300D03*
G01X901700Y-2070100D03*
G01X1993900Y-1854200D03*
G01X2103433Y-1854200D03*
G01X2197100Y-1854200D03*
G01X1682396Y-1854200D03*
G01X1752600Y-2438400D03*
G01X1727200Y-2755900D03*
G01X1943100Y-3517900D03*
G01X2362873Y-1789481D03*
G01X4279900Y-2882900D03*
G01X1981200Y-1600200D03*
G01X1661886Y-2971800D03*
G01X1796143Y-2971800D03*
G01X2476500Y-3632200D03*
G01X2273300Y-3086100D03*
G01X2247900Y-3213100D03*
G01X2590800Y-4470400D03*
G01X2501900Y-4457700D03*
G01X2857500Y-3695700D03*
G01X2921000Y-3746500D03*
G01X1511300Y-4406900D03*
G01X1955800Y-4584700D03*
G01X2082800Y-4635500D03*
G01X3746500Y-3771900D03*
G01X2476500Y-3035300D03*
G01X1193800Y-4559300D03*
G01X3949700Y-1638300D03*
G01X4191000Y-774700D03*
G01X4318000Y-774700D03*
G01X2565400Y-558800D03*
G01X2692400Y-508000D03*
G01X3657600Y-1587500D03*
G01X3721100Y-1638300D03*
G01X885060Y-482600D03*
G01X863600Y-647700D03*
G01X4483100Y-1244600D03*
G01X1193800Y-571500D03*
G01X4203700Y-1511300D03*
G01X4584700Y-1854200D03*
G01X4152900Y-1783637D03*
G01X2146300Y-3695700D03*
G01X2768600Y-3352800D03*
G01X3238500Y-3136900D03*
G01X3543300Y-1320800D03*
G01X3543300Y-965200D03*
G01X4025900Y-2222500D03*
G01X4089400Y-2755900D03*
G01X4038600Y-2946400D03*
G54D63*
G01X1778000Y-1854200D03*
G01X1689100Y-1482445D03*
G04 Via End*

G04 Track Start*
G54D10*
G01X3236290Y-2714498D02*
G01X3234187Y-2716601D01*
G01X3236290Y-2767508D02*
G01X3235383Y-2766601D01*
G01X1731244Y-2628501D02*
G01X2101101Y-2628501D01*
G01X2946400Y-3269590D02*
G01X2950693Y-3265297D01*
G01X1787690Y-3638296D02*
G01X1787690Y-3780726D01*
G01X1804264Y-3797300D01*
G01Y-3937000D01*
G01X1977682Y-3638296D02*
G01X2047710Y-3638296D01*
G01X2047710Y-3448304D02*
G01X2209800Y-3448304D01*
G01X2215896Y-3454400D01*
G01X1921408Y-3962400D02*
G01X1921408Y-3856228D01*
G01X1954936Y-3822700D01*
G01X2127098Y-3822700D02*
G01X2381504Y-3568294D01*
G01Y-3454400D01*
G01X1651000Y-3454400D02*
G01X1781594Y-3454400D01*
G01X1787690Y-3448304D01*
G01X1811528Y-3961536D02*
G01X1812392Y-3962400D01*
G01X1600200Y-3810864D02*
G01X1600200Y-3587902D01*
G01X1954936Y-3822700D02*
G01X2127098Y-3822700D01*
G01X1600200Y-3961536D02*
G01X1811528Y-3961536D01*
G54D64*
G01X1559090Y-1377696D02*
G01X1562100Y-1380706D01*
G01Y-1595018D01*
G01X1689100D01*
G01X1409700Y-1588364D02*
G01X1541272Y-1588364D01*
G01X1549400Y-1596492D01*
G01X1819110Y-1187704D02*
G01X2019808Y-1187704D01*
G01X2044700Y-1212596D01*
G01X2044700Y-1409700D02*
G01X1778000Y-1676400D01*
G01X1694282Y-1676400D02*
G01X1689100Y-1681582D01*
G01X1630909Y-1676400D02*
G01X1601800Y-1705508D01*
G01X1549400D01*
G01X1694282Y-1676400D02*
G01X1630909Y-1676400D01*
G01X1694282Y-1676400D02*
G01X1778000Y-1676400D01*
G01X1714500Y-1343114D02*
G01X1714500Y-1346200D01*
G01X1745996Y-1377696D01*
G01X1819110D01*
G54D10*
G01X2126501Y-2428499D02*
G01X2189201Y-2428499D01*
G01X2222500Y-2461798D01*
G01X2197298Y-2728501D02*
G01X2222698Y-2753901D01*
G01X2400300Y-2990400D02*
G01X2401499Y-2991599D01*
G01X2451499Y-2184799D02*
G01X2451499Y-2253501D01*
G01X2413000Y-2146300D02*
G01X2451499Y-2184799D01*
G01X2705100Y-3193910D02*
G01X2698890Y-3187700D01*
G01X1772818Y-2006600D02*
G01X1346200Y-2006600D01*
G01X591718Y-1531518D02*
G01X591718Y-1569201D01*
G01X1383106Y-2000225D02*
G01X1384300Y-2001418D01*
G01X3263900Y-1870608D02*
G01X3393600Y-1870608D01*
G01X3660610Y-2063496D02*
G01X3775238Y-2063496D01*
G01X3400590Y-2063496D02*
G01X3400590Y-2178147D01*
G01X3660610Y-1873504D02*
G01X3803040Y-1873504D01*
G01X3822700Y-1893164D01*
G01X3263900Y-1984908D02*
G01X3644202Y-1984908D01*
G01X3660610Y-1968500D01*
G01X2826499Y-3550399D02*
G01X2826499Y-2878501D01*
G01X2705100Y-3200400D02*
G01X2705100Y-3193910D01*
G01X2286000Y-1847710D02*
G01X2292210Y-1841500D01*
G01X2286000Y-1866900D02*
G01X2286000Y-1847710D01*
G01X2222500Y-2578100D02*
G01X2126899Y-2578100D01*
G01X2126501Y-2578499D01*
G01X3596310Y-2820492D02*
G01X3597402Y-2819400D01*
G01X3683000Y-2870200D02*
G01X3599612Y-2870200D01*
G01X3596310Y-2873502D01*
G01X3308990Y-2820492D02*
G01X3236290Y-2820492D01*
G01X3954704Y-2608504D02*
G01X3596310Y-2608504D01*
G01X3975100Y-2628900D02*
G01X3954704Y-2608504D01*
G01X3880714Y-2661514D02*
G01X3596310Y-2661514D01*
G01X3886200Y-2667000D02*
G01X3880714Y-2661514D01*
G01X3308990Y-2873502D02*
G01X3236290Y-2873502D01*
G01X3429000Y-2753492D02*
G01X3308990Y-2873502D01*
G01X3429000Y-2641600D02*
G01X3429000Y-2753492D01*
G01X4089400Y-2400300D02*
G01X4103294Y-2414194D01*
G01X3962400Y-2527300D02*
G01X3543300Y-2527300D01*
G01X3429000Y-2641600D01*
G01X4368597Y-2464206D02*
G01X4368190Y-2463800D01*
G01X3929482Y-2362200D02*
G01X4013200Y-2362200D01*
G01X4061206Y-2314194D01*
G01X4368597D01*
G01X4368597Y-2614193D02*
G01X4185488Y-2614193D01*
G01X4183482Y-2616200D01*
G01X2201499Y-3018201D02*
G01X2201499Y-2991599D01*
G01X2171700Y-3048000D02*
G01X2201499Y-3018201D01*
G01X2101164Y-2730500D02*
G01X1977469Y-2730500D01*
G01X1127021Y-2300275D02*
G01X1250581Y-2300275D01*
G01X2126501Y-2428499D02*
G01X1969409Y-2428499D01*
G01X1959508Y-2438400D01*
G01X1850492Y-2438400D02*
G01X1795961Y-2438400D01*
G01X1466342Y-2451100D02*
G01X1378458Y-2451100D01*
G01X1088921Y-2450313D02*
G01X1206778Y-2450313D01*
G01X2126501Y-2478499D02*
G01X2019735Y-2478499D01*
G01X1897482Y-2044700D02*
G01X2366281Y-2044700D01*
G01X2501501Y-2224606D02*
G01X2501501Y-2253501D01*
G01X2292210Y-1841500D02*
G01X2292210Y-1714500D01*
G01X2445848Y-2090248D02*
G01X2424356Y-2068756D01*
G01X2551501Y-2228101D02*
G01X2551501Y-2213069D01*
G01X2231216Y-1930400D02*
G01X1346200Y-1930400D01*
G01X1209470Y-1950212D02*
G01X1088921Y-1950212D01*
G01X1239622Y-457200D02*
G01X1490732Y-457200D01*
G01X2603500Y-2251502D02*
G01X2601501Y-2253501D01*
G01X2603500Y-1930400D02*
G01X2603500Y-2251502D01*
G01X2432190Y-1759090D02*
G01X2432190Y-1714500D01*
G54D64*
G01X3003410Y-2279510D02*
G01X3111500Y-2279510D01*
G01X2997200Y-2273300D02*
G01X3003410Y-2279510D01*
G54D10*
G01X3086100Y-2419490D02*
G01X3111500Y-2419490D01*
G01X2779751Y-1435100D02*
G01X2870200Y-1435100D01*
G01X2933700Y-1498600D01*
G01Y-1912533D01*
G01X2806700Y-2019300D02*
G01X2751501Y-2074499D01*
G01X2806700Y-2019300D02*
G01X2921000Y-2019300D01*
G01X3035300Y-1905000D01*
G01Y-1460500D01*
G01X2895600Y-1320800D01*
G01X2792451D01*
G01X2779751Y-1308100D01*
G01X2628900Y-1257300D02*
G01X2705100Y-1181100D01*
G01X2779751D01*
G01X2839618Y-1790700D02*
G01X2839618Y-1621968D01*
G01X2779751Y-1562100D01*
G01X2201499Y-2253501D02*
G01X2194400Y-2260600D01*
G01X2133600D01*
G01X2010308D01*
G01X1997608Y-2247900D01*
G01X3597402Y-2819400D02*
G01X3801809Y-2819400D01*
G01X4301007Y-3318599D01*
G01X3886200Y-3073400D02*
G01X3683000Y-2870200D01*
G01X4080993Y-3488601D02*
G01X3983901Y-3488601D01*
G01X3886200Y-3390900D01*
G01Y-3073400D01*
G01X3619500Y-3276600D02*
G01X3619500Y-3002686D01*
G01X3596310Y-2979496D01*
G01X2381504Y-3454400D02*
G01X2362200Y-3435096D01*
G01Y-3147264D01*
G01X2126501Y-2728501D02*
G01X2197298Y-2728501D01*
G01X2705100Y-2995198D02*
G01X2701501Y-2991599D01*
G01X2705100Y-3193910D02*
G01X2705100Y-2995198D01*
G01X2705100Y-3200400D02*
G01X2705100Y-3526892D01*
G01X3320212Y-2926512D02*
G01X3236290Y-2926512D01*
G54D64*
G01X4191000Y-1981200D02*
G01X4191000Y-1965388D01*
G54D10*
G01X3533770Y-2926512D02*
G01X3596310Y-2926512D01*
G01X3508370Y-3241670D02*
G01X3508370Y-2951912D01*
G01X3533770Y-2926512D01*
G01X3390900Y-2997200D02*
G01X3320212Y-2926512D01*
G01X1794898Y-3441096D02*
G01X1787690Y-3448304D01*
G01X3371698Y-2305202D02*
G01X3371698Y-2247900D01*
G01X3530600Y-2463800D02*
G01X3378200Y-2616200D01*
G01Y-2751282D01*
G01X3308990Y-2820492D01*
G01X3429000Y-2374900D02*
G01X3353200Y-2374900D01*
G01X3136900Y-2591200D01*
G01Y-2641600D01*
G01X3156814Y-2661514D01*
G01X3236290D01*
G01X3378200Y-2463800D02*
G01X3378200Y-2466594D01*
G01X3236290Y-2608504D01*
G54D64*
G01X4572000Y-3060700D02*
G01X4229100Y-3060700D01*
G01X4191000Y-3022600D01*
G54D10*
G01X4471594Y-2414194D02*
G01X4495800Y-2438400D01*
G01Y-2489200D01*
G01X4369003Y-2514600D02*
G01X4368597Y-2514194D01*
G01X4495800Y-2489200D02*
G01X4470400Y-2514600D01*
G01X4369003D01*
G01X4367403Y-2565400D02*
G01X4368597Y-2564206D01*
G01X4368190Y-2463800D02*
G01X4239926Y-2463800D01*
G01X3530600D01*
G54D64*
G01X3784600Y-2743200D02*
G01X3955876Y-2743200D01*
G01X4191000Y-2978324D01*
G01X4191000Y-3022600D02*
G01X4191000Y-2978324D01*
G01X2082800Y-1416304D02*
G01X2314296Y-1416304D01*
G01X2434692Y-1536700D01*
G01X2434692Y-1673898D02*
G01X2432190Y-1676400D01*
G54D10*
G01X2710282Y-1790700D02*
G01X2772719Y-1790700D01*
G01X2839618D01*
G01X2432190Y-1759090D02*
G01X2478707Y-1805607D01*
G01X2603500Y-1930400D01*
G01X2839618Y-1790700D02*
G01X2839618Y-1917700D01*
G01X2832100Y-1925218D01*
G01X2768600Y-3008699D02*
G01X2751501Y-2991599D01*
G01X2768600Y-3098800D02*
G01X2768600Y-3008699D01*
G01X2651501Y-2778526D02*
G01X2476487Y-2603513D01*
G01X2362200Y-3098800D02*
G01X2362200Y-3147264D01*
G01X2401499Y-3059501D02*
G01X2362200Y-3098800D01*
G01X2401499Y-2991599D02*
G01X2401499Y-3059501D01*
G01X2351499Y-2991599D02*
G01X2351499Y-3059212D01*
G01X2309371Y-3101340D01*
G01X2123440D01*
G01X2044700Y-3022600D01*
G01X2651501Y-2253501D02*
G01X2651501Y-2428499D01*
G01X2476487Y-2603513D01*
G01X2251499Y-2253501D02*
G01X2251499Y-2316201D01*
G01X2297499Y-2362200D01*
G01X2438400Y-2362200D02*
G01X2565400Y-2362200D01*
G01X2578100Y-2349500D01*
G01X2297499Y-2362200D02*
G01X2360198Y-2362200D01*
G01X2368611Y-2370613D01*
G01X2429987D01*
G01X2438400Y-2362200D01*
G01X2601501Y-2253501D02*
G01X2601501Y-2326099D01*
G01X2578100Y-2349500D01*
G01X4368597Y-2824201D02*
G01X4433595Y-2889199D01*
G01Y-2921203D01*
G01X4433595Y-2057197D02*
G01X4433595Y-2089201D01*
G01X4368597Y-2154199D01*
G01X3378200Y-3333902D02*
G01X3378200Y-3463392D01*
G01X3365500Y-3476092D01*
G01X1945582Y-3441096D02*
G01X1794898Y-3441096D01*
G01X1787690Y-3448304D02*
G01X1977682Y-3638296D01*
G01X1799539Y-3147264D02*
G01X1784502Y-3162300D01*
G01X1799539Y-3147264D02*
G01X2362200Y-3147264D01*
G01X1383106Y-2000225D02*
G01X1088921Y-2000225D01*
G01X934930D01*
G01X927100Y-2044700D02*
G01X1119858Y-2044700D01*
G01X901700Y-2070100D02*
G01X927100Y-2044700D01*
G01X1810918Y-2044700D02*
G01X1772818Y-2006600D01*
G01X2301499Y-2209118D02*
G01X2301499Y-2240801D01*
G01X2286000Y-2171700D02*
G01X2284897Y-2171700D01*
G01X2274857Y-2161660D01*
G01Y-2160557D01*
G01X1970336Y-2146300D02*
G01X2240437Y-2146300D01*
G01X1378458Y-2351024D02*
G01X1373100Y-2351024D01*
G01X1378458Y-2351024D02*
G01X1466342Y-2351024D01*
G01X1785092Y-2378499D02*
G01X2101101Y-2378499D01*
G01X1689100Y-2400300D02*
G01X1038121Y-2400300D01*
G01X1724764Y-2451100D02*
G01X1701800Y-2451100D01*
G01X1466342D01*
G01X1724764Y-2451100D02*
G01X1727838Y-2454175D01*
G01X1918462Y-2501900D02*
G01X1917700Y-2501138D01*
G01X1479042Y-2501138D02*
G01X1917700Y-2501138D01*
G01X1962687D01*
G01X1466342Y-2501138D02*
G01X1378458Y-2501138D01*
G01X1331714Y-2501138D02*
G01X1330936Y-2500359D01*
G01X1378458Y-2501138D02*
G01X1339487Y-2501138D01*
G01X1331714D01*
G01X1206778Y-2450313D02*
G01X1231295Y-2450313D01*
G01X1378458Y-2551176D02*
G01X1065544Y-2551176D01*
G01X2032000Y-2527300D02*
G01X2123606Y-2527300D01*
G01X1378458Y-2551176D02*
G01X1466342Y-2551176D01*
G01X1974358D01*
G01X1320869Y-2655824D02*
G01X1378458Y-2655824D01*
G01X1318621Y-2654300D02*
G01X1633039Y-2654300D01*
G01X1378458Y-2705862D02*
G01X1094433Y-2705862D01*
G01X1466342Y-2705862D02*
G01X1378458Y-2705862D01*
G01X1694700Y-2705862D02*
G01X1466342Y-2705862D01*
G01X1757861Y-2679700D02*
G01X2123606Y-2679700D01*
G01X1807131Y-2755900D02*
G01X1727200Y-2755900D01*
G01X1466342Y-2755900D02*
G01X1727200Y-2755900D01*
G01X1378458Y-2755900D02*
G01X1466342Y-2755900D01*
G01X1088921Y-2750363D02*
G01X1213271Y-2750363D01*
G01X1347442Y-2805938D02*
G01X1378458Y-2805938D01*
G01X1466342D01*
G01X1689100D01*
G01X1790700Y-2806700D02*
G01X1983379Y-2806700D01*
G01X2044700Y-2781300D02*
G01X2119743Y-2781300D01*
G01X1980590Y-2100250D02*
G01X1981200Y-2099640D01*
G01X1959940Y-2100250D02*
G01X1981200Y-2099640D01*
G01X2221717D01*
G01X2222631Y-2098726D01*
G01X1088921Y-2100250D02*
G01X1959940Y-2100250D01*
G01X1980590D01*
G01X1466342Y-2351024D02*
G01X1667460Y-2351024D01*
G01X2126501Y-2328499D02*
G01X1721840Y-2328499D01*
G54D64*
G01X1559090Y-1187704D02*
G01X1714500Y-1343114D01*
G01X2434692Y-1536700D02*
G01X2434692Y-1673898D01*
G01X2044700Y-1409700D02*
G01X2044700Y-1378204D01*
G01X2434692Y-1673898D02*
G01X2434692Y-1711998D01*
G54D10*
G01X690982Y-1464310D02*
G01X690982Y-1541241D01*
G01X690982Y-1464310D02*
G01X745592Y-1409700D01*
G54D64*
G01X589382Y-1409700D02*
G01X745592Y-1409700D01*
G54D10*
G01X591718Y-1531518D02*
G01X502818Y-1442618D01*
G01X495300Y-1435100D01*
G54D64*
G01X502818Y-1409700D02*
G01X502818Y-1442618D01*
G54D10*
G01X1721600Y-2819400D02*
G01X1760039Y-2819400D01*
G01X1701800Y-2870200D02*
G01X1983379Y-2870200D01*
G01X2044700Y-2844800D02*
G01X2048420Y-2841080D01*
G01X2070100Y-2832100D02*
G01X2117812Y-2832100D01*
G01X1378458Y-2855976D02*
G01X1466342Y-2855976D01*
G01X1667460D01*
G01X1088921Y-2850388D02*
G01X1227430Y-2850388D01*
G01X1244600Y-2857500D02*
G01X1374779Y-2857500D01*
G01X3841598Y-4025900D02*
G01X3841598Y-3574898D01*
G01X3508370Y-3241670D01*
G01X3619500Y-3276600D02*
G01X3987800Y-3644900D01*
G01Y-3714598D01*
G01X2552700Y-2870200D02*
G01X2552700Y-3918102D01*
G01X2584298Y-3949700D01*
G01X2702890Y-4475912D02*
G01X2799512Y-4475912D01*
G01X2933700Y-4610100D01*
G01Y-4679798D01*
G01X2927198Y-4686300D01*
G01X2933700Y-4679798D02*
G01X2756205Y-4679798D01*
G01X2749702Y-4686300D01*
G01X2781300Y-4102100D02*
G01X2806700Y-4127500D01*
G01Y-4178300D01*
G01X2774086Y-4210914D02*
G01X2702890Y-4210914D01*
G01X2806700Y-4178300D02*
G01X2774086Y-4210914D01*
G01X3369793Y-4161701D02*
G01X3161602Y-4369892D01*
G01X3062910D01*
G01X3589807Y-3991699D02*
G01X3746500Y-4148391D01*
G01Y-4229100D01*
G01X3657600Y-4318000D01*
G01X3314700D01*
G01X3209798Y-4422902D01*
G01X3062910D01*
G01X3062910Y-4475912D02*
G01X3353486Y-4475912D01*
G01X3371698Y-4457700D01*
G01X3062910Y-4528896D02*
G01X3277794Y-4528896D01*
G01X3371698Y-4622800D01*
G01X3369793Y-3991699D02*
G01X3419805Y-3991699D01*
G01X3589807Y-4161701D01*
G01X2590800Y-4470400D02*
G01X2638298Y-4422902D01*
G01X2702890D01*
G01X2082800Y-4610100D02*
G01X2082800Y-4635500D01*
G01X2946400Y-2882900D02*
G01X2946400Y-3269590D01*
G01X2751501Y-2991599D02*
G01X2751501Y-2893930D01*
G01X2651501Y-2793930D01*
G01Y-2778526D01*
G01X2488415Y-2966585D02*
G01X2476487Y-2966585D01*
G01Y-2666987D01*
G01X2222698Y-2753901D02*
G01X2222698Y-2832298D01*
G01X2247900Y-2857500D01*
G01X2362200D01*
G01X2400300Y-2895600D01*
G01Y-2990400D01*
G01X2840398Y-2527300D02*
G01X2768600Y-2527300D01*
G01X2730500Y-2565400D01*
G01X2864998Y-2578100D02*
G01X2927490Y-2578100D01*
G01X3086100Y-2419490D01*
G01X2730500Y-2565400D02*
G01X2730500Y-2604587D01*
G01X2754813Y-2628900D01*
G01X3048000D01*
G01X3371698Y-2305202D01*
G01X3234187Y-2716601D02*
G01X3097601Y-2716601D01*
G01X3059501Y-2678501D01*
G01X2826499D01*
G01X3235383Y-2766601D02*
G01X3084101Y-2766601D01*
G01X3046001Y-2728501D01*
G01X2826499D01*
G01X2791198Y-2781300D02*
G01X2964282Y-2781300D01*
G01X3060700Y-2877718D01*
G01X2826499Y-2828501D02*
G01X2892001Y-2828501D01*
G01X2946400Y-2882900D01*
G01X3365500Y-3585108D02*
G01X3331108Y-3619500D01*
G01X2895600Y-3619500D02*
G01X2826499Y-3550399D01*
G01X3148203Y-3488207D02*
G01X3148203Y-3612679D01*
G01X3155024Y-3619500D01*
G01X3331108Y-3619500D02*
G01X3155024Y-3619500D01*
G01X2895600D01*
G54D66*
G01X1600200Y-3447898D02*
G01X1454302Y-3447898D01*
G54D64*
G01X4572000Y-3060700D02*
G01X4724400Y-3213100D01*
G01Y-3417164D01*
G54D10*
G01X3390900Y-3213100D02*
G01X3657600Y-3479800D01*
G01Y-3524098D01*
G01X3689502Y-3556000D01*
G01X3390900Y-3213100D02*
G01X3390900Y-3222090D01*
G01X3390900Y-3213100D02*
G01X3390900Y-3009900D01*
G01X3689502Y-3556000D02*
G01X3372002Y-3873500D01*
G01X3073400D01*
G01X2971800Y-3975100D01*
G01X2971800Y-4303624D02*
G01X2799512Y-4475912D01*
G01X2971800Y-4303624D02*
G01X2971800Y-3975100D01*
G01X3689502Y-3556000D02*
G01X3746500Y-3612998D01*
G01Y-3771900D01*
G01X2451499Y-2953499D02*
G01X2451499Y-3153707D01*
G01X2472792Y-3175000D01*
G01X2701501Y-1926801D02*
G01X2628900Y-1854200D01*
G01Y-1257300D01*
G01X911220Y-2147134D02*
G01X1969502Y-2147134D01*
G01X1970336Y-2146300D01*
G01X2751501Y-2074499D02*
G01X2751501Y-2291601D01*
G01X2701501Y-2291601D02*
G01X2701501Y-1926801D01*
G01X2651501Y-2793930D02*
G01X2651501Y-2991599D01*
G01X1193800Y-4559300D02*
G01X1298702Y-4559300D01*
G01X1320800Y-4537202D01*
G54D66*
G01X951306Y-3834206D02*
G01X1009650Y-3892550D01*
G01X1454302Y-3447898D01*
G54D67*
G01X1193800Y-4076700D02*
G01X1009650Y-3892550D01*
G54D10*
G01X596900Y-532206D02*
G01X596900Y-571500D01*
G01X4103294Y-2414194D02*
G01X4471594Y-2414194D01*
G54D64*
G01X4191000Y-1965388D02*
G01X4057904Y-1832292D01*
G54D65*
G01X3987800Y-2082800D02*
G01X4149408Y-2082800D01*
G01X4152900Y-2079307D01*
G01X4241800Y-2247900D02*
G01X4337952Y-2247900D01*
G01X4149408Y-2082800D02*
G01X4149408Y-2155507D01*
G01X4241800Y-2247900D01*
G54D10*
G01X3822700Y-2043836D02*
G01X3836264Y-2057400D01*
G01X3962400Y-2057400D02*
G01X3836264Y-2057400D01*
G54D65*
G01X520700Y-444845D02*
G01X520700Y-698500D01*
G54D68*
G01X889000Y-330200D02*
G01X985418Y-233782D01*
G01Y-215900D01*
G54D69*
G01X1431392Y-812800D02*
G01X1532992Y-914400D01*
G01X1431392Y-812800D02*
G01X1082993Y-812800D01*
G54D65*
G01X1058990Y-832700D02*
G01X774700Y-832700D01*
G54D64*
G01X3968902Y-1638300D02*
G01X4057498Y-1638300D01*
G01X4191000Y-774700D02*
G01X4191000Y-922249D01*
G01X4318000Y-774700D02*
G01X4318000Y-922249D01*
G01X3987800Y-2082800D02*
G01X3962400Y-2057400D01*
G01X3949700Y-2044700D02*
G01X3962400Y-2057400D01*
G01X3937000Y-922249D02*
G01X3937000Y-1154836D01*
G01X2946400Y-1016000D02*
G01X2946400Y-886511D01*
G01X3254553Y-886511D02*
G01X3264764Y-876300D01*
G01X3254553Y-886511D02*
G01X3073400Y-886511D01*
G01X3415436Y-876300D02*
G01X3529736Y-762000D01*
G01X3708400D01*
G01X3810000Y-863600D01*
G01Y-922249D01*
G01X3683000Y-347751D02*
G01X3683000Y-460402D01*
G01X3806798Y-584200D01*
G01X4533900D01*
G01X4737100Y-787400D01*
G01Y-1125322D01*
G54D10*
G01X2643887Y-4157904D02*
G01X2702890Y-4157904D01*
G01X2641600Y-4102100D02*
G01X2781300Y-4102100D01*
G01X2589708Y-4369892D02*
G01X2702890Y-4369892D01*
G01X2501900Y-4457700D02*
G01X2589708Y-4369892D01*
G01X2692400Y-332689D02*
G01X2692400Y-508000D01*
G01X2565400Y-558800D02*
G01X2565400Y-332689D01*
G54D64*
G01X3937000Y-1154836D02*
G01X3859936Y-1231900D01*
G01X4064000Y-922249D02*
G01X4064000Y-1257300D01*
G54D10*
G01X4191000Y-1270000D02*
G01X4191000Y-922249D01*
G01X4239926Y-2463800D02*
G01X4239926Y-2538126D01*
G01X4267200Y-2565400D01*
G01X4367403D01*
G01X2702890Y-4263898D02*
G01X2784602Y-4263898D01*
G01X2857500Y-4191000D02*
G01X2784602Y-4263898D01*
G01X2857500Y-3695700D02*
G01X2857500Y-4191000D01*
G01X2921000Y-3746500D02*
G01X2921000Y-4216400D01*
G01X2820492Y-4316908D01*
G01X2702890D01*
G54D64*
G01X4419600Y-1803400D02*
G01X4330700Y-1714500D01*
G54D10*
G01X2488415Y-2966585D02*
G01X2501501Y-2953499D01*
G01X2463800Y-3759200D02*
G01X2463800Y-3822700D01*
G01X2238908Y-4047592D01*
G54D65*
G01X2422906Y-4047592D02*
G01X2425700Y-4044798D01*
G01X2120900Y-4047592D02*
G01X2238908Y-4047592D01*
G01X2422906D01*
G54D10*
G01X2311400Y-444500D02*
G01X2311400Y-332689D01*
G01X4329836Y-4013200D02*
G01X4689500Y-4013200D01*
G01X4724400Y-3978300D01*
G01X4724400Y-4378300D02*
G01X4902200Y-4200500D01*
G01Y-3708400D01*
G01X4761636Y-3567836D01*
G01X4724400D01*
G54D65*
G01X1097178Y-406400D02*
G01X1097178Y-484975D01*
G01X1330008Y-717804D01*
G54D64*
G01X4191000Y-1981200D02*
G01X4318000Y-1981200D01*
G01X4419600Y-1879600D01*
G01Y-1803400D01*
G01X4191000Y-2978324D02*
G01X4191000Y-2794000D01*
G01X4254500Y-2730500D01*
G01X4352290D01*
G01X4643222Y-1730007D02*
G01X4660900Y-1712329D01*
G01Y-1201522D01*
G01X4737100Y-1125322D01*
G01X4330700Y-1714500D02*
G01X4330700Y-1524000D01*
G01X4495800Y-1358900D01*
G01X4495800Y-1257300D02*
G01X4495800Y-1358900D01*
G01X4483100Y-1244600D02*
G01X4495800Y-1257300D01*
G54D10*
G01X3721100Y-1638300D02*
G01X3797300Y-1562100D01*
G01X4013200D01*
G01X3657600Y-1587500D02*
G01X3733800Y-1511300D01*
G01X3949700D01*
G01X4191000Y-1270000D01*
G01X4013200Y-1562100D02*
G01X4318000Y-1257300D01*
G01Y-922249D01*
G54D64*
G01X3826408Y-1417117D02*
G01X3826408Y-1422400D01*
G01X3904183Y-1417117D02*
G01X3826408Y-1417117D01*
G01X3904183Y-1417117D02*
G01X4064000Y-1257300D01*
G01X3022600Y-1092200D02*
G01X2946400Y-1016000D01*
G01X3709264Y-1270000D02*
G01X3632200Y-1270000D01*
G01X3454400Y-1092200D01*
G01X3022600D01*
G01X3949700Y-1638300D02*
G01X3949700Y-2044700D01*
G54D10*
G01X863600Y-482600D02*
G01X838200Y-508000D01*
G01X621106D01*
G01X596900Y-532206D01*
G01X596900Y-571500D02*
G01X635000Y-609600D01*
G01X761797D01*
G01X863600Y-591247D02*
G01X863600Y-647700D01*
G01X761797Y-558800D02*
G01X831153Y-558800D01*
G01X863600Y-591247D01*
G01X863600Y-660400D02*
G01X749910Y-660400D01*
G01X919582Y-762000D02*
G01X990600Y-690982D01*
G01X783957Y-762000D02*
G01X919582Y-762000D01*
G54D68*
G01X520700Y-698500D02*
G01X652399Y-830199D01*
G54D65*
G01X1071690Y-820000D02*
G01X1058990Y-832700D01*
G54D68*
G01X649097Y-341503D02*
G01X711543Y-341503D01*
G01X520700Y-444845D02*
G01X594043Y-371503D01*
G01X619097D01*
G01X649097Y-341503D01*
G01X711949Y-459207D02*
G01X810793Y-459207D01*
G01X889000Y-381000D01*
G01Y-330200D01*
G54D10*
G01X1365402Y-1193800D02*
G01X1552994Y-1193800D01*
G01X1559090Y-1187704D01*
G54D64*
G01X2082800Y-1416304D02*
G01X2044700Y-1378204D01*
G54D65*
G01X1559090Y-1187704D02*
G01X1667294Y-1079500D01*
G01X2882900Y-1079500D02*
G01X3111500Y-1308100D01*
G01Y-2279510D01*
G01X1667294Y-1079500D02*
G01X2882900Y-1079500D01*
G54D64*
G01X3859936Y-1231900D02*
G01X3859936Y-1270000D01*
G01X1924202Y-368300D02*
G01X2186889Y-368300D01*
G54D10*
G01X1092200Y-4394200D02*
G01X1325702Y-4394200D01*
G01X1320800Y-4537202D02*
G01X1320800Y-4508500D01*
G01X1786611Y-4343400D02*
G01X2400300Y-4343400D01*
G01X2641600Y-4102100D01*
G01X1785798Y-4394200D02*
G01X2407590Y-4394200D01*
G01X2643887Y-4157904D01*
G01X1748485Y-4445000D02*
G01X1917700Y-4445000D01*
G01X2082800Y-4610100D01*
G01X1748485Y-4445000D02*
G01X1747698Y-4444213D01*
G01X1749298Y-4495800D02*
G01X1866900Y-4495800D01*
G01X1955800Y-4584700D01*
G01X1749298Y-4495800D02*
G01X1747698Y-4494200D01*
G01X927100Y-4318000D02*
G01X1016000Y-4318000D01*
G01X1092200Y-4394200D01*
G01X951306Y-4103713D02*
G01X812800Y-4242219D01*
G54D67*
G01X1325702Y-4294200D02*
G01X1246200Y-4294200D01*
G01X1193800Y-4241800D01*
G01Y-4076700D01*
G54D10*
G01X1325702Y-4344213D02*
G01X1448613Y-4344213D01*
G01X1511300Y-4406900D01*
G01X812800Y-4242219D02*
G01X812800Y-4356100D01*
G01X900913Y-4444213D01*
G01X1325702D01*
G01X1490732Y-457200D02*
G01X1516132Y-482600D01*
G01X2273300Y-482600D02*
G01X2311400Y-444500D01*
G01X1911012Y-482600D02*
G01X1911012Y-556496D01*
G01X1908708Y-558800D01*
G01X1516132Y-482600D02*
G01X1911012Y-482600D01*
G01X2273300D01*
G01X1908708Y-558800D02*
G01X1908708Y-708406D01*
G01X1911502Y-711200D01*
G01X2119774Y-2475713D02*
G02X2126501Y-2478499I0J-9513D01*
G01X1663700Y-2641600D02*
G02X1732445Y-2627810I68745J-164463D01*
G01X889000Y-1981200D02*
G03X934930Y-2000225I45929J45930D01*
G01X591718Y-1569201D02*
G03X825500Y-2120900I767864J-0D01*
G01X827682Y-2120511D02*
G03X914400Y-2146300I67169J67169D01*
G01X3393600Y-1870608D02*
G02X3400590Y-1873504I0J-9886D01*
G01X3775238Y-2063496D02*
G03X3822700Y-2043836I0J67122D01*
G01X3400590Y-2178147D02*
G02X3371698Y-2247900I-98645J0D01*
G01X1977469Y-2730500D02*
G03X1946808Y-2743200I0J-43361D01*
G01X1250581Y-2300275D02*
G02X1308100Y-2324100I0J-81344D01*
G03X1373100Y-2351024I65000J65000D01*
G01X1795961Y-2438400D02*
G03X1765300Y-2451100I0J-43361D01*
G01X2019735Y-2478499D02*
G03X1993900Y-2489200I0J-36536D01*
G01X1997381Y-2483108D02*
G02X1966721Y-2495808I-30660J30660D01*
G01X2366281Y-2044700D02*
G02X2424356Y-2068756I-0J-82131D01*
G01X2445848Y-2090248D02*
G02X2501501Y-2224606I-134358J-134358D01*
G01X2551501Y-2213069D02*
G03X2476500Y-2032000I-256070J0D01*
G03X2231216Y-1930400I-245284J-245284D01*
G01X1346200Y-1930400D02*
G02X1209470Y-1950212I-136730J461908D01*
G01X1765300Y-2451100D02*
G02X1752600Y-2438400I3977J16677D01*
G01X2286000Y-2171700D02*
G02X2301499Y-2209118I-37418J-37418D01*
G01X2240437Y-2146300D02*
G02X2274857Y-2160557I0J-48677D01*
G01X1689100Y-2400300D02*
G02X1785092Y-2378499I95992J-200434D01*
G01X1752600Y-2438400D02*
G02X1727838Y-2454175I-33177J24756D01*
G02X1701800Y-2451100I-8415J40531D01*
G01X1339487Y-2501138D02*
G03X1349843Y-2501814I10356J78993D01*
G01X1206778Y-2450313D02*
G02X1241868Y-2450990I0J-908797D01*
G02X1244600Y-2451100I-35101J-908105D01*
G01X1231295Y-2450313D02*
G02X1241868Y-2450990I0J-82812D01*
G02X1289852Y-2474568I-10573J-82134D01*
G03X1339487Y-2501138I59991J52421D01*
G01X1974358Y-2551176D02*
G03X2032000Y-2527300I0J81518D01*
G01X2123606Y-2527300D02*
G02X2126501Y-2528499I0J-4093D01*
G01X1260393Y-2628900D02*
G03X1260716Y-2630122I36211J8915D01*
G01X1193118Y-2602907D02*
G02X1260716Y-2630122I-0J-97561D01*
G02X1262104Y-2631482I-67589J-70340D01*
G03X1320869Y-2655824I58766J58766D01*
G01X1633039Y-2654300D02*
G03X1663700Y-2641600I0J43361D01*
G01X1694700Y-2705862D02*
G03X1727200Y-2692400I0J45962D01*
G02X1757861Y-2679700I30661J-30661D01*
G01X2123606Y-2679700D02*
G03X2126501Y-2678501I0J4093D01*
G01X1837792Y-2743200D02*
G02X1807131Y-2755900I-30661J30661D01*
G01X1213271Y-2750363D02*
G02X1257300Y-2768600I0J-62266D01*
G03X1347442Y-2805938I90142J90142D01*
G01X1983379Y-2806700D02*
G03X2044700Y-2781300I0J86721D01*
G01X2119743Y-2781300D02*
G03X2126501Y-2778501I0J9557D01*
G01X2201348Y-2097211D02*
G02X2222631Y-2098726I0J-150240D01*
G01X2222631Y-2098726D02*
G02X2349500Y-2222500I-21283J-148723D01*
G01X1667460Y-2351024D02*
G03X1701800Y-2336800I0J48564D01*
G01X1721840Y-2328499D02*
G03X1701800Y-2336800I0J-28340D01*
G01X690982Y-1541241D02*
G03X889000Y-1981200I587761J0D01*
G01X1689100Y-2805938D02*
G03X1721600Y-2819400I32500J32500D01*
G01X1760039Y-2819400D02*
G03X1790700Y-2806700I0J43361D01*
G01X1667460Y-2855976D02*
G02X1701800Y-2870200I0J-48564D01*
G01X1983379Y-2870200D02*
G03X2044700Y-2844800I0J86721D01*
G01X2048420Y-2841080D02*
G02X2070100Y-2832100I21680J-21680D01*
G01X2117812Y-2832100D02*
G03X2126501Y-2828501I0J12288D01*
G01X1227430Y-2850388D02*
G02X1244600Y-2857500I0J-24282D01*
G01X1374779Y-2857500D02*
G03X1378458Y-2855976I0J5203D01*
G04 Track End*

M02*
