;TYPE=PLATED
;Layer: PTH_Through_Via
;EasyEDA Pro v2.2.27.1, 2024-09-30 12:04:35
;Gerber Generator version 0.3
M48
METRIC,LZ,000.00000
;Hole size 1 = 0.30000 METRIC
T01C0.30000
;Hole size 2 = 0.30400 METRIC
T02C0.30400
;Hole size 3 = 0.30480 METRIC
T03C0.30480
;Hole size 4 = 0.30500 METRIC
T04C0.30500
;Hole size 5 = 0.60000 METRIC
T05C0.60000
%
G05
G90
T01
X20.83473Y32.89273
X21.72373Y29.71773
X21.72571Y27.95972
X26.16873Y37.59173
X24.2858Y37.44266
X12.96073Y32.76573
X14.10373Y32.76573
X15.31096Y32.76573
X16.51673Y32.76573
X13.46873Y36.95673
X14.48473Y36.95673
X11.56373Y36.70273
X10.42073Y36.70273
X8.89673Y36.57573
X9.40473Y25.78073
X10.7473Y25.78073
X12.08987Y25.78073
X13.43244Y25.78073
X14.77502Y25.78073
X18.80273Y25.78073
X19.94573Y25.39973
X23.50173Y32.35573
X8.51573Y34.79773
X19.43773Y36.95673
X20.53306Y36.95673
X21.46973Y36.95673
X16.32269Y36.95673
X17.02473Y31.11473
X16.77073Y27.93973
X23.12073Y37.21073
X19.31073Y39.49673
X16.11759Y25.78073
X17.46016Y25.78073
X24.26373Y19.17673
X24.39073Y10.92173
X22.48573Y10.92173
X28.07373Y18.54173
X28.70873Y18.03373
X19.05673Y10.41373
X19.69173Y9.65173
X35.05873Y15.49373
X24.26373Y25.14573
X24.39073Y50.16473
X25.66073Y50.29173
X8.34934Y50.67273
X8.13473Y49.02173
X11.56373Y49.91073
X20.96173Y18.54173
X27.18473Y21.97073
T02
X3.41873Y27.98472
X3.41873Y30.98472
X3.41873Y33.98472
X3.41873Y36.98472
X3.41873Y42.60372
X3.94373Y45.59273
X3.41873Y48.60372
X3.41873Y51.60372
X6.41873Y24.60373
X6.41873Y27.98472
X6.41873Y30.98472
X6.41873Y33.98472
X6.41873Y42.60372
X9.41873Y36.98472
X9.67273Y40.36572
X9.40473Y45.59273
X12.57973Y36.82973
X13.34173Y45.59273
X15.41872Y36.98472
X18.41872Y36.98472
X18.29473Y45.71973
X15.11973Y47.24373
X20.58073Y39.62373
X48.41871Y24.60373
X17.27873Y36.95673
T03
X28.20073Y36.57573
X21.21573Y25.27273
T04
X37.34473Y20.44673
X36.96373Y19.55773
X23.62873Y34.03573
X21.72373Y30.88075
X25.02573Y26.79673
X25.27973Y32.00373
X26.54973Y23.49473
X24.13673Y17.90673
X22.35873Y36.82973
X16.38973Y40.67428
X12.19873Y20.57373
X11.30973Y20.44673
X14.23073Y12.06473
X12.32573Y17.65273
X10.16673Y19.81173
X21.82447Y16.20272
X30.23273Y15.87473
X30.86773Y15.23973
X42.67873Y21.08173
X42.04373Y47.24373
X42.93273Y49.78373
X24.00973Y6.98473
X47.75873Y36.82973
X40.26573Y21.58973
X41.15473Y21.33573
X46.61573Y42.03673
X45.85373Y41.52873
X43.94873Y24.51073
X44.96473Y22.47873
X29.85173Y29.59073
X34.42373Y23.87573
X33.78873Y22.98673
X34.42373Y31.11473
X34.67773Y32.51173
X30.71498Y49.14873
X32.26473Y20.95473
X23.88273Y8.88973
X33.02673Y41.90973
X31.32515Y44.42413
X19.43773Y53.33973
X22.99373Y50.29173
X13.70713Y49.52973
X35.18573Y14.09673
X30.74073Y26.16173
X30.10573Y21.20873
X29.34373Y17.27173
X7.75373Y8.50873
X11.57973Y10.03306
X18.80273Y21.58973
X35.05873Y18.28773
X33.61873Y16.50973
X34.04273Y38.98873
X34.09873Y9.64996
X42.93273Y8.38173
X41.78973Y22.31924
X30.99473Y9.52473
X35.69373Y50.67273
X32.13773Y12.57273
X44.71073Y39.85368
X17.40573Y9.14373
X21.34273Y10.79473
X18.80273Y12.95373
X15.88173Y13.58873
X38.48773Y9.01673
T05
X47.63897Y39.4335
X47.76597Y52.451
M30