G04 Layer: TopLayer*
G04 EasyEDA Pro v2.2.27.1, 2024-09-30 12:04:34*
G04 Gerber Generator version 0.3*
G04 Scale: 100 percent, Rotated: No, Reflected: No*
G04 Dimensions in millimeters*
G04 Leading zeros omitted, absolute positions, 3 integers and 5 decimals*
%FSLAX35Y35*%
%MOMM*%
%ADD10C,0.2032*%
%ADD11C,0.254*%
%ADD12O,0.57399X2.03799*%
%ADD13R,0.80648X0.86401*%
%ADD14R,1.13254X1.37701*%
%ADD15R,1.2X0.25001*%
%ADD16R,1.2X1.4*%
%ADD17R,0.54X0.56566*%
%ADD18R,0.5428X0.56566*%
%ADD19R,0.54X0.56566*%
%ADD20R,4.09999X4.09999*%
%ADD21O,0.28001X1.0*%
%ADD22O,1.0X0.28001*%
%ADD23O,2.4X0.25001*%
%ADD24O,2.70002X1.5*%
%ADD25O,3.29997X1.5*%
%ADD26R,0.68072X0.20066*%
%ADD27R,0.68072X0.39878*%
%ADD28O,1.865X0.63*%
%ADD29R,0.79009X0.54*%
%ADD30R,0.54X0.79009*%
%ADD31R,0.56566X0.54*%
%ADD32R,0.56566X0.54*%
%ADD33R,0.54X0.79009*%
%ADD34R,0.9X0.8*%
%ADD35R,0.8X0.9*%
%ADD36R,0.86401X0.80648*%
%ADD37R,0.86401X0.80648*%
%ADD38R,0.8X0.86401*%
%ADD39R,1.0X0.6*%
%ADD40R,1.72001X1.0*%
%ADD41R,1.0X1.72001*%
%ADD42R,1.157X0.48999*%
%ADD43R,1.175X0.48999*%
%ADD44O,2.79999X1.3*%
%ADD45C,1.6*%
%ADD46R,1.6X1.6*%
%ADD47R,1.2X1.4*%
%ADD48O,1.62001X0.28001*%
%ADD49C,1.524*%
%ADD50O,2.2X1.4*%
%ADD51R,1.45001X0.3*%
%ADD52O,1.6X1.0*%
%ADD53O,2.1X1.0*%
%ADD54R,1.45001X0.3*%
%ADD55R,1.07X0.6*%
%ADD56R,0.6X1.07*%
%ADD57R,0.8X0.9*%
%ADD58R,0.79009X0.54*%
%ADD59R,2.0X1.0*%
%ADD60O,1.97099X0.60201*%
%ADD61R,0.7X1.25001*%
%ADD62C,0.61*%
%ADD63C,0.508*%
%ADD64C,0.5*%
%ADD65C,0.58*%
%ADD66C,1.0*%
%ADD67C,0.3*%
%ADD68C,0.6*%
%ADD69C,0.7*%
%ADD70C,0.4*%
%ADD71C,0.8*%
G75*


G04 Copper Start*
G36*
G01X49873Y5454059D02*
G01X57632Y5454059D01*
G03X122324Y5311862I64692J-56383D01*
G01X182324Y5311862D01*
G03X247015Y5454059I0J85814D01*
G01X450615Y5454059D01*
G03X484675Y5317515I64692J-56383D01*
G03X446507Y5254362I32646J-62841D01*
G03X485231Y5191548I70815J312D01*
G01X458267Y5164583D01*
G03X409759Y5105028I12306J-59556D01*
G01X409759Y4851373D01*
G03X458267Y4791817I60814J0D01*
G01X503884Y4746200D01*
G03X447240Y4686836I13438J-69529D01*
G03X484686Y4613825I70082J-10164D01*
G03X515332Y4447856I30646J-80155D01*
G01X625331Y4447856D01*
G03X699185Y4577369I0J85814D01*
G01X734323Y4577369D01*
G03X770137Y4613183I0J35814D01*
G01X770137Y4651359D01*
G01X1008863Y4651359D01*
G03X1055400Y4670636I0J65814D01*
G01X1056024Y4671259D01*
G01X1190567Y4671259D01*
G01X1190567Y4612077D01*
G03X1226381Y4576263I35814J0D01*
G01X1333381Y4576263D01*
G03X1369195Y4612077I0J35814D01*
G01X1369195Y4656068D01*
G01X1407546Y4617717D01*
G01X1407546Y4570373D01*
G03X1443360Y4534559I35814J0D01*
G01X1463222Y4534559D01*
G03X1502508Y4534559I19643J62814D01*
G01X1522369Y4534559D01*
G03X1537373Y4537853I0J35814D01*
G03X1552377Y4534559I15004J32520D01*
G01X1615713Y4534559D01*
G01X1514137Y4432983D01*
G01X1508963Y4432983D01*
G03X1482826Y4427983I0J-70814D01*
G01X1458963Y4427983D01*
G03X1438976Y4421887I0J-35814D01*
G01X1384420Y4421887D01*
G03X1355275Y4436887I-29145J-20814D01*
G01X1275276Y4436887D01*
G03X1245273Y4420630I0J-35814D01*
G03X1215271Y4436887I-30002J-19557D01*
G01X1135271Y4436887D01*
G03X1099457Y4401073I0J-35814D01*
G01X1099457Y4311073D01*
G03X1135271Y4275259I35814J0D01*
G01X1215271Y4275259D01*
G03X1245273Y4291516I0J35814D01*
G03X1275276Y4275259I30002J19557D01*
G01X1355275Y4275259D01*
G03X1384420Y4290259I0J35814D01*
G01X1494303Y4290259D01*
G01X1546572Y4237991D01*
G01X1458963Y4237991D01*
G03X1423149Y4202177I0J-35814D01*
G01X1423149Y4142177D01*
G03X1450759Y4107315I35814J0D01*
G01X1450759Y4022723D01*
G01X1431864Y4022723D01*
G03X1402773Y4037647I-29090J-20890D01*
G01X1316373Y4037647D01*
G03X1280559Y4001833I0J-35814D01*
G01X1280559Y3921186D01*
G03X1308839Y3886173I35814J0D01*
G03X1280559Y3851160I7534J-35013D01*
G01X1280559Y3770513D01*
G03X1316373Y3734699I35814J0D01*
G01X1402773Y3734699D01*
G03X1438587Y3770513I0J35814D01*
G01X1438587Y3792697D01*
G03X1472273Y3769046I33685J12163D01*
G01X1526273Y3769046D01*
G03X1554819Y3783232I0J35814D01*
G03X1594958Y3801080I-3146J61133D01*
G01X1600099Y3806220D01*
G03X1611973Y3804195I11874J33788D01*
G01X1665973Y3804195D01*
G03X1688614Y3812259I0J35814D01*
G01X1727873Y3812259D01*
G03X1771158Y3830188I0J61214D01*
G01X2026825Y4085855D01*
G01X2080574Y4085855D01*
G03X2114587Y4110455I0J35814D01*
G01X2135357Y4110455D01*
G01X2207925Y4037887D01*
G01X2167260Y4037887D01*
G03X2131446Y4002073I0J-35814D01*
G01X2131446Y3948073D01*
G03X2157122Y3913724I35814J0D01*
G03X2128169Y3878573I6862J-35150D01*
G01X2128169Y3792173D01*
G03X2161959Y3756416I35814J0D01*
G01X2161959Y3708373D01*
G03X2169562Y3682298I48514J0D01*
G03X2170924Y3669587I66311J675D01*
G01X2149272Y3669587D01*
G03X2134273Y3666295I0J-35814D01*
G03X2119274Y3669587I-14999J-32522D01*
G01X2062709Y3669587D01*
G03X2052123Y3667987I0J-35814D01*
G01X1296073Y3667987D01*
G03X1282303Y3665992I0J-48514D01*
G02X1159343Y3648175I-122960J415389D01*
G01X1038794Y3648175D01*
G03X1034400Y3647976I0J-48514D01*
G01X931295Y3647976D01*
G03X883000Y3598262I0J-48315D01*
G02X873178Y3602978I1802J16341D01*
G03X871043Y3604987I-34305J-34305D01*
G02X689369Y4008632I357573J403644D01*
G01X689369Y4065468D01*
G01X701260Y4077359D01*
G01X734969Y4077359D01*
G03X749973Y4080653I0J35814D01*
G03X764977Y4077359I15004J32520D01*
G01X843986Y4077359D01*
G03X879800Y4113173I0J35814D01*
G01X879800Y4167173D01*
G03X843986Y4202987I-35814J0D01*
G01X764977Y4202987D01*
G03X749973Y4199693I0J-35814D01*
G03X734969Y4202987I-15004J-32520D01*
G01X655960Y4202987D01*
G03X645374Y4201387I0J-35814D01*
G01X578123Y4201387D01*
G03X567538Y4202987I-10586J-34214D01*
G01X510972Y4202987D01*
G03X495973Y4199695I0J-35814D01*
G03X480974Y4202987I-14999J-32522D01*
G01X424409Y4202987D01*
G03X388595Y4167173I0J-35814D01*
G01X388595Y4113173D01*
G03X392286Y4097336I35814J0D01*
G03X444783Y4046554I60405J9919D01*
G01X493078Y3998260D01*
G01X493078Y3980672D01*
G03X493416Y3957168I816378J-0D01*
G03X419548Y3985379I-73868J-82603D01*
G01X299546Y3985379D01*
G03X299546Y3763751I0J-110814D01*
G01X419548Y3763751D01*
G03X510767Y3811646I0J110814D01*
G03X741630Y3394117I798689J169026D01*
G03X753757Y3385541I33744J34857D01*
G03X863235Y3354225I90967J110991D01*
G01X883202Y3354225D01*
G03X889947Y3324604I48093J-4627D01*
G03X889955Y3274605I41348J-24994D01*
G03X889955Y3224592I41340J-25006D01*
G03X889955Y3174579I41340J-25006D01*
G03X889955Y3124567I41340J-25006D01*
G03X889955Y3074554I41340J-25006D01*
G03X889955Y3024542I41340J-25006D01*
G03X889947Y2974542I41340J-25006D01*
G03X889955Y2924542I41348J-24994D01*
G03X889955Y2874529I41340J-25006D01*
G03X889955Y2824517I41340J-25006D01*
G03X889955Y2774504I41340J-25006D01*
G03X889955Y2724491I41340J-25006D01*
G03X931295Y2651170I41340J-25006D01*
G01X1034400Y2651170D01*
G03X1038794Y2650971I4394J48315D01*
G01X1169185Y2650971D01*
G03X1194473Y2643859I25288J41402D01*
G01X1324652Y2643859D01*
G03X1337356Y2645383I-0J53717D01*
G01X1617333Y2645383D01*
G03X1651673Y2631159I34322J34297D01*
G01X1933252Y2631159D01*
G03X1996891Y2647068I0J135235D01*
G03X2040374Y2621558I43483J24304D01*
G01X2101558Y2621558D01*
G01X2101558Y2585122D01*
G03X2060550Y2522447I20015J-57849D01*
G01X1398013Y2522447D01*
G03X1367638Y2539287I-30375J-18974D01*
G01X1311072Y2539287D01*
G03X1296073Y2535995I0J-35814D01*
G03X1281074Y2539287I-14999J-32522D01*
G01X1224509Y2539287D01*
G03X1188695Y2503473I0J-35814D01*
G01X1188695Y2449473D01*
G03X1224509Y2413659I35814J0D01*
G01X1278950Y2413659D01*
G01X1096669Y2231378D01*
G03X1082459Y2197073I34305J-34305D01*
G01X1082459Y2089883D01*
G03X1065114Y2036917I48514J-45210D01*
G03X1094290Y1989429I65859J7756D01*
G01X916847Y1811986D01*
G01X821179Y1811986D01*
G03X785365Y1776172I0J-35814D01*
G01X785365Y1616173D01*
G03X821179Y1580359I35814J0D01*
G01X909776Y1580359D01*
G01X932467Y1557668D01*
G03X792513Y1406103I-31287J-111508D01*
G01X728369Y1341959D01*
G03X714159Y1307654I34305J-34305D01*
G01X714159Y1193773D01*
G03X728369Y1159468I48514J0D01*
G01X814667Y1073170D01*
G03X840365Y897612I86512J-76996D01*
G01X840365Y890167D01*
G03X858177Y847165I60814J0D01*
G01X1022871Y682471D01*
G03X1065873Y664659I43002J43002D01*
G01X1098259Y664659D01*
G01X1098259Y662973D01*
G03X1110875Y635687I35814J0D01*
G01X902811Y635687D01*
G03X826167Y801992I-76644J65491D01*
G01X676167Y801992D01*
G03X599523Y635687I0J-100814D01*
G01X49873Y635687D01*
G02X35687Y649873I0J14186D01*
G01X35687Y5439873D01*
G02X49873Y5454059I14186J0D01*
G37*
%LPC*%
G36*
G01X182324Y4619484D02*
G01X122324Y4619484D01*
G03X122324Y4447856I0J-85814D01*
G01X182324Y4447856D01*
G03X182324Y4619484I0J85814D01*
G37*
G36*
G01X419548Y2535395D02*
G01X299546Y2535395D01*
G03X299546Y2313767I0J-110814D01*
G01X419548Y2313767D01*
G03X419548Y2535395I0J110814D01*
G37*
G36*
G01X676167Y1890354D02*
G01X826167Y1890354D01*
G03X826167Y2091982I0J100814D01*
G01X676167Y2091982D01*
G03X676167Y1890354I0J-100814D01*
G37*
G36*
G01X1045557Y3985379D02*
G01X865560Y3985379D01*
G03X865560Y3763751I0J-110814D01*
G01X1045557Y3763751D01*
G03X1045557Y3985379I0J110814D01*
G37*
G36*
G01X1045557Y2535395D02*
G01X865560Y2535395D01*
G03X865560Y2313767I0J-110814D01*
G01X1045557Y2313767D01*
G03X1045557Y2535395I0J110814D01*
G37*
%LPD*%
G36*
G01X854289Y3451049D02*
G02X811859Y3463667I-9565J45483D01*
G03X800950Y3471862I-34305J-34305D01*
G02X590106Y3980672I508506J508809D01*
G01X590106Y4018355D01*
G03X575896Y4052659I-48514J0D01*
G01X551196Y4077359D01*
G01X567538Y4077359D01*
G03X578123Y4078959I0J35814D01*
G01X592341Y4078959D01*
G01X592341Y4008632D01*
G03X805737Y3533216I636275J0D01*
G03X883004Y3501149I79065J81386D01*
G03X889955Y3474630I48291J-1513D01*
G03X883008Y3451253I41340J-25006D01*
G01X873232Y3451253D01*
G03X854289Y3451049I-8959J-47680D01*
G37*
G36*
G01X699160Y5353977D02*
G03X689998Y5454059I-73854J43699D01*
G01X1352059Y5454059D01*
G01X1352059Y5189873D01*
G03X1387873Y5154059I35814J0D01*
G01X1592873Y5154059D01*
G03X1628687Y5189873I0J35814D01*
G01X1628687Y5454059D01*
G01X3102639Y5454059D01*
G01X2994929Y5346349D01*
G03X2883573Y5314474I-47856J-43265D01*
G03X2756573Y5314474I-63500J-11390D01*
G03X2629573Y5314474I-63500J-11390D01*
G03X2502573Y5314474I-63500J-11390D01*
G03X2375573Y5314474I-63500J-11390D01*
G03X2248573Y5314474I-63500J-11390D01*
G03X2121573Y5314474I-63500J-11390D01*
G03X1993560Y5303084I-63500J-11390D01*
G01X1993560Y5251940D01*
G01X1984407Y5242787D01*
G01X1908672Y5242787D01*
G03X1898086Y5244387I-10586J-34214D01*
G01X1819077Y5244387D01*
G03X1804073Y5241093I0J-35814D01*
G03X1789069Y5244387I-15004J-32520D01*
G01X1710060Y5244387D01*
G03X1674246Y5208573I0J-35814D01*
G01X1674246Y5154573D01*
G03X1710060Y5118759I35814J0D01*
G01X1789069Y5118759D01*
G03X1804073Y5122053I0J35814D01*
G03X1819077Y5118759I15004J32520D01*
G01X1898086Y5118759D01*
G03X1908672Y5120359I0J35814D01*
G01X2004758Y5120359D01*
G03X2008179Y5115787I53315J36325D01*
G01X1486101Y5115787D01*
G01X1474910Y5126978D01*
G03X1440605Y5141187I-34305J-34305D01*
G01X1320035Y5141187D01*
G01X1320035Y5199624D01*
G03X1284221Y5235438I-35814J0D01*
G01X1170968Y5235438D01*
G03X1135154Y5199624I0J-35814D01*
G01X1135154Y5155517D01*
G01X1126792Y5163879D01*
G01X1126792Y5199624D01*
G03X1090978Y5235438I-35814J0D01*
G01X977725Y5235438D01*
G03X941911Y5199624I0J-35814D01*
G01X941911Y5061923D01*
G03X977725Y5026109I35814J0D01*
G01X987806Y5026109D01*
G03X996978Y5014825I59245J38790D01*
G01X1190567Y4821237D01*
G01X1190567Y4802887D01*
G01X990148Y4802887D01*
G03X1003287Y4830609I-22675J27722D01*
G01X1003287Y4887174D01*
G03X999995Y4902173I-35814J0D01*
G03X1003287Y4917172I-32522J14999D01*
G01X1003287Y4973738D01*
G03X967473Y5009552I-35814J0D01*
G01X913473Y5009552D01*
G03X877659Y4973738I0J-35814D01*
G01X877659Y4917172D01*
G03X880951Y4902173I35814J0D01*
G03X877659Y4887174I32522J-14999D01*
G01X877659Y4864686D01*
G01X849360Y4836387D01*
G01X770137Y4836387D01*
G01X770137Y4840959D01*
G01X813473Y4840959D01*
G03X826993Y4842881I0J48514D01*
G03X870607Y4881338I-13520J59292D01*
G03X861987Y4938844I-57134J20835D01*
G01X861987Y4958626D01*
G03X847778Y4992930I-48514J0D01*
G01X834245Y5006463D01*
G03X893916Y5052462I688J60810D01*
G03X863056Y5121194I-58983J14811D01*
G01X874804Y5132942D01*
G03X889687Y5168873I-35931J35931D01*
G01X889687Y5198625D01*
G01X962221Y5271159D01*
G01X963574Y5271159D01*
G03X978573Y5274451I0J35814D01*
G03X993572Y5271159I14999J32522D01*
G01X1050138Y5271159D01*
G03X1085952Y5306973I0J35814D01*
G01X1085952Y5360973D01*
G03X1050138Y5396787I-35814J0D01*
G01X993572Y5396787D01*
G03X978573Y5393495I0J-35814D01*
G03X963574Y5396787I-14999J-32522D01*
G01X907009Y5396787D01*
G03X871195Y5360973I0J-35814D01*
G01X871195Y5323856D01*
G01X802942Y5255604D01*
G03X788059Y5219673I35931J-35931D01*
G01X788059Y5189921D01*
G01X768089Y5169950D01*
G03X769730Y5180670I-34172J10720D01*
G01X769730Y5239372D01*
G03X768417Y5248982I-35814J0D01*
G03X769984Y5259461I-34247J10479D01*
G01X769984Y5318163D01*
G03X734170Y5353977I-35814J0D01*
G01X699160Y5353977D01*
G37*
G36*
G01X972458Y904893D02*
G03X1003263Y941477I-71278J91281D01*
G01X1003263Y874087D01*
G01X972458Y904893D01*
G37*
G36*
G01X1352059Y635687D02*
G01X1227271Y635687D01*
G03X1239887Y662973I-23198J27286D01*
G01X1239887Y787974D01*
G03X1204073Y823788I-35814J0D01*
G01X1134073Y823788D01*
G03X1098259Y787974I0J-35814D01*
G01X1098259Y786287D01*
G01X1091063Y786287D01*
G01X1050192Y827158D01*
G01X1109077Y827158D01*
G03X1144891Y862972I0J35814D01*
G01X1144891Y987973D01*
G03X1109077Y1023787I-35814J0D01*
G01X1039077Y1023787D01*
G03X1015468Y1014904I0J-35814D01*
G03X1009632Y1036803I-114289J-18730D01*
G03X999643Y1057146I-108453J-40630D01*
G01X1158782Y1057146D01*
G03X1198640Y1006860I49793J-1473D01*
G03X1193255Y987973I30429J-18886D01*
G01X1193255Y862972D01*
G03X1229069Y827158I35814J0D01*
G01X1299069Y827158D01*
G03X1334883Y862972I0J35814D01*
G01X1334883Y902359D01*
G01X1352059Y902359D01*
G01X1352059Y635687D01*
G37*
G36*
G01X1183915Y1878761D02*
G01X1433524Y1878761D01*
G03X1418459Y1849571I20749J-29191D01*
G01X1418459Y1769571D01*
G03X1454273Y1733757I35814J0D01*
G01X1544273Y1733757D01*
G03X1580087Y1769571I0J35814D01*
G01X1580087Y1849571D01*
G03X1563830Y1879573I-35814J0D01*
G03X1576969Y1894959I-19557J30002D01*
G01X1654969Y1894959D01*
G01X1712237Y1837691D01*
G01X1624063Y1837691D01*
G03X1588249Y1801877I0J-35814D01*
G01X1588249Y1741877D01*
G03X1624063Y1706063I35814J0D01*
G01X1625549Y1706063D01*
G01X1625549Y1656546D01*
G03X1614499Y1630673I24764J-25873D01*
G01X1614499Y1544273D01*
G03X1642123Y1509408I35814J0D01*
G01X1642123Y1506221D01*
G03X1631298Y1497151I17137J-31448D01*
G01X1565587Y1497151D01*
G01X1565587Y1501660D01*
G03X1537307Y1536673I-35814J0D01*
G03X1565587Y1571686I-7534J35013D01*
G01X1565587Y1652333D01*
G03X1529773Y1688147I-35814J0D01*
G01X1443373Y1688147D01*
G03X1407559Y1652333I0J-35814D01*
G01X1407559Y1571686D01*
G03X1435839Y1536673I35814J0D01*
G03X1407559Y1501660I7534J-35013D01*
G01X1407559Y1421013D01*
G03X1414233Y1400193I35814J0D01*
G01X1304376Y1400193D01*
G01X1016993Y1687576D01*
G01X1016993Y1711840D01*
G01X1183915Y1878761D01*
G37*
G36*
G01X1773563Y3354225D02*
G03X1763146Y3328973I25397J-25251D01*
G01X1763146Y3274973D01*
G03X1763509Y3269888I35814J0D01*
G01X1671713Y3269888D01*
G03X1617368Y3247378I0J-76854D01*
G01X1616165Y3247363D01*
G01X1322973Y3247363D01*
G02X1292278Y3260078I0J43410D01*
G03X1200454Y3298112I-91824J-91824D01*
G01X1194584Y3298112D01*
G03X1187641Y3324604I-48291J1499D01*
G03X1194386Y3354225I-41348J24994D01*
G01X1773563Y3354225D01*
G37*
G36*
G01X1420510Y5044159D02*
G01X1431701Y5032968D01*
G03X1466005Y5018759I34305J34305D01*
G01X1674253Y5018759D01*
G01X1674246Y5018073D01*
G01X1674246Y4964073D01*
G03X1693753Y4932187I35814J0D01*
G01X1681371Y4932187D01*
G03X1645557Y4896373I0J-35814D01*
G01X1645557Y4830636D01*
G01X1594050Y4882142D01*
G03X1527683Y4900983I-50073J-50073D01*
G03X1511390Y4902883I-16294J-68914D01*
G01X1309213Y4902883D01*
G01X1217058Y4995038D01*
G03X1206081Y5026109I-60685J-3965D01*
G01X1284221Y5026109D01*
G03X1315320Y5044159I0J35814D01*
G01X1420510Y5044159D01*
G37*
G36*
G01X1285979Y2062624D02*
G03X1268387Y2102583I-66106J-5251D01*
G01X1268387Y2164278D01*
G01X1428299Y2324190D01*
G03X1423759Y2306738I31274J-17452D01*
G01X1423759Y2250172D01*
G03X1427051Y2235173I35814J0D01*
G03X1423759Y2220174I32522J-14999D01*
G01X1423759Y2163609D01*
G03X1459573Y2127795I35814J0D01*
G01X1513573Y2127795D01*
G03X1549387Y2163609I0J35814D01*
G01X1549387Y2220174D01*
G03X1546095Y2235173I-35814J0D01*
G03X1549387Y2250172I-32522J14999D01*
G01X1549387Y2267478D01*
G01X1557468Y2275559D01*
G01X1558159Y2275559D01*
G01X1558159Y2201676D01*
G03X1574416Y2171673I35814J0D01*
G03X1558159Y2141671I19557J-30002D01*
G01X1558159Y2061671D01*
G03X1593973Y2025857I35814J0D01*
G01X1612773Y2025857D01*
G03X1598147Y2016587I11291J-33988D01*
G01X1567789Y2016587D01*
G03X1544273Y2025389I-23516J-27012D01*
G01X1454273Y2025389D01*
G03X1436021Y2020390I0J-35814D01*
G01X1274916Y2020390D01*
G03X1285979Y2062624I-55043J36984D01*
G37*
G36*
G01X1601600Y4674300D02*
G03X1621760Y4660187I50073J50073D01*
G01X1552377Y4660187D01*
G03X1544234Y4659249I0J-35814D01*
G03X1529402Y4682011I-61369J-23776D01*
G01X1450158Y4761255D01*
G01X1511390Y4761255D01*
G03X1514573Y4761327I0J70814D01*
G01X1601600Y4674300D01*
G37*
G36*
G01X1460170Y1382381D02*
G03X1457153Y1385199I-43002J-43002D01*
G01X1529773Y1385199D01*
G03X1558864Y1400123I0J35814D01*
G01X1629999Y1400123D01*
G03X1659260Y1384959I29261J20650D01*
G01X1738269Y1384959D01*
G03X1753273Y1388253I0J35814D01*
G03X1768277Y1384959I15004J32520D01*
G01X1847286Y1384959D01*
G03X1883100Y1420773I0J35814D01*
G01X1883100Y1474773D01*
G03X1859449Y1508459I-35814J0D01*
G01X1881633Y1508459D01*
G03X1913094Y1527159I0J35814D01*
G01X1913714Y1527768D01*
G01X1924905Y1538959D01*
G01X1943773Y1538959D01*
G03X1970211Y1546796I0J48514D01*
G03X1969859Y1541786I35462J-5010D01*
G01X1969859Y1462777D01*
G03X1973153Y1447773I35814J0D01*
G03X1969859Y1432769I32520J-15004D01*
G01X1969859Y1353760D01*
G03X2005673Y1317946I35814J0D01*
G01X2059673Y1317946D01*
G03X2095487Y1353760I0J35814D01*
G01X2095487Y1432769D01*
G03X2094415Y1441468I-35814J0D01*
G01X2113142Y1441468D01*
G03X2120516Y1435073I26931J23608D01*
G03X2104259Y1405071I19557J-30002D01*
G01X2104259Y1325071D01*
G03X2140073Y1289257I35814J0D01*
G01X2230073Y1289257D01*
G03X2265887Y1325071I0J35814D01*
G01X2265887Y1405071D01*
G03X2249630Y1435073I-35814J0D01*
G03X2257004Y1441468I-19557J30002D01*
G01X2303642Y1441468D01*
G03X2311016Y1435073I26931J23608D01*
G03X2294759Y1405071I19557J-30002D01*
G01X2294759Y1325071D01*
G03X2330573Y1289257I35814J0D01*
G01X2364348Y1289257D01*
G01X2330078Y1254987D01*
G01X1814381Y1254987D01*
G03X1764571Y1305487I-49810J686D01*
G01X1630571Y1305487D01*
G03X1581092Y1261446I0J-49814D01*
G01X1580375Y1262175D01*
G01X1460170Y1382381D01*
G37*
G36*
G01X1638973Y2792449D02*
G01X1486065Y2792449D01*
G01X1486065Y2795497D01*
G01X1644573Y2795497D01*
G03X1709833Y2821659I0J94476D01*
G01X1712346Y2821659D01*
G01X1712346Y2782630D01*
G03X1707847Y2778987I28227J-39457D01*
G01X1672514Y2778987D01*
G03X1638973Y2792449I-33541J-35052D01*
G37*
G36*
G01X1486065Y3101059D02*
G01X1638973Y3101059D01*
G03X1659928Y3105818I0J48514D01*
G02X1699646Y3119232I75037J-156679D01*
G01X1699646Y3097249D01*
G01X1486065Y3097249D01*
G01X1486065Y3101059D01*
G37*
G36*
G01X1872759Y4300955D02*
G01X1872759Y4287277D01*
G03X1894201Y4254473I35814J0D01*
G03X1872759Y4221669I14371J-32804D01*
G01X1872759Y4121669D01*
G03X1875576Y4107746I35814J0D01*
G01X1702517Y3934687D01*
G01X1701787Y3934687D01*
G01X1701787Y3983138D01*
G03X1665973Y4018952I-35814J0D01*
G01X1611973Y4018952D01*
G03X1597895Y4016069I0J-35814D01*
G01X1573187Y4016069D01*
G01X1573187Y4109309D01*
G03X1594777Y4142177I-14224J32868D01*
G01X1594777Y4189786D01*
G01X1611177Y4173386D01*
G03X1621088Y4160388I53196J30288D01*
G01X1652584Y4128892D01*
G03X1695869Y4110963I43285J43285D01*
G01X1701424Y4110963D01*
G03X1718983Y4106363I17559J31214D01*
G01X1818983Y4106363D01*
G03X1854797Y4142177I0J35814D01*
G01X1854797Y4202177D01*
G03X1850231Y4219675I-35814J0D01*
G03X1854797Y4237173I-31248J17498D01*
G01X1854797Y4297173D01*
G03X1854597Y4300955I-35814J0D01*
G01X1872759Y4300955D01*
G37*
G36*
G01X1667200Y4586046D02*
G01X1667200Y4624373D01*
G03X1652143Y4653559I-35814J0D01*
G01X1669759Y4653559D01*
G01X1669759Y4588605D01*
G01X1667200Y4586046D01*
G37*
G36*
G01X1785199Y937810D02*
G01X1802857Y920152D01*
G01X1789773Y920152D01*
G03X1753959Y884338I0J-35814D01*
G01X1753959Y871344D01*
G01X1687493Y937810D01*
G01X1785199Y937810D01*
G37*
G36*
G01X1716487Y2186659D02*
G01X1730893Y2186659D01*
G01X1731853Y2184373D01*
G03X1728559Y2169369I32520J-15004D01*
G01X1728559Y2090360D01*
G03X1764373Y2054546I35814J0D01*
G01X1818373Y2054546D01*
G03X1854187Y2090360I0J35814D01*
G01X1854187Y2169369D01*
G03X1850893Y2184373I-35814J0D01*
G01X1851853Y2186659D01*
G01X2032673Y2186659D01*
G03X2066978Y2200868I0J48514D01*
G01X2090868Y2224759D01*
G01X2093353Y2224759D01*
G01X2093346Y2224073D01*
G01X2093346Y2170073D01*
G03X2108124Y2141088I35814J0D01*
G01X2103069Y2141088D01*
G03X2067255Y2105274I0J-35814D01*
G01X2067255Y2010383D01*
G01X2014740Y2010383D01*
G03X1984083Y2027683I-30657J-18514D01*
G01X1884083Y2027683D01*
G03X1848269Y1991869I0J-35814D01*
G01X1848269Y1931869D01*
G03X1852835Y1914371I35814J0D01*
G03X1848269Y1896873I31248J-17498D01*
G01X1848269Y1873667D01*
G01X1759877Y1962059D01*
G01X1759877Y1991869D01*
G03X1724063Y2027683I-35814J0D01*
G01X1695264Y2027683D01*
G03X1719787Y2061671I-11291J33988D01*
G01X1719787Y2141671D01*
G03X1703530Y2171673I-35814J0D01*
G03X1716487Y2186659I-19557J30002D01*
G37*
G36*
G01X2855459Y3096374D02*
G03X2855459Y3146374I-43087J25000D01*
G03X2855459Y3196374I-43087J25000D01*
G03X2812372Y3271188I-43087J25000D01*
G01X2751188Y3271188D01*
G01X2751188Y3332372D01*
G03X2749888Y3343680I-49814J0D01*
G01X2749888Y3506079D01*
G01X2755904Y3512095D01*
G01X2758173Y3512095D01*
G03X2781113Y3520405I0J35814D01*
G01X2820319Y3520405D01*
G03X2854624Y3534615I0J48514D01*
G01X2930578Y3610568D01*
G03X2944787Y3644873I-34305J34305D01*
G01X2944787Y4025873D01*
G03X2930578Y4060178I-48514J0D01*
G01X2714678Y4276078D01*
G03X2685973Y4289963I-34305J-34305D01*
G03X2661310Y4305273I-46999J-48190D01*
G03X2638974Y4436087I-22336J63500D01*
G01X2515474Y4436087D01*
G03X2467112Y4415595I0J-67314D01*
G03X2445508Y4403078I12701J-46822D01*
G01X2300522Y4258092D01*
G03X2288273Y4260252I-12249J-33654D01*
G01X2234273Y4260252D01*
G03X2198459Y4224438I0J-35814D01*
G01X2198459Y4219860D01*
G03X2160713Y4232883I-37746J-48191D01*
G01X2114587Y4232883D01*
G03X2094945Y4254473I-34013J-11214D01*
G03X2116388Y4287277I-14371J32804D01*
G01X2116388Y4387277D01*
G03X2080574Y4423091I-35814J0D01*
G01X1975654Y4423091D01*
G03X1969681Y4423383I-5973J-60922D01*
G01X1836542Y4423383D01*
G03X1818983Y4427983I-17559J-31214D01*
G01X1718983Y4427983D01*
G03X1707558Y4426112I0J-35814D01*
G01X1790646Y4509200D01*
G03X1811387Y4559273I-50073J50073D01*
G01X1811387Y4653559D01*
G01X1918373Y4653559D01*
G03X1983392Y4696317I0J70814D01*
G01X1993560Y4706485D01*
G01X1993560Y4602862D01*
G03X2121573Y4591472I64513J0D01*
G03X2248573Y4591472I63500J11390D01*
G03X2375573Y4591472I63500J11390D01*
G03X2502573Y4591472I63500J11390D01*
G03X2629573Y4591472I63500J11390D01*
G03X2756573Y4591472I63500J11390D01*
G03X2883573Y4591472I63500J11390D01*
G03X3011327Y4597081I63500J11390D01*
G01X3143220Y4465188D01*
G03X3186504Y4447259I43285J43285D01*
G01X3206859Y4447259D01*
G03X3237813Y4429459I30954J18014D01*
G01X3259997Y4429459D01*
G03X3236384Y4397425I12163J-33685D01*
G03X3175472Y4436087I-60912J-28652D01*
G01X3051973Y4436087D01*
G03X3029637Y4305273I0J-67314D01*
G03X3029637Y4178273I22336J-63500D01*
G03X3029637Y4051273I22336J-63500D01*
G03X3051973Y3920459I22336J-63500D01*
G01X3175472Y3920459D01*
G03X3197808Y4051273I0J67314D01*
G03X3197808Y4178273I-22336J63500D01*
G03X3197808Y4305273I-22336J63500D01*
G03X3236384Y4340122I-22336J63500D01*
G03X3272160Y4305959I35776J1651D01*
G01X3351169Y4305959D01*
G03X3359468Y4306933I0J35814D01*
G01X3359468Y4075077D01*
G01X3077869Y3793478D01*
G03X3063659Y3759173I34305J-34305D01*
G01X3063659Y3428973D01*
G03X3077869Y3394668I48514J0D01*
G01X3141369Y3331168D01*
G03X3169638Y3317336I34305J34305D01*
G03X3196990Y3301973I45028J48137D01*
G03X3196990Y3174973I17676J-63500D01*
G03X3196990Y3047973I17676J-63500D01*
G03X3196990Y2920973I17676J-63500D01*
G03X3214666Y2791559I17676J-63500D01*
G01X3351564Y2791559D01*
G03X3369240Y2920973I0J65914D01*
G03X3369240Y3047973I-17676J63500D01*
G03X3396186Y3062959I-17676J63500D01*
G01X3397163Y3062959D01*
G03X3508687Y3111473I45210J48514D01*
G03X3397163Y3159987I-66314J0D01*
G01X3396186Y3159987D01*
G03X3369240Y3174973I-44622J-48514D01*
G03X3406900Y3202659I-17676J63500D01*
G01X3422563Y3202659D01*
G03X3534087Y3251173I45210J48514D01*
G03X3422563Y3299687I-66314J0D01*
G01X3376009Y3299687D01*
G03X3369240Y3301973I-24445J-61214D01*
G03X3369240Y3428973I-17676J63500D01*
G03X3396186Y3443959I-17676J63500D01*
G01X3455073Y3443959D01*
G03X3489378Y3458168I0J48514D01*
G01X3603678Y3572468D01*
G03X3617887Y3606773I-34305J34305D01*
G01X3617887Y3781750D01*
G01X3674769Y3724868D01*
G03X3706398Y3710733I34305J34305D01*
G03X3744106Y3682973I55383J35740D01*
G03X3744106Y3555973I17676J-63500D01*
G03X3744106Y3428973I17676J-63500D01*
G03X3744106Y3301973I17676J-63500D01*
G03X3744106Y3174973I17676J-63500D01*
G03X3744106Y3047973I17676J-63500D01*
G03X3744106Y2920973I17676J-63500D01*
G03X3761782Y2791559I17676J-63500D01*
G01X3898680Y2791559D01*
G03X3943302Y2808959I0J65914D01*
G01X3950373Y2808959D01*
G03X3984678Y2823168I0J48514D01*
G01X4033611Y2872102D01*
G01X4033611Y2857525D01*
G03X4054279Y2807525I70814J0D01*
G01X3984541Y2737787D01*
G01X3931476Y2737787D01*
G03X3898780Y2729787I0J-70814D01*
G01X3876477Y2729787D01*
G03X3861473Y2726493I0J-35814D01*
G03X3846469Y2729787I-15004J-32520D01*
G01X3767460Y2729787D01*
G03X3731646Y2693973I0J-35814D01*
G01X3731646Y2639973D01*
G03X3767460Y2604159I35814J0D01*
G01X3846469Y2604159D01*
G03X3861473Y2607453I0J35814D01*
G03X3876477Y2604159I15004J32520D01*
G01X3898780Y2604159D01*
G03X3931476Y2596159I32696J62814D01*
G01X4006448Y2596159D01*
G01X4113159Y2489448D01*
G01X4113159Y2457581D01*
G03X4120326Y2436087I35814J0D01*
G01X3759873Y2436087D01*
G03X3725569Y2421878I0J-48514D01*
G01X3611982Y2308291D01*
G03X3589063Y2316584I-22918J-27521D01*
G01X3574966Y2316584D01*
G03X3563368Y2335187I-45903J-15701D01*
G01X3508646Y2389909D01*
G03X3429753Y2452675I-66273J-2336D01*
G03X3380027Y2364977I12620J-65102D01*
G03X3338487Y2351271I-1154J-66304D01*
G01X3338487Y2565373D01*
G03X3324278Y2599678I-48514J0D01*
G01X3020808Y2903147D01*
G03X3049092Y2976736I-35635J55926D01*
G03X2987037Y3025361I-63919J-17663D01*
G03X2972872Y3027188I-14165J-53987D01*
G01X2861846Y3027188D01*
G03X2855459Y3046374I-49474J-5814D01*
G03X2855459Y3096374I-43087J25000D01*
G37*
G36*
G01X1937189Y4836264D02*
G01X1937189Y4896373D01*
G03X1911298Y4930785I-35814J0D01*
G03X1933900Y4964073I-13212J33288D01*
G01X1933900Y5018073D01*
G01X1933894Y5018759D01*
G01X2159673Y5018759D01*
G03X2193978Y5032968I0J48514D01*
G01X2219378Y5058368D01*
G03X2233587Y5092673I-34305J34305D01*
G01X2233587Y5114159D01*
G03X2248573Y5145293I-48514J42525D01*
G03X2375573Y5145293I63500J11390D01*
G03X2390559Y5114159I63500J11390D01*
G01X2390559Y5053144D01*
G03X2383997Y4990687I48514J-36671D01*
G01X2108873Y4990687D01*
G03X2035725Y4934800I0J-75814D01*
G01X1937189Y4836264D01*
G37*
G36*
G01X2088458Y1563095D02*
G03X2059673Y1577600I-28785J-21309D01*
G01X2005673Y1577600D01*
G03X2002355Y1577446I0J-35814D01*
G01X2086715Y1661806D01*
G03X2100471Y1659059I13755J33067D01*
G01X2180471Y1659059D01*
G03X2210473Y1675316I0J35814D01*
G03X2240476Y1659059I30002J19557D01*
G01X2276950Y1659059D01*
G01X2198780Y1580889D01*
G01X2140073Y1580889D01*
G03X2109123Y1563095I0J-35814D01*
G01X2088458Y1563095D01*
G37*
G36*
G01X2120887Y919486D02*
G03X2085073Y955300I-35814J0D01*
G01X2031073Y955300D01*
G01X2029172Y955250D01*
G03X2017687Y1001844I-59999J9923D01*
G01X2017687Y1079473D01*
G03X2009011Y1107159I-48514J0D01*
G01X2189635Y1107159D01*
G03X2214927Y1041514I58939J-14986D01*
G03X2285244Y1043659I33646J50659D01*
G01X2350173Y1043659D01*
G03X2384478Y1057868I0J48514D01*
G01X2387140Y1060530D01*
G03X2453450Y1033083I51933J31643D01*
G01X2374128Y953761D01*
G03X2326573Y913277I14145J-64788D01*
G01X2260587Y847291D01*
G01X2260587Y919486D01*
G03X2224773Y955300I-35814J0D01*
G01X2170773Y955300D01*
G03X2134959Y919486I0J-35814D01*
G01X2134959Y841685D01*
G01X2120887Y841685D01*
G01X2120887Y919486D01*
G37*
G36*
G01X2019897Y1836873D02*
G01X2019897Y1896873D01*
G03X2015879Y1913355I-35814J0D01*
G01X2073304Y1913355D01*
G03X2103069Y1897458I29765J19917D01*
G01X2185149Y1897458D01*
G01X2108378Y1820687D01*
G01X2100471Y1820687D01*
G03X2064657Y1784873I0J-35814D01*
G01X2064657Y1776966D01*
G01X2017965Y1730274D01*
G03X2019897Y1741877I-33882J11603D01*
G01X2019897Y1801877D01*
G03X2015331Y1819375I-35814J0D01*
G03X2019897Y1836873I-31248J17498D01*
G37*
G36*
G01X2802650Y4839059D02*
G01X2785769Y4822178D01*
G03X2771734Y4791986I34305J-34305D01*
G03X2756573Y4760653I48339J-42723D01*
G03X2629573Y4760653I-63500J-11390D01*
G03X2502573Y4760653I-63500J-11390D01*
G03X2375573Y4760653I-63500J-11390D01*
G03X2248573Y4760653I-63500J-11390D01*
G03X2121573Y4760653I-63500J-11390D01*
G03X2091510Y4804435I-63500J-11390D01*
G01X2126134Y4839059D01*
G01X2802650Y4839059D01*
G37*
G36*
G01X2368677Y1897458D02*
G03X2404491Y1933272I0J35814D01*
G01X2404491Y2105274D01*
G03X2368677Y2141088I-35814J0D01*
G01X2360587Y2141088D01*
G01X2360587Y2154968D01*
G03X2383160Y2146959I22573J27805D01*
G01X2454059Y2146959D01*
G01X2454059Y1843271D01*
G03X2391591Y1853203I-40386J-52598D01*
G03X2349213Y1806245I22082J-62530D01*
G03X2320475Y1820687I-28738J-21372D01*
G01X2245596Y1820687D01*
G01X2320978Y1896068D01*
G01X2322313Y1897458D01*
G01X2368677Y1897458D01*
G37*
G36*
G01X2258987Y3745129D02*
G01X2258987Y3759653D01*
G03X2273973Y3772596I-15004J32520D01*
G03X2303963Y3756359I29990J19577D01*
G01X2347878Y3756359D01*
G01X2368346Y3735891D01*
G03X2379997Y3707687I60235J8375D01*
G01X2370460Y3707687D01*
G03X2334646Y3671873I0J-35814D01*
G01X2334646Y3636951D01*
G03X2294220Y3651457I-153557J-364362D01*
G03X2258987Y3745129I-58346J31516D01*
G37*
G36*
G01X3876355Y635687D02*
G01X2422315Y635687D01*
G03X2457888Y732506I-21342J62786D01*
G03X2355763Y746987I-56915J-34032D01*
G01X2332291Y746987D01*
G01X2412577Y827273D01*
G03X2453061Y874828I-24304J61700D01*
G01X2564594Y986361D01*
G03X2592763Y972662I28170J22116D01*
G01X2708153Y972662D01*
G01X2585672Y850181D01*
G03X2550546Y814373I689J-35807D01*
G01X2550546Y760373D01*
G03X2586360Y724559I35814J0D01*
G01X2665369Y724559D01*
G03X2680373Y727853I0J35814D01*
G03X2695377Y724559I15004J32520D01*
G01X2774386Y724559D01*
G03X2810200Y760373I0J35814D01*
G01X2810200Y814373D01*
G03X2774386Y850187I-35814J0D01*
G01X2722896Y850187D01*
G01X2763968Y891259D01*
G01X2931579Y891259D01*
G03X2965884Y905468I0J48514D01*
G01X3033077Y972662D01*
G01X3072783Y972662D01*
G03X3099879Y985058I0J35814D01*
G01X3114459Y970478D01*
G01X3114459Y902566D01*
G01X3062081Y850187D01*
G01X3012877Y850187D01*
G03X2997873Y846893I0J-35814D01*
G03X2982869Y850187I-15004J-32520D01*
G01X2903860Y850187D01*
G03X2868046Y814373I0J-35814D01*
G01X2868046Y760373D01*
G03X2903860Y724559I35814J0D01*
G01X2982869Y724559D01*
G03X2997873Y727853I0J35814D01*
G03X3012877Y724559I15004J32520D01*
G01X3091886Y724559D01*
G03X3127700Y760373I0J35814D01*
G01X3127700Y778589D01*
G01X3190659Y841548D01*
G01X3190659Y774673D01*
G03X3204869Y740368I48514J0D01*
G01X3255669Y689568D01*
G03X3289973Y675359I34305J34305D01*
G01X3429673Y675359D01*
G03X3463978Y689568I0J48514D01*
G01X3536461Y762052D01*
G01X3574674Y762052D01*
G03X3610488Y797866I0J35814D01*
G01X3610488Y937866D01*
G03X3574674Y973680I-35814J0D01*
G01X3454674Y973680D01*
G03X3429673Y963509I0J-35814D01*
G03X3404672Y973680I-25001J-25643D01*
G01X3287687Y973680D01*
G01X3287687Y982067D01*
G01X3404672Y982067D01*
G03X3429673Y992237I0J35814D01*
G03X3454674Y982067I25001J25643D01*
G01X3574674Y982067D01*
G03X3610488Y1017881I0J35814D01*
G01X3610488Y1142854D01*
G01X3622859Y1130483D01*
G01X3622859Y914373D01*
G03X3640671Y871371I60814J0D01*
G01X3876355Y635687D01*
G37*
G36*
G01X2454059Y1631771D02*
G03X2458357Y1611808I48514J0D01*
G01X2458357Y1555173D01*
G03X2494171Y1519359I35814J0D01*
G01X2574171Y1519359D01*
G03X2604173Y1535616I0J35814D01*
G03X2634176Y1519359I30002J19557D01*
G01X2714175Y1519359D01*
G03X2749989Y1555173I0J35814D01*
G01X2749989Y1645173D01*
G03X2714175Y1680987I-35814J0D01*
G01X2634176Y1680987D01*
G03X2604173Y1664730I0J-35814D01*
G03X2574171Y1680987I-30002J-19557D01*
G01X2551087Y1680987D01*
G01X2551087Y1684459D01*
G01X2574171Y1684459D01*
G03X2604173Y1700716I0J35814D01*
G03X2634176Y1684459I30002J19557D01*
G01X2714175Y1684459D01*
G03X2749989Y1720273I0J35814D01*
G01X2749989Y1810273D01*
G03X2714175Y1846087I-35814J0D01*
G01X2703828Y1846087D01*
G03X2717787Y1874460I-21854J28373D01*
G01X2717787Y1953469D01*
G03X2714493Y1968473I-35814J0D01*
G03X2717787Y1983477I-32520J15004D01*
G01X2717787Y2062486D01*
G03X2703487Y2091118I-35814J0D01*
G01X2703487Y2304263D01*
G03X2703487Y2394683I-48514J45210D01*
G01X2703487Y2510605D01*
G03X2727858Y2518184I-2113J49770D01*
G01X2727858Y1961374D01*
G03X2742068Y1927069I48514J0D01*
G01X2768334Y1900803D01*
G03X2758859Y1817503I39039J-46630D01*
G01X2758859Y1487611D01*
G03X2731173Y1496287I-27686J-39838D01*
G01X2591473Y1496287D01*
G03X2557169Y1482078I0J-48514D01*
G01X2456387Y1381296D01*
G01X2456387Y1405071D01*
G03X2440130Y1435073I-35814J0D01*
G03X2456387Y1465076I-19557J30002D01*
G01X2456387Y1545075D01*
G03X2420573Y1580889I-35814J0D01*
G01X2335999Y1580889D01*
G01X2447978Y1692868D01*
G03X2454059Y1700292I-34305J34305D01*
G01X2454059Y1631771D01*
G37*
G36*
G01X2356289Y1738399D02*
G01X2356289Y1757437D01*
G03X2364297Y1746406I57384J33237D01*
G01X2356289Y1738399D01*
G37*
G36*
G01X2454059Y2272587D02*
G01X2383160Y2272587D01*
G03X2360587Y2264578I0J-35814D01*
G01X2360587Y2281968D01*
G03X2383160Y2273959I22573J27805D01*
G01X2454059Y2273959D01*
G01X2454059Y2272587D01*
G37*
G36*
G01X2436259Y2679839D02*
G03X2426373Y2675459I15115J-47466D01*
G03X2390648Y2681020I-25001J-43086D01*
G03X2384478Y2688578I-40475J-26747D01*
G01X2367509Y2705547D01*
G01X2441515Y2705547D01*
G03X2436259Y2679839I61058J-25874D01*
G37*
G36*
G01X2399886Y2399587D02*
G01X2399886Y2510582D01*
G03X2426373Y2517288I1486J49792D01*
G03X2454059Y2510632I25001J43086D01*
G01X2454059Y2399587D01*
G01X2399886Y2399587D01*
G37*
G36*
G01X2551087Y2146959D02*
G01X2571186Y2146959D01*
G03X2606459Y2176571I0J35814D01*
G01X2606459Y2091118D01*
G03X2592159Y2062486I21514J-28632D01*
G01X2592159Y1983477D01*
G03X2595453Y1968473I35814J0D01*
G03X2592159Y1953469I32520J-15004D01*
G01X2592159Y1874460D01*
G03X2615557Y1840867I35814J0D01*
G03X2604173Y1829830I18618J-30594D01*
G03X2574171Y1846087I-30002J-19557D01*
G01X2551087Y1846087D01*
G01X2551087Y2146959D01*
G37*
G36*
G01X2594283Y3201137D02*
G03X2598084Y3210667I-42909J22637D01*
G03X2625875Y3217000I3290J49706D01*
G03X2676374Y3216696I25499J41272D01*
G03X2691709Y3210731I25000J41577D01*
G03X2697286Y3196374I48664J10643D01*
G03X2697286Y3146374I43087J-25000D01*
G03X2697286Y3096374I43087J-25000D01*
G03X2697286Y3046374I43087J-25000D01*
G03X2697286Y2996374I43087J-25000D01*
G03X2697287Y2946373I43087J-25000D01*
G03X2697286Y2896372I43086J-25001D01*
G03X2697286Y2846372I43087J-25000D01*
G03X2697286Y2796372I43087J-25000D01*
G03X2697286Y2746372I43087J-25000D01*
G03X2697286Y2696372I43087J-25000D01*
G03X2691539Y2681207I43087J-25000D01*
G03X2676374Y2675460I9835J-48834D01*
G03X2626374Y2675460I-25000J-43087D01*
G03X2576374Y2675460I-25000J-43087D01*
G03X2568884Y2679009I-25000J-43087D01*
G03X2563631Y2705547I-66311J664D01*
G01X2631360Y2705547D01*
G03X2667174Y2741361I0J35814D01*
G01X2667174Y3151360D01*
G03X2631360Y3187174I-35814J0D01*
G01X2592960Y3187174D01*
G03X2594283Y3201137I-64987J13199D01*
G37*
G36*
G01X3542535Y4845220D02*
G01X3542535Y4920224D01*
G03X3506721Y4956038I-35814J0D01*
G01X3497390Y4956038D01*
G01X3497390Y4980718D01*
G03X3511989Y5009573I-21214J28855D01*
G01X3511989Y5099573D01*
G03X3497390Y5128428I-35814J0D01*
G01X3497390Y5153853D01*
G03X3508700Y5179973I-24503J26119D01*
G01X3508700Y5233973D01*
G03X3472886Y5269787I-35814J0D01*
G01X3393877Y5269787D01*
G03X3378873Y5266493I0J-35814D01*
G03X3363869Y5269787I-15004J-32520D01*
G01X3284860Y5269787D01*
G03X3249046Y5233973I0J-35814D01*
G01X3249046Y5179973D01*
G03X3284860Y5144159I35814J0D01*
G01X3363869Y5144159D01*
G03X3378873Y5147453I0J35814D01*
G03X3393877Y5144159I15004J32520D01*
G01X3400362Y5144159D01*
G01X3400362Y5135387D01*
G01X3396176Y5135387D01*
G03X3366173Y5119130I0J-35814D01*
G03X3336171Y5135387I-30002J-19557D01*
G01X3256171Y5135387D01*
G03X3220357Y5099573I0J-35814D01*
G01X3220357Y5009573D01*
G03X3256171Y4973759I35814J0D01*
G01X3336171Y4973759D01*
G03X3366173Y4990016I0J35814D01*
G03X3396176Y4973759I30002J19557D01*
G01X3400362Y4973759D01*
G01X3400362Y4956038D01*
G01X3393468Y4956038D01*
G03X3357654Y4920224I0J-35814D01*
G01X3357654Y4782523D01*
G03X3393468Y4746709I35814J0D01*
G01X3503828Y4746709D01*
G01X3541150Y4709387D01*
G01X3504551Y4709387D01*
G03X3469133Y4739887I-35418J-5314D01*
G01X3388486Y4739887D01*
G03X3353473Y4711607I0J-35814D01*
G03X3318460Y4739887I-35013J-7534D01*
G01X3237813Y4739887D01*
G03X3207465Y4723090I0J-35814D01*
G01X3089362Y4841194D01*
G03X3098575Y4844059I-17863J73679D01*
G01X3164019Y4844059D01*
G01X3164411Y4843668D01*
G01X3164411Y4782523D01*
G03X3200225Y4746709I35814J0D01*
G01X3313478Y4746709D01*
G03X3349292Y4782523I0J35814D01*
G01X3349292Y4920224D01*
G03X3313478Y4956038I-35814J0D01*
G01X3252333Y4956038D01*
G01X3243425Y4964946D01*
G03X3193352Y4985687I-50073J-50073D01*
G01X3098575Y4985687D01*
G03X3071498Y4990687I-27077J-70814D01*
G01X2613160Y4990687D01*
G03X2614587Y5065844I-47087J38486D01*
G01X2614587Y5114159D01*
G03X2629573Y5145293I-48514J42525D01*
G03X2756573Y5145293I63500J11390D01*
G03X2771573Y5114143I63500J11390D01*
G03X2785769Y5080980I48501J1141D01*
G01X2846480Y5020268D01*
G03X2880784Y5006059I34305J34305D01*
G01X2934373Y5006059D01*
G03X2968678Y5020268I0J48514D01*
G01X3233868Y5285459D01*
G01X3763893Y5285459D01*
G03X3763759Y5282373I35681J-3086D01*
G01X3763759Y5182373D01*
G03X3799573Y5146559I35814J0D01*
G01X3999573Y5146559D01*
G03X4035387Y5182373I0J35814D01*
G01X4035387Y5282373D01*
G03X4035254Y5285459I-35814J0D01*
G01X4362078Y5285459D01*
G01X4714659Y4932878D01*
G01X4714659Y4243415D01*
G03X4663909Y4269946I-53086J-39742D01*
G01X4429178Y4504678D01*
G03X4394873Y4518887I-34305J-34305D01*
G01X4035387Y4518887D01*
G01X4035387Y4520373D01*
G03X3999573Y4556187I-35814J0D01*
G01X3799573Y4556187D01*
G03X3763759Y4520373I0J-35814D01*
G01X3763759Y4420373D01*
G03X3799573Y4384559I35814J0D01*
G01X3999573Y4384559D01*
G03X4035387Y4420373I0J35814D01*
G01X4035387Y4421859D01*
G01X4374778Y4421859D01*
G01X4533057Y4263580D01*
G03X4521873Y4264887I-11183J-47207D01*
G01X4035387Y4264887D01*
G01X4035387Y4266373D01*
G03X3999573Y4302187I-35814J0D01*
G01X3799573Y4302187D01*
G03X3763759Y4266373I0J-35814D01*
G01X3763759Y4166373D01*
G03X3799573Y4130559I35814J0D01*
G01X3999573Y4130559D01*
G03X4035387Y4166373I0J35814D01*
G01X4035387Y4167859D01*
G01X4501778Y4167859D01*
G01X4519100Y4150537D01*
G03X4579236Y4086844I66273J2336D01*
G03X4650080Y4138363I6137J66029D01*
G03X4714659Y4163931I11493J65311D01*
G01X4714659Y4109468D01*
G01X4438278Y3833087D01*
G01X4255173Y3833087D01*
G03X4220869Y3818878I0J-48514D01*
G01X3943133Y3541142D01*
G03X3916356Y3555973I-44453J-48669D01*
G03X3916356Y3682973I-17676J63500D01*
G03X3898680Y3812387I-17676J63500D01*
G01X3761782Y3812387D01*
G03X3737337Y3807687I0J-65914D01*
G01X3729168Y3807687D01*
G01X3668687Y3868168D01*
G01X3668687Y4698973D01*
G03X3654478Y4733278I-48514J0D01*
G01X3542535Y4845220D01*
G37*
%LPC*%
G36*
G01X4248063Y4929859D02*
G03X4359587Y4978373I45210J48514D01*
G03X4248063Y5026887I-66314J0D01*
G01X4035387Y5026887D01*
G01X4035387Y5028373D01*
G03X3999573Y5064187I-35814J0D01*
G01X3799573Y5064187D01*
G03X3763759Y5028373I0J-35814D01*
G01X3763759Y4928373D01*
G03X3799573Y4892559I35814J0D01*
G01X3999573Y4892559D01*
G03X4035387Y4928373I0J35814D01*
G01X4035387Y4929859D01*
G01X4248063Y4929859D01*
G37*
G36*
G01X4159163Y4675859D02*
G03X4270687Y4724373I45210J48514D01*
G03X4159163Y4772887I-66314J0D01*
G01X4035387Y4772887D01*
G01X4035387Y4774373D01*
G03X3999573Y4810187I-35814J0D01*
G01X3799573Y4810187D01*
G03X3763759Y4774373I0J-35814D01*
G01X3763759Y4674373D01*
G03X3799573Y4638559I35814J0D01*
G01X3999573Y4638559D01*
G03X4035387Y4674373I0J35814D01*
G01X4035387Y4675859D01*
G01X4159163Y4675859D01*
G37*
G36*
G01X4448078Y3886559D02*
G03X4501686Y3908764I0J75814D01*
G01X4524682Y3931760D01*
G03X4417464Y4038977I-53609J53609D01*
G01X4416675Y4038187D01*
G01X4024398Y4038187D01*
G03X3999573Y4048187I-24825J-25814D01*
G01X3799573Y4048187D01*
G03X3763759Y4012373I0J-35814D01*
G01X3763759Y3912373D01*
G03X3799573Y3876559I35814J0D01*
G01X3999573Y3876559D01*
G03X4024398Y3886559I0J35814D01*
G01X4448078Y3886559D01*
G37*
%LPD*%
G36*
G01X2770365Y1184451D02*
G03X2804670Y1198661I0J48514D01*
G01X2905178Y1299168D01*
G03X2917526Y1320166I-34305J34305D01*
G03X2919815Y1312467I35257J6293D01*
G03X2916969Y1298476I32968J-13992D01*
G01X2916969Y1273474D01*
G03X2919821Y1259470I35814J0D01*
G03X2916969Y1245466I32962J-14004D01*
G01X2916969Y1220465D01*
G03X2919815Y1206473I35814J0D01*
G03X2916969Y1192481I32968J-13992D01*
G01X2916969Y1167480D01*
G03X2919821Y1153476I35814J0D01*
G03X2916969Y1139472I32962J-14004D01*
G01X2916969Y1114470D01*
G03X2919821Y1100466I35814J0D01*
G03X2916969Y1086462I32962J-14004D01*
G01X2916969Y1061461D01*
G03X2919815Y1047469I35814J0D01*
G03X2916969Y1033477I32968J-13992D01*
G01X2916969Y1008476D01*
G03X2919208Y996011I35814J0D01*
G01X2911484Y988287D01*
G01X2743873Y988287D01*
G01X2742327Y988262D01*
G03X2748577Y1008476I-29564J20214D01*
G01X2748577Y1033477D01*
G03X2745731Y1047469I-35814J0D01*
G03X2748577Y1061461I-32968J13992D01*
G01X2748577Y1086462D01*
G03X2745726Y1100466I-35814J0D01*
G03X2748577Y1114470I-32962J14004D01*
G01X2748577Y1139472D01*
G03X2745726Y1153476I-35814J0D01*
G03X2748577Y1167480I-32962J14004D01*
G01X2748577Y1184451D01*
G01X2770365Y1184451D01*
G37*
G36*
G01X2847759Y2636312D02*
G01X2847759Y2331950D01*
G03X2829758Y2300880I17813J-31070D01*
G01X2829758Y2160881D01*
G03X2865572Y2125067I35814J0D01*
G01X2985572Y2125067D01*
G03X3010573Y2135237I0J35814D01*
G03X3035574Y2125067I25001J25643D01*
G01X3155574Y2125067D01*
G03X3168367Y2127429I0J35814D01*
G03X3163359Y2115823I58106J-31956D01*
G03X3155574Y2116680I-7785J-34958D01*
G01X3035574Y2116680D01*
G03X3010573Y2106509I0J-35814D01*
G03X2985572Y2116680I-25001J-25643D01*
G01X2865572Y2116680D01*
G03X2829758Y2080866I0J-35814D01*
G01X2829758Y1976597D01*
G01X2824886Y1981469D01*
G01X2824886Y2623155D01*
G03X2847759Y2636312I-12515J48217D01*
G37*
G36*
G01X3108597Y1245466D02*
G03X3105745Y1259470I-35814J0D01*
G03X3108597Y1273474I-32962J14004D01*
G01X3108597Y1295631D01*
G03X3121078Y1304655I-21824J43328D01*
G01X3146478Y1330055D01*
G03X3160687Y1364359I-34305J34305D01*
G01X3160687Y1422373D01*
G03X3146478Y1456678I-48514J0D01*
G01X3135287Y1467868D01*
G01X3135287Y1478763D01*
G03X3089530Y1590230I-48514J45210D01*
G03X3022232Y1653779I-66257J-2757D01*
G03X2956962Y1588149I1041J-66306D01*
G03X2949359Y1562073I40911J-26075D01*
G01X2949359Y1440120D01*
G03X2919387Y1417406I3424J-35650D01*
G01X2919387Y1757471D01*
G03X2954660Y1727859I35273J6202D01*
G01X3033669Y1727859D01*
G03X3048673Y1731153I0J35814D01*
G03X3063677Y1727859I15004J32520D01*
G01X3142686Y1727859D01*
G03X3165659Y1736198I0J35814D01*
G01X3165659Y1477488D01*
G03X3183471Y1434486I60814J0D01*
G01X3312570Y1305387D01*
G01X3259409Y1305387D01*
G03X3174685Y1310843I-45636J-48114D01*
G03X3154029Y1228495I39088J-53569D01*
G01X3108597Y1228495D01*
G01X3108597Y1245466D01*
G37*
G36*
G01X2944787Y2497547D02*
G03X2977109Y2477159I32322J15426D01*
G01X3033674Y2477159D01*
G03X3048673Y2480451I0J35814D01*
G03X3063672Y2477159I14999J32522D01*
G01X3120238Y2477159D01*
G03X3156052Y2512973I0J35814D01*
G01X3156052Y2554485D01*
G01X3177959Y2532578D01*
G01X3177959Y2328837D01*
G03X3155574Y2336694I-22385J-27956D01*
G01X3035574Y2336694D01*
G03X3010573Y2326524I0J-35814D01*
G03X2985572Y2336694I-25001J-25643D01*
G01X2944787Y2336694D01*
G01X2944787Y2350159D01*
G01X3020969Y2350159D01*
G03X3035973Y2353453I0J35814D01*
G03X3050977Y2350159I15004J32520D01*
G01X3129986Y2350159D01*
G03X3165800Y2385973I0J35814D01*
G01X3165800Y2439973D01*
G03X3129986Y2475787I-35814J0D01*
G01X3050977Y2475787D01*
G03X3035973Y2472493I0J-35814D01*
G03X3020969Y2475787I-15004J-32520D01*
G01X2944787Y2475787D01*
G01X2944787Y2497547D01*
G37*
G36*
G01X3107750Y2602787D02*
G01X3063672Y2602787D01*
G03X3053906Y2601430I0J-35814D01*
G01X3053906Y2656632D01*
G01X3107750Y2602787D01*
G37*
G36*
G01X3269133Y2146244D02*
G03X3189946Y2150820I-42660J-50771D01*
G03X3191388Y2160881I-34372J10060D01*
G01X3191388Y2239767D01*
G01X3192169Y2238968D01*
G01X3357269Y2073868D01*
G03X3391573Y2059659I34305J34305D01*
G01X3433249Y2059659D01*
G01X3433249Y2043780D01*
G03X3436101Y2029776I35814J0D01*
G03X3433249Y2015772I32962J-14004D01*
G01X3433249Y1992915D01*
G03X3422059Y1984566I23114J-42654D01*
G01X3382669Y1945176D01*
G03X3368459Y1910871I34305J-34305D01*
G01X3368459Y1794925D01*
G03X3342373Y1806200I-26086J-24539D01*
G01X3288373Y1806200D01*
G01X3287287Y1806184D01*
G01X3287287Y2069030D01*
G03X3269133Y2146244I-60814J26443D01*
G37*
G36*
G01X3460186Y4305959D02*
G03X3470059Y4307347I0J35814D01*
G01X3470059Y3779268D01*
G01X3412751Y3721960D01*
G03X3351564Y3812387I-61187J24513D01*
G01X3233997Y3812387D01*
G01X3442286Y4020677D01*
G03X3456496Y4054981I-34305J34305D01*
G01X3456496Y4305959D01*
G01X3460186Y4305959D01*
G37*
G36*
G01X3793340Y1882530D02*
G03X3795508Y1872311I35744J2246D01*
G01X3763669Y1840472D01*
G03X3749459Y1806167I34305J-34305D01*
G01X3749459Y1697418D01*
G03X3735159Y1668786I21514J-28632D01*
G01X3735159Y1589777D01*
G03X3738453Y1574773I35814J0D01*
G03X3735159Y1559769I32520J-15004D01*
G01X3735159Y1480760D01*
G03X3770973Y1444946I35814J0D01*
G01X3824973Y1444946D01*
G03X3860787Y1480760I0J35814D01*
G01X3860787Y1559769D01*
G03X3857493Y1574773I-35814J0D01*
G03X3860787Y1589777I-32520J15004D01*
G01X3860787Y1668786D01*
G03X3846487Y1697418I-35814J0D01*
G01X3846487Y1786072D01*
G01X3909377Y1848962D01*
G01X3949083Y1848962D01*
G03X3984897Y1884776I0J35814D01*
G01X3984897Y1909777D01*
G03X3984193Y1916844I-35814J0D01*
G01X4016159Y1884878D01*
G01X4016159Y1790594D01*
G01X3995872Y1790594D01*
G03X3960058Y1754780I0J-35814D01*
G01X3960058Y1614781D01*
G03X3995872Y1578967I35814J0D01*
G01X4115872Y1578967D01*
G03X4140873Y1589137I0J35814D01*
G03X4165874Y1578967I25001J25643D01*
G01X4285874Y1578967D01*
G03X4308259Y1586824I0J35814D01*
G01X4308259Y1562722D01*
G03X4285874Y1570580I-22385J-27956D01*
G01X4165874Y1570580D01*
G03X4140873Y1560409I0J-35814D01*
G03X4115872Y1570580I-25001J-25643D01*
G01X3995872Y1570580D01*
G03X3960058Y1534766I0J-35814D01*
G01X3960058Y1394766D01*
G01X3960061Y1394287D01*
G01X3395678Y1394287D01*
G01X3287287Y1502678D01*
G01X3287287Y1546563D01*
G01X3288373Y1546546D01*
G01X3342373Y1546546D01*
G03X3372523Y1563030I0J35814D01*
G03X3402673Y1546546I30150J19330D01*
G01X3445125Y1546546D01*
G03X3490395Y1490562I60748J2827D01*
G03X3557359Y1517007I15478J58811D01*
G01X3557359Y1480760D01*
G03X3593173Y1444946I35814J0D01*
G01X3647173Y1444946D01*
G03X3682987Y1480760I0J35814D01*
G01X3682987Y1559769D01*
G03X3679693Y1574773I-35814J0D01*
G03X3682987Y1589777I-32520J15004D01*
G01X3682987Y1668786D01*
G03X3668687Y1697418I-35814J0D01*
G01X3668687Y1757878D01*
G01X3793340Y1882530D01*
G37*
G36*
G01X3465487Y1849141D02*
G03X3469063Y1848962I3576J35635D01*
G01X3589063Y1848962D01*
G03X3624877Y1884776I0J35814D01*
G01X3624877Y1909777D01*
G03X3622031Y1923769I-35814J0D01*
G03X3624877Y1937761I-32968J13992D01*
G01X3624877Y1958288D01*
G03X3630142Y1959094I-4704J48285D01*
G03X3668975Y1895384I66231J-3321D01*
G01X3585869Y1812278D01*
G03X3571659Y1777973I34305J-34305D01*
G01X3571659Y1697418D01*
G03X3557359Y1668786I21514J-28632D01*
G01X3557359Y1589777D01*
G03X3559068Y1578846I35814J0D01*
G03X3541687Y1598523I-53195J-29473D01*
G01X3541687Y1689073D01*
G03X3527478Y1723378I-48514J0D01*
G01X3492487Y1758368D01*
G01X3492487Y1770386D01*
G03X3465487Y1805099I-35814J0D01*
G01X3465487Y1849141D01*
G37*
G36*
G01X3744487Y1029495D02*
G03X3765673Y1022557I21186J28875D01*
G01X3855673Y1022557D01*
G03X3891487Y1058371I0J35814D01*
G01X3891487Y1138371D01*
G03X3875230Y1168373I-35814J0D01*
G03X3891487Y1198376I-19557J30002D01*
G01X3891487Y1272659D01*
G01X3901764Y1272659D01*
G03X3900259Y1262386I34309J-10273D01*
G01X3900259Y1183377D01*
G03X3903553Y1168373I35814J0D01*
G03X3900259Y1153369I32520J-15004D01*
G01X3900259Y1074360D01*
G03X3914559Y1045728I35814J0D01*
G01X3914559Y1018855D01*
G03X3880142Y983069I1397J-35787D01*
G01X3880142Y934070D01*
G03X3915956Y898256I35814J0D01*
G01X4018381Y898256D01*
G01X3949016Y828891D01*
G01X3915956Y828891D01*
G03X3881436Y802615I0J-35814D01*
G01X3744487Y939563D01*
G01X3744487Y1029495D01*
G37*
G36*
G01X4018163Y2296992D02*
G01X4018163Y2224752D01*
G03X3985189Y2210789I8410J-65779D01*
G01X3984897Y2210789D01*
G01X3984897Y2227760D01*
G03X3982045Y2241764I-35814J0D01*
G03X3984897Y2255769I-32962J14004D01*
G01X3984897Y2280770D01*
G03X3981012Y2296992I-35814J0D01*
G01X4018163Y2296992D01*
G37*
G36*
G01X4030488Y2007767D02*
G01X4058370Y2007767D01*
G01X4275543Y1790594D01*
G01X4165874Y1790594D01*
G03X4140873Y1780424I0J-35814D01*
G03X4115872Y1790594I-25001J-25643D01*
G01X4113187Y1790594D01*
G01X4113187Y1904973D01*
G03X4098978Y1939278I-48514J0D01*
G01X4030488Y2007767D01*
G37*
G36*
G01X4911778Y5012678D02*
G01X4470396Y5454059D01*
G01X4929873Y5454059D01*
G02X4944059Y5439873I0J-14186D01*
G01X4944059Y649873D01*
G02X4929873Y635687I-14186J0D01*
G01X4158554Y635687D01*
G01X4231130Y708264D01*
G01X4263290Y708264D01*
G03X4289859Y720063I0J35814D01*
G01X4326268Y720063D01*
G03X4355173Y705395I28905J21146D01*
G01X4409173Y705395D01*
G03X4444987Y741209I0J35814D01*
G01X4444987Y797774D01*
G03X4441695Y812773I-35814J0D01*
G03X4444987Y827772I-32522J14999D01*
G01X4444987Y884338D01*
G03X4409173Y920152I-35814J0D01*
G01X4386685Y920152D01*
G01X4313963Y992874D01*
G03X4291019Y1005734I-34305J-34305D01*
G03X4263290Y1018883I-27729J-22666D01*
G01X4163587Y1018883D01*
G01X4163587Y1074697D01*
G03X4190987Y1109509I-8414J34812D01*
G01X4190987Y1166074D01*
G03X4189630Y1175841I-35814J0D01*
G01X4562340Y1175841D01*
G03X4649311Y1062376I111933J-4267D01*
G01X4634273Y1062376D01*
G03X4634273Y850749I0J-105814D01*
G01X4714273Y850749D01*
G03X4714273Y1062376I0J105814D01*
G01X4699235Y1062376D01*
G03X4724743Y1271573I-24962J109197D01*
G03X4724743Y1471573I-50470J100000D01*
G03X4779969Y1608660I-50470J100000D01*
G01X4846517Y1675208D01*
G03X4860727Y1709512I-34305J34305D01*
G01X4860727Y2046433D01*
G03X4846517Y2080738I-48514J0D01*
G01X4775187Y2152068D01*
G01X4775187Y2154338D01*
G03X4739373Y2190152I-35814J0D01*
G01X4685373Y2190152D01*
G03X4649559Y2154338I0J-35814D01*
G01X4649559Y2097772D01*
G03X4652851Y2082773I35814J0D01*
G03X4649559Y2067774I32522J-14999D01*
G01X4649559Y2011209D01*
G03X4685373Y1975395I35814J0D01*
G01X4739373Y1975395D01*
G03X4763699Y1984923I0J35814D01*
G01X4763699Y1880145D01*
G03X4714273Y1892398I-49426J-93561D01*
G01X4634273Y1892398D01*
G03X4634273Y1680770I0J-105814D01*
G01X4649311Y1680770D01*
G03X4563083Y1585130I24962J-109197D01*
G03X4623804Y1471573I111191J-13557D01*
G03X4621315Y1272868I50470J-100000D01*
G01X4184726Y1272869D01*
G03X4155173Y1288452I-29552J-20231D01*
G01X4112512Y1288452D01*
G03X4094975Y1325675I-60539J-5778D01*
G01X4061698Y1358952D01*
G01X4115872Y1358952D01*
G03X4140873Y1369122I0J35814D01*
G03X4165874Y1358952I25001J25643D01*
G01X4285874Y1358952D01*
G03X4321688Y1394766I0J35814D01*
G01X4321688Y1417616D01*
G03X4344570Y1430461I-11422J47150D01*
G01X4391078Y1476968D01*
G03X4405287Y1511273I-34305J34305D01*
G01X4405287Y1777973D01*
G03X4391078Y1812278I-48514J0D01*
G01X4133577Y2069778D01*
G03X4181497Y2127380I-18104J63795D01*
G03X4145125Y2192889I-66024J6193D01*
G03X4149791Y2210566I-31148J17677D01*
G01X4149791Y2296992D01*
G01X4206105Y2296992D01*
G03X4203155Y2276766I67864J-20226D01*
G01X4203155Y2122634D01*
G03X4222675Y2059648I64718J-14461D01*
G03X4286886Y2044643I45198J48525D01*
G03X4344783Y2114269I-12917J69626D01*
G01X4344783Y2276766D01*
G03X4341833Y2296992I-70814J0D01*
G01X4451921Y2296992D01*
G03X4447959Y2202663I44553J-49119D01*
G01X4447959Y2190152D01*
G01X4405973Y2190152D01*
G03X4370159Y2154338I0J-35814D01*
G01X4370159Y2097772D01*
G03X4373451Y2082773I35814J0D01*
G03X4370159Y2067774I32522J-14999D01*
G01X4370159Y2011209D01*
G03X4405973Y1975395I35814J0D01*
G01X4459973Y1975395D01*
G03X4495787Y2011209I0J35814D01*
G01X4495787Y2067774D01*
G03X4494402Y2077640I-35814J0D01*
G03X4523469Y2089748I-3110J48414D01*
G03X4525851Y2082773I34904J8024D01*
G03X4522559Y2067774I32522J-14999D01*
G01X4522559Y2011209D01*
G03X4558373Y1975395I35814J0D01*
G01X4612373Y1975395D01*
G03X4648187Y2011209I0J35814D01*
G01X4648187Y2067774D01*
G03X4644895Y2082773I-35814J0D01*
G03X4648187Y2097772I-32522J14999D01*
G01X4648187Y2154338D01*
G03X4633887Y2182970I-35814J0D01*
G01X4633887Y2342078D01*
G01X4733978Y2442168D01*
G03X4748187Y2476473I-34305J34305D01*
G01X4748187Y2551022D01*
G03X4784722Y2542856I36535J77648D01*
G01X4844722Y2542856D01*
G03X4844722Y2714484I0J85814D01*
G01X4784722Y2714484D01*
G03X4748187Y2706318I0J-85814D01*
G01X4748187Y2971773D01*
G03X4733978Y3006078I-48514J0D01*
G01X4467278Y3272778D01*
G03X4458929Y3279460I-34305J-34305D01*
G03X4519467Y3337393I-9204J70214D01*
G03X4482360Y3412521I-69742J12281D01*
G03X4507058Y3558259I-30646J80155D01*
G01X4729379Y3558259D01*
G03X4784722Y3406862I55344J-65583D01*
G01X4844722Y3406862D01*
G03X4883064Y3569448I0J85814D01*
G03X4886378Y3572468I-30991J37325D01*
G01X4911778Y3597868D01*
G03X4925987Y3632173I-34305J34305D01*
G01X4925987Y4978373D01*
G03X4911778Y5012678I-48514J0D01*
G37*
G36*
G01X4244787Y2457581D02*
G01X4244787Y2497643D01*
G03X4244787Y2549918I-65814J26137D01*
G01X4244787Y2564581D01*
G03X4208973Y2600395I-35814J0D01*
G01X4202505Y2600395D01*
G01X4124973Y2677927D01*
G01X4193357Y2746311D01*
G01X4197062Y2746311D01*
G01X4197062Y2708183D01*
G03X4232876Y2672369I35814J0D01*
G01X4267886Y2672369D01*
G03X4341740Y2542856I73854J-43699D01*
G01X4451740Y2542856D01*
G03X4456266Y2542975I0J85814D01*
G01X4423959Y2510668D01*
G03X4353571Y2502955I-29086J-59595D01*
G03X4330275Y2436087I41302J-51881D01*
G01X4237620Y2436087D01*
G03X4244787Y2457581I-28647J21493D01*
G37*
G36*
G01X4197071Y3416562D02*
G03X4196909Y3413163I35652J-3399D01*
G01X4196909Y3362787D01*
G01X4190706Y3362787D01*
G03X4153287Y3372778I-36281J-60814D01*
G01X4197071Y3416562D01*
G37*
G36*
G01X4811687Y4952973D02*
G03X4797478Y4987278I-48514J0D01*
G01X4416478Y5368278D01*
G03X4409054Y5374359I-34305J-34305D01*
G01X4412878Y5374359D01*
G01X4828959Y4958278D01*
G01X4828959Y3722715D01*
G03X4781768Y3749025I-53086J-39742D01*
G03X4730663Y3731487I-5894J-66052D01*
G01X4280573Y3731487D01*
G03X4269390Y3730180I0J-48514D01*
G01X4275268Y3736059D01*
G01X4458373Y3736059D01*
G03X4492678Y3750268I0J48514D01*
G01X4797478Y4055068D01*
G03X4811687Y4089373I-34305J34305D01*
G01X4811687Y4952973D01*
G37*
G36*
G01X4319359Y850260D02*
G01X4319359Y827772D01*
G03X4320989Y817091I35814J0D01*
G01X4291564Y817091D01*
G03X4299104Y839074I-28274J21982D01*
G01X4299104Y870515D01*
G01X4319359Y850260D01*
G37*
G54D10*
G01X49873Y5454059D02*
G01X57632Y5454059D01*
G03X122324Y5311862I64692J-56383D01*
G01X182324Y5311862D01*
G03X247015Y5454059I0J85814D01*
G01X450615Y5454059D01*
G03X484675Y5317515I64692J-56383D01*
G03X446507Y5254362I32646J-62841D01*
G03X485231Y5191548I70815J312D01*
G01X458267Y5164583D01*
G03X409759Y5105028I12306J-59556D01*
G01X409759Y4851373D01*
G03X458267Y4791817I60814J0D01*
G01X503884Y4746200D01*
G03X447240Y4686836I13438J-69529D01*
G03X484686Y4613825I70082J-10164D01*
G03X515332Y4447856I30646J-80155D01*
G01X625331Y4447856D01*
G03X699185Y4577369I0J85814D01*
G01X734323Y4577369D01*
G03X770137Y4613183I0J35814D01*
G01X770137Y4651359D01*
G01X1008863Y4651359D01*
G03X1055400Y4670636I0J65814D01*
G01X1056024Y4671259D01*
G01X1190567Y4671259D01*
G01X1190567Y4612077D01*
G03X1226381Y4576263I35814J0D01*
G01X1333381Y4576263D01*
G03X1369195Y4612077I0J35814D01*
G01X1369195Y4656068D01*
G01X1407546Y4617717D01*
G01X1407546Y4570373D01*
G03X1443360Y4534559I35814J0D01*
G01X1463222Y4534559D01*
G03X1502508Y4534559I19643J62814D01*
G01X1522369Y4534559D01*
G03X1537373Y4537853I0J35814D01*
G03X1552377Y4534559I15004J32520D01*
G01X1615713Y4534559D01*
G01X1514137Y4432983D01*
G01X1508963Y4432983D01*
G03X1482826Y4427983I0J-70814D01*
G01X1458963Y4427983D01*
G03X1438976Y4421887I0J-35814D01*
G01X1384420Y4421887D01*
G03X1355275Y4436887I-29145J-20814D01*
G01X1275276Y4436887D01*
G03X1245273Y4420630I0J-35814D01*
G03X1215271Y4436887I-30002J-19557D01*
G01X1135271Y4436887D01*
G03X1099457Y4401073I0J-35814D01*
G01X1099457Y4311073D01*
G03X1135271Y4275259I35814J0D01*
G01X1215271Y4275259D01*
G03X1245273Y4291516I0J35814D01*
G03X1275276Y4275259I30002J19557D01*
G01X1355275Y4275259D01*
G03X1384420Y4290259I0J35814D01*
G01X1494303Y4290259D01*
G01X1546572Y4237991D01*
G01X1458963Y4237991D01*
G03X1423149Y4202177I0J-35814D01*
G01X1423149Y4142177D01*
G03X1450759Y4107315I35814J0D01*
G01X1450759Y4022723D01*
G01X1431864Y4022723D01*
G03X1402773Y4037647I-29090J-20890D01*
G01X1316373Y4037647D01*
G03X1280559Y4001833I0J-35814D01*
G01X1280559Y3921186D01*
G03X1308839Y3886173I35814J0D01*
G03X1280559Y3851160I7534J-35013D01*
G01X1280559Y3770513D01*
G03X1316373Y3734699I35814J0D01*
G01X1402773Y3734699D01*
G03X1438587Y3770513I0J35814D01*
G01X1438587Y3792697D01*
G03X1472273Y3769046I33685J12163D01*
G01X1526273Y3769046D01*
G03X1554819Y3783232I0J35814D01*
G03X1594958Y3801080I-3146J61133D01*
G01X1600099Y3806220D01*
G03X1611973Y3804195I11874J33788D01*
G01X1665973Y3804195D01*
G03X1688614Y3812259I0J35814D01*
G01X1727873Y3812259D01*
G03X1771158Y3830188I0J61214D01*
G01X2026825Y4085855D01*
G01X2080574Y4085855D01*
G03X2114587Y4110455I0J35814D01*
G01X2135357Y4110455D01*
G01X2207925Y4037887D01*
G01X2167260Y4037887D01*
G03X2131446Y4002073I0J-35814D01*
G01X2131446Y3948073D01*
G03X2157122Y3913724I35814J0D01*
G03X2128169Y3878573I6862J-35150D01*
G01X2128169Y3792173D01*
G03X2161959Y3756416I35814J0D01*
G01X2161959Y3708373D01*
G03X2169562Y3682298I48514J0D01*
G03X2170924Y3669587I66311J675D01*
G01X2149272Y3669587D01*
G03X2134273Y3666295I0J-35814D01*
G03X2119274Y3669587I-14999J-32522D01*
G01X2062709Y3669587D01*
G03X2052123Y3667987I0J-35814D01*
G01X1296073Y3667987D01*
G03X1282303Y3665992I0J-48514D01*
G02X1159343Y3648175I-122960J415389D01*
G01X1038794Y3648175D01*
G03X1034400Y3647976I0J-48514D01*
G01X931295Y3647976D01*
G03X883000Y3598262I0J-48315D01*
G02X873178Y3602978I1802J16341D01*
G03X871043Y3604987I-34305J-34305D01*
G02X689369Y4008632I357573J403644D01*
G01X689369Y4065468D01*
G01X701260Y4077359D01*
G01X734969Y4077359D01*
G03X749973Y4080653I0J35814D01*
G03X764977Y4077359I15004J32520D01*
G01X843986Y4077359D01*
G03X879800Y4113173I0J35814D01*
G01X879800Y4167173D01*
G03X843986Y4202987I-35814J0D01*
G01X764977Y4202987D01*
G03X749973Y4199693I0J-35814D01*
G03X734969Y4202987I-15004J-32520D01*
G01X655960Y4202987D01*
G03X645374Y4201387I0J-35814D01*
G01X578123Y4201387D01*
G03X567538Y4202987I-10586J-34214D01*
G01X510972Y4202987D01*
G03X495973Y4199695I0J-35814D01*
G03X480974Y4202987I-14999J-32522D01*
G01X424409Y4202987D01*
G03X388595Y4167173I0J-35814D01*
G01X388595Y4113173D01*
G03X392286Y4097336I35814J0D01*
G03X444783Y4046554I60405J9919D01*
G01X493078Y3998260D01*
G01X493078Y3980672D01*
G03X493416Y3957168I816378J-0D01*
G03X419548Y3985379I-73868J-82603D01*
G01X299546Y3985379D01*
G03X299546Y3763751I0J-110814D01*
G01X419548Y3763751D01*
G03X510767Y3811646I0J110814D01*
G03X741630Y3394117I798689J169026D01*
G03X753757Y3385541I33744J34857D01*
G03X863235Y3354225I90967J110991D01*
G01X883202Y3354225D01*
G03X889947Y3324604I48093J-4627D01*
G03X889955Y3274605I41348J-24994D01*
G03X889955Y3224592I41340J-25006D01*
G03X889955Y3174579I41340J-25006D01*
G03X889955Y3124567I41340J-25006D01*
G03X889955Y3074554I41340J-25006D01*
G03X889955Y3024542I41340J-25006D01*
G03X889947Y2974542I41340J-25006D01*
G03X889955Y2924542I41348J-24994D01*
G03X889955Y2874529I41340J-25006D01*
G03X889955Y2824517I41340J-25006D01*
G03X889955Y2774504I41340J-25006D01*
G03X889955Y2724491I41340J-25006D01*
G03X931295Y2651170I41340J-25006D01*
G01X1034400Y2651170D01*
G03X1038794Y2650971I4394J48315D01*
G01X1169185Y2650971D01*
G03X1194473Y2643859I25288J41402D01*
G01X1324652Y2643859D01*
G03X1337356Y2645383I-0J53717D01*
G01X1617333Y2645383D01*
G03X1651673Y2631159I34322J34297D01*
G01X1933252Y2631159D01*
G03X1996891Y2647068I0J135235D01*
G03X2040374Y2621558I43483J24304D01*
G01X2101558Y2621558D01*
G01X2101558Y2585122D01*
G03X2060550Y2522447I20015J-57849D01*
G01X1398013Y2522447D01*
G03X1367638Y2539287I-30375J-18974D01*
G01X1311072Y2539287D01*
G03X1296073Y2535995I0J-35814D01*
G03X1281074Y2539287I-14999J-32522D01*
G01X1224509Y2539287D01*
G03X1188695Y2503473I0J-35814D01*
G01X1188695Y2449473D01*
G03X1224509Y2413659I35814J0D01*
G01X1278950Y2413659D01*
G01X1096669Y2231378D01*
G03X1082459Y2197073I34305J-34305D01*
G01X1082459Y2089883D01*
G03X1065114Y2036917I48514J-45210D01*
G03X1094290Y1989429I65859J7756D01*
G01X916847Y1811986D01*
G01X821179Y1811986D01*
G03X785365Y1776172I0J-35814D01*
G01X785365Y1616173D01*
G03X821179Y1580359I35814J0D01*
G01X909776Y1580359D01*
G01X932467Y1557668D01*
G03X792513Y1406103I-31287J-111508D01*
G01X728369Y1341959D01*
G03X714159Y1307654I34305J-34305D01*
G01X714159Y1193773D01*
G03X728369Y1159468I48514J0D01*
G01X814667Y1073170D01*
G03X840365Y897612I86512J-76996D01*
G01X840365Y890167D01*
G03X858177Y847165I60814J0D01*
G01X1022871Y682471D01*
G03X1065873Y664659I43002J43002D01*
G01X1098259Y664659D01*
G01X1098259Y662973D01*
G03X1110875Y635687I35814J0D01*
G01X902811Y635687D01*
G03X826167Y801992I-76644J65491D01*
G01X676167Y801992D01*
G03X599523Y635687I0J-100814D01*
G01X49873Y635687D01*
G02X35687Y649873I0J14186D01*
G01X35687Y5439873D01*
G02X49873Y5454059I14186J0D01*
G01X182324Y4619484D02*
G01X122324Y4619484D01*
G03X122324Y4447856I0J-85814D01*
G01X182324Y4447856D01*
G03X182324Y4619484I0J85814D01*
G01X419548Y2535395D02*
G01X299546Y2535395D01*
G03X299546Y2313767I0J-110814D01*
G01X419548Y2313767D01*
G03X419548Y2535395I0J110814D01*
G01X676167Y1890354D02*
G01X826167Y1890354D01*
G03X826167Y2091982I0J100814D01*
G01X676167Y2091982D01*
G03X676167Y1890354I0J-100814D01*
G01X1045557Y3985379D02*
G01X865560Y3985379D01*
G03X865560Y3763751I0J-110814D01*
G01X1045557Y3763751D01*
G03X1045557Y3985379I0J110814D01*
G01X1045557Y2535395D02*
G01X865560Y2535395D01*
G03X865560Y2313767I0J-110814D01*
G01X1045557Y2313767D01*
G03X1045557Y2535395I0J110814D01*
G01X854289Y3451049D02*
G02X811859Y3463667I-9565J45483D01*
G03X800950Y3471862I-34305J-34305D01*
G02X590106Y3980672I508506J508809D01*
G01X590106Y4018355D01*
G03X575896Y4052659I-48514J0D01*
G01X551196Y4077359D01*
G01X567538Y4077359D01*
G03X578123Y4078959I0J35814D01*
G01X592341Y4078959D01*
G01X592341Y4008632D01*
G03X805737Y3533216I636275J0D01*
G03X883004Y3501149I79065J81386D01*
G03X889955Y3474630I48291J-1513D01*
G03X883008Y3451253I41340J-25006D01*
G01X873232Y3451253D01*
G03X854289Y3451049I-8959J-47680D01*
G01X699160Y5353977D02*
G03X689998Y5454059I-73854J43699D01*
G01X1352059Y5454059D01*
G01X1352059Y5189873D01*
G03X1387873Y5154059I35814J0D01*
G01X1592873Y5154059D01*
G03X1628687Y5189873I0J35814D01*
G01X1628687Y5454059D01*
G01X3102639Y5454059D01*
G01X2994929Y5346349D01*
G03X2883573Y5314474I-47856J-43265D01*
G03X2756573Y5314474I-63500J-11390D01*
G03X2629573Y5314474I-63500J-11390D01*
G03X2502573Y5314474I-63500J-11390D01*
G03X2375573Y5314474I-63500J-11390D01*
G03X2248573Y5314474I-63500J-11390D01*
G03X2121573Y5314474I-63500J-11390D01*
G03X1993560Y5303084I-63500J-11390D01*
G01X1993560Y5251940D01*
G01X1984407Y5242787D01*
G01X1908672Y5242787D01*
G03X1898086Y5244387I-10586J-34214D01*
G01X1819077Y5244387D01*
G03X1804073Y5241093I0J-35814D01*
G03X1789069Y5244387I-15004J-32520D01*
G01X1710060Y5244387D01*
G03X1674246Y5208573I0J-35814D01*
G01X1674246Y5154573D01*
G03X1710060Y5118759I35814J0D01*
G01X1789069Y5118759D01*
G03X1804073Y5122053I0J35814D01*
G03X1819077Y5118759I15004J32520D01*
G01X1898086Y5118759D01*
G03X1908672Y5120359I0J35814D01*
G01X2004758Y5120359D01*
G03X2008179Y5115787I53315J36325D01*
G01X1486101Y5115787D01*
G01X1474910Y5126978D01*
G03X1440605Y5141187I-34305J-34305D01*
G01X1320035Y5141187D01*
G01X1320035Y5199624D01*
G03X1284221Y5235438I-35814J0D01*
G01X1170968Y5235438D01*
G03X1135154Y5199624I0J-35814D01*
G01X1135154Y5155517D01*
G01X1126792Y5163879D01*
G01X1126792Y5199624D01*
G03X1090978Y5235438I-35814J0D01*
G01X977725Y5235438D01*
G03X941911Y5199624I0J-35814D01*
G01X941911Y5061923D01*
G03X977725Y5026109I35814J0D01*
G01X987806Y5026109D01*
G03X996978Y5014825I59245J38790D01*
G01X1190567Y4821237D01*
G01X1190567Y4802887D01*
G01X990148Y4802887D01*
G03X1003287Y4830609I-22675J27722D01*
G01X1003287Y4887174D01*
G03X999995Y4902173I-35814J0D01*
G03X1003287Y4917172I-32522J14999D01*
G01X1003287Y4973738D01*
G03X967473Y5009552I-35814J0D01*
G01X913473Y5009552D01*
G03X877659Y4973738I0J-35814D01*
G01X877659Y4917172D01*
G03X880951Y4902173I35814J0D01*
G03X877659Y4887174I32522J-14999D01*
G01X877659Y4864686D01*
G01X849360Y4836387D01*
G01X770137Y4836387D01*
G01X770137Y4840959D01*
G01X813473Y4840959D01*
G03X826993Y4842881I0J48514D01*
G03X870607Y4881338I-13520J59292D01*
G03X861987Y4938844I-57134J20835D01*
G01X861987Y4958626D01*
G03X847778Y4992930I-48514J0D01*
G01X834245Y5006463D01*
G03X893916Y5052462I688J60810D01*
G03X863056Y5121194I-58983J14811D01*
G01X874804Y5132942D01*
G03X889687Y5168873I-35931J35931D01*
G01X889687Y5198625D01*
G01X962221Y5271159D01*
G01X963574Y5271159D01*
G03X978573Y5274451I0J35814D01*
G03X993572Y5271159I14999J32522D01*
G01X1050138Y5271159D01*
G03X1085952Y5306973I0J35814D01*
G01X1085952Y5360973D01*
G03X1050138Y5396787I-35814J0D01*
G01X993572Y5396787D01*
G03X978573Y5393495I0J-35814D01*
G03X963574Y5396787I-14999J-32522D01*
G01X907009Y5396787D01*
G03X871195Y5360973I0J-35814D01*
G01X871195Y5323856D01*
G01X802942Y5255604D01*
G03X788059Y5219673I35931J-35931D01*
G01X788059Y5189921D01*
G01X768089Y5169950D01*
G03X769730Y5180670I-34172J10720D01*
G01X769730Y5239372D01*
G03X768417Y5248982I-35814J0D01*
G03X769984Y5259461I-34247J10479D01*
G01X769984Y5318163D01*
G03X734170Y5353977I-35814J0D01*
G01X699160Y5353977D01*
G01X972458Y904893D02*
G03X1003263Y941477I-71278J91281D01*
G01X1003263Y874087D01*
G01X972458Y904893D01*
G01X1352059Y635687D02*
G01X1227271Y635687D01*
G03X1239887Y662973I-23198J27286D01*
G01X1239887Y787974D01*
G03X1204073Y823788I-35814J0D01*
G01X1134073Y823788D01*
G03X1098259Y787974I0J-35814D01*
G01X1098259Y786287D01*
G01X1091063Y786287D01*
G01X1050192Y827158D01*
G01X1109077Y827158D01*
G03X1144891Y862972I0J35814D01*
G01X1144891Y987973D01*
G03X1109077Y1023787I-35814J0D01*
G01X1039077Y1023787D01*
G03X1015468Y1014904I0J-35814D01*
G03X1009632Y1036803I-114289J-18730D01*
G03X999643Y1057146I-108453J-40630D01*
G01X1158782Y1057146D01*
G03X1198640Y1006860I49793J-1473D01*
G03X1193255Y987973I30429J-18886D01*
G01X1193255Y862972D01*
G03X1229069Y827158I35814J0D01*
G01X1299069Y827158D01*
G03X1334883Y862972I0J35814D01*
G01X1334883Y902359D01*
G01X1352059Y902359D01*
G01X1352059Y635687D01*
G01X1183915Y1878761D02*
G01X1433524Y1878761D01*
G03X1418459Y1849571I20749J-29191D01*
G01X1418459Y1769571D01*
G03X1454273Y1733757I35814J0D01*
G01X1544273Y1733757D01*
G03X1580087Y1769571I0J35814D01*
G01X1580087Y1849571D01*
G03X1563830Y1879573I-35814J0D01*
G03X1576969Y1894959I-19557J30002D01*
G01X1654969Y1894959D01*
G01X1712237Y1837691D01*
G01X1624063Y1837691D01*
G03X1588249Y1801877I0J-35814D01*
G01X1588249Y1741877D01*
G03X1624063Y1706063I35814J0D01*
G01X1625549Y1706063D01*
G01X1625549Y1656546D01*
G03X1614499Y1630673I24764J-25873D01*
G01X1614499Y1544273D01*
G03X1642123Y1509408I35814J0D01*
G01X1642123Y1506221D01*
G03X1631298Y1497151I17137J-31448D01*
G01X1565587Y1497151D01*
G01X1565587Y1501660D01*
G03X1537307Y1536673I-35814J0D01*
G03X1565587Y1571686I-7534J35013D01*
G01X1565587Y1652333D01*
G03X1529773Y1688147I-35814J0D01*
G01X1443373Y1688147D01*
G03X1407559Y1652333I0J-35814D01*
G01X1407559Y1571686D01*
G03X1435839Y1536673I35814J0D01*
G03X1407559Y1501660I7534J-35013D01*
G01X1407559Y1421013D01*
G03X1414233Y1400193I35814J0D01*
G01X1304376Y1400193D01*
G01X1016993Y1687576D01*
G01X1016993Y1711840D01*
G01X1183915Y1878761D01*
G01X1773563Y3354225D02*
G03X1763146Y3328973I25397J-25251D01*
G01X1763146Y3274973D01*
G03X1763509Y3269888I35814J0D01*
G01X1671713Y3269888D01*
G03X1617368Y3247378I0J-76854D01*
G01X1616165Y3247363D01*
G01X1322973Y3247363D01*
G02X1292278Y3260078I0J43410D01*
G03X1200454Y3298112I-91824J-91824D01*
G01X1194584Y3298112D01*
G03X1187641Y3324604I-48291J1499D01*
G03X1194386Y3354225I-41348J24994D01*
G01X1773563Y3354225D01*
G01X1420510Y5044159D02*
G01X1431701Y5032968D01*
G03X1466005Y5018759I34305J34305D01*
G01X1674253Y5018759D01*
G01X1674246Y5018073D01*
G01X1674246Y4964073D01*
G03X1693753Y4932187I35814J0D01*
G01X1681371Y4932187D01*
G03X1645557Y4896373I0J-35814D01*
G01X1645557Y4830636D01*
G01X1594050Y4882142D01*
G03X1527683Y4900983I-50073J-50073D01*
G03X1511390Y4902883I-16294J-68914D01*
G01X1309213Y4902883D01*
G01X1217058Y4995038D01*
G03X1206081Y5026109I-60685J-3965D01*
G01X1284221Y5026109D01*
G03X1315320Y5044159I0J35814D01*
G01X1420510Y5044159D01*
G01X1285979Y2062624D02*
G03X1268387Y2102583I-66106J-5251D01*
G01X1268387Y2164278D01*
G01X1428299Y2324190D01*
G03X1423759Y2306738I31274J-17452D01*
G01X1423759Y2250172D01*
G03X1427051Y2235173I35814J0D01*
G03X1423759Y2220174I32522J-14999D01*
G01X1423759Y2163609D01*
G03X1459573Y2127795I35814J0D01*
G01X1513573Y2127795D01*
G03X1549387Y2163609I0J35814D01*
G01X1549387Y2220174D01*
G03X1546095Y2235173I-35814J0D01*
G03X1549387Y2250172I-32522J14999D01*
G01X1549387Y2267478D01*
G01X1557468Y2275559D01*
G01X1558159Y2275559D01*
G01X1558159Y2201676D01*
G03X1574416Y2171673I35814J0D01*
G03X1558159Y2141671I19557J-30002D01*
G01X1558159Y2061671D01*
G03X1593973Y2025857I35814J0D01*
G01X1612773Y2025857D01*
G03X1598147Y2016587I11291J-33988D01*
G01X1567789Y2016587D01*
G03X1544273Y2025389I-23516J-27012D01*
G01X1454273Y2025389D01*
G03X1436021Y2020390I0J-35814D01*
G01X1274916Y2020390D01*
G03X1285979Y2062624I-55043J36984D01*
G01X1601600Y4674300D02*
G03X1621760Y4660187I50073J50073D01*
G01X1552377Y4660187D01*
G03X1544234Y4659249I0J-35814D01*
G03X1529402Y4682011I-61369J-23776D01*
G01X1450158Y4761255D01*
G01X1511390Y4761255D01*
G03X1514573Y4761327I0J70814D01*
G01X1601600Y4674300D01*
G01X1460170Y1382381D02*
G03X1457153Y1385199I-43002J-43002D01*
G01X1529773Y1385199D01*
G03X1558864Y1400123I0J35814D01*
G01X1629999Y1400123D01*
G03X1659260Y1384959I29261J20650D01*
G01X1738269Y1384959D01*
G03X1753273Y1388253I0J35814D01*
G03X1768277Y1384959I15004J32520D01*
G01X1847286Y1384959D01*
G03X1883100Y1420773I0J35814D01*
G01X1883100Y1474773D01*
G03X1859449Y1508459I-35814J0D01*
G01X1881633Y1508459D01*
G03X1913094Y1527159I0J35814D01*
G01X1913714Y1527768D01*
G01X1924905Y1538959D01*
G01X1943773Y1538959D01*
G03X1970211Y1546796I0J48514D01*
G03X1969859Y1541786I35462J-5010D01*
G01X1969859Y1462777D01*
G03X1973153Y1447773I35814J0D01*
G03X1969859Y1432769I32520J-15004D01*
G01X1969859Y1353760D01*
G03X2005673Y1317946I35814J0D01*
G01X2059673Y1317946D01*
G03X2095487Y1353760I0J35814D01*
G01X2095487Y1432769D01*
G03X2094415Y1441468I-35814J0D01*
G01X2113142Y1441468D01*
G03X2120516Y1435073I26931J23608D01*
G03X2104259Y1405071I19557J-30002D01*
G01X2104259Y1325071D01*
G03X2140073Y1289257I35814J0D01*
G01X2230073Y1289257D01*
G03X2265887Y1325071I0J35814D01*
G01X2265887Y1405071D01*
G03X2249630Y1435073I-35814J0D01*
G03X2257004Y1441468I-19557J30002D01*
G01X2303642Y1441468D01*
G03X2311016Y1435073I26931J23608D01*
G03X2294759Y1405071I19557J-30002D01*
G01X2294759Y1325071D01*
G03X2330573Y1289257I35814J0D01*
G01X2364348Y1289257D01*
G01X2330078Y1254987D01*
G01X1814381Y1254987D01*
G03X1764571Y1305487I-49810J686D01*
G01X1630571Y1305487D01*
G03X1581092Y1261446I0J-49814D01*
G01X1580375Y1262175D01*
G01X1460170Y1382381D01*
G01X1638973Y2792449D02*
G01X1486065Y2792449D01*
G01X1486065Y2795497D01*
G01X1644573Y2795497D01*
G03X1709833Y2821659I0J94476D01*
G01X1712346Y2821659D01*
G01X1712346Y2782630D01*
G03X1707847Y2778987I28227J-39457D01*
G01X1672514Y2778987D01*
G03X1638973Y2792449I-33541J-35052D01*
G01X1486065Y3101059D02*
G01X1638973Y3101059D01*
G03X1659928Y3105818I0J48514D01*
G02X1699646Y3119232I75037J-156679D01*
G01X1699646Y3097249D01*
G01X1486065Y3097249D01*
G01X1486065Y3101059D01*
G01X1872759Y4300955D02*
G01X1872759Y4287277D01*
G03X1894201Y4254473I35814J0D01*
G03X1872759Y4221669I14371J-32804D01*
G01X1872759Y4121669D01*
G03X1875576Y4107746I35814J0D01*
G01X1702517Y3934687D01*
G01X1701787Y3934687D01*
G01X1701787Y3983138D01*
G03X1665973Y4018952I-35814J0D01*
G01X1611973Y4018952D01*
G03X1597895Y4016069I0J-35814D01*
G01X1573187Y4016069D01*
G01X1573187Y4109309D01*
G03X1594777Y4142177I-14224J32868D01*
G01X1594777Y4189786D01*
G01X1611177Y4173386D01*
G03X1621088Y4160388I53196J30288D01*
G01X1652584Y4128892D01*
G03X1695869Y4110963I43285J43285D01*
G01X1701424Y4110963D01*
G03X1718983Y4106363I17559J31214D01*
G01X1818983Y4106363D01*
G03X1854797Y4142177I0J35814D01*
G01X1854797Y4202177D01*
G03X1850231Y4219675I-35814J0D01*
G03X1854797Y4237173I-31248J17498D01*
G01X1854797Y4297173D01*
G03X1854597Y4300955I-35814J0D01*
G01X1872759Y4300955D01*
G01X1667200Y4586046D02*
G01X1667200Y4624373D01*
G03X1652143Y4653559I-35814J0D01*
G01X1669759Y4653559D01*
G01X1669759Y4588605D01*
G01X1667200Y4586046D01*
G01X1785199Y937810D02*
G01X1802857Y920152D01*
G01X1789773Y920152D01*
G03X1753959Y884338I0J-35814D01*
G01X1753959Y871344D01*
G01X1687493Y937810D01*
G01X1785199Y937810D01*
G01X1716487Y2186659D02*
G01X1730893Y2186659D01*
G01X1731853Y2184373D01*
G03X1728559Y2169369I32520J-15004D01*
G01X1728559Y2090360D01*
G03X1764373Y2054546I35814J0D01*
G01X1818373Y2054546D01*
G03X1854187Y2090360I0J35814D01*
G01X1854187Y2169369D01*
G03X1850893Y2184373I-35814J0D01*
G01X1851853Y2186659D01*
G01X2032673Y2186659D01*
G03X2066978Y2200868I0J48514D01*
G01X2090868Y2224759D01*
G01X2093353Y2224759D01*
G01X2093346Y2224073D01*
G01X2093346Y2170073D01*
G03X2108124Y2141088I35814J0D01*
G01X2103069Y2141088D01*
G03X2067255Y2105274I0J-35814D01*
G01X2067255Y2010383D01*
G01X2014740Y2010383D01*
G03X1984083Y2027683I-30657J-18514D01*
G01X1884083Y2027683D01*
G03X1848269Y1991869I0J-35814D01*
G01X1848269Y1931869D01*
G03X1852835Y1914371I35814J0D01*
G03X1848269Y1896873I31248J-17498D01*
G01X1848269Y1873667D01*
G01X1759877Y1962059D01*
G01X1759877Y1991869D01*
G03X1724063Y2027683I-35814J0D01*
G01X1695264Y2027683D01*
G03X1719787Y2061671I-11291J33988D01*
G01X1719787Y2141671D01*
G03X1703530Y2171673I-35814J0D01*
G03X1716487Y2186659I-19557J30002D01*
G01X2855459Y3096374D02*
G03X2855459Y3146374I-43087J25000D01*
G03X2855459Y3196374I-43087J25000D01*
G03X2812372Y3271188I-43087J25000D01*
G01X2751188Y3271188D01*
G01X2751188Y3332372D01*
G03X2749888Y3343680I-49814J0D01*
G01X2749888Y3506079D01*
G01X2755904Y3512095D01*
G01X2758173Y3512095D01*
G03X2781113Y3520405I0J35814D01*
G01X2820319Y3520405D01*
G03X2854624Y3534615I0J48514D01*
G01X2930578Y3610568D01*
G03X2944787Y3644873I-34305J34305D01*
G01X2944787Y4025873D01*
G03X2930578Y4060178I-48514J0D01*
G01X2714678Y4276078D01*
G03X2685973Y4289963I-34305J-34305D01*
G03X2661310Y4305273I-46999J-48190D01*
G03X2638974Y4436087I-22336J63500D01*
G01X2515474Y4436087D01*
G03X2467112Y4415595I0J-67314D01*
G03X2445508Y4403078I12701J-46822D01*
G01X2300522Y4258092D01*
G03X2288273Y4260252I-12249J-33654D01*
G01X2234273Y4260252D01*
G03X2198459Y4224438I0J-35814D01*
G01X2198459Y4219860D01*
G03X2160713Y4232883I-37746J-48191D01*
G01X2114587Y4232883D01*
G03X2094945Y4254473I-34013J-11214D01*
G03X2116388Y4287277I-14371J32804D01*
G01X2116388Y4387277D01*
G03X2080574Y4423091I-35814J0D01*
G01X1975654Y4423091D01*
G03X1969681Y4423383I-5973J-60922D01*
G01X1836542Y4423383D01*
G03X1818983Y4427983I-17559J-31214D01*
G01X1718983Y4427983D01*
G03X1707558Y4426112I0J-35814D01*
G01X1790646Y4509200D01*
G03X1811387Y4559273I-50073J50073D01*
G01X1811387Y4653559D01*
G01X1918373Y4653559D01*
G03X1983392Y4696317I0J70814D01*
G01X1993560Y4706485D01*
G01X1993560Y4602862D01*
G03X2121573Y4591472I64513J0D01*
G03X2248573Y4591472I63500J11390D01*
G03X2375573Y4591472I63500J11390D01*
G03X2502573Y4591472I63500J11390D01*
G03X2629573Y4591472I63500J11390D01*
G03X2756573Y4591472I63500J11390D01*
G03X2883573Y4591472I63500J11390D01*
G03X3011327Y4597081I63500J11390D01*
G01X3143220Y4465188D01*
G03X3186504Y4447259I43285J43285D01*
G01X3206859Y4447259D01*
G03X3237813Y4429459I30954J18014D01*
G01X3259997Y4429459D01*
G03X3236384Y4397425I12163J-33685D01*
G03X3175472Y4436087I-60912J-28652D01*
G01X3051973Y4436087D01*
G03X3029637Y4305273I0J-67314D01*
G03X3029637Y4178273I22336J-63500D01*
G03X3029637Y4051273I22336J-63500D01*
G03X3051973Y3920459I22336J-63500D01*
G01X3175472Y3920459D01*
G03X3197808Y4051273I0J67314D01*
G03X3197808Y4178273I-22336J63500D01*
G03X3197808Y4305273I-22336J63500D01*
G03X3236384Y4340122I-22336J63500D01*
G03X3272160Y4305959I35776J1651D01*
G01X3351169Y4305959D01*
G03X3359468Y4306933I0J35814D01*
G01X3359468Y4075077D01*
G01X3077869Y3793478D01*
G03X3063659Y3759173I34305J-34305D01*
G01X3063659Y3428973D01*
G03X3077869Y3394668I48514J0D01*
G01X3141369Y3331168D01*
G03X3169638Y3317336I34305J34305D01*
G03X3196990Y3301973I45028J48137D01*
G03X3196990Y3174973I17676J-63500D01*
G03X3196990Y3047973I17676J-63500D01*
G03X3196990Y2920973I17676J-63500D01*
G03X3214666Y2791559I17676J-63500D01*
G01X3351564Y2791559D01*
G03X3369240Y2920973I0J65914D01*
G03X3369240Y3047973I-17676J63500D01*
G03X3396186Y3062959I-17676J63500D01*
G01X3397163Y3062959D01*
G03X3508687Y3111473I45210J48514D01*
G03X3397163Y3159987I-66314J0D01*
G01X3396186Y3159987D01*
G03X3369240Y3174973I-44622J-48514D01*
G03X3406900Y3202659I-17676J63500D01*
G01X3422563Y3202659D01*
G03X3534087Y3251173I45210J48514D01*
G03X3422563Y3299687I-66314J0D01*
G01X3376009Y3299687D01*
G03X3369240Y3301973I-24445J-61214D01*
G03X3369240Y3428973I-17676J63500D01*
G03X3396186Y3443959I-17676J63500D01*
G01X3455073Y3443959D01*
G03X3489378Y3458168I0J48514D01*
G01X3603678Y3572468D01*
G03X3617887Y3606773I-34305J34305D01*
G01X3617887Y3781750D01*
G01X3674769Y3724868D01*
G03X3706398Y3710733I34305J34305D01*
G03X3744106Y3682973I55383J35740D01*
G03X3744106Y3555973I17676J-63500D01*
G03X3744106Y3428973I17676J-63500D01*
G03X3744106Y3301973I17676J-63500D01*
G03X3744106Y3174973I17676J-63500D01*
G03X3744106Y3047973I17676J-63500D01*
G03X3744106Y2920973I17676J-63500D01*
G03X3761782Y2791559I17676J-63500D01*
G01X3898680Y2791559D01*
G03X3943302Y2808959I0J65914D01*
G01X3950373Y2808959D01*
G03X3984678Y2823168I0J48514D01*
G01X4033611Y2872102D01*
G01X4033611Y2857525D01*
G03X4054279Y2807525I70814J0D01*
G01X3984541Y2737787D01*
G01X3931476Y2737787D01*
G03X3898780Y2729787I0J-70814D01*
G01X3876477Y2729787D01*
G03X3861473Y2726493I0J-35814D01*
G03X3846469Y2729787I-15004J-32520D01*
G01X3767460Y2729787D01*
G03X3731646Y2693973I0J-35814D01*
G01X3731646Y2639973D01*
G03X3767460Y2604159I35814J0D01*
G01X3846469Y2604159D01*
G03X3861473Y2607453I0J35814D01*
G03X3876477Y2604159I15004J32520D01*
G01X3898780Y2604159D01*
G03X3931476Y2596159I32696J62814D01*
G01X4006448Y2596159D01*
G01X4113159Y2489448D01*
G01X4113159Y2457581D01*
G03X4120326Y2436087I35814J0D01*
G01X3759873Y2436087D01*
G03X3725569Y2421878I0J-48514D01*
G01X3611982Y2308291D01*
G03X3589063Y2316584I-22918J-27521D01*
G01X3574966Y2316584D01*
G03X3563368Y2335187I-45903J-15701D01*
G01X3508646Y2389909D01*
G03X3429753Y2452675I-66273J-2336D01*
G03X3380027Y2364977I12620J-65102D01*
G03X3338487Y2351271I-1154J-66304D01*
G01X3338487Y2565373D01*
G03X3324278Y2599678I-48514J0D01*
G01X3020808Y2903147D01*
G03X3049092Y2976736I-35635J55926D01*
G03X2987037Y3025361I-63919J-17663D01*
G03X2972872Y3027188I-14165J-53987D01*
G01X2861846Y3027188D01*
G03X2855459Y3046374I-49474J-5814D01*
G03X2855459Y3096374I-43087J25000D01*
G01X1937189Y4836264D02*
G01X1937189Y4896373D01*
G03X1911298Y4930785I-35814J0D01*
G03X1933900Y4964073I-13212J33288D01*
G01X1933900Y5018073D01*
G01X1933894Y5018759D01*
G01X2159673Y5018759D01*
G03X2193978Y5032968I0J48514D01*
G01X2219378Y5058368D01*
G03X2233587Y5092673I-34305J34305D01*
G01X2233587Y5114159D01*
G03X2248573Y5145293I-48514J42525D01*
G03X2375573Y5145293I63500J11390D01*
G03X2390559Y5114159I63500J11390D01*
G01X2390559Y5053144D01*
G03X2383997Y4990687I48514J-36671D01*
G01X2108873Y4990687D01*
G03X2035725Y4934800I0J-75814D01*
G01X1937189Y4836264D01*
G01X2088458Y1563095D02*
G03X2059673Y1577600I-28785J-21309D01*
G01X2005673Y1577600D01*
G03X2002355Y1577446I0J-35814D01*
G01X2086715Y1661806D01*
G03X2100471Y1659059I13755J33067D01*
G01X2180471Y1659059D01*
G03X2210473Y1675316I0J35814D01*
G03X2240476Y1659059I30002J19557D01*
G01X2276950Y1659059D01*
G01X2198780Y1580889D01*
G01X2140073Y1580889D01*
G03X2109123Y1563095I0J-35814D01*
G01X2088458Y1563095D01*
G01X2120887Y919486D02*
G03X2085073Y955300I-35814J0D01*
G01X2031073Y955300D01*
G01X2029172Y955250D01*
G03X2017687Y1001844I-59999J9923D01*
G01X2017687Y1079473D01*
G03X2009011Y1107159I-48514J0D01*
G01X2189635Y1107159D01*
G03X2214927Y1041514I58939J-14986D01*
G03X2285244Y1043659I33646J50659D01*
G01X2350173Y1043659D01*
G03X2384478Y1057868I0J48514D01*
G01X2387140Y1060530D01*
G03X2453450Y1033083I51933J31643D01*
G01X2374128Y953761D01*
G03X2326573Y913277I14145J-64788D01*
G01X2260587Y847291D01*
G01X2260587Y919486D01*
G03X2224773Y955300I-35814J0D01*
G01X2170773Y955300D01*
G03X2134959Y919486I0J-35814D01*
G01X2134959Y841685D01*
G01X2120887Y841685D01*
G01X2120887Y919486D01*
G01X2019897Y1836873D02*
G01X2019897Y1896873D01*
G03X2015879Y1913355I-35814J0D01*
G01X2073304Y1913355D01*
G03X2103069Y1897458I29765J19917D01*
G01X2185149Y1897458D01*
G01X2108378Y1820687D01*
G01X2100471Y1820687D01*
G03X2064657Y1784873I0J-35814D01*
G01X2064657Y1776966D01*
G01X2017965Y1730274D01*
G03X2019897Y1741877I-33882J11603D01*
G01X2019897Y1801877D01*
G03X2015331Y1819375I-35814J0D01*
G03X2019897Y1836873I-31248J17498D01*
G01X2802650Y4839059D02*
G01X2785769Y4822178D01*
G03X2771734Y4791986I34305J-34305D01*
G03X2756573Y4760653I48339J-42723D01*
G03X2629573Y4760653I-63500J-11390D01*
G03X2502573Y4760653I-63500J-11390D01*
G03X2375573Y4760653I-63500J-11390D01*
G03X2248573Y4760653I-63500J-11390D01*
G03X2121573Y4760653I-63500J-11390D01*
G03X2091510Y4804435I-63500J-11390D01*
G01X2126134Y4839059D01*
G01X2802650Y4839059D01*
G01X2368677Y1897458D02*
G03X2404491Y1933272I0J35814D01*
G01X2404491Y2105274D01*
G03X2368677Y2141088I-35814J0D01*
G01X2360587Y2141088D01*
G01X2360587Y2154968D01*
G03X2383160Y2146959I22573J27805D01*
G01X2454059Y2146959D01*
G01X2454059Y1843271D01*
G03X2391591Y1853203I-40386J-52598D01*
G03X2349213Y1806245I22082J-62530D01*
G03X2320475Y1820687I-28738J-21372D01*
G01X2245596Y1820687D01*
G01X2320978Y1896068D01*
G01X2322313Y1897458D01*
G01X2368677Y1897458D01*
G01X2258987Y3745129D02*
G01X2258987Y3759653D01*
G03X2273973Y3772596I-15004J32520D01*
G03X2303963Y3756359I29990J19577D01*
G01X2347878Y3756359D01*
G01X2368346Y3735891D01*
G03X2379997Y3707687I60235J8375D01*
G01X2370460Y3707687D01*
G03X2334646Y3671873I0J-35814D01*
G01X2334646Y3636951D01*
G03X2294220Y3651457I-153557J-364362D01*
G03X2258987Y3745129I-58346J31516D01*
G01X3876355Y635687D02*
G01X2422315Y635687D01*
G03X2457888Y732506I-21342J62786D01*
G03X2355763Y746987I-56915J-34032D01*
G01X2332291Y746987D01*
G01X2412577Y827273D01*
G03X2453061Y874828I-24304J61700D01*
G01X2564594Y986361D01*
G03X2592763Y972662I28170J22116D01*
G01X2708153Y972662D01*
G01X2585672Y850181D01*
G03X2550546Y814373I689J-35807D01*
G01X2550546Y760373D01*
G03X2586360Y724559I35814J0D01*
G01X2665369Y724559D01*
G03X2680373Y727853I0J35814D01*
G03X2695377Y724559I15004J32520D01*
G01X2774386Y724559D01*
G03X2810200Y760373I0J35814D01*
G01X2810200Y814373D01*
G03X2774386Y850187I-35814J0D01*
G01X2722896Y850187D01*
G01X2763968Y891259D01*
G01X2931579Y891259D01*
G03X2965884Y905468I0J48514D01*
G01X3033077Y972662D01*
G01X3072783Y972662D01*
G03X3099879Y985058I0J35814D01*
G01X3114459Y970478D01*
G01X3114459Y902566D01*
G01X3062081Y850187D01*
G01X3012877Y850187D01*
G03X2997873Y846893I0J-35814D01*
G03X2982869Y850187I-15004J-32520D01*
G01X2903860Y850187D01*
G03X2868046Y814373I0J-35814D01*
G01X2868046Y760373D01*
G03X2903860Y724559I35814J0D01*
G01X2982869Y724559D01*
G03X2997873Y727853I0J35814D01*
G03X3012877Y724559I15004J32520D01*
G01X3091886Y724559D01*
G03X3127700Y760373I0J35814D01*
G01X3127700Y778589D01*
G01X3190659Y841548D01*
G01X3190659Y774673D01*
G03X3204869Y740368I48514J0D01*
G01X3255669Y689568D01*
G03X3289973Y675359I34305J34305D01*
G01X3429673Y675359D01*
G03X3463978Y689568I0J48514D01*
G01X3536461Y762052D01*
G01X3574674Y762052D01*
G03X3610488Y797866I0J35814D01*
G01X3610488Y937866D01*
G03X3574674Y973680I-35814J0D01*
G01X3454674Y973680D01*
G03X3429673Y963509I0J-35814D01*
G03X3404672Y973680I-25001J-25643D01*
G01X3287687Y973680D01*
G01X3287687Y982067D01*
G01X3404672Y982067D01*
G03X3429673Y992237I0J35814D01*
G03X3454674Y982067I25001J25643D01*
G01X3574674Y982067D01*
G03X3610488Y1017881I0J35814D01*
G01X3610488Y1142854D01*
G01X3622859Y1130483D01*
G01X3622859Y914373D01*
G03X3640671Y871371I60814J0D01*
G01X3876355Y635687D01*
G01X2454059Y1631771D02*
G03X2458357Y1611808I48514J0D01*
G01X2458357Y1555173D01*
G03X2494171Y1519359I35814J0D01*
G01X2574171Y1519359D01*
G03X2604173Y1535616I0J35814D01*
G03X2634176Y1519359I30002J19557D01*
G01X2714175Y1519359D01*
G03X2749989Y1555173I0J35814D01*
G01X2749989Y1645173D01*
G03X2714175Y1680987I-35814J0D01*
G01X2634176Y1680987D01*
G03X2604173Y1664730I0J-35814D01*
G03X2574171Y1680987I-30002J-19557D01*
G01X2551087Y1680987D01*
G01X2551087Y1684459D01*
G01X2574171Y1684459D01*
G03X2604173Y1700716I0J35814D01*
G03X2634176Y1684459I30002J19557D01*
G01X2714175Y1684459D01*
G03X2749989Y1720273I0J35814D01*
G01X2749989Y1810273D01*
G03X2714175Y1846087I-35814J0D01*
G01X2703828Y1846087D01*
G03X2717787Y1874460I-21854J28373D01*
G01X2717787Y1953469D01*
G03X2714493Y1968473I-35814J0D01*
G03X2717787Y1983477I-32520J15004D01*
G01X2717787Y2062486D01*
G03X2703487Y2091118I-35814J0D01*
G01X2703487Y2304263D01*
G03X2703487Y2394683I-48514J45210D01*
G01X2703487Y2510605D01*
G03X2727858Y2518184I-2113J49770D01*
G01X2727858Y1961374D01*
G03X2742068Y1927069I48514J0D01*
G01X2768334Y1900803D01*
G03X2758859Y1817503I39039J-46630D01*
G01X2758859Y1487611D01*
G03X2731173Y1496287I-27686J-39838D01*
G01X2591473Y1496287D01*
G03X2557169Y1482078I0J-48514D01*
G01X2456387Y1381296D01*
G01X2456387Y1405071D01*
G03X2440130Y1435073I-35814J0D01*
G03X2456387Y1465076I-19557J30002D01*
G01X2456387Y1545075D01*
G03X2420573Y1580889I-35814J0D01*
G01X2335999Y1580889D01*
G01X2447978Y1692868D01*
G03X2454059Y1700292I-34305J34305D01*
G01X2454059Y1631771D01*
G01X2356289Y1738399D02*
G01X2356289Y1757437D01*
G03X2364297Y1746406I57384J33237D01*
G01X2356289Y1738399D01*
G01X2454059Y2272587D02*
G01X2383160Y2272587D01*
G03X2360587Y2264578I0J-35814D01*
G01X2360587Y2281968D01*
G03X2383160Y2273959I22573J27805D01*
G01X2454059Y2273959D01*
G01X2454059Y2272587D01*
G01X2436259Y2679839D02*
G03X2426373Y2675459I15115J-47466D01*
G03X2390648Y2681020I-25001J-43086D01*
G03X2384478Y2688578I-40475J-26747D01*
G01X2367509Y2705547D01*
G01X2441515Y2705547D01*
G03X2436259Y2679839I61058J-25874D01*
G01X2399886Y2399587D02*
G01X2399886Y2510582D01*
G03X2426373Y2517288I1486J49792D01*
G03X2454059Y2510632I25001J43086D01*
G01X2454059Y2399587D01*
G01X2399886Y2399587D01*
G01X2551087Y2146959D02*
G01X2571186Y2146959D01*
G03X2606459Y2176571I0J35814D01*
G01X2606459Y2091118D01*
G03X2592159Y2062486I21514J-28632D01*
G01X2592159Y1983477D01*
G03X2595453Y1968473I35814J0D01*
G03X2592159Y1953469I32520J-15004D01*
G01X2592159Y1874460D01*
G03X2615557Y1840867I35814J0D01*
G03X2604173Y1829830I18618J-30594D01*
G03X2574171Y1846087I-30002J-19557D01*
G01X2551087Y1846087D01*
G01X2551087Y2146959D01*
G01X2594283Y3201137D02*
G03X2598084Y3210667I-42909J22637D01*
G03X2625875Y3217000I3290J49706D01*
G03X2676374Y3216696I25499J41272D01*
G03X2691709Y3210731I25000J41577D01*
G03X2697286Y3196374I48664J10643D01*
G03X2697286Y3146374I43087J-25000D01*
G03X2697286Y3096374I43087J-25000D01*
G03X2697286Y3046374I43087J-25000D01*
G03X2697286Y2996374I43087J-25000D01*
G03X2697287Y2946373I43087J-25000D01*
G03X2697286Y2896372I43086J-25001D01*
G03X2697286Y2846372I43087J-25000D01*
G03X2697286Y2796372I43087J-25000D01*
G03X2697286Y2746372I43087J-25000D01*
G03X2697286Y2696372I43087J-25000D01*
G03X2691539Y2681207I43087J-25000D01*
G03X2676374Y2675460I9835J-48834D01*
G03X2626374Y2675460I-25000J-43087D01*
G03X2576374Y2675460I-25000J-43087D01*
G03X2568884Y2679009I-25000J-43087D01*
G03X2563631Y2705547I-66311J664D01*
G01X2631360Y2705547D01*
G03X2667174Y2741361I0J35814D01*
G01X2667174Y3151360D01*
G03X2631360Y3187174I-35814J0D01*
G01X2592960Y3187174D01*
G03X2594283Y3201137I-64987J13199D01*
G01X3542535Y4845220D02*
G01X3542535Y4920224D01*
G03X3506721Y4956038I-35814J0D01*
G01X3497390Y4956038D01*
G01X3497390Y4980718D01*
G03X3511989Y5009573I-21214J28855D01*
G01X3511989Y5099573D01*
G03X3497390Y5128428I-35814J0D01*
G01X3497390Y5153853D01*
G03X3508700Y5179973I-24503J26119D01*
G01X3508700Y5233973D01*
G03X3472886Y5269787I-35814J0D01*
G01X3393877Y5269787D01*
G03X3378873Y5266493I0J-35814D01*
G03X3363869Y5269787I-15004J-32520D01*
G01X3284860Y5269787D01*
G03X3249046Y5233973I0J-35814D01*
G01X3249046Y5179973D01*
G03X3284860Y5144159I35814J0D01*
G01X3363869Y5144159D01*
G03X3378873Y5147453I0J35814D01*
G03X3393877Y5144159I15004J32520D01*
G01X3400362Y5144159D01*
G01X3400362Y5135387D01*
G01X3396176Y5135387D01*
G03X3366173Y5119130I0J-35814D01*
G03X3336171Y5135387I-30002J-19557D01*
G01X3256171Y5135387D01*
G03X3220357Y5099573I0J-35814D01*
G01X3220357Y5009573D01*
G03X3256171Y4973759I35814J0D01*
G01X3336171Y4973759D01*
G03X3366173Y4990016I0J35814D01*
G03X3396176Y4973759I30002J19557D01*
G01X3400362Y4973759D01*
G01X3400362Y4956038D01*
G01X3393468Y4956038D01*
G03X3357654Y4920224I0J-35814D01*
G01X3357654Y4782523D01*
G03X3393468Y4746709I35814J0D01*
G01X3503828Y4746709D01*
G01X3541150Y4709387D01*
G01X3504551Y4709387D01*
G03X3469133Y4739887I-35418J-5314D01*
G01X3388486Y4739887D01*
G03X3353473Y4711607I0J-35814D01*
G03X3318460Y4739887I-35013J-7534D01*
G01X3237813Y4739887D01*
G03X3207465Y4723090I0J-35814D01*
G01X3089362Y4841194D01*
G03X3098575Y4844059I-17863J73679D01*
G01X3164019Y4844059D01*
G01X3164411Y4843668D01*
G01X3164411Y4782523D01*
G03X3200225Y4746709I35814J0D01*
G01X3313478Y4746709D01*
G03X3349292Y4782523I0J35814D01*
G01X3349292Y4920224D01*
G03X3313478Y4956038I-35814J0D01*
G01X3252333Y4956038D01*
G01X3243425Y4964946D01*
G03X3193352Y4985687I-50073J-50073D01*
G01X3098575Y4985687D01*
G03X3071498Y4990687I-27077J-70814D01*
G01X2613160Y4990687D01*
G03X2614587Y5065844I-47087J38486D01*
G01X2614587Y5114159D01*
G03X2629573Y5145293I-48514J42525D01*
G03X2756573Y5145293I63500J11390D01*
G03X2771573Y5114143I63500J11390D01*
G03X2785769Y5080980I48501J1141D01*
G01X2846480Y5020268D01*
G03X2880784Y5006059I34305J34305D01*
G01X2934373Y5006059D01*
G03X2968678Y5020268I0J48514D01*
G01X3233868Y5285459D01*
G01X3763893Y5285459D01*
G03X3763759Y5282373I35681J-3086D01*
G01X3763759Y5182373D01*
G03X3799573Y5146559I35814J0D01*
G01X3999573Y5146559D01*
G03X4035387Y5182373I0J35814D01*
G01X4035387Y5282373D01*
G03X4035254Y5285459I-35814J0D01*
G01X4362078Y5285459D01*
G01X4714659Y4932878D01*
G01X4714659Y4243415D01*
G03X4663909Y4269946I-53086J-39742D01*
G01X4429178Y4504678D01*
G03X4394873Y4518887I-34305J-34305D01*
G01X4035387Y4518887D01*
G01X4035387Y4520373D01*
G03X3999573Y4556187I-35814J0D01*
G01X3799573Y4556187D01*
G03X3763759Y4520373I0J-35814D01*
G01X3763759Y4420373D01*
G03X3799573Y4384559I35814J0D01*
G01X3999573Y4384559D01*
G03X4035387Y4420373I0J35814D01*
G01X4035387Y4421859D01*
G01X4374778Y4421859D01*
G01X4533057Y4263580D01*
G03X4521873Y4264887I-11183J-47207D01*
G01X4035387Y4264887D01*
G01X4035387Y4266373D01*
G03X3999573Y4302187I-35814J0D01*
G01X3799573Y4302187D01*
G03X3763759Y4266373I0J-35814D01*
G01X3763759Y4166373D01*
G03X3799573Y4130559I35814J0D01*
G01X3999573Y4130559D01*
G03X4035387Y4166373I0J35814D01*
G01X4035387Y4167859D01*
G01X4501778Y4167859D01*
G01X4519100Y4150537D01*
G03X4579236Y4086844I66273J2336D01*
G03X4650080Y4138363I6137J66029D01*
G03X4714659Y4163931I11493J65311D01*
G01X4714659Y4109468D01*
G01X4438278Y3833087D01*
G01X4255173Y3833087D01*
G03X4220869Y3818878I0J-48514D01*
G01X3943133Y3541142D01*
G03X3916356Y3555973I-44453J-48669D01*
G03X3916356Y3682973I-17676J63500D01*
G03X3898680Y3812387I-17676J63500D01*
G01X3761782Y3812387D01*
G03X3737337Y3807687I0J-65914D01*
G01X3729168Y3807687D01*
G01X3668687Y3868168D01*
G01X3668687Y4698973D01*
G03X3654478Y4733278I-48514J0D01*
G01X3542535Y4845220D01*
G01X4248063Y4929859D02*
G03X4359587Y4978373I45210J48514D01*
G03X4248063Y5026887I-66314J0D01*
G01X4035387Y5026887D01*
G01X4035387Y5028373D01*
G03X3999573Y5064187I-35814J0D01*
G01X3799573Y5064187D01*
G03X3763759Y5028373I0J-35814D01*
G01X3763759Y4928373D01*
G03X3799573Y4892559I35814J0D01*
G01X3999573Y4892559D01*
G03X4035387Y4928373I0J35814D01*
G01X4035387Y4929859D01*
G01X4248063Y4929859D01*
G01X4159163Y4675859D02*
G03X4270687Y4724373I45210J48514D01*
G03X4159163Y4772887I-66314J0D01*
G01X4035387Y4772887D01*
G01X4035387Y4774373D01*
G03X3999573Y4810187I-35814J0D01*
G01X3799573Y4810187D01*
G03X3763759Y4774373I0J-35814D01*
G01X3763759Y4674373D01*
G03X3799573Y4638559I35814J0D01*
G01X3999573Y4638559D01*
G03X4035387Y4674373I0J35814D01*
G01X4035387Y4675859D01*
G01X4159163Y4675859D01*
G01X4448078Y3886559D02*
G03X4501686Y3908764I0J75814D01*
G01X4524682Y3931760D01*
G03X4417464Y4038977I-53609J53609D01*
G01X4416675Y4038187D01*
G01X4024398Y4038187D01*
G03X3999573Y4048187I-24825J-25814D01*
G01X3799573Y4048187D01*
G03X3763759Y4012373I0J-35814D01*
G01X3763759Y3912373D01*
G03X3799573Y3876559I35814J0D01*
G01X3999573Y3876559D01*
G03X4024398Y3886559I0J35814D01*
G01X4448078Y3886559D01*
G01X2770365Y1184451D02*
G03X2804670Y1198661I0J48514D01*
G01X2905178Y1299168D01*
G03X2917526Y1320166I-34305J34305D01*
G03X2919815Y1312467I35257J6293D01*
G03X2916969Y1298476I32968J-13992D01*
G01X2916969Y1273474D01*
G03X2919821Y1259470I35814J0D01*
G03X2916969Y1245466I32962J-14004D01*
G01X2916969Y1220465D01*
G03X2919815Y1206473I35814J0D01*
G03X2916969Y1192481I32968J-13992D01*
G01X2916969Y1167480D01*
G03X2919821Y1153476I35814J0D01*
G03X2916969Y1139472I32962J-14004D01*
G01X2916969Y1114470D01*
G03X2919821Y1100466I35814J0D01*
G03X2916969Y1086462I32962J-14004D01*
G01X2916969Y1061461D01*
G03X2919815Y1047469I35814J0D01*
G03X2916969Y1033477I32968J-13992D01*
G01X2916969Y1008476D01*
G03X2919208Y996011I35814J0D01*
G01X2911484Y988287D01*
G01X2743873Y988287D01*
G01X2742327Y988262D01*
G03X2748577Y1008476I-29564J20214D01*
G01X2748577Y1033477D01*
G03X2745731Y1047469I-35814J0D01*
G03X2748577Y1061461I-32968J13992D01*
G01X2748577Y1086462D01*
G03X2745726Y1100466I-35814J0D01*
G03X2748577Y1114470I-32962J14004D01*
G01X2748577Y1139472D01*
G03X2745726Y1153476I-35814J0D01*
G03X2748577Y1167480I-32962J14004D01*
G01X2748577Y1184451D01*
G01X2770365Y1184451D01*
G01X2847759Y2636312D02*
G01X2847759Y2331950D01*
G03X2829758Y2300880I17813J-31070D01*
G01X2829758Y2160881D01*
G03X2865572Y2125067I35814J0D01*
G01X2985572Y2125067D01*
G03X3010573Y2135237I0J35814D01*
G03X3035574Y2125067I25001J25643D01*
G01X3155574Y2125067D01*
G03X3168367Y2127429I0J35814D01*
G03X3163359Y2115823I58106J-31956D01*
G03X3155574Y2116680I-7785J-34958D01*
G01X3035574Y2116680D01*
G03X3010573Y2106509I0J-35814D01*
G03X2985572Y2116680I-25001J-25643D01*
G01X2865572Y2116680D01*
G03X2829758Y2080866I0J-35814D01*
G01X2829758Y1976597D01*
G01X2824886Y1981469D01*
G01X2824886Y2623155D01*
G03X2847759Y2636312I-12515J48217D01*
G01X3108597Y1245466D02*
G03X3105745Y1259470I-35814J0D01*
G03X3108597Y1273474I-32962J14004D01*
G01X3108597Y1295631D01*
G03X3121078Y1304655I-21824J43328D01*
G01X3146478Y1330055D01*
G03X3160687Y1364359I-34305J34305D01*
G01X3160687Y1422373D01*
G03X3146478Y1456678I-48514J0D01*
G01X3135287Y1467868D01*
G01X3135287Y1478763D01*
G03X3089530Y1590230I-48514J45210D01*
G03X3022232Y1653779I-66257J-2757D01*
G03X2956962Y1588149I1041J-66306D01*
G03X2949359Y1562073I40911J-26075D01*
G01X2949359Y1440120D01*
G03X2919387Y1417406I3424J-35650D01*
G01X2919387Y1757471D01*
G03X2954660Y1727859I35273J6202D01*
G01X3033669Y1727859D01*
G03X3048673Y1731153I0J35814D01*
G03X3063677Y1727859I15004J32520D01*
G01X3142686Y1727859D01*
G03X3165659Y1736198I0J35814D01*
G01X3165659Y1477488D01*
G03X3183471Y1434486I60814J0D01*
G01X3312570Y1305387D01*
G01X3259409Y1305387D01*
G03X3174685Y1310843I-45636J-48114D01*
G03X3154029Y1228495I39088J-53569D01*
G01X3108597Y1228495D01*
G01X3108597Y1245466D01*
G01X2944787Y2497547D02*
G03X2977109Y2477159I32322J15426D01*
G01X3033674Y2477159D01*
G03X3048673Y2480451I0J35814D01*
G03X3063672Y2477159I14999J32522D01*
G01X3120238Y2477159D01*
G03X3156052Y2512973I0J35814D01*
G01X3156052Y2554485D01*
G01X3177959Y2532578D01*
G01X3177959Y2328837D01*
G03X3155574Y2336694I-22385J-27956D01*
G01X3035574Y2336694D01*
G03X3010573Y2326524I0J-35814D01*
G03X2985572Y2336694I-25001J-25643D01*
G01X2944787Y2336694D01*
G01X2944787Y2350159D01*
G01X3020969Y2350159D01*
G03X3035973Y2353453I0J35814D01*
G03X3050977Y2350159I15004J32520D01*
G01X3129986Y2350159D01*
G03X3165800Y2385973I0J35814D01*
G01X3165800Y2439973D01*
G03X3129986Y2475787I-35814J0D01*
G01X3050977Y2475787D01*
G03X3035973Y2472493I0J-35814D01*
G03X3020969Y2475787I-15004J-32520D01*
G01X2944787Y2475787D01*
G01X2944787Y2497547D01*
G01X3107750Y2602787D02*
G01X3063672Y2602787D01*
G03X3053906Y2601430I0J-35814D01*
G01X3053906Y2656632D01*
G01X3107750Y2602787D01*
G01X3269133Y2146244D02*
G03X3189946Y2150820I-42660J-50771D01*
G03X3191388Y2160881I-34372J10060D01*
G01X3191388Y2239767D01*
G01X3192169Y2238968D01*
G01X3357269Y2073868D01*
G03X3391573Y2059659I34305J34305D01*
G01X3433249Y2059659D01*
G01X3433249Y2043780D01*
G03X3436101Y2029776I35814J0D01*
G03X3433249Y2015772I32962J-14004D01*
G01X3433249Y1992915D01*
G03X3422059Y1984566I23114J-42654D01*
G01X3382669Y1945176D01*
G03X3368459Y1910871I34305J-34305D01*
G01X3368459Y1794925D01*
G03X3342373Y1806200I-26086J-24539D01*
G01X3288373Y1806200D01*
G01X3287287Y1806184D01*
G01X3287287Y2069030D01*
G03X3269133Y2146244I-60814J26443D01*
G01X3460186Y4305959D02*
G03X3470059Y4307347I0J35814D01*
G01X3470059Y3779268D01*
G01X3412751Y3721960D01*
G03X3351564Y3812387I-61187J24513D01*
G01X3233997Y3812387D01*
G01X3442286Y4020677D01*
G03X3456496Y4054981I-34305J34305D01*
G01X3456496Y4305959D01*
G01X3460186Y4305959D01*
G01X3793340Y1882530D02*
G03X3795508Y1872311I35744J2246D01*
G01X3763669Y1840472D01*
G03X3749459Y1806167I34305J-34305D01*
G01X3749459Y1697418D01*
G03X3735159Y1668786I21514J-28632D01*
G01X3735159Y1589777D01*
G03X3738453Y1574773I35814J0D01*
G03X3735159Y1559769I32520J-15004D01*
G01X3735159Y1480760D01*
G03X3770973Y1444946I35814J0D01*
G01X3824973Y1444946D01*
G03X3860787Y1480760I0J35814D01*
G01X3860787Y1559769D01*
G03X3857493Y1574773I-35814J0D01*
G03X3860787Y1589777I-32520J15004D01*
G01X3860787Y1668786D01*
G03X3846487Y1697418I-35814J0D01*
G01X3846487Y1786072D01*
G01X3909377Y1848962D01*
G01X3949083Y1848962D01*
G03X3984897Y1884776I0J35814D01*
G01X3984897Y1909777D01*
G03X3984193Y1916844I-35814J0D01*
G01X4016159Y1884878D01*
G01X4016159Y1790594D01*
G01X3995872Y1790594D01*
G03X3960058Y1754780I0J-35814D01*
G01X3960058Y1614781D01*
G03X3995872Y1578967I35814J0D01*
G01X4115872Y1578967D01*
G03X4140873Y1589137I0J35814D01*
G03X4165874Y1578967I25001J25643D01*
G01X4285874Y1578967D01*
G03X4308259Y1586824I0J35814D01*
G01X4308259Y1562722D01*
G03X4285874Y1570580I-22385J-27956D01*
G01X4165874Y1570580D01*
G03X4140873Y1560409I0J-35814D01*
G03X4115872Y1570580I-25001J-25643D01*
G01X3995872Y1570580D01*
G03X3960058Y1534766I0J-35814D01*
G01X3960058Y1394766D01*
G01X3960061Y1394287D01*
G01X3395678Y1394287D01*
G01X3287287Y1502678D01*
G01X3287287Y1546563D01*
G01X3288373Y1546546D01*
G01X3342373Y1546546D01*
G03X3372523Y1563030I0J35814D01*
G03X3402673Y1546546I30150J19330D01*
G01X3445125Y1546546D01*
G03X3490395Y1490562I60748J2827D01*
G03X3557359Y1517007I15478J58811D01*
G01X3557359Y1480760D01*
G03X3593173Y1444946I35814J0D01*
G01X3647173Y1444946D01*
G03X3682987Y1480760I0J35814D01*
G01X3682987Y1559769D01*
G03X3679693Y1574773I-35814J0D01*
G03X3682987Y1589777I-32520J15004D01*
G01X3682987Y1668786D01*
G03X3668687Y1697418I-35814J0D01*
G01X3668687Y1757878D01*
G01X3793340Y1882530D01*
G01X3465487Y1849141D02*
G03X3469063Y1848962I3576J35635D01*
G01X3589063Y1848962D01*
G03X3624877Y1884776I0J35814D01*
G01X3624877Y1909777D01*
G03X3622031Y1923769I-35814J0D01*
G03X3624877Y1937761I-32968J13992D01*
G01X3624877Y1958288D01*
G03X3630142Y1959094I-4704J48285D01*
G03X3668975Y1895384I66231J-3321D01*
G01X3585869Y1812278D01*
G03X3571659Y1777973I34305J-34305D01*
G01X3571659Y1697418D01*
G03X3557359Y1668786I21514J-28632D01*
G01X3557359Y1589777D01*
G03X3559068Y1578846I35814J0D01*
G03X3541687Y1598523I-53195J-29473D01*
G01X3541687Y1689073D01*
G03X3527478Y1723378I-48514J0D01*
G01X3492487Y1758368D01*
G01X3492487Y1770386D01*
G03X3465487Y1805099I-35814J0D01*
G01X3465487Y1849141D01*
G01X3744487Y1029495D02*
G03X3765673Y1022557I21186J28875D01*
G01X3855673Y1022557D01*
G03X3891487Y1058371I0J35814D01*
G01X3891487Y1138371D01*
G03X3875230Y1168373I-35814J0D01*
G03X3891487Y1198376I-19557J30002D01*
G01X3891487Y1272659D01*
G01X3901764Y1272659D01*
G03X3900259Y1262386I34309J-10273D01*
G01X3900259Y1183377D01*
G03X3903553Y1168373I35814J0D01*
G03X3900259Y1153369I32520J-15004D01*
G01X3900259Y1074360D01*
G03X3914559Y1045728I35814J0D01*
G01X3914559Y1018855D01*
G03X3880142Y983069I1397J-35787D01*
G01X3880142Y934070D01*
G03X3915956Y898256I35814J0D01*
G01X4018381Y898256D01*
G01X3949016Y828891D01*
G01X3915956Y828891D01*
G03X3881436Y802615I0J-35814D01*
G01X3744487Y939563D01*
G01X3744487Y1029495D01*
G01X4018163Y2296992D02*
G01X4018163Y2224752D01*
G03X3985189Y2210789I8410J-65779D01*
G01X3984897Y2210789D01*
G01X3984897Y2227760D01*
G03X3982045Y2241764I-35814J0D01*
G03X3984897Y2255769I-32962J14004D01*
G01X3984897Y2280770D01*
G03X3981012Y2296992I-35814J0D01*
G01X4018163Y2296992D01*
G01X4030488Y2007767D02*
G01X4058370Y2007767D01*
G01X4275543Y1790594D01*
G01X4165874Y1790594D01*
G03X4140873Y1780424I0J-35814D01*
G03X4115872Y1790594I-25001J-25643D01*
G01X4113187Y1790594D01*
G01X4113187Y1904973D01*
G03X4098978Y1939278I-48514J0D01*
G01X4030488Y2007767D01*
G01X4911778Y5012678D02*
G01X4470396Y5454059D01*
G01X4929873Y5454059D01*
G02X4944059Y5439873I0J-14186D01*
G01X4944059Y649873D01*
G02X4929873Y635687I-14186J0D01*
G01X4158554Y635687D01*
G01X4231130Y708264D01*
G01X4263290Y708264D01*
G03X4289859Y720063I0J35814D01*
G01X4326268Y720063D01*
G03X4355173Y705395I28905J21146D01*
G01X4409173Y705395D01*
G03X4444987Y741209I0J35814D01*
G01X4444987Y797774D01*
G03X4441695Y812773I-35814J0D01*
G03X4444987Y827772I-32522J14999D01*
G01X4444987Y884338D01*
G03X4409173Y920152I-35814J0D01*
G01X4386685Y920152D01*
G01X4313963Y992874D01*
G03X4291019Y1005734I-34305J-34305D01*
G03X4263290Y1018883I-27729J-22666D01*
G01X4163587Y1018883D01*
G01X4163587Y1074697D01*
G03X4190987Y1109509I-8414J34812D01*
G01X4190987Y1166074D01*
G03X4189630Y1175841I-35814J0D01*
G01X4562340Y1175841D01*
G03X4649311Y1062376I111933J-4267D01*
G01X4634273Y1062376D01*
G03X4634273Y850749I0J-105814D01*
G01X4714273Y850749D01*
G03X4714273Y1062376I0J105814D01*
G01X4699235Y1062376D01*
G03X4724743Y1271573I-24962J109197D01*
G03X4724743Y1471573I-50470J100000D01*
G03X4779969Y1608660I-50470J100000D01*
G01X4846517Y1675208D01*
G03X4860727Y1709512I-34305J34305D01*
G01X4860727Y2046433D01*
G03X4846517Y2080738I-48514J0D01*
G01X4775187Y2152068D01*
G01X4775187Y2154338D01*
G03X4739373Y2190152I-35814J0D01*
G01X4685373Y2190152D01*
G03X4649559Y2154338I0J-35814D01*
G01X4649559Y2097772D01*
G03X4652851Y2082773I35814J0D01*
G03X4649559Y2067774I32522J-14999D01*
G01X4649559Y2011209D01*
G03X4685373Y1975395I35814J0D01*
G01X4739373Y1975395D01*
G03X4763699Y1984923I0J35814D01*
G01X4763699Y1880145D01*
G03X4714273Y1892398I-49426J-93561D01*
G01X4634273Y1892398D01*
G03X4634273Y1680770I0J-105814D01*
G01X4649311Y1680770D01*
G03X4563083Y1585130I24962J-109197D01*
G03X4623804Y1471573I111191J-13557D01*
G03X4621315Y1272868I50470J-100000D01*
G01X4184726Y1272869D01*
G03X4155173Y1288452I-29552J-20231D01*
G01X4112512Y1288452D01*
G03X4094975Y1325675I-60539J-5778D01*
G01X4061698Y1358952D01*
G01X4115872Y1358952D01*
G03X4140873Y1369122I0J35814D01*
G03X4165874Y1358952I25001J25643D01*
G01X4285874Y1358952D01*
G03X4321688Y1394766I0J35814D01*
G01X4321688Y1417616D01*
G03X4344570Y1430461I-11422J47150D01*
G01X4391078Y1476968D01*
G03X4405287Y1511273I-34305J34305D01*
G01X4405287Y1777973D01*
G03X4391078Y1812278I-48514J0D01*
G01X4133577Y2069778D01*
G03X4181497Y2127380I-18104J63795D01*
G03X4145125Y2192889I-66024J6193D01*
G03X4149791Y2210566I-31148J17677D01*
G01X4149791Y2296992D01*
G01X4206105Y2296992D01*
G03X4203155Y2276766I67864J-20226D01*
G01X4203155Y2122634D01*
G03X4222675Y2059648I64718J-14461D01*
G03X4286886Y2044643I45198J48525D01*
G03X4344783Y2114269I-12917J69626D01*
G01X4344783Y2276766D01*
G03X4341833Y2296992I-70814J0D01*
G01X4451921Y2296992D01*
G03X4447959Y2202663I44553J-49119D01*
G01X4447959Y2190152D01*
G01X4405973Y2190152D01*
G03X4370159Y2154338I0J-35814D01*
G01X4370159Y2097772D01*
G03X4373451Y2082773I35814J0D01*
G03X4370159Y2067774I32522J-14999D01*
G01X4370159Y2011209D01*
G03X4405973Y1975395I35814J0D01*
G01X4459973Y1975395D01*
G03X4495787Y2011209I0J35814D01*
G01X4495787Y2067774D01*
G03X4494402Y2077640I-35814J0D01*
G03X4523469Y2089748I-3110J48414D01*
G03X4525851Y2082773I34904J8024D01*
G03X4522559Y2067774I32522J-14999D01*
G01X4522559Y2011209D01*
G03X4558373Y1975395I35814J0D01*
G01X4612373Y1975395D01*
G03X4648187Y2011209I0J35814D01*
G01X4648187Y2067774D01*
G03X4644895Y2082773I-35814J0D01*
G03X4648187Y2097772I-32522J14999D01*
G01X4648187Y2154338D01*
G03X4633887Y2182970I-35814J0D01*
G01X4633887Y2342078D01*
G01X4733978Y2442168D01*
G03X4748187Y2476473I-34305J34305D01*
G01X4748187Y2551022D01*
G03X4784722Y2542856I36535J77648D01*
G01X4844722Y2542856D01*
G03X4844722Y2714484I0J85814D01*
G01X4784722Y2714484D01*
G03X4748187Y2706318I0J-85814D01*
G01X4748187Y2971773D01*
G03X4733978Y3006078I-48514J0D01*
G01X4467278Y3272778D01*
G03X4458929Y3279460I-34305J-34305D01*
G03X4519467Y3337393I-9204J70214D01*
G03X4482360Y3412521I-69742J12281D01*
G03X4507058Y3558259I-30646J80155D01*
G01X4729379Y3558259D01*
G03X4784722Y3406862I55344J-65583D01*
G01X4844722Y3406862D01*
G03X4883064Y3569448I0J85814D01*
G03X4886378Y3572468I-30991J37325D01*
G01X4911778Y3597868D01*
G03X4925987Y3632173I-34305J34305D01*
G01X4925987Y4978373D01*
G03X4911778Y5012678I-48514J0D01*
G01X4244787Y2457581D02*
G01X4244787Y2497643D01*
G03X4244787Y2549918I-65814J26137D01*
G01X4244787Y2564581D01*
G03X4208973Y2600395I-35814J0D01*
G01X4202505Y2600395D01*
G01X4124973Y2677927D01*
G01X4193357Y2746311D01*
G01X4197062Y2746311D01*
G01X4197062Y2708183D01*
G03X4232876Y2672369I35814J0D01*
G01X4267886Y2672369D01*
G03X4341740Y2542856I73854J-43699D01*
G01X4451740Y2542856D01*
G03X4456266Y2542975I0J85814D01*
G01X4423959Y2510668D01*
G03X4353571Y2502955I-29086J-59595D01*
G03X4330275Y2436087I41302J-51881D01*
G01X4237620Y2436087D01*
G03X4244787Y2457581I-28647J21493D01*
G01X4197071Y3416562D02*
G03X4196909Y3413163I35652J-3399D01*
G01X4196909Y3362787D01*
G01X4190706Y3362787D01*
G03X4153287Y3372778I-36281J-60814D01*
G01X4197071Y3416562D01*
G01X4811687Y4952973D02*
G03X4797478Y4987278I-48514J0D01*
G01X4416478Y5368278D01*
G03X4409054Y5374359I-34305J-34305D01*
G01X4412878Y5374359D01*
G01X4828959Y4958278D01*
G01X4828959Y3722715D01*
G03X4781768Y3749025I-53086J-39742D01*
G03X4730663Y3731487I-5894J-66052D01*
G01X4280573Y3731487D01*
G03X4269390Y3730180I0J-48514D01*
G01X4275268Y3736059D01*
G01X4458373Y3736059D01*
G03X4492678Y3750268I0J48514D01*
G01X4797478Y4055068D01*
G03X4811687Y4089373I-34305J34305D01*
G01X4811687Y4952973D01*
G01X4319359Y850260D02*
G01X4319359Y827772D01*
G03X4320989Y817091I35814J0D01*
G01X4291564Y817091D01*
G03X4299104Y839074I-28274J21982D01*
G01X4299104Y870515D01*
G01X4319359Y850260D01*
G54D11*
G01X4894468Y3492676D02*
G01X4920376Y3492676D01*
G01X4734977Y3492676D02*
G01X4709069Y3492676D01*
G01X4814722Y3442930D02*
G01X4814722Y3417022D01*
G01X4894468Y2628670D02*
G01X4920376Y2628670D01*
G01X4814722Y2678416D02*
G01X4814722Y2704324D01*
G01X4814722Y2578924D02*
G01X4814722Y2553016D01*
G01X4784019Y956562D02*
G01X4809927Y956562D01*
G01X4564527Y956562D02*
G01X4538619Y956562D01*
G01X4674273Y886817D02*
G01X4674273Y860909D01*
G01X4564527Y1786584D02*
G01X4538619Y1786584D01*
G01X4674273Y1856330D02*
G01X4674273Y1882238D01*
G01X4291994Y2628670D02*
G01X4266086Y2628670D01*
G01X4396740Y2578924D02*
G01X4396740Y2553016D01*
G01X4501460Y3492676D02*
G01X4527368Y3492676D01*
G01X790814Y3874565D02*
G01X764906Y3874565D01*
G01X1120303Y3874565D02*
G01X1146211Y3874565D01*
G01X955558Y3799819D02*
G01X955558Y3773911D01*
G01X955558Y3949311D02*
G01X955558Y3975219D01*
G01X224800Y3874565D02*
G01X198892Y3874565D01*
G01X359547Y3799819D02*
G01X359547Y3773911D01*
G01X359547Y3949311D02*
G01X359547Y3975219D01*
G01X72578Y5397676D02*
G01X46670Y5397676D01*
G01X232070Y5397676D02*
G01X257978Y5397676D01*
G01X152324Y5347930D02*
G01X152324Y5322022D01*
G01X465560Y5397676D02*
G01X439652Y5397676D01*
G01X675052Y5397676D02*
G01X700960Y5397676D01*
G01X224800Y2424581D02*
G01X198892Y2424581D01*
G01X494294Y2424581D02*
G01X520202Y2424581D01*
G01X359547Y2349835D02*
G01X359547Y2323927D01*
G01X359547Y2499327D02*
G01X359547Y2525235D01*
G01X790814Y2424581D02*
G01X764906Y2424581D01*
G01X1120303Y2424581D02*
G01X1146211Y2424581D01*
G01X955558Y2349835D02*
G01X955558Y2323927D01*
G01X955558Y2499327D02*
G01X955558Y2525235D01*
G01X72578Y4533670D02*
G01X46670Y4533670D01*
G01X232070Y4533670D02*
G01X257978Y4533670D01*
G01X152324Y4483924D02*
G01X152324Y4458016D01*
G01X152324Y4583416D02*
G01X152324Y4609324D01*
G01X465586Y4533670D02*
G01X439678Y4533670D01*
G01X675077Y4533670D02*
G01X700985Y4533670D01*
G01X570332Y4483924D02*
G01X570332Y4458016D01*
G01X4685627Y2039491D02*
G01X4659719Y2039491D01*
G01X4712373Y2011463D02*
G01X4712373Y1985555D01*
G01X4558627Y2039491D02*
G01X4532719Y2039491D01*
G01X4612119Y2039491D02*
G01X4638027Y2039491D01*
G01X4585373Y2011463D02*
G01X4585373Y1985555D01*
G01X4459719Y2039491D02*
G01X4485627Y2039491D01*
G01X4406227Y2039491D02*
G01X4380319Y2039491D01*
G01X4432973Y2011463D02*
G01X4432973Y1985555D01*
G01X4233130Y2723183D02*
G01X4207222Y2723183D01*
G01X4263036Y863573D02*
G01X4288944Y863573D01*
G01X4232977Y3398163D02*
G01X4207069Y3398163D01*
G01X4225874Y1754526D02*
G01X4225874Y1780434D01*
G01X4225874Y1615035D02*
G01X4225874Y1589127D01*
G01X3996126Y1464766D02*
G01X3970218Y1464766D01*
G01X4055872Y1534512D02*
G01X4055872Y1560420D01*
G01X3936327Y1222881D02*
G01X3910419Y1222881D01*
G01X4054231Y2264066D02*
G01X4028323Y2264066D01*
G01X4113723Y2264066D02*
G01X4139631Y2264066D01*
G01X3855419Y1098371D02*
G01X3881327Y1098371D01*
G01X3810673Y1058625D02*
G01X3810673Y1032717D01*
G01X3574420Y1087880D02*
G01X3600328Y1087880D01*
G01X3514674Y1018135D02*
G01X3514674Y992227D01*
G01X3806965Y2640227D02*
G01X3806965Y2614319D01*
G01X3806965Y2693719D02*
G01X3806965Y2719627D01*
G01X3767714Y2666973D02*
G01X3741806Y2666973D01*
G01X3529063Y1885030D02*
G01X3529063Y1859122D01*
G01X3588809Y1897277D02*
G01X3614717Y1897277D01*
G01X3771227Y1520265D02*
G01X3745319Y1520265D01*
G01X3824719Y1520265D02*
G01X3850627Y1520265D01*
G01X3797973Y1481014D02*
G01X3797973Y1455106D01*
G01X3646919Y1520265D02*
G01X3672827Y1520265D01*
G01X3620173Y1481014D02*
G01X3620173Y1455106D01*
G01X3999319Y5232373D02*
G01X4025227Y5232373D01*
G01X3799827Y5232373D02*
G01X3773919Y5232373D01*
G01X3899573Y5182627D02*
G01X3899573Y5156719D01*
G01X2370714Y3644873D02*
G01X2344806Y3644873D01*
G01X1316627Y3810837D02*
G01X1290719Y3810837D01*
G01X1359573Y3770767D02*
G01X1359573Y3744859D01*
G01X3020727Y4368773D02*
G01X2994819Y4368773D01*
G01X3113723Y4400019D02*
G01X3113723Y4425927D01*
G01X3206718Y3987773D02*
G01X3232626Y3987773D01*
G01X3020727Y3987773D02*
G01X2994819Y3987773D01*
G01X3113723Y3956527D02*
G01X3113723Y3930619D01*
G01X919048Y3199586D02*
G01X893140Y3199586D01*
G01X2229819Y1365071D02*
G01X2255727Y1365071D01*
G01X2140327Y1365071D02*
G01X2114419Y1365071D01*
G01X2185073Y1325325D02*
G01X2185073Y1299417D01*
G01X2224519Y879981D02*
G01X2250427Y879981D01*
G01X2171027Y879981D02*
G01X2145119Y879981D01*
G01X2197773Y919232D02*
G01X2197773Y945140D01*
G01X3344672Y937612D02*
G01X3344672Y963520D01*
G01X2652763Y1008730D02*
G01X2652763Y982822D01*
G01X2712509Y1020977D02*
G01X2738417Y1020977D01*
G01X2734882Y760627D02*
G01X2734882Y734719D01*
G01X2734882Y814119D02*
G01X2734882Y840027D01*
G01X2774132Y787373D02*
G01X2800040Y787373D01*
G01X2943365Y814119D02*
G01X2943365Y840027D01*
G01X2943365Y760627D02*
G01X2943365Y734719D01*
G01X2904114Y787373D02*
G01X2878206Y787373D01*
G01X2084819Y879981D02*
G01X2110727Y879981D01*
G01X2058073Y919232D02*
G01X2058073Y945140D01*
G01X1108823Y925473D02*
G01X1134731Y925473D01*
G01X1039331Y925473D02*
G01X1013423Y925473D01*
G01X1074077Y987719D02*
G01X1074077Y1013627D01*
G01X1074077Y863226D02*
G01X1074077Y837318D01*
G01X2076374Y2657626D02*
G01X2076374Y2631718D01*
G01X1983829Y1866873D02*
G01X2009737Y1866873D01*
G01X2129414Y2197073D02*
G01X2103506Y2197073D01*
G01X2422665Y2310027D02*
G01X2422665Y2284119D01*
G01X2422665Y2363519D02*
G01X2422665Y2389427D01*
G01X2422665Y2183027D02*
G01X2422665Y2157119D01*
G01X2422665Y2236519D02*
G01X2422665Y2262427D01*
G01X1818119Y2129865D02*
G01X1844027Y2129865D01*
G01X1764627Y2129865D02*
G01X1738719Y2129865D01*
G01X1791373Y2090614D02*
G01X1791373Y2064706D01*
G01X2865826Y2010866D02*
G01X2839918Y2010866D01*
G01X2925572Y2080612D02*
G01X2925572Y2106520D01*
G01X2330827Y1365071D02*
G01X2304919Y1365071D01*
G01X1252792Y2503219D02*
G01X1252792Y2529127D01*
G01X1252792Y2449727D02*
G01X1252792Y2423819D01*
G01X1224763Y2476473D02*
G01X1198855Y2476473D01*
G01X1683719Y2101671D02*
G01X1709627Y2101671D01*
G01X1594227Y2101671D02*
G01X1568319Y2101671D01*
G01X1544019Y1809571D02*
G01X1569927Y1809571D01*
G01X1454527Y1809571D02*
G01X1428619Y1809571D01*
G01X1499273Y1769825D02*
G01X1499273Y1743917D01*
G01X1443627Y1612009D02*
G01X1417719Y1612009D01*
G01X1529519Y1612009D02*
G01X1555427Y1612009D01*
G01X1486573Y1652079D02*
G01X1486573Y1677987D01*
G01X919048Y2749498D02*
G01X893140Y2749498D01*
G01X3091955Y2566719D02*
G01X3091955Y2592627D01*
G01X3091955Y2513227D02*
G01X3091955Y2487319D01*
G01X3119984Y2539973D02*
G01X3145892Y2539973D01*
G01X3090482Y2439719D02*
G01X3090482Y2465627D01*
G01X3090482Y2386227D02*
G01X3090482Y2360319D01*
G01X3129732Y2412973D02*
G01X3155640Y2412973D01*
G01X3155320Y2230880D02*
G01X3181228Y2230880D01*
G01X3095574Y2300626D02*
G01X3095574Y2326534D01*
G01X3095574Y2161135D02*
G01X3095574Y2135227D01*
G01X1459827Y2191891D02*
G01X1433919Y2191891D01*
G01X1513319Y2191891D02*
G01X1539227Y2191891D01*
G01X1486573Y2163863D02*
G01X1486573Y2137955D01*
G01X2206765Y4001819D02*
G01X2206765Y4027727D01*
G01X2167514Y3975073D02*
G01X2141606Y3975073D01*
G01X3206718Y4241773D02*
G01X3232626Y4241773D01*
G01X3020727Y4241773D02*
G01X2994819Y4241773D01*
G01X3206718Y4114773D02*
G01X3232626Y4114773D01*
G01X3020727Y4114773D02*
G01X2994819Y4114773D01*
G01X3381411Y3746473D02*
G01X3407319Y3746473D01*
G01X3283115Y3776319D02*
G01X3283115Y3802227D01*
G01X1175271Y4311327D02*
G01X1175271Y4285419D01*
G01X1175271Y4400819D02*
G01X1175271Y4426727D01*
G01X1135525Y4356073D02*
G01X1109617Y4356073D01*
G01X1591882Y4624119D02*
G01X1591882Y4650027D01*
G01X1591882Y4570627D02*
G01X1591882Y4544719D01*
G01X1631132Y4597373D02*
G01X1657040Y4597373D01*
G01X2312073Y5128238D02*
G01X2312073Y5102330D01*
G01X2312073Y5331530D02*
G01X2312073Y5357438D01*
G01X2312073Y4574417D02*
G01X2312073Y4548509D01*
G01X2312073Y4777708D02*
G01X2312073Y4803616D01*
G01X3311665Y4342027D02*
G01X3311665Y4316119D01*
G01X1818729Y4267173D02*
G01X1844637Y4267173D01*
G01X734069Y4628183D02*
G01X759977Y4628183D01*
G01X804482Y4166919D02*
G01X804482Y4192827D01*
G01X804482Y4113427D02*
G01X804482Y4087519D01*
G01X843732Y4140173D02*
G01X869640Y4140173D01*
G01X2280476Y1784619D02*
G01X2280476Y1810527D01*
G01X2320221Y1739873D02*
G01X2346129Y1739873D01*
G01X2681719Y1913965D02*
G01X2707627Y1913965D01*
G01X2628227Y1913965D02*
G01X2602319Y1913965D01*
G01X2674176Y1720527D02*
G01X2674176Y1694619D01*
G01X2713921Y1765273D02*
G01X2739829Y1765273D01*
G01X2674176Y1644919D02*
G01X2674176Y1670827D01*
G01X2674176Y1555427D02*
G01X2674176Y1529519D01*
G01X2713921Y1600173D02*
G01X2739829Y1600173D01*
G01X2994165Y1763927D02*
G01X2994165Y1738019D01*
G01X2059419Y1393265D02*
G01X2085327Y1393265D01*
G01X2005927Y1393265D02*
G01X1980019Y1393265D01*
G01X2032673Y1354014D02*
G01X2032673Y1328106D01*
G01X3429673Y1582614D02*
G01X3429673Y1556706D01*
G01X3315373Y1582614D02*
G01X3315373Y1556706D01*
G01X1697571Y1269419D02*
G01X1697571Y1295327D01*
G01X1748414Y2806673D02*
G01X1722506Y2806673D01*
G01X919048Y2899535D02*
G01X893140Y2899535D01*
G01X919048Y3049548D02*
G01X893140Y3049548D01*
G01X1021855Y5360719D02*
G01X1021855Y5386627D01*
G01X1021855Y5307227D02*
G01X1021855Y5281319D01*
G01X1049884Y5333973D02*
G01X1075792Y5333973D01*
G01X733916Y5303163D02*
G01X759824Y5303163D01*
G01X3324365Y5233719D02*
G01X3324365Y5259627D01*
G01X3324365Y5180227D02*
G01X3324365Y5154319D01*
G01X3285114Y5206973D02*
G01X3259206Y5206973D01*
G01X3296171Y5009827D02*
G01X3296171Y4983919D01*
G01X3296171Y5099319D02*
G01X3296171Y5125227D01*
G01X3256425Y5054573D02*
G01X3230517Y5054573D01*
G01X1749565Y5154827D02*
G01X1749565Y5128919D01*
G01X1749565Y5208319D02*
G01X1749565Y5234227D01*
G01X1710314Y5181573D02*
G01X1684406Y5181573D01*
G01X1710314Y4991073D02*
G01X1684406Y4991073D01*
G01X1681625Y4851373D02*
G01X1655717Y4851373D01*
G01X1279881Y4612331D02*
G01X1279881Y4586423D01*
G01X1333127Y4642077D02*
G01X1359035Y4642077D01*
G01X1226635Y4642077D02*
G01X1200727Y4642077D01*
G01X967219Y4945455D02*
G01X993127Y4945455D01*
G01X913727Y4945455D02*
G01X887819Y4945455D01*
G01X940473Y4973484D02*
G01X940473Y4999392D01*
G01X1799214Y3301973D02*
G01X1773306Y3301973D01*
G01X1735714Y3111473D02*
G01X1709806Y3111473D01*
G01X2426360Y2741615D02*
G01X2426360Y2715707D01*
G01X2631106Y2946360D02*
G01X2657014Y2946360D01*
G04 Copper End*

G04 Pad Start*
G54D12*
G01X2058073Y4676062D03*
G01X2185073Y4676062D03*
G01X2312073Y4676062D03*
G01X2439073Y4676062D03*
G01X2566073Y4676062D03*
G01X2693073Y4676062D03*
G01X2820073Y4676062D03*
G01X2947073Y4676062D03*
G01X2058073Y5229884D03*
G01X2185073Y5229884D03*
G01X2312073Y5229884D03*
G01X2439073Y5229884D03*
G01X2566073Y5229884D03*
G01X2693073Y5229884D03*
G01X2820073Y5229884D03*
G01X2947073Y5229884D03*
G54D13*
G01X3428810Y4660873D03*
G01X3278137Y4660873D03*
G01X3428810Y4508473D03*
G01X3278137Y4508473D03*
G54D14*
G01X1034352Y5130773D03*
G01X1227595Y5130773D03*
G01X3256852Y4851373D03*
G01X3450095Y4851373D03*
G54D15*
G01X3529063Y2268269D03*
G01X3529063Y2215259D03*
G01X3529063Y2162275D03*
G01X3529063Y2109265D03*
G01X3529063Y2056281D03*
G01X3529063Y2003271D03*
G01X3529063Y1950261D03*
G01X3529063Y1897277D03*
G01X3889083Y1897277D03*
G01X3889083Y1950261D03*
G01X3889083Y2003271D03*
G01X3889083Y2056281D03*
G01X3889083Y2109265D03*
G01X3889083Y2162275D03*
G01X3889083Y2215259D03*
G01X3889083Y2268269D03*
G54D16*
G01X4225874Y1464766D03*
G01X4225874Y1684780D03*
G01X4055872Y1684780D03*
G01X4055872Y1464766D03*
G54D17*
G01X4432973Y2126055D03*
G01X4432973Y2039491D03*
G54D19*
G01X4585373Y2039491D03*
G01X4585373Y2126055D03*
G54D20*
G01X2426360Y2946360D03*
G54D21*
G01X2701374Y2596374D03*
G01X2651374Y2596374D03*
G01X2601374Y2596374D03*
G01X2551374Y2596374D03*
G01X2501374Y2596374D03*
G01X2451374Y2596374D03*
G01X2401372Y2596374D03*
G01X2351372Y2596374D03*
G01X2301372Y2596374D03*
G01X2251372Y2596374D03*
G01X2201372Y2596374D03*
G01X2151372Y2596374D03*
G54D22*
G01X2076374Y2671372D03*
G01X2076374Y2721372D03*
G01X2076374Y2771372D03*
G01X2076374Y2821372D03*
G01X2076374Y2871372D03*
G01X2076374Y2921372D03*
G01X2076374Y2971374D03*
G01X2076374Y3021374D03*
G01X2076374Y3071374D03*
G01X2076374Y3121374D03*
G01X2076374Y3171374D03*
G01X2076374Y3221374D03*
G54D21*
G01X2151372Y3296372D03*
G01X2201372Y3296372D03*
G01X2251372Y3296372D03*
G01X2301372Y3296372D03*
G01X2351372Y3296372D03*
G01X2401372Y3296372D03*
G01X2451374Y3296372D03*
G01X2501374Y3296372D03*
G01X2551374Y3296372D03*
G01X2601374Y3296372D03*
G01X2651374Y3296372D03*
G01X2701374Y3296372D03*
G54D22*
G01X2776372Y3221374D03*
G01X2776372Y3171374D03*
G01X2776372Y3121374D03*
G01X2776372Y3071374D03*
G01X2776372Y3021374D03*
G01X2776372Y2971374D03*
G01X2776372Y2921372D03*
G01X2776372Y2871372D03*
G01X2776372Y2821372D03*
G01X2776372Y2771372D03*
G01X2776372Y2721372D03*
G01X2776372Y2671372D03*
G54D23*
G01X1038794Y3149573D03*
G01X1038794Y3099560D03*
G01X1038794Y3049548D03*
G01X1038794Y2999535D03*
G01X1038794Y2949548D03*
G01X1038794Y2899535D03*
G01X1038794Y2849523D03*
G01X1038794Y2799510D03*
G01X1038794Y2749498D03*
G01X1038794Y2699485D03*
G01X1038794Y3199586D03*
G01X1038794Y3249598D03*
G01X1038794Y3299611D03*
G01X1038794Y3349598D03*
G01X1038794Y3399611D03*
G01X1038794Y3449623D03*
G01X1038794Y3499636D03*
G01X1038794Y3549648D03*
G01X1038794Y3599661D03*
G54D24*
G01X359547Y2424581D03*
G01X359547Y3874565D03*
G54D25*
G01X955558Y2424581D03*
G01X955558Y3874565D03*
G54D26*
G01X1328331Y2693897D03*
G01X1328331Y2743935D03*
G54D27*
G01X1328331Y2793973D03*
G54D26*
G01X1328331Y2844011D03*
G01X1328331Y2894049D03*
G01X1416215Y2894049D03*
G01X1416215Y2844011D03*
G54D27*
G01X1416215Y2793973D03*
G54D26*
G01X1416215Y2743935D03*
G01X1416215Y2693897D03*
G01X1328331Y2998697D03*
G01X1328331Y3048735D03*
G54D27*
G01X1328331Y3098773D03*
G54D26*
G01X1328331Y3148811D03*
G01X1328331Y3198849D03*
G01X1416215Y3198849D03*
G01X1416215Y3148811D03*
G54D27*
G01X1416215Y3098773D03*
G54D26*
G01X1416215Y3048735D03*
G01X1416215Y2998697D03*
G54D28*
G01X3113723Y3987773D03*
G01X3113723Y4114773D03*
G01X3113723Y4241773D03*
G01X3113723Y4368773D03*
G01X2577224Y3987773D03*
G01X2577224Y4114773D03*
G01X2577224Y4241773D03*
G01X2577224Y4368773D03*
G54D29*
G01X2531682Y2209773D03*
G01X2422665Y2209773D03*
G01X2531682Y2336773D03*
G01X2422665Y2336773D03*
G01X2518982Y3644873D03*
G01X2409965Y3644873D03*
G54D30*
G01X2032673Y1502281D03*
G01X2032673Y1393265D03*
G54D29*
G01X1947482Y3301973D03*
G01X1838465Y3301973D03*
G54D30*
G01X2654973Y2022981D03*
G01X2654973Y1913965D03*
G54D29*
G01X1883982Y3111473D03*
G01X1774965Y3111473D03*
G01X2277682Y2197073D03*
G01X2168665Y2197073D03*
G54D30*
G01X1791373Y2238881D03*
G01X1791373Y2129865D03*
G54D29*
G01X1896682Y2806673D03*
G01X1787665Y2806673D03*
G01X2315782Y3975073D03*
G01X2206765Y3975073D03*
G54D31*
G01X1760792Y3505173D03*
G01X1847355Y3505173D03*
G01X452692Y4140173D03*
G01X539255Y4140173D03*
G54D19*
G01X1321473Y3461891D03*
G01X1321473Y3548455D03*
G54D32*
G01X3005392Y2539973D03*
G01X3091955Y2539973D03*
G54D31*
G01X2725992Y3759173D03*
G01X2812555Y3759173D03*
G54D17*
G01X2731173Y3662755D03*
G01X2731173Y3576191D03*
G54D19*
G01X2261273Y4109591D03*
G01X2261273Y4196155D03*
G54D29*
G01X1807782Y1447773D03*
G01X1698765Y1447773D03*
G54D33*
G01X1499273Y3844365D03*
G01X1499273Y3953381D03*
G54D30*
G01X3963073Y1222881D03*
G01X3963073Y1113865D03*
G54D34*
G01X1638973Y2241675D03*
G01X1638973Y2101671D03*
G01X3810673Y1238375D03*
G01X3810673Y1098371D03*
G54D35*
G01X2534171Y1600173D03*
G01X2674176Y1600173D03*
G01X2534171Y1765273D03*
G01X2674176Y1765273D03*
G54D34*
G01X2185073Y1505075D03*
G01X2185073Y1365071D03*
G01X2375573Y1505075D03*
G01X2375573Y1365071D03*
G54D13*
G01X1841310Y1587473D03*
G01X1690637Y1587473D03*
G54D36*
G01X1486573Y1461337D03*
G01X1486573Y1612009D03*
G54D37*
G01X1359573Y3961509D03*
G01X1359573Y3810837D03*
G54D38*
G01X2343963Y3835373D03*
G01X2203983Y3835373D03*
G54D39*
G01X1674063Y1771877D03*
G01X1674063Y1961869D03*
G01X1934083Y1961869D03*
G01X1934083Y1866873D03*
G01X1934083Y1771877D03*
G01X1508963Y4172177D03*
G01X1508963Y4362169D03*
G01X1768983Y4362169D03*
G01X1768983Y4267173D03*
G01X1768983Y4172177D03*
G54D40*
G01X1994573Y4337277D03*
G01X1994573Y4171669D03*
G54D41*
G01X2153069Y2019273D03*
G01X2318677Y2019273D03*
G54D42*
G01X4205440Y768577D03*
G01X4205440Y863573D03*
G01X4205440Y958569D03*
G54D43*
G01X3974706Y958569D03*
G01X3974706Y768577D03*
G54D44*
G01X751167Y701178D03*
G01X751167Y1991168D03*
G54D45*
G01X901179Y996174D03*
G01X901179Y1246161D03*
G01X901179Y1446160D03*
G54D46*
G01X901179Y1696172D03*
G54D15*
G01X2652763Y1391969D03*
G01X2652763Y1338959D03*
G01X2652763Y1285975D03*
G01X2652763Y1232965D03*
G01X2652763Y1179981D03*
G01X2652763Y1126971D03*
G01X2652763Y1073961D03*
G01X2652763Y1020977D03*
G01X3012783Y1020977D03*
G01X3012783Y1073961D03*
G01X3012783Y1126971D03*
G01X3012783Y1179981D03*
G01X3012783Y1232965D03*
G01X3012783Y1285975D03*
G01X3012783Y1338959D03*
G01X3012783Y1391969D03*
G54D47*
G01X3344672Y1087880D03*
G01X3344672Y867866D03*
G01X3514674Y867866D03*
G01X3514674Y1087880D03*
G54D48*
G01X1275575Y1255673D03*
G01X1275575Y1205660D03*
G01X1275575Y1155673D03*
G01X1275575Y1105660D03*
G01X1275575Y1055673D03*
G01X1697571Y1255673D03*
G01X1697571Y1205660D03*
G01X1697571Y1155673D03*
G01X1697571Y1105660D03*
G01X1697571Y1055673D03*
G54D49*
G01X4674273Y1171573D03*
G01X4674273Y1371573D03*
G01X4674273Y1571573D03*
G54D50*
G01X4674273Y1786584D03*
G01X4674273Y956562D03*
G54D31*
G01X935292Y5333973D03*
G01X1021855Y5333973D03*
G54D17*
G01X940473Y4945455D03*
G01X940473Y4858891D03*
G54D51*
G01X661670Y5303163D03*
G01X661670Y5274461D03*
G01X661416Y5224372D03*
G01X661416Y5195670D03*
G01X661822Y5140679D03*
G01X661822Y5090666D03*
G01X661670Y5040679D03*
G01X661822Y4990667D03*
G01X661670Y4940679D03*
G01X661822Y4890667D03*
G01X661822Y4840705D03*
G01X661822Y4790667D03*
G01X661822Y4735676D03*
G01X661822Y4706974D03*
G01X661822Y4656860D03*
G01X661822Y4628183D03*
G54D52*
G01X152324Y5397676D03*
G01X152324Y4533670D03*
G54D53*
G01X570332Y4533670D03*
G01X570306Y5397676D03*
G54D54*
G01X4305376Y2723183D03*
G01X4305376Y2751885D03*
G01X4305630Y2801974D03*
G01X4305630Y2830676D03*
G01X4305224Y2885667D03*
G01X4305224Y2935680D03*
G01X4305376Y2985667D03*
G01X4305224Y3035679D03*
G01X4305376Y3085667D03*
G01X4305224Y3135679D03*
G01X4305224Y3185641D03*
G01X4305224Y3235679D03*
G01X4305224Y3290670D03*
G01X4305224Y3319372D03*
G01X4305224Y3369486D03*
G01X4305224Y3398163D03*
G54D52*
G01X4814722Y2628670D03*
G01X4814722Y3492676D03*
G54D53*
G01X4396715Y3492676D03*
G01X4396740Y2628670D03*
G54D55*
G01X1279881Y4642077D03*
G01X1279881Y4832069D03*
G01X1032866Y4737073D03*
G54D56*
G01X4083977Y2264066D03*
G01X4273969Y2264066D03*
G01X4178973Y2511081D03*
G54D19*
G01X1638973Y3868291D03*
G01X1638973Y3954855D03*
G54D57*
G01X1861376Y4851373D03*
G01X1721371Y4851373D03*
G01X3436176Y5054573D03*
G01X3296171Y5054573D03*
G54D34*
G01X1499273Y1949575D03*
G01X1499273Y1809571D03*
G54D57*
G01X1315276Y4356073D03*
G01X1175271Y4356073D03*
G54D35*
G01X2140471Y1739873D03*
G01X2280476Y1739873D03*
G54D58*
G01X2981465Y2412973D03*
G01X3090482Y2412973D03*
G54D19*
G01X1486573Y2191891D03*
G01X1486573Y2278455D03*
G54D31*
G01X2090992Y3606773D03*
G01X2177555Y3606773D03*
G54D58*
G01X2994165Y1790673D03*
G01X3103182Y1790673D03*
G54D31*
G01X1252792Y2476473D03*
G01X1339355Y2476473D03*
G54D19*
G01X4712373Y2039491D03*
G01X4712373Y2126055D03*
G54D59*
G01X3899573Y3962373D03*
G01X3899573Y4216373D03*
G01X3899573Y4470373D03*
G01X3899573Y4724373D03*
G01X3899573Y4978373D03*
G01X3899573Y5232373D03*
G54D60*
G01X3283115Y3746473D03*
G01X3283115Y3619473D03*
G01X3283115Y3492473D03*
G01X3283115Y3365473D03*
G01X3283115Y3238473D03*
G01X3283115Y3111473D03*
G01X3283115Y2984473D03*
G01X3283115Y2857473D03*
G01X3830231Y3746473D03*
G01X3830231Y3619473D03*
G01X3830231Y3492473D03*
G01X3830231Y3365473D03*
G01X3830231Y3238473D03*
G01X3830231Y3111473D03*
G01X3830231Y2984473D03*
G01X3830231Y2857473D03*
G54D61*
G01X1264069Y925473D03*
G01X1074077Y925473D03*
G01X1169073Y725473D03*
G54D19*
G01X4128173Y1137791D03*
G01X4128173Y1224355D03*
G54D17*
G01X1816773Y856055D03*
G01X1816773Y769491D03*
G01X4382173Y856055D03*
G01X4382173Y769491D03*
G54D33*
G01X3429673Y1621865D03*
G01X3429673Y1730881D03*
G54D30*
G01X2058073Y879981D03*
G01X2058073Y770965D03*
G01X2197773Y879981D03*
G01X2197773Y770965D03*
G54D33*
G01X3315373Y1621865D03*
G01X3315373Y1730881D03*
G54D58*
G01X695465Y4140173D03*
G01X804482Y4140173D03*
G01X1482865Y4597373D03*
G01X1591882Y4597373D03*
G54D29*
G01X3915982Y2666973D03*
G01X3806965Y2666973D03*
G01X1858582Y5181573D03*
G01X1749565Y5181573D03*
G54D58*
G01X1749565Y4991073D03*
G01X1858582Y4991073D03*
G01X3311665Y4368773D03*
G01X3420682Y4368773D03*
G01X3324365Y5206973D03*
G01X3433382Y5206973D03*
G54D33*
G01X3620173Y1520265D03*
G01X3620173Y1629281D03*
G01X3797973Y1520265D03*
G01X3797973Y1629281D03*
G54D58*
G01X2943365Y787373D03*
G01X3052382Y787373D03*
G54D29*
G01X2734882Y787373D03*
G01X2625865Y787373D03*
G54D16*
G01X3095574Y2010866D03*
G01X3095574Y2230880D03*
G01X2925572Y2230880D03*
G01X2925572Y2010866D03*
G04 Pad End*

G04 Via Start*
G54D62*
G01X3734473Y2044673D03*
G01X3696373Y1955773D03*
G01X2362873Y3403573D03*
G01X2172373Y3088075D03*
G01X2502573Y2679673D03*
G01X2527973Y3200373D03*
G01X2654973Y2349473D03*
G01X2413673Y1790673D03*
G01X2235873Y3682973D03*
G54D63*
G01X2820073Y3657573D03*
G01X2121573Y2527273D03*
G54D64*
G01X2083473Y3289273D03*
G01X2172373Y2971773D03*
G01X2172571Y2795972D03*
G01X2616873Y3759173D03*
G01X2428580Y3744266D03*
G54D62*
G01X341873Y2798472D03*
G01X341873Y3098472D03*
G01X341873Y3398472D03*
G01X341873Y3698472D03*
G01X341873Y4260372D03*
G01X394373Y4559273D03*
G01X341873Y4860372D03*
G01X341873Y5160372D03*
G01X641873Y2460373D03*
G01X641873Y2798472D03*
G01X641873Y3098472D03*
G01X641873Y3398472D03*
G01X641873Y4260372D03*
G01X941873Y3698472D03*
G01X967273Y4036572D03*
G01X940473Y4559273D03*
G01X1257973Y3682973D03*
G01X1334173Y4559273D03*
G01X1541872Y3698472D03*
G01X1841872Y3698472D03*
G01X1829473Y4571973D03*
G01X1511973Y4724373D03*
G01X2058073Y3962373D03*
G01X4841871Y2460373D03*
G54D64*
G01X1296073Y3276573D03*
G01X1410373Y3276573D03*
G01X1531096Y3276573D03*
G01X1651673Y3276573D03*
G01X1346873Y3695673D03*
G01X1448473Y3695673D03*
G01X1156373Y3670273D03*
G01X1042073Y3670273D03*
G01X889673Y3657573D03*
G01X940473Y2578073D03*
G01X1074730Y2578073D03*
G01X1208987Y2578073D03*
G01X1343244Y2578073D03*
G01X1477502Y2578073D03*
G01X1880273Y2578073D03*
G01X1994573Y2539973D03*
G01X2350173Y3235573D03*
G01X851573Y3479773D03*
G01X1943773Y3695673D03*
G01X2053306Y3695673D03*
G01X2146973Y3695673D03*
G01X1632269Y3695673D03*
G01X1702473Y3111473D03*
G01X1677073Y2793973D03*
G01X2312073Y3721073D03*
G01X1931073Y3949673D03*
G01X1611759Y2578073D03*
G01X1746016Y2578073D03*
G01X2426373Y1917673D03*
G01X2439073Y1092173D03*
G01X2248573Y1092173D03*
G01X2807373Y1854173D03*
G01X2870873Y1803373D03*
G01X1905673Y1041373D03*
G01X1969173Y965173D03*
G01X3505873Y1549373D03*
G01X2426373Y2514573D03*
G01X2439073Y5016473D03*
G01X2566073Y5029173D03*
G01X834934Y5067273D03*
G01X813473Y4902173D03*
G01X1156373Y4991073D03*
G01X2096173Y1854173D03*
G01X2718473Y2197073D03*
G54D62*
G01X1727873Y3695673D03*
G01X1638973Y4067428D03*
G01X1219873Y2057373D03*
G01X1130973Y2044673D03*
G01X1423073Y1206473D03*
G01X1232573Y1765273D03*
G01X1016673Y1981173D03*
G01X2182447Y1620272D03*
G01X3023273Y1587473D03*
G01X3086773Y1523973D03*
G01X4267873Y2108173D03*
G01X4204373Y4724373D03*
G01X4293273Y4978373D03*
G01X2400973Y698473D03*
G01X4775873Y3682973D03*
G01X4026573Y2158973D03*
G01X4115473Y2133573D03*
G01X4661573Y4203673D03*
G01X4585373Y4152873D03*
G01X4394873Y2451073D03*
G01X4496473Y2247873D03*
G01X2985173Y2959073D03*
G01X3442373Y2387573D03*
G01X3378873Y2298673D03*
G01X3442373Y3111473D03*
G01X3467773Y3251173D03*
G01X3071498Y4914873D03*
G01X3226473Y2095473D03*
G01X2388273Y888973D03*
G01X3302673Y4190973D03*
G01X3132515Y4442413D03*
G01X1943773Y5333973D03*
G01X2299373Y5029173D03*
G01X1370713Y4952973D03*
G01X3518573Y1409673D03*
G01X3074073Y2616173D03*
G01X3010573Y2120873D03*
G01X2934373Y1727173D03*
G01X775373Y850873D03*
G01X1157973Y1003306D03*
G01X1880273Y2158973D03*
G01X3505873Y1828773D03*
G54D65*
G01X3361873Y1650973D03*
G54D62*
G01X3404273Y3898873D03*
G01X3409873Y964996D03*
G01X4293273Y838173D03*
G01X4178973Y2231924D03*
G01X3099473Y952473D03*
G01X3569373Y5067273D03*
G01X3213773Y1257273D03*
G01X4471073Y3985368D03*
G01X1740573Y914373D03*
G01X2134273Y1079473D03*
G01X1880273Y1295373D03*
G01X1588173Y1358873D03*
G01X3848773Y901673D03*
G54D66*
G01X4763897Y3943350D03*
G01X4776597Y5245100D03*
G04 Via End*

G04 Track Start*
G54D11*
G01X1681117Y2921372D02*
G01X2050974Y2921372D01*
G01X2896273Y2280283D02*
G01X2900566Y2284576D01*
G01X1674063Y1771877D02*
G01X1674063Y1629447D01*
G01X1690637Y1612873D01*
G01X1690637Y1473173D01*
G54D64*
G01X1864055Y1771877D02*
G01X1934083Y1771877D01*
G54D11*
G01X1934083Y1961869D02*
G01X2096173Y1961869D01*
G01X2102269Y1955773D01*
G01X1807782Y1447773D02*
G01X1807782Y1553945D01*
G01X1841310Y1587473D01*
G54D64*
G01X1667967Y1955773D02*
G01X1674063Y1961869D01*
G54D11*
G01X1697901Y1448637D02*
G01X1698765Y1447773D01*
G01X1486573Y1599309D02*
G01X1486573Y1822271D01*
G01X1486573Y1448637D02*
G01X1697901Y1448637D01*
G54D63*
G01X1508963Y4172177D02*
G01X1511973Y4169167D01*
G01X1511973Y3954855D01*
G01X1638973Y3954855D01*
G01X1359573Y3961509D02*
G01X1491145Y3961509D01*
G01X1499273Y3953381D01*
G01X1768983Y4362169D02*
G01X1969681Y4362169D01*
G01X1994573Y4337277D01*
G01X1994573Y4140173D02*
G01X1727873Y3873473D01*
G01X1644155Y3873473D02*
G01X1638973Y3868291D01*
G01X1580782Y3873473D02*
G01X1551673Y3844365D01*
G01X1499273Y3844365D01*
G01X1644155Y3873473D02*
G01X1580782Y3873473D01*
G01X1644155Y3873473D02*
G01X1727873Y3873473D01*
G01X1664373Y4206759D02*
G01X1664373Y4203673D01*
G01X1695869Y4172177D01*
G01X1768983Y4172177D01*
G54D11*
G01X2076374Y3121374D02*
G01X2139074Y3121374D01*
G01X2172373Y3088075D01*
G01X2147171Y2821372D02*
G01X2172571Y2795972D01*
G01X2350173Y2559473D02*
G01X2351372Y2558274D01*
G01X2401372Y3365074D02*
G01X2401372Y3296372D01*
G01X2362873Y3403573D02*
G01X2401372Y3365074D01*
G01X2654973Y2355963D02*
G01X2648763Y2362173D01*
G01X1722692Y3543273D02*
G01X1296073Y3543273D01*
G01X541592Y3980672D02*
G01X541592Y4018355D01*
G01X1332979Y3549648D02*
G01X1334173Y3548455D01*
G01X2654973Y2349473D02*
G01X2654973Y2355963D01*
G01X2172373Y2971773D02*
G01X2076773Y2971773D01*
G01X2076374Y2971374D01*
G01X4318470Y3085667D02*
G01X4318064Y3086073D01*
G01X2151372Y2557072D02*
G01X2151372Y2558274D01*
G01X2121573Y2527273D02*
G01X2151372Y2557072D01*
G01X2051037Y2819373D02*
G01X1927342Y2819373D01*
G01X1076894Y3249598D02*
G01X1200454Y3249598D01*
G01X2076374Y3121374D02*
G01X1919282Y3121374D01*
G01X1909382Y3111473D01*
G01X1800365Y3111473D02*
G01X1745834Y3111473D01*
G01X1416215Y3098773D02*
G01X1328331Y3098773D01*
G01X1038794Y3099560D02*
G01X1156651Y3099560D01*
G01X2076374Y3071374D02*
G01X1969608Y3071374D01*
G01X1847355Y3505173D02*
G01X2316154Y3505173D01*
G01X2451374Y3325267D02*
G01X2451374Y3296372D01*
G01X2395721Y3459625D02*
G01X2374229Y3481117D01*
G01X2501374Y3321772D02*
G01X2501374Y3336804D01*
G01X1159343Y3599661D02*
G01X1038794Y3599661D01*
G01X1189495Y5092673D02*
G01X1440605Y5092673D01*
G01X2553373Y3298371D02*
G01X2551374Y3296372D01*
G01X2553373Y3619473D02*
G01X2553373Y3298371D01*
G01X2151372Y3296372D02*
G01X2144273Y3289273D01*
G01X2083473Y3289273D01*
G01X1960182Y3289273D01*
G01X1947482Y3301973D01*
G01X2331377Y2095473D02*
G01X2312073Y2114777D01*
G01X2076374Y2821372D02*
G01X2147171Y2821372D01*
G01X2654973Y2554675D02*
G01X2651374Y2558274D01*
G01X2654973Y2355963D02*
G01X2654973Y2554675D01*
G01X2654973Y2349473D02*
G01X2654973Y2022981D01*
G01X4421467Y3135679D02*
G01X4445673Y3111473D01*
G01X4445673Y3060673D01*
G01X4318876Y3035273D02*
G01X4318470Y3035679D01*
G01X4445673Y3060673D02*
G01X4420273Y3035273D01*
G01X4318876Y3035273D01*
G01X4317276Y2984473D02*
G01X4318470Y2985667D01*
G01X4318064Y3086073D02*
G01X4189800Y3086073D01*
G01X2428580Y3744266D02*
G01X2553373Y3619473D01*
G01X2718473Y2541174D02*
G01X2701374Y2558274D01*
G01X2718473Y2451073D02*
G01X2718473Y2541174D01*
G01X2601374Y2771347D02*
G01X2426360Y2946360D01*
G01X2601374Y3296372D02*
G01X2601374Y3121374D01*
G01X2426360Y2946360D01*
G01X2201372Y3296372D02*
G01X2201372Y3233672D01*
G01X2247372Y3187673D01*
G01X2388273Y3187673D02*
G01X2515273Y3187673D01*
G01X2527973Y3200373D01*
G01X2247372Y3187673D02*
G01X2310072Y3187673D01*
G01X2318485Y3179260D01*
G01X2379860Y3179260D01*
G01X2388273Y3187673D01*
G01X2551374Y3296372D02*
G01X2551374Y3223774D01*
G01X2527973Y3200373D01*
G01X4318470Y2725672D02*
G01X4383469Y2660674D01*
G01X4383469Y2628670D01*
G01X4383469Y3492676D02*
G01X4383469Y3460672D01*
G01X4318470Y3395674D01*
G01X1332979Y3549648D02*
G01X1038794Y3549648D01*
G01X884803Y3549648D01*
G01X876973Y3505173D02*
G01X1069731Y3505173D01*
G01X851573Y3479773D02*
G01X876973Y3505173D01*
G01X1760792Y3505173D02*
G01X1722692Y3543273D01*
G01X2251372Y3340755D02*
G01X2251372Y3309072D01*
G01X2235873Y3378173D02*
G01X2234770Y3378173D01*
G01X2224730Y3388213D01*
G01X2224730Y3389316D01*
G01X1920209Y3403573D02*
G01X2190310Y3403573D01*
G01X1328331Y3198849D02*
G01X1322973Y3198849D01*
G01X1328331Y3198849D02*
G01X1416215Y3198849D01*
G01X1734966Y3171374D02*
G01X2050974Y3171374D01*
G01X1638973Y3149573D02*
G01X987994Y3149573D01*
G01X1674637Y3098773D02*
G01X1651673Y3098773D01*
G01X1416215Y3098773D01*
G01X1674637Y3098773D02*
G01X1677711Y3095698D01*
G01X1868335Y3047973D02*
G01X1867573Y3048735D01*
G01X1428915Y3048735D02*
G01X1867573Y3048735D01*
G01X1912560Y3048735D01*
G01X1416215Y3048735D02*
G01X1328331Y3048735D01*
G01X1281587Y3048735D02*
G01X1280809Y3049514D01*
G01X1328331Y3048735D02*
G01X1289360Y3048735D01*
G01X1281587Y3048735D01*
G01X1156651Y3099560D02*
G01X1181168Y3099560D01*
G01X1328331Y2998697D02*
G01X1015418Y2998697D01*
G01X1981873Y3022573D02*
G01X2073479Y3022573D01*
G01X1328331Y2998697D02*
G01X1416215Y2998697D01*
G01X1924231Y2998697D01*
G01X1270742Y2894049D02*
G01X1328331Y2894049D01*
G01X1268494Y2895573D02*
G01X1582913Y2895573D01*
G01X1328331Y2844011D02*
G01X1044306Y2844011D01*
G01X1416215Y2844011D02*
G01X1328331Y2844011D01*
G01X1644573Y2844011D02*
G01X1416215Y2844011D01*
G01X1707734Y2870173D02*
G01X2073479Y2870173D01*
G01X1757004Y2793973D02*
G01X1677073Y2793973D01*
G01X1416215Y2793973D02*
G01X1677073Y2793973D01*
G01X1328331Y2793973D02*
G01X1416215Y2793973D01*
G01X1038794Y2799510D02*
G01X1163144Y2799510D01*
G01X1297315Y2743935D02*
G01X1328331Y2743935D01*
G01X1416215Y2743935D01*
G01X1638973Y2743935D01*
G01X1740573Y2743173D02*
G01X1933252Y2743173D01*
G01X1994573Y2768573D02*
G01X2069616Y2768573D01*
G01X1930464Y3449623D02*
G01X1931073Y3450233D01*
G01X1909813Y3449623D02*
G01X1931073Y3450233D01*
G01X2171590Y3450233D01*
G01X2172504Y3451147D01*
G01X1038794Y3449623D02*
G01X1909813Y3449623D01*
G01X1930464Y3449623D01*
G01X1416215Y3198849D02*
G01X1617333Y3198849D01*
G01X2076374Y3221374D02*
G01X1671713Y3221374D01*
G54D63*
G01X1508963Y4362169D02*
G01X1664373Y4206759D01*
G01X1994573Y4140173D02*
G01X1994573Y4171669D01*
G54D11*
G01X640855Y4085563D02*
G01X640855Y4008632D01*
G01X640855Y4085563D02*
G01X695465Y4140173D01*
G54D63*
G01X539255Y4140173D02*
G01X695465Y4140173D01*
G54D11*
G01X541592Y4018355D02*
G01X452692Y4107255D01*
G01X445173Y4114773D01*
G54D63*
G01X452692Y4140173D02*
G01X452692Y4107255D01*
G54D11*
G01X1671473Y2730473D02*
G01X1709913Y2730473D01*
G01X1651673Y2679673D02*
G01X1933252Y2679673D01*
G01X1994573Y2705073D02*
G01X1998293Y2708793D01*
G01X2019973Y2717773D02*
G01X2067685Y2717773D01*
G01X1328331Y2693897D02*
G01X1416215Y2693897D01*
G01X1617333Y2693897D01*
G01X1038794Y2699485D02*
G01X1177303Y2699485D01*
G01X1194473Y2692373D02*
G01X1324652Y2692373D01*
G01X2502573Y2679673D02*
G01X2502573Y1631771D01*
G01X2534171Y1600173D01*
G01X2731173Y1447773D02*
G01X2756573Y1422373D01*
G01X2756573Y1371573D01*
G01X2723960Y1338959D02*
G01X2652763Y1338959D01*
G01X2756573Y1371573D02*
G01X2723960Y1338959D01*
G01X2439073Y1092173D02*
G01X2473871Y1126971D01*
G01X2652763Y1126971D01*
G01X2701374Y2558274D02*
G01X2701374Y2655943D01*
G01X2601374Y2755943D01*
G01X2601374Y2771347D01*
G01X2438288Y2583288D02*
G01X2426360Y2583288D01*
G01X2426360Y2882886D01*
G01X2172571Y2795972D02*
G01X2172571Y2717575D01*
G01X2197773Y2692373D01*
G01X2312073Y2692373D01*
G01X2350173Y2654273D01*
G01X2350173Y2559473D01*
G01X2741071Y2768573D02*
G01X2914155Y2768573D01*
G01X3005392Y2677336D01*
G01X2776372Y2721372D02*
G01X2841874Y2721372D01*
G01X2896273Y2666973D01*
G01X861093Y3402739D02*
G01X1919375Y3402739D01*
G01X1920209Y3403573D01*
G01X2651374Y3258272D02*
G01X2651374Y3623072D01*
G01X2601374Y2755943D02*
G01X2601374Y2558274D01*
G01X546773Y5017667D02*
G01X546773Y4978373D01*
G54D64*
G01X470573Y5105028D02*
G01X470573Y4851373D01*
G54D67*
G01X838873Y5219673D02*
G01X935292Y5316091D01*
G01X935292Y5333973D01*
G54D68*
G01X1381265Y4737073D02*
G01X1482865Y4635473D01*
G01X1381265Y4737073D02*
G01X1032866Y4737073D01*
G54D11*
G01X2593760Y1391969D02*
G01X2652763Y1391969D01*
G01X2591473Y1447773D02*
G01X2731173Y1447773D01*
G01X2439073Y5016473D02*
G01X2439073Y5293384D01*
G01X4189800Y3086073D02*
G01X4189800Y3011747D01*
G01X4217073Y2984473D01*
G01X4317276Y2984473D01*
G01X2652763Y1285975D02*
G01X2734475Y1285975D01*
G01X2807373Y1358873D02*
G01X2734475Y1285975D01*
G01X2807373Y1854173D02*
G01X2807373Y1358873D01*
G01X2870873Y1803373D02*
G01X2870873Y1333473D01*
G01X2770365Y1232965D01*
G01X2652763Y1232965D01*
G01X2438288Y2583288D02*
G01X2451374Y2596374D01*
G01X2413673Y1790673D02*
G01X2413673Y1727173D01*
G01X2188782Y1502281D01*
G54D64*
G01X2372779Y1502281D02*
G01X2375573Y1505075D01*
G01X2032673Y1502281D02*
G01X2188782Y1502281D01*
G01X2372779Y1502281D01*
G54D69*
G01X1047052Y5143473D02*
G01X1047052Y5064898D01*
G01X1279881Y4832069D01*
G54D11*
G01X813473Y5067273D02*
G01X788073Y5041873D01*
G01X570979Y5041873D01*
G01X546773Y5017667D01*
G01X546773Y4978373D02*
G01X584873Y4940273D01*
G01X711670Y4940273D01*
G01X813473Y4958626D02*
G01X813473Y4902173D01*
G01X711670Y4991073D02*
G01X781026Y4991073D01*
G01X813473Y4958626D01*
G01X813473Y4889473D02*
G01X699783Y4889473D01*
G01X869455Y4787873D02*
G01X940473Y4858891D01*
G01X733830Y4787873D02*
G01X869455Y4787873D01*
G54D67*
G01X470573Y4851373D02*
G01X602272Y4719674D01*
G01X598970Y5208370D02*
G01X661416Y5208370D01*
G01X470573Y5105028D02*
G01X543916Y5178370D01*
G01X568970Y5178370D01*
G01X598970Y5208370D01*
G01X661822Y5090666D02*
G01X760667Y5090666D01*
G01X838873Y5168873D01*
G01X838873Y5219673D01*
G54D68*
G01X1502867Y4356073D02*
G01X1315276Y4356073D01*
G54D11*
G01X1502867Y4356073D02*
G01X1508963Y4362169D01*
G54D63*
G01X1874076Y5181573D02*
G01X2009762Y5181573D01*
G54D11*
G01X1042073Y1155673D02*
G01X1275575Y1155673D01*
G01X1736484Y1206473D02*
G01X2350173Y1206473D01*
G01X2591473Y1447773D01*
G01X1735671Y1155673D02*
G01X2357463Y1155673D01*
G01X2593760Y1391969D01*
G01X1698358Y1104873D02*
G01X1697571Y1105660D01*
G01X876973Y1231873D02*
G01X965873Y1231873D01*
G01X1042073Y1155673D01*
G01X901179Y1446160D02*
G01X762673Y1307654D01*
G01X762673Y1193773D01*
G01X850786Y1105660D01*
G01X1275575Y1105660D01*
G01X1440605Y5092673D02*
G01X1466005Y5067273D01*
G01X1860885Y5067273D02*
G01X1860885Y4993377D01*
G01X1858582Y4991073D01*
G01X1466005Y5067273D02*
G01X1860885Y5067273D01*
G01X1858582Y4991073D02*
G01X1858582Y4841467D01*
G01X1861376Y4838673D01*
G01X2101355Y3619473D02*
G01X1296073Y3619473D01*
G01X2312073Y2114777D02*
G01X2312073Y2338913D01*
G01X2351372Y2558274D02*
G01X2351372Y2378212D01*
G01X2312073Y2338913D01*
G01X2301372Y2427672D02*
G01X2301372Y2596374D01*
G01X1677073Y2241675D02*
G01X1683576Y2235173D01*
G01X1486573Y2278455D02*
G01X1489164Y2275864D01*
G01X1683576Y2235173D02*
G01X2032673Y2235173D01*
G01X2201372Y2596374D02*
G01X2201372Y2505472D01*
G01X2169833Y2473933D02*
G01X2201372Y2505472D01*
G01X1677073Y2241675D02*
G01X1638973Y2241675D01*
G01X2312073Y2338913D02*
G01X2246433Y2273273D01*
G01X2070773Y2273273D01*
G01X2032673Y2235173D01*
G01X1489164Y2275864D02*
G01X1537373Y2324073D01*
G01X2197773Y2324073D01*
G01X2301372Y2427672D01*
G01X1341895Y2473933D02*
G01X1339355Y2476473D01*
G01X1341895Y2473933D02*
G01X2169833Y2473933D01*
G01X1423073Y1206473D02*
G01X1276388Y1206473D01*
G01X1275575Y1205660D01*
G01X3098076Y1866873D02*
G01X3098076Y2061666D01*
G01X2776372Y2671372D02*
G01X2776372Y1961374D01*
G01X2870873Y1866873D01*
G01X3098076Y1866873D01*
G01X1339355Y2476473D02*
G01X1339355Y2405455D01*
G01X1130973Y2197073D02*
G01X1339355Y2405455D01*
G01X1130973Y2044673D02*
G01X1130973Y2197073D01*
G01X2994165Y2400273D02*
G01X2898674Y2400273D01*
G01X2896273Y2402674D01*
G01X2896273Y2666973D02*
G01X2896273Y2402674D01*
G01X2896273Y2280283D01*
G54D64*
G01X1674063Y1961869D02*
G01X1864055Y1771877D01*
G54D11*
G01X1879410Y1562073D02*
G01X1904810Y1587473D01*
G01X1943773Y1587473D01*
G01X2286673Y1930373D01*
G01X2776372Y3021374D02*
G01X2776372Y2971374D01*
G01X2776372Y2921372D01*
G01X4305224Y3135679D02*
G01X4421467Y3135679D01*
G01X3103182Y1859456D02*
G01X3098076Y1864562D01*
G01X3098076Y1866873D01*
G01X1905673Y1041373D02*
G01X1891373Y1055673D01*
G01X1697571Y1055673D01*
G54D70*
G01X2573261Y1073961D02*
G01X2652763Y1073961D01*
G54D11*
G01X2251372Y2479272D02*
G01X2251372Y2596374D01*
G01X2159673Y2387573D02*
G01X2251372Y2479272D01*
G01X1423073Y2387573D02*
G01X2159673Y2387573D01*
G01X1219873Y2057373D02*
G01X1219873Y2184373D01*
G01X1423073Y2387573D01*
G54D64*
G01X1543571Y1955773D02*
G01X1667967Y1955773D01*
G54D11*
G01X3162973Y882471D02*
G01X3067876Y787373D01*
G01X3012783Y1073961D02*
G01X3079585Y1073961D01*
G01X3162973Y990573D01*
G01X3162973Y882471D01*
G01X3012783Y1020977D02*
G01X2931579Y939773D01*
G01X2743873Y939773D01*
G01X2610371Y806271D02*
G01X2610371Y787373D01*
G01X2743873Y939773D02*
G01X2610371Y806271D01*
G01X3102775Y1126971D02*
G01X3012783Y1126971D01*
G01X3239173Y990573D02*
G01X3102775Y1126971D01*
G01X3239173Y774673D02*
G01X3239173Y990573D01*
G01X3514674Y867866D02*
G01X3514674Y808874D01*
G01X3429673Y723873D01*
G01X3289973Y723873D01*
G01X3239173Y774673D01*
G01X3012783Y1179981D02*
G01X3176765Y1179981D01*
G01X3268866Y1087880D02*
G01X3344672Y1087880D01*
G01X3176765Y1179981D02*
G01X3268866Y1087880D01*
G01X3012783Y1338959D02*
G01X3086773Y1338959D01*
G01X3889083Y2003271D02*
G01X3966375Y2003271D01*
G01X4064673Y1904973D01*
G01X4064673Y1693582D01*
G01X4055872Y1684780D01*
G01X3889083Y1950261D02*
G01X3792461Y1950261D01*
G01X3620173Y1777973D02*
G01X3620173Y1644775D01*
G01X3792461Y1950261D02*
G01X3620173Y1777973D01*
G01X3889083Y1897277D02*
G01X3797973Y1806167D01*
G01X3797973Y1644775D01*
G01X3889083Y2056281D02*
G01X4078465Y2056281D01*
G01X4356773Y1777973D01*
G01X4356773Y1511273D01*
G01X4310266Y1464766D01*
G01X4225874Y1464766D01*
G01X3005392Y2677336D02*
G01X3005392Y2539973D01*
G01X3529063Y2109265D02*
G01X3527971Y2108173D01*
G01X2957774Y2821372D02*
G01X2776372Y2821372D01*
G01X3527971Y2108173D02*
G01X3391573Y2108173D01*
G01X3400971Y2162275D02*
G01X3529063Y2162275D01*
G01X3289973Y2273273D02*
G01X3400971Y2162275D01*
G01X2776372Y2871372D02*
G01X2983974Y2871372D01*
G01X3289973Y2565373D01*
G01X3289973Y2273273D01*
G01X3391573Y2108173D02*
G01X3226473Y2273273D01*
G01X3226473Y2552673D01*
G01X2957774Y2821372D01*
G01X4308018Y3238473D02*
G01X4305224Y3235679D01*
G01X4318470Y3238473D02*
G01X4305224Y3235679D01*
G01X4432973Y3238473D02*
G01X4318470Y3238473D01*
G01X4308018Y3238473D01*
G01X3620173Y2006573D02*
G01X3532365Y2006573D01*
G01X3529063Y2003271D01*
G01X3830054Y2215259D02*
G01X3889083Y2215259D01*
G01X3734473Y2044673D02*
G01X3734473Y2184373D01*
G01X3818369Y2268269D01*
G01X3889083Y2268269D01*
G01X3676274Y2189674D02*
G01X3676274Y2062674D01*
G01X3620173Y2006573D01*
G01X4305376Y2985667D02*
G01X4318470Y2985667D01*
G01X4419079Y2985667D01*
G01X3606381Y2056281D02*
G01X3529063Y2056281D01*
G01X3632873Y2260573D02*
G01X3632873Y2082773D01*
G01X3606381Y2056281D01*
G01X3696373Y1955773D02*
G01X3734473Y1955773D01*
G01X3797973Y2019273D01*
G01X3797973Y2183179D01*
G01X3830054Y2215259D01*
G54D63*
G01X4302163Y2819373D02*
G01X4290315Y2807525D01*
G01X4154425Y2807525D02*
G01X4290315Y2807525D01*
G01X2009762Y5181573D02*
G01X2058073Y5229884D01*
G54D11*
G01X2185073Y5204484D02*
G01X2185073Y5092673D01*
G01X2159673Y5067273D02*
G01X1860885Y5067273D01*
G01X2185073Y5092673D02*
G01X2159673Y5067273D01*
G01X2566073Y5229884D02*
G01X2566073Y5029173D01*
G54D63*
G01X2949562Y4673573D02*
G01X2947073Y4676062D01*
G54D11*
G01X2651374Y3623072D02*
G01X2451773Y3822673D01*
G01X2451773Y4340733D01*
G01X2479813Y4368773D01*
G01X2577224Y4368773D01*
G01X2210473Y3708373D02*
G01X2235873Y3682973D01*
G01X2210473Y3828883D02*
G01X2203983Y3835373D01*
G01X2210473Y3828883D02*
G01X2210473Y3708373D01*
G54D63*
G01X2343963Y3835373D02*
G01X2343963Y3916577D01*
G01X2312073Y3948467D01*
G54D11*
G01X2359768Y3813078D02*
G01X2428580Y3744266D01*
G54D63*
G01X2312073Y3948467D02*
G01X2312073Y4020309D01*
G01X2160713Y4171669D01*
G01X1994573Y4171669D01*
G54D11*
G01X2693073Y3987773D02*
G01X2577224Y3987773D01*
G01X2718473Y3962373D02*
G01X2693073Y3987773D01*
G01X2820073Y3657573D02*
G01X2825052Y3662551D01*
G01X2718473Y3759173D02*
G01X2718473Y3962373D01*
G01X2725992Y3759173D02*
G01X2718473Y3759173D01*
G01X2616873Y3759173D02*
G01X2718473Y3759173D01*
G01X2725992Y3759173D02*
G01X2725992Y3680636D01*
G01X2825052Y3662551D02*
G01X2825052Y3970095D01*
G01X2680373Y4114773D01*
G01X2577224Y4114773D01*
G01X2701374Y3258272D02*
G01X2701374Y3526174D01*
G01X2744119Y3568919D01*
G01X2820319Y3568919D01*
G01X2896273Y3644873D01*
G01X2896273Y4025873D01*
G01X2680373Y4241773D01*
G01X2577224Y4241773D01*
G01X4699673Y2971773D02*
G01X4432973Y3238473D01*
G01X3529063Y1950261D02*
G01X3456363Y1950261D01*
G01X3416973Y1910871D01*
G54D69*
G01X4273969Y2276766D02*
G01X4273969Y2114269D01*
G54D64*
G01X4273969Y2114269D02*
G01X4267873Y2108173D01*
G54D69*
G01X4154425Y2807525D02*
G01X4104425Y2857525D01*
G01X4104425Y3251973D01*
G01X4154425Y3301973D01*
G54D64*
G01X4154425Y3301973D02*
G01X4287825Y3301973D01*
G01X4154425Y3301973D02*
G01X4128173Y3301973D01*
G54D11*
G01X4293273Y4978373D02*
G01X3899573Y4978373D01*
G01X3899573Y4724373D02*
G01X4204373Y4724373D01*
G01X2248573Y1092173D02*
G01X2350173Y1092173D01*
G01X2437981Y1179981D01*
G01X2652763Y1179981D01*
G01X1969173Y965173D02*
G01X1969173Y1079473D01*
G01X1943773Y1104873D01*
G01X1698358Y1104873D01*
G54D64*
G01X1169073Y725473D02*
G01X1065873Y725473D01*
G01X901179Y890167D01*
G01X901179Y996174D01*
G54D11*
G01X1289469Y950873D02*
G01X1264069Y925473D01*
G01X3889083Y2162275D02*
G01X4023271Y2162275D01*
G01X4026573Y2158973D01*
G01X3889083Y2109265D02*
G01X3961783Y2109265D01*
G01X3975575Y2095473D01*
G01X4115473Y2133573D02*
G01X4077373Y2095473D01*
G01X3975575Y2095473D01*
G01X4775873Y3682973D02*
G01X4280573Y3682973D01*
G01X3963073Y3365473D01*
G01X3830231Y3365473D01*
G01X4394873Y4470373D02*
G01X3899573Y4470373D01*
G01X4661573Y4203673D02*
G01X4394873Y4470373D01*
G01X4521873Y4216373D02*
G01X3899573Y4216373D01*
G01X4585373Y4152873D02*
G01X4521873Y4216373D01*
G54D64*
G01X2280171Y780871D02*
G01X2045373Y780871D01*
G54D11*
G01X3620173Y3848073D02*
G01X3709073Y3759173D01*
G01X3817531Y3759173D01*
G01X3830231Y3746473D01*
G01X3543110Y4660873D02*
G01X3569373Y4634609D01*
G01X3455073Y3492473D02*
G01X3283115Y3492473D01*
G01X3569373Y4634609D02*
G01X3569373Y3606773D01*
G01X3455073Y3492473D01*
G01X3378873Y3619473D02*
G01X3283115Y3619473D01*
G01X3518573Y4467782D02*
G01X3518573Y3759173D01*
G01X3378873Y3619473D01*
G01X3112173Y3759173D02*
G01X3112173Y3428973D01*
G01X3175673Y3365473D01*
G01X3283115Y3365473D01*
G01X3407982Y4356073D02*
G01X3407982Y4054981D01*
G01X3112173Y3759173D02*
G01X3407982Y4054981D01*
G54D63*
G01X3021404Y4673573D02*
G01X2949562Y4673573D01*
G54D11*
G01X2820073Y4787873D02*
G01X2820073Y4676062D01*
G01X2870873Y4838673D02*
G01X2820073Y4787873D01*
G01X4445673Y3060673D02*
G01X4648873Y2857473D01*
G01X4419079Y2985667D02*
G01X4585373Y2819373D01*
G01X4648873Y2857473D02*
G01X4648873Y2501873D01*
G01X4585373Y2819373D02*
G01X4585373Y2514573D01*
G01X4305224Y2935680D02*
G01X4405567Y2935680D01*
G01X4547273Y2793973D02*
G01X4547273Y2565373D01*
G01X4432973Y2451073D02*
G01X4547273Y2565373D01*
G01X4394873Y2451073D02*
G01X4432973Y2451073D01*
G01X4405567Y2935680D02*
G01X4547273Y2793973D01*
G01X4648873Y2501873D02*
G01X4492506Y2345506D01*
G01X3832106Y2345506D01*
G01X3676274Y2189674D01*
G01X4585373Y2514573D02*
G01X4458373Y2387573D01*
G01X3759873Y2387573D01*
G01X3632873Y2260573D01*
G01X4496473Y2131236D02*
G01X4491292Y2126055D01*
G01X4432973Y2126055D01*
G01X4496473Y2247873D02*
G01X4496473Y2131236D01*
G01X4585373Y2126055D02*
G01X4585373Y2362173D01*
G01X4699673Y2476473D01*
G01X4699673Y2971773D02*
G01X4699673Y2476473D01*
G01X4737773Y2120873D02*
G01X4812213Y2046433D01*
G01X4812213Y1709512D01*
G01X4674273Y1571573D01*
G01X4205440Y958569D02*
G01X4279659Y958569D01*
G01X4382173Y856055D01*
G01X4763173Y4089373D02*
G01X4763173Y4952973D01*
G01X4458373Y3784573D02*
G01X4763173Y4089373D01*
G01X4255173Y3784573D02*
G01X4458373Y3784573D01*
G01X3963073Y3492473D02*
G01X4255173Y3784573D01*
G01X3830231Y3492473D02*
G01X3963073Y3492473D01*
G01X3407982Y4356073D02*
G01X3420682Y4368773D01*
G54D63*
G01X3278137Y4508473D02*
G01X3186504Y4508473D01*
G01X3021404Y4673573D02*
G01X3186504Y4508473D01*
G54D11*
G01X3453346Y4533009D02*
G01X3428810Y4508473D01*
G01X3453346Y4533009D02*
G01X3518573Y4467782D01*
G01X3543110Y4660873D02*
G01X3428810Y4660873D01*
G01X3278137Y4660873D02*
G01X3201073Y4660873D01*
G01X3023273Y4838673D01*
G01X2870873Y4838673D01*
G01X3448876Y5191479D02*
G01X3448876Y4870271D01*
G01X3620173Y4698973D01*
G01X3620173Y3848073D01*
G01X3448876Y5191479D02*
G01X3433382Y5206973D01*
G01X2820073Y5115284D02*
G01X2820073Y5229884D01*
G01X2880784Y5054573D02*
G01X2820073Y5115284D01*
G01X4763173Y4952973D02*
G01X4382173Y5333973D01*
G01X2947073Y5229884D02*
G01X3140062Y5422873D01*
G01X4432973Y5422873D01*
G01X4852073Y3606773D02*
G01X4318673Y3606773D01*
G01X4001173Y3289273D01*
G01X4001173Y2908273D02*
G01X3950373Y2857473D01*
G01X3830231Y2857473D01*
G01X4001173Y3289273D02*
G01X4001173Y2908273D01*
G01X4877473Y3632173D02*
G01X4852073Y3606773D01*
G01X4432973Y5422873D02*
G01X4877473Y4978373D01*
G01X4877473Y3632173D01*
G01X3086773Y1338959D02*
G01X3112173Y1364359D01*
G01X3086773Y1523973D02*
G01X3086773Y1447773D01*
G01X3112173Y1422373D01*
G01X3112173Y1364359D01*
G54D70*
G01X2972872Y2971374D02*
G01X2776372Y2971374D01*
G01X2985173Y2959073D02*
G01X2972872Y2971374D01*
G54D11*
G01X3424187Y2215259D02*
G01X3529063Y2215259D01*
G01X3378873Y2298673D02*
G01X3378873Y2260573D01*
G01X3424187Y2215259D01*
G01X3442373Y2387573D02*
G01X3529063Y2300883D01*
G01X3529063Y2268269D01*
G01X3442373Y3111473D02*
G01X3283115Y3111473D01*
G01X3467773Y3251173D02*
G01X3295815Y3251173D01*
G01X3283115Y3238473D01*
G01X2261273Y4196155D02*
G01X2307195Y4196155D01*
G01X2451773Y4340733D01*
G54D69*
G01X3193352Y4914873D02*
G01X3256852Y4851373D01*
G01X3071498Y4914873D02*
G01X3193352Y4914873D01*
G54D11*
G01X3103182Y1859456D02*
G01X3103182Y1790673D01*
G01X3302673Y1730881D02*
G01X3416973Y1730881D01*
G01X3416973Y1910871D01*
G01X3416973Y1730881D02*
G01X3451365Y1730881D01*
G01X3493173Y1689073D01*
G01X3493173Y1562073D01*
G01X3505873Y1549373D01*
G54D70*
G01X2388273Y888973D02*
G01X2573261Y1073961D01*
G54D64*
G01X2388273Y888973D02*
G01X2280171Y780871D01*
G01X3226473Y2095473D02*
G01X3226473Y1477488D01*
G54D11*
G01X3091955Y2237002D02*
G01X3098076Y2230880D01*
G01X3098076Y2185872D01*
G01X2923070Y2010866D01*
G01X1275575Y1055673D02*
G01X1157973Y1055673D01*
G01X1074077Y971777D02*
G01X1074077Y925473D01*
G01X1157973Y1055673D02*
G01X1074077Y971777D01*
G01X3091955Y2539973D02*
G01X3091955Y2237002D01*
G54D68*
G01X724573Y4717173D02*
G01X1008863Y4717173D01*
G01X1021563Y4729873D01*
G01X1918373Y4724373D02*
G01X2108873Y4914873D01*
G01X1482865Y4635473D02*
G01X1482865Y4597373D01*
G54D69*
G01X1279881Y4832069D02*
G01X1511390Y4832069D01*
G54D68*
G01X1511390Y4832069D02*
G01X1543977Y4832069D01*
G54D69*
G01X1543977Y4832069D02*
G01X1651673Y4724373D01*
G01X1918373Y4724373D01*
G54D71*
G01X2108873Y4914873D02*
G01X3071498Y4914873D01*
G54D69*
G01X901179Y1696172D02*
G01X1154582Y1949575D01*
G01X1499273Y1949575D01*
G01X4154425Y2807525D02*
G01X4024827Y2677927D01*
G01X3931476Y2666973D02*
G01X4035781Y2666973D01*
G01X4024827Y2677927D02*
G01X4035781Y2666973D01*
G01X4178973Y2523781D01*
G54D11*
G01X4205440Y768577D02*
G01X4381259Y768577D01*
G01X4382173Y769491D01*
G01X4128173Y1224355D02*
G01X4621492Y1224355D01*
G01X4674273Y1171573D01*
G54D64*
G01X4102773Y896644D02*
G01X3974706Y768577D01*
G01X4102773Y1137791D02*
G01X4102773Y896644D01*
G01X4077373Y1137791D02*
G01X4102773Y1137791D01*
G01X4051973Y1163191D02*
G01X4077373Y1137791D01*
G01X4051973Y1282673D02*
G01X4051973Y1163191D01*
G54D11*
G01X3974706Y1000631D02*
G01X3974706Y958569D01*
G01X3963073Y1126565D02*
G01X3963073Y970202D01*
G01X3974706Y958569D01*
G54D64*
G01X4001173Y1333473D02*
G01X4051973Y1282673D01*
G01X4205440Y768577D02*
G01X4109936Y673073D01*
G01X3924973Y673073D01*
G01X3226473Y1477488D02*
G01X3370488Y1333473D01*
G01X3810673Y1238375D02*
G01X3810673Y1332892D01*
G01X3811254Y1333473D01*
G01X4001173Y1333473D02*
G01X3811254Y1333473D01*
G01X3370488Y1333473D01*
G01X3924973Y673073D02*
G01X3683673Y914373D01*
G01X3683673Y1155673D01*
G01X3594773Y1244573D02*
G01X3226473Y1244573D01*
G01X3683673Y1155673D02*
G01X3594773Y1244573D01*
G54D69*
G01X1047052Y5143473D02*
G01X1120768Y5069757D01*
G01X1740573Y4698973D02*
G01X1740573Y4559273D01*
G01X1543469Y4362169D02*
G01X1508963Y4362169D01*
G01X1740573Y4559273D02*
G01X1543469Y4362169D01*
G54D71*
G01X901179Y1696172D02*
G01X1257973Y1339379D01*
G54D64*
G01X1257973Y1339379D02*
G01X1257973Y1269973D01*
G01X1257973Y1339379D02*
G01X1417168Y1339379D01*
G01X1537373Y1219173D02*
G01X1537373Y1066773D01*
G01X1417168Y1339379D02*
G01X1537373Y1219173D01*
G01X1537373Y1066773D02*
G01X1605522Y998624D01*
G54D11*
G01X2400973Y698473D02*
G01X1858221Y698473D01*
G01X1605821Y950873D01*
G01X1289469Y950873D01*
G54D64*
G01X1817714Y998624D02*
G01X1605522Y998624D01*
G54D70*
G01X2045373Y770965D02*
G01X2038048Y770965D01*
G54D64*
G01X2038048Y770965D02*
G01X1817714Y991299D01*
G54D70*
G01X1817714Y991299D02*
G01X1817714Y998624D01*
G54D71*
G01X3899573Y3962373D02*
G01X4448078Y3962373D01*
G01X4471073Y3985368D01*
G54D11*
G01X1740573Y914373D02*
G01X1798892Y856055D01*
G01X1816773Y856055D01*
G01X4382173Y5333973D02*
G01X3213773Y5333973D01*
G01X2934373Y5054573D01*
G01X2880784Y5054573D01*
G01X3023273Y1587473D02*
G01X2997873Y1562073D01*
G01X2997873Y1406879D01*
G01X2069647Y3074160D02*
G02X2076374Y3071374I0J-9513D01*
G01X1613573Y2908273D02*
G02X1682318Y2922063I68745J-164463D01*
G01X838873Y3568673D02*
G03X884803Y3549648I45929J45930D01*
G01X775373Y3428973D02*
G02X541592Y3980672I534083J551699D01*
G01X864273Y3403573D02*
G02X777555Y3429362I-19549J92959D01*
G01X1927342Y2819373D02*
G03X1896682Y2806673I0J-43361D01*
G01X1200454Y3249598D02*
G02X1257973Y3225773I0J-81344D01*
G03X1322973Y3198849I65000J65000D01*
G01X1745834Y3111473D02*
G03X1715173Y3098773I0J-43361D01*
G01X1969608Y3071374D02*
G03X1943773Y3060673I0J-36536D01*
G01X1947254Y3066765D02*
G02X1916594Y3054065I-30660J30660D01*
G01X2316154Y3505173D02*
G02X2374229Y3481117I-0J-82131D01*
G01X2395721Y3459625D02*
G02X2451374Y3325267I-134358J-134358D01*
G01X2501374Y3336804D02*
G03X2426373Y3517873I-256070J0D01*
G03X2181089Y3619473I-245284J-245284D01*
G01X1296073Y3619473D02*
G02X1159343Y3599661I-136730J461908D01*
G01X1715173Y3098773D02*
G02X1702473Y3111473I3977J16677D01*
G01X2235873Y3378173D02*
G02X2251372Y3340755I-37418J-37418D01*
G01X2190310Y3403573D02*
G02X2224730Y3389316I0J-48677D01*
G01X1638973Y3149573D02*
G02X1734966Y3171374I95992J-200434D01*
G01X1702473Y3111473D02*
G02X1677711Y3095698I-33177J24756D01*
G02X1651673Y3098773I-8415J40531D01*
G01X1289360Y3048735D02*
G03X1299716Y3048059I10356J78993D01*
G01X1156651Y3099560D02*
G01X1191741Y3098883D01*
G01X1194473Y3098773D01*
G01X1181168Y3099560D02*
G02X1191741Y3098883I0J-82812D01*
G02X1239725Y3075306I-10573J-82134D01*
G03X1289360Y3048735I59991J52421D01*
G01X1924231Y2998697D02*
G03X1981873Y3022573I0J81518D01*
G01X2073479Y3022573D02*
G02X2076374Y3021374I0J-4093D01*
G01X1210266Y2920973D02*
G01X1210589Y2919751D01*
G01X1142991Y2946966D02*
G02X1210589Y2919751I-0J-97561D01*
G01X1211977Y2918391D01*
G03X1270742Y2894049I58766J58766D01*
G01X1582913Y2895573D02*
G03X1613573Y2908273I0J43361D01*
G01X1644573Y2844011D02*
G03X1677073Y2857473I0J45962D01*
G02X1707734Y2870173I30661J-30661D01*
G01X2073479Y2870173D02*
G03X2076374Y2871372I0J4093D01*
G01X1787665Y2806673D02*
G02X1757004Y2793973I-30661J30661D01*
G01X1163144Y2799510D02*
G02X1207173Y2781273I0J-62266D01*
G03X1297315Y2743935I90142J90142D01*
G01X1933252Y2743173D02*
G03X1994573Y2768573I0J86721D01*
G01X2069616Y2768573D02*
G03X2076374Y2771372I0J9557D01*
G01X2151221Y3452662D02*
G02X2172504Y3451147I0J-150240D01*
G02X2299373Y3327373I-21283J-148723D01*
G01X1617333Y3198849D02*
G03X1651673Y3213073I0J48564D01*
G01X1671713Y3221374D02*
G03X1651673Y3213073I0J-28340D01*
G01X640855Y4008632D02*
G03X838873Y3568673I587761J0D01*
G01X1638973Y2743935D02*
G03X1671473Y2730473I32500J32500D01*
G01X1709913Y2730473D02*
G03X1740573Y2743173I0J43361D01*
G01X1617333Y2693897D02*
G02X1651673Y2679673I0J-48564D01*
G01X1933252Y2679673D02*
G03X1994573Y2705073I0J86721D01*
G01X1998293Y2708793D02*
G02X2019973Y2717773I21680J-21680D01*
G01X2067685Y2717773D02*
G03X2076374Y2721372I0J12288D01*
G01X1177303Y2699485D02*
G02X1194473Y2692373I0J-24282D01*
G01X1324652Y2692373D02*
G03X1328331Y2693897I0J5203D01*
G04 Track End*

M02*

