G04 Layer: DrillDrawingLayer*
G04 EasyEDA Pro v2.2.27.1, 2024-09-30 12:04:34*
G04 Gerber Generator version 0.3*
G04 Scale: 100 percent, Rotated: No, Reflected: No*
G04 Dimensions in millimeters*
G04 Leading zeros omitted, absolute positions, 3 integers and 5 decimals*
%FSLAX35Y35*%
%MOMM*%
%AMIconRect*4,1,4,0.2,-0.2,-0.2,-0.2,-0.2,0.2,0.2,0.2,0.2,-0.2,0*4,0,4,0.166667,-0.166667,0.166667,0.166667,-0.166667,0.166667,-0.166667,-0.166667,0.166667,-0.166667,0*%
%AMIconTriangle*4,1,3,-0.242567,0.171767,0.242567,0.171767,0,-0.2706,-0.242567,0.171767,0*4,0,3,-0.189767,0.1386,0,-0.1953,0.190167,0.1386,-0.189767,0.1386,0*%
%AMIconStar6*4,1,12,0.0862,0.1492,0.213233,0.123367,0.172367,0,0.213233,-0.1229,0.0862,-0.148733,0,-0.245767,-0.085767,-0.148733,-0.213267,-0.1229,-0.171933,0,-0.213267,0.1229,-0.085767,0.1492,0,0.245767,0.0862,0.1492,0*4,0,12,-0.000333,0.195333,-0.064333,0.122667,-0.169667,0.097667,-0.138333,-0.005333,-0.169667,-0.098,-0.064333,-0.122667,-0.000333,-0.195667,0.064333,-0.122667,0.169667,-0.098,0.138667,0.005,0.169667,0.098,0.064333,0.122333,-0.000333,0.195333,0*%
%AMIconStar4*4,1,8,-0.222667,0.222667,0,0.144667,0.222667,0.222667,0.144667,0,0.222667,-0.222667,0,-0.144667,-0.217433,-0.222667,-0.144667,0,-0.222667,0.222667,0*4,0,8,0.166667,-0.166667,0.108,0,0.166667,0.166667,0,0.108,-0.166667,0.166667,-0.108,0,-0.166667,-0.166667,0,-0.108,0.166667,-0.166667,0*%
%AMIconPlus*4,1,12,0.124,-0.2,-0.124,-0.2,-0.124,-0.124,-0.2,-0.124,-0.2,0.124,-0.124,0.124,-0.124,0.2,0.124,0.2,0.124,0.124,0.2,0.124,0.2,-0.124,0.124,-0.124,0.124,-0.2,0*4,0,12,0.090667,-0.166667,0.090667,-0.090667,0.166667,-0.090667,0.166667,0.090667,0.090667,0.090667,0.090667,0.166667,-0.090667,0.166667,-0.090667,0.090667,-0.166667,0.090667,-0.166667,-0.090667,-0.090667,-0.090667,-0.090667,-0.166667,0.090667,-0.166667,0*%
%AMIconX*4,1,16,0.2,-0.2,0.054533,-0.2,0,-0.145467,-0.054533,-0.2,-0.2,-0.2,-0.2,-0.054533,-0.145467,0,-0.2,0.054533,-0.2,0.2,-0.054533,0.2,0,0.145467,0.054533,0.2,0.2,0.2,0.2,0.054533,0.145467,0,0.2,-0.054533,0.2,-0.2,0*4,0,16,0.1668,-0.1664,0.1668,-0.068467,0.097933,0.000067,0.1668,0.068467,0.1668,0.1665,0.068467,0.1665,0,0.097933,-0.068467,0.1665,-0.1668,0.1665,-0.1668,0.068467,-0.097933,0.000067,-0.1668,-0.068467,-0.1668,-0.1664,-0.068467,-0.1664,0,-0.097933,0.068467,-0.1664,0.1668,-0.1664,0*%
%AMIconDiamond*4,1,4,0,-0.26,-0.26,0,0,0.26,0.26,0,0,-0.26,0*4,0,4,0,-0.203433,0.203433,0,0,0.2036,-0.203433,0,0,-0.203433,0*%
%AMIconRect2*4,1,6,0.2,-0.2,-0.2,-0.2,-0.2,0.2,-0.1668,0.1665,-0.166667,-0.166667,0.1668,-0.166667,0.2,-0.2,0*4,1,6,0.2,-0.2,0.1668,-0.166667,0.1668,0.1665,-0.1668,0.1665,-0.2,0.2,0.2,0.2,0.2,-0.2,0*4,1,6,0.133467,-0.133333,-0.133333,-0.133333,-0.133333,0.133467,-0.1,0.100133,-0.1,-0.1,0.100133,-0.1,0.133467,-0.133333,0*4,1,6,0.133467,-0.133333,0.100133,-0.1,0.100133,0.100133,-0.1,0.100133,-0.133333,0.133467,0.133467,0.133467,0.133467,-0.133333,0*%
%AMCharA*4,1,8,-0.122067,-0.1864,-0.1532,-0.174533,-0.015133,0.1864,0.016,0.1864,0.1532,-0.174533,0.122067,-0.1864,0.0764,-0.0662,-0.076133,-0.0662,-0.122067,-0.1864,0*4,0,3,-0.063333,-0.032867,0.063667,-0.032867,0.000333,0.1338,-0.063333,-0.032867,0*%
%AMCharB*4,1,17,-0.131133,-0.1894,-0.131133,0.1894,0.033533,0.1894,0.088067,0.172467,0.1114,0.151733,0.131133,0.114133,0.131,0.066467,0.114333,0.0338,0.094733,0.0128,0.086467,0.0084,0.094733,0.003867,0.114333,-0.017133,0.131,-0.0498,0.131133,-0.114133,0.1114,-0.151733,0.088067,-0.1726,0.033533,-0.1894,-0.131133,-0.1894,0*4,0,10,-0.0978,-0.156067,0.030867,-0.156067,0.073867,-0.142,0.085867,-0.130133,0.099533,-0.1028,0.099533,-0.0614,0.085867,-0.034533,0.073867,-0.0226,0.030867,-0.008667,-0.0978,-0.008667,-0.0978,-0.156067,0*4,0,10,-0.0978,0.024667,0.0308,0.024667,0.073867,0.039267,0.085867,0.051267,0.099533,0.078067,0.099533,0.102667,0.085867,0.130133,0.073867,0.142,0.030867,0.156067,-0.0978,0.156067,-0.0978,0.024667,0*%
%AMCharC*4,1,36,-0.027533,-0.1894,-0.071933,-0.1684,-0.1084,-0.130667,-0.125333,-0.096,-0.1428,-0.041333,-0.1428,0.041333,-0.1244,0.098,-0.105267,0.135067,-0.067533,0.171667,-0.027533,0.1894,0.038533,0.1894,0.083067,0.1684,0.119467,0.130667,0.1428,0.083,0.112867,0.0684,0.090867,0.113467,0.0614,0.142933,0.034733,0.156067,-0.0236,0.156067,-0.050333,0.142933,-0.079733,0.113467,-0.094067,0.084333,-0.109467,0.0386,-0.109467,-0.0386,-0.094067,-0.084333,-0.079733,-0.113467,-0.050333,-0.142867,-0.0236,-0.156067,0.034733,-0.156067,0.0614,-0.142867,0.090867,-0.113467,0.112867,-0.0684,0.1428,-0.083,0.119467,-0.130667,0.083067,-0.1684,0.038533,-0.1894,-0.027533,-0.1894,0*%
%ADD10IconRect*%
%ADD11C,0.44X0.373333*%
%ADD12IconTriangle*%
%ADD13IconStar6*%
%ADD14IconStar4*%
%ADD15IconPlus*%
%ADD16IconX*%
%ADD17IconDiamond*%
%ADD18IconRect2*%
%ADD19CharA*%
%ADD20CharB*%
%ADD21CharC*%
G75*


G04 Drill Drawing Start*
G54D10*
G01X4763897Y3943350D03*
G01X4776597Y5245100D03*
G54D11*
G01X4674273Y956562D03*
G01X4674273Y1786563D03*
G54D12*
G01X751167Y701178D03*
G01X751167Y1991168D03*
G54D13*
G01X955500Y3874649D03*
G01X955500Y2424497D03*
G54D14*
G01X359448Y3874649D03*
G01X359448Y2424497D03*
G54D15*
G01X4674273Y1171573D03*
G01X4674273Y1371573D03*
G01X4674273Y1571573D03*
G54D16*
G01X152324Y5397676D03*
G01X152324Y4533670D03*
G01X4814722Y2628670D03*
G01X4814722Y3492676D03*
G54D17*
G01X570306Y5397676D03*
G01X570332Y4533670D03*
G01X4396715Y3492676D03*
G01X4396740Y2628670D03*
G54D18*
G01X901179Y996174D03*
G01X901179Y1246148D03*
G01X901179Y1446147D03*
G01X901179Y1696170D03*
G54D19*
G01X341873Y2798472D03*
G01X341873Y3098472D03*
G01X341873Y3398472D03*
G01X341873Y3698472D03*
G01X341873Y4260372D03*
G01X341873Y4860372D03*
G01X341873Y5160372D03*
G01X394373Y4559273D03*
G01X641873Y2460373D03*
G01X641873Y2798472D03*
G01X641873Y3098472D03*
G01X641873Y3398472D03*
G01X641873Y4260372D03*
G01X940473Y4559273D03*
G01X941873Y3698472D03*
G01X967273Y4036572D03*
G01X1257973Y3682973D03*
G01X1334173Y4559273D03*
G01X1511973Y4724373D03*
G01X1541872Y3698472D03*
G01X1727873Y3695673D03*
G01X1829473Y4571973D03*
G01X1841872Y3698472D03*
G01X2058073Y3962373D03*
G01X4841871Y2460373D03*
G54D20*
G01X813473Y4902173D03*
G01X834934Y5067273D03*
G01X851573Y3479773D03*
G01X889673Y3657573D03*
G01X940473Y2578073D03*
G01X1042073Y3670273D03*
G01X1074730Y2578073D03*
G01X1156373Y3670273D03*
G01X1156373Y4991073D03*
G01X1208987Y2578073D03*
G01X1296073Y3276573D03*
G01X1343244Y2578073D03*
G01X1346873Y3695673D03*
G01X1410373Y3276573D03*
G01X1448473Y3695673D03*
G01X1477502Y2578073D03*
G01X1531096Y3276573D03*
G01X1611759Y2578073D03*
G01X1632269Y3695673D03*
G01X1651673Y3276573D03*
G01X1677073Y2793973D03*
G01X1702473Y3111473D03*
G01X1746016Y2578073D03*
G01X1880273Y2578073D03*
G01X1905673Y1041373D03*
G01X1931073Y3949673D03*
G01X1943773Y3695673D03*
G01X1969173Y965173D03*
G01X1994573Y2539973D03*
G01X2053306Y3695673D03*
G01X2083473Y3289273D03*
G01X2096173Y1854173D03*
G01X2146973Y3695673D03*
G01X2172373Y2971773D03*
G01X2172571Y2795972D03*
G01X2248573Y1092173D03*
G01X2312073Y3721073D03*
G01X2350173Y3235573D03*
G01X2426373Y1917673D03*
G01X2426373Y2514573D03*
G01X2428580Y3744266D03*
G01X2439073Y1092173D03*
G01X2439073Y5016473D03*
G01X2566073Y5029173D03*
G01X2616873Y3759173D03*
G01X2718473Y2197073D03*
G01X2807373Y1854173D03*
G01X2870873Y1803373D03*
G01X3505873Y1549373D03*
G54D21*
G01X775373Y850873D03*
G01X1016673Y1981173D03*
G01X1130973Y2044673D03*
G01X1157973Y1003306D03*
G01X1219873Y2057373D03*
G01X1232573Y1765273D03*
G01X1370713Y4952973D03*
G01X1423073Y1206473D03*
G01X1588173Y1358873D03*
G01X1638973Y4067428D03*
G01X1740573Y914373D03*
G01X1880273Y1295373D03*
G01X1880273Y2158973D03*
G01X1943773Y5333973D03*
G01X2121573Y2527273D03*
G01X2134273Y1079473D03*
G01X2172373Y3088075D03*
G01X2182447Y1620272D03*
G01X2235873Y3682973D03*
G01X2299373Y5029173D03*
G01X2362873Y3403573D03*
G01X2388273Y888973D03*
G01X2400973Y698473D03*
G01X2413673Y1790673D03*
G01X2502573Y2679673D03*
G01X2527973Y3200373D03*
G01X2654973Y2349473D03*
G01X2820073Y3657573D03*
G01X2934373Y1727173D03*
G01X2985173Y2959073D03*
G01X3010573Y2120873D03*
G01X3023273Y1587473D03*
G01X3071498Y4914873D03*
G01X3074073Y2616173D03*
G01X3086773Y1523973D03*
G01X3099473Y952473D03*
G01X3132515Y4442413D03*
G01X3213773Y1257273D03*
G01X3226473Y2095473D03*
G01X3302673Y4190973D03*
G01X3361873Y1650973D03*
G01X3378873Y2298673D03*
G01X3404273Y3898873D03*
G01X3409873Y964996D03*
G01X3442373Y2387573D03*
G01X3442373Y3111473D03*
G01X3467773Y3251173D03*
G01X3505873Y1828773D03*
G01X3518573Y1409673D03*
G01X3569373Y5067273D03*
G01X3696373Y1955773D03*
G01X3734473Y2044673D03*
G01X3848773Y901673D03*
G01X4026573Y2158973D03*
G01X4115473Y2133573D03*
G01X4178973Y2231924D03*
G01X4204373Y4724373D03*
G01X4267873Y2108173D03*
G01X4293273Y838173D03*
G01X4293273Y4978373D03*
G01X4394873Y2451073D03*
G01X4471073Y3985368D03*
G01X4496473Y2247873D03*
G01X4585373Y4152873D03*
G01X4661573Y4203673D03*
G01X4775873Y3682973D03*
G04 Drill Drawing End*

M02*

