G04 Layer: BottomLayer*
G04 EasyEDA Pro v2.2.27.1, 2024-09-30 12:04:34*
G04 Gerber Generator version 0.3*
G04 Scale: 100 percent, Rotated: No, Reflected: No*
G04 Dimensions in millimeters*
G04 Leading zeros omitted, absolute positions, 3 integers and 5 decimals*
%FSLAX35Y35*%
%MOMM*%
%ADD10C,0.2032*%
%ADD11C,0.254*%
%ADD12O,2.70002X1.5*%
%ADD13O,3.29997X1.5*%
%ADD14O,2.79999X1.3*%
%ADD15C,1.6*%
%ADD16R,1.6067X1.6*%
%ADD17R,1.6X1.6*%
%ADD18C,1.524*%
%ADD19O,2.2X1.4*%
%ADD20O,1.6X1.0*%
%ADD21O,2.1X1.0*%
%ADD22C,0.61*%
%ADD23C,0.508*%
%ADD24C,0.5*%
%ADD25C,0.58*%
%ADD26C,1.0*%
%ADD27C,0.4*%
G75*


G04 Copper Start*
G36*
G01X35687Y649873D02*
G01X35687Y2361935D01*
G03X42569Y2353268I41186J25638D01*
G01X245769Y2150068D01*
G03X280073Y2135859I34305J34305D01*
G01X1174378Y2135859D01*
G01X1192475Y2117762D01*
G03X1168522Y2099333I27399J-60389D01*
G03X1067996Y2065444I-37549J-54659D01*
G03X1128637Y1978400I62977J-20771D01*
G01X1374559Y1732478D01*
G01X1374559Y1251683D01*
G03X1423073Y1140159I48514J-45210D01*
G03X1471587Y1251683I0J66314D01*
G01X1471587Y1737050D01*
G01X1641259Y1567378D01*
G01X1641259Y1142973D01*
G03X1655469Y1108668I48514J0D01*
G01X1998369Y765768D01*
G03X2032673Y751559I34305J34305D01*
G01X2361231Y751559D01*
G03X2335480Y688073I39742J-53086D01*
G03X2379631Y635687I65493J10400D01*
G01X1628687Y635687D01*
G01X1628687Y903473D01*
G03X1592873Y939287I-35814J0D01*
G01X1387873Y939287D01*
G03X1352059Y903473I0J-35814D01*
G01X1352059Y635687D01*
G01X902811Y635687D01*
G03X826167Y801992I-76644J65491D01*
G01X681658Y801992D01*
G01X653127Y830524D01*
G01X653127Y843644D01*
G01X764642Y955159D01*
G01X792871Y955159D01*
G03X1014593Y972717I108308J41015D01*
G03X818027Y1076787I-113414J23457D01*
G01X749763Y1076787D01*
G01X658387Y1168163D01*
G01X658387Y1887384D01*
G01X662313Y1891311D01*
G03X676167Y1890354I13854J99857D01*
G01X826167Y1890354D01*
G03X826167Y2091982I0J100814D01*
G01X676167Y2091982D01*
G03X576310Y1977314I0J-100814D01*
G01X554571Y1955576D01*
G03X536759Y1912574I43002J-43002D01*
G01X536759Y1142973D01*
G03X554571Y1099971I60814J0D01*
G01X646009Y1008534D01*
G01X549311Y911836D01*
G03X531499Y868834I43002J-43002D01*
G01X531499Y805334D01*
G03X549311Y762332I60814J0D01*
G01X580050Y731592D01*
G03X599523Y635687I96117J-30414D01*
G01X49873Y635687D01*
G02X35687Y649873I0J14186D01*
G37*
%LPC*%
G36*
G01X1016993Y1776172D02*
G03X981179Y1811986I-35814J0D01*
G01X821179Y1811986D01*
G03X785365Y1776172I0J-35814D01*
G01X785365Y1616173D01*
G03X821179Y1580359I35814J0D01*
G01X981179Y1580359D01*
G03X1016993Y1616173I0J35814D01*
G01X1016993Y1776172D01*
G37*
G36*
G01X901179Y1130347D02*
G03X959599Y1346160I0J115814D01*
G03X901179Y1561974I-58420J100000D01*
G03X842759Y1346160I0J-115814D01*
G03X901179Y1130347I58420J-100000D01*
G37*
%LPD*%
G36*
G01X42569Y4161778D02*
G03X35687Y4153111I34305J-34305D01*
G01X35687Y5439873D01*
G02X49873Y5454059I14186J0D01*
G01X57632Y5454059D01*
G03X122324Y5311862I64692J-56383D01*
G01X182324Y5311862D01*
G03X247015Y5454059I0J85814D01*
G01X450615Y5454059D01*
G03X484675Y5317515I64692J-56383D01*
G03X511957Y5184063I32646J-62841D01*
G03X559087Y5311862I5364J70612D01*
G01X625306Y5311862D01*
G03X689998Y5454059I0J85814D01*
G01X1352059Y5454059D01*
G01X1352059Y5189873D01*
G03X1387873Y5154059I35814J0D01*
G01X1592873Y5154059D01*
G03X1628687Y5189873I0J35814D01*
G01X1628687Y5454059D01*
G01X4929873Y5454059D01*
G02X4944059Y5439873I0J-14186D01*
G01X4944059Y3646896D01*
G01X4873678Y3717278D01*
G03X4839373Y3731487I-34305J-34305D01*
G01X4821083Y3731487D01*
G03X4710087Y3691325I-45210J-48514D01*
G01X4710087Y4158463D01*
G03X4692512Y4262328I-48514J45210D01*
G03X4596866Y4218184I-30938J-58655D01*
G03X4556887Y4212757I-11493J-65311D01*
G01X4556887Y5016473D01*
G03X4531753Y5077153I-85814J0D01*
G01X4430153Y5178753D01*
G03X4369473Y5203887I-60680J-60680D01*
G01X4204373Y5203887D01*
G03X4143693Y5178753I0J-85814D01*
G01X3965628Y5000687D01*
G01X3107044Y5000687D01*
G01X2916278Y5191453D01*
G03X2855598Y5216587I-60680J-60680D01*
G01X2248573Y5216587D01*
G03X2187893Y5191453I0J-85814D01*
G01X1806628Y4810187D01*
G01X1699918Y4810187D01*
G01X1623453Y4886653D01*
G03X1562773Y4911787I-60680J-60680D01*
G01X1357018Y4911787D01*
G01X1217053Y5051753D01*
G03X1095693Y4930393I-60680J-60680D01*
G01X1260793Y4765293D01*
G03X1321473Y4740159I60680J60680D01*
G01X1527228Y4740159D01*
G01X1603693Y4663693D01*
G03X1664373Y4638559I60680J60680D01*
G01X1842173Y4638559D01*
G03X1902853Y4663693I0J85814D01*
G01X2284118Y5044959D01*
G01X2385343Y5044959D01*
G03X2384925Y4988792I53730J-28486D01*
G03X2430699Y4956239I54149J27682D01*
G01X2936659Y4450278D01*
G01X2936659Y3525268D01*
G01X2773069Y3361678D01*
G03X2758859Y3327373I34305J-34305D01*
G01X2758859Y1890844D01*
G03X2753731Y1825522I48514J-36671D01*
G03X2810873Y1793460I53642J28651D01*
G03X2894863Y1747491I60001J9913D01*
G03X2919387Y1840044I-23989J55882D01*
G01X2919387Y2950721D01*
G03X2971028Y2894285I65786J8352D01*
G01X3170659Y2694654D01*
G01X3170659Y2131283D01*
G03X3226473Y2029159I55814J-35810D01*
G03X3282287Y2131283I0J66314D01*
G01X3282287Y2717773D01*
G03X3265940Y2757240I-55814J0D01*
G01X3049961Y2973218D01*
G03X2982234Y3025322I-64788J-14145D01*
G03X2919387Y2967425I2939J-66249D01*
G01X2919387Y3281878D01*
G01X3082978Y3445468D01*
G03X3097187Y3479773I-34305J34305D01*
G01X3097187Y4546573D01*
G03X3082978Y4580878I-48514J0D01*
G01X2626308Y5037548D01*
G03X2624802Y5044959I-60235J-8375D01*
G01X2820053Y5044959D01*
G01X3010819Y4854193D01*
G03X3071498Y4829059I60680J60680D01*
G01X4001173Y4829059D01*
G03X4061853Y4854193I0J85814D01*
G01X4239918Y5032259D01*
G01X4254623Y5032259D01*
G03X4244759Y4933163I38650J-53886D01*
G01X4244759Y4776971D01*
G03X4155301Y4768976I-40386J-52598D01*
G03X4155859Y4679163I49072J-44603D01*
G01X4155859Y3868168D01*
G01X4017669Y3729978D01*
G03X4003459Y3695673I34305J-34305D01*
G01X4003459Y2636268D01*
G01X3020937Y1653746D01*
G03X2956959Y1587683I2336J-66273D01*
G03X3020516Y1521216I66314J-210D01*
G03X3103039Y1459685I66257J2757D01*
G03X3146368Y1553059I-16266J64288D01*
G01X3826459Y2233150D01*
G01X3826459Y2044673D01*
G03X3851593Y1983993I85814J0D01*
G01X4025864Y1809723D01*
G01X3851328Y1635187D01*
G01X3547328Y1635187D01*
G01X3806878Y1894737D01*
G03X3821087Y1929041I-34305J34305D01*
G01X3821087Y2006573D01*
G03X3806878Y2040878I-48514J0D01*
G01X3800746Y2047009D01*
G03X3719756Y2109333I-66273J-2336D01*
G03X3673717Y2018097I14717J-64660D01*
G03X3641431Y1918640I22656J-62324D01*
G01X2787278Y1064487D01*
G01X2493219Y1064487D01*
G03X2447448Y1152408I-54146J27686D01*
G01X1317678Y2282178D01*
G03X1283373Y2296387I-34305J-34305D01*
G01X312868Y2296387D01*
G01X295411Y2313844D01*
G03X299546Y2313767I4135J110737D01*
G01X419548Y2313767D01*
G03X419548Y2535395I0J110814D01*
G01X299546Y2535395D01*
G03X201587Y2476386I0J-110814D01*
G01X201587Y3822760D01*
G03X299546Y3763751I97959J51805D01*
G01X419548Y3763751D01*
G03X419548Y3985379I0J110814D01*
G01X299546Y3985379D01*
G03X264351Y3979641I0J-110814D01*
G01X847778Y4563068D01*
G03X861987Y4597373I-34305J34305D01*
G01X861987Y4865503D01*
G03X813473Y4962987I-48514J36671D01*
G03X764959Y4865503I0J-60814D01*
G01X764959Y4617468D01*
G01X707124Y4559633D01*
G03X625331Y4619484I-81792J-25963D01*
G01X559087Y4619484D01*
G03X580340Y4708974I-41765J57188D01*
G03X495278Y4743969I-63019J-32302D01*
G01X770068Y5018759D01*
G01X798263Y5018759D01*
G03X895748Y5067273I36671J48514D01*
G03X798263Y5115787I-60814J0D01*
G01X749973Y5115787D01*
G03X715669Y5101578I0J-48514D01*
G01X271169Y4657078D01*
G03X256959Y4622773I34305J-34305D01*
G01X256959Y4576021D01*
G03X182324Y4619484I-74635J-42351D01*
G01X122324Y4619484D01*
G03X122324Y4447856I0J-85814D01*
G01X182324Y4447856D01*
G03X256959Y4491319I0J85814D01*
G01X256959Y4376168D01*
G01X42569Y4161778D01*
G37*
%LPC*%
G36*
G01X1045557Y3985379D02*
G01X865560Y3985379D01*
G03X865560Y3763751I0J-110814D01*
G01X1045557Y3763751D01*
G03X1045557Y3985379I0J110814D01*
G37*
G36*
G01X1045557Y2535395D02*
G01X865560Y2535395D01*
G03X865560Y2313767I0J-110814D01*
G01X1045557Y2313767D01*
G03X1045557Y2535395I0J110814D01*
G37*
G36*
G01X2074569Y2942578D02*
G03X2060359Y2908273I34305J-34305D01*
G01X2060359Y2687068D01*
G01X2023769Y2650478D01*
G03X2009559Y2616173I34305J-34305D01*
G01X2009559Y2146273D01*
G03X2023769Y2111968I48514J0D01*
G01X2347400Y1788337D01*
G03X2455210Y1738979I66273J2336D01*
G03X2430225Y1854888I-41537J51694D01*
G01X2329611Y1955502D01*
G01X2657309Y2283200D01*
G03X2701864Y2396364I-2336J66273D01*
G03X2588700Y2351809I-46891J-46891D01*
G01X2254923Y2018032D01*
G01X2106587Y2166368D01*
G01X2106587Y2467922D01*
G03X2182274Y2519365I14986J59351D01*
G01X2446468Y2783559D01*
G01X2451773Y2783559D01*
G03X2479459Y2792235I0J48514D01*
G01X2479459Y2741829D01*
G03X2464449Y2625413I23114J-62155D01*
G03X2568884Y2678998I38124J54260D01*
G03X2576487Y2705073I-40911J26075D01*
G01X2576487Y3155163D01*
G03X2546077Y3264168I-48514J45210D01*
G01X2854378Y3572468D01*
G03X2868587Y3606773I-34305J34305D01*
G01X2868587Y3620243D01*
G03X2822449Y3718741I-48514J37330D01*
G03X2768810Y3624119I-2376J-61168D01*
G01X2417469Y3272778D01*
G03X2403259Y3238473I34305J-34305D01*
G01X2403259Y2874727D01*
G03X2392069Y2866378I23114J-42654D01*
G01X2113665Y2587974D01*
G03X2106587Y2586624I7908J-60701D01*
G01X2106587Y2596078D01*
G01X2143178Y2632668D01*
G03X2157387Y2666973I-34305J34305D01*
G01X2157387Y2737084D01*
G03X2232806Y2787597I15184J58888D01*
G01X2270178Y2824969D01*
G03X2284387Y2859274I-34305J34305D01*
G01X2284387Y3024575D01*
G03X2270178Y3058879I-48514J0D01*
G01X2238646Y3090411D01*
G03X2220887Y3133285I-66273J-2336D01*
G01X2220887Y3192978D01*
G01X2365209Y3337300D01*
G03X2409764Y3450464I-2336J66273D01*
G03X2296600Y3405909I-46891J-46891D01*
G01X2138069Y3247378D01*
G03X2123859Y3213073I34305J-34305D01*
G01X2123859Y3133285D01*
G03X2108152Y3104603I48514J-45210D01*
G01X2030387Y3182368D01*
G01X2030387Y3240759D01*
G01X2046803Y3240759D01*
G03X2144287Y3289273I36671J48514D01*
G03X2046803Y3337787I-60814J0D01*
G01X2030387Y3337787D01*
G01X2030387Y3408878D01*
G01X2238209Y3616700D01*
G03X2282764Y3729864I-2336J66273D01*
G03X2169600Y3685309I-46891J-46891D01*
G01X1947569Y3463278D01*
G03X1933359Y3428973I34305J-34305D01*
G01X1933359Y3162273D01*
G03X1947569Y3127968I48514J0D01*
G01X2103764Y2971773D01*
G01X2074569Y2942578D01*
G37*
G36*
G01X2428580Y3805480D02*
G03X2428580Y3683052I0J-61214D01*
G01X2601966Y3683052D01*
G03X2645251Y3700981I0J61214D01*
G01X2660158Y3715888D01*
G03X2576838Y3805480I-43285J43285D01*
G01X2428580Y3805480D01*
G37*
G36*
G01X3330359Y2343883D02*
G03X3365619Y2233697I48514J-45210D01*
G03X3441219Y2321269I13254J64976D01*
G03X3490887Y2432783I1154J66304D01*
G01X3490887Y3066263D01*
G03X3449871Y3177362I-48514J45210D01*
G01X3458080Y3185571D01*
G03X3523236Y3287525I9693J65602D01*
G03X3403752Y3268461I-55463J-36352D01*
G01X3344569Y3209278D01*
G03X3330359Y3174973I34305J-34305D01*
G01X3330359Y2343883D01*
G37*
%LPD*%
G36*
G01X353987Y4356073D02*
G01X353987Y4602678D01*
G01X450025Y4698716D01*
G03X484686Y4613825I67297J-22044D01*
G03X515332Y4447856I30646J-80155D01*
G01X595347Y4447856D01*
G01X125387Y3977896D01*
G01X125387Y4107378D01*
G01X339778Y4321768D01*
G03X353987Y4356073I-34305J34305D01*
G37*
G36*
G01X2193113Y1117124D02*
G03X2194427Y1064487I55460J-24951D01*
G01X2090868Y1064487D01*
G01X2079678Y1075678D01*
G03X2045373Y1089887I-34305J-34305D01*
G01X1942344Y1089887D01*
G03X1884870Y1098518I-36671J-48514D01*
G03X1846396Y1054959I20803J-57145D01*
G01X1738287Y1163068D01*
G01X1738287Y1571950D01*
G01X2193113Y1117124D01*
G37*
G36*
G01X4102773Y751559D02*
G03X4137078Y765768I0J48514D01*
G01X4564332Y1193023D01*
G03X4649311Y1062376I109941J-21449D01*
G01X4634273Y1062376D01*
G03X4634273Y850749I0J-105814D01*
G01X4714273Y850749D01*
G03X4734488Y852698I0J105814D01*
G01X4628778Y746987D01*
G01X2446183Y746987D01*
G03X2440715Y751559I-45210J-48514D01*
G01X4102773Y751559D01*
G37*
G36*
G01X4700362Y2612945D02*
G03X4784722Y2542856I84361J15725D01*
G01X4844722Y2542856D01*
G03X4879759Y2550334I0J85814D01*
G01X4879759Y997968D01*
G01X4818138Y936347D01*
G03X4714273Y1062376I-103865J20215D01*
G01X4699235Y1062376D01*
G03X4724743Y1271573I-24962J109197D01*
G03X4724743Y1471573I-50470J100000D01*
G03X4699235Y1680770I-50470J100000D01*
G01X4714273Y1680770D01*
G03X4714273Y1892398I0J105814D01*
G01X4634273Y1892398D01*
G03X4634273Y1680770I0J-105814D01*
G01X4649311Y1680770D01*
G03X4623804Y1471573I24962J-109197D01*
G03X4568577Y1334486I50470J-100000D01*
G01X4082678Y848587D01*
G01X2926446Y848587D01*
G01X3541418Y1463559D01*
G01X3886873Y1463559D01*
G03X3947553Y1488693I0J85814D01*
G01X4328553Y1869693D01*
G03X4353687Y1930373I-60680J60680D01*
G01X4353687Y2108173D01*
G03X4182059Y2108173I-85814J0D01*
G01X4182059Y1965918D01*
G01X4147223Y1931082D01*
G01X3998087Y2080218D01*
G01X3998087Y2099089D01*
G03X4057962Y2100558I28486J59884D01*
G03X4154843Y2080211I57511J33015D01*
G03X4163987Y2178783I-39370J53362D01*
G01X4163987Y2265878D01*
G01X4331078Y2432969D01*
G03X4392537Y2384800I63795J18104D01*
G01X4447959Y2329378D01*
G01X4447959Y2293083D01*
G03X4496473Y2181559I48514J-45210D01*
G03X4544987Y2293083I0J66314D01*
G01X4544987Y2349473D01*
G03X4530778Y2383778I-48514J0D01*
G01X4461146Y2453409D01*
G03X4459472Y2466059I-66273J-2336D01*
G01X4534063Y2466059D01*
G03X4568367Y2480268I0J48514D01*
G01X4695878Y2607779D01*
G03X4700362Y2612945I-34305J34305D01*
G37*
G36*
G01X4302887Y3416149D02*
G03X4341715Y3406862I38828J76527D01*
G01X4407959Y3406862D01*
G03X4455095Y3279063I41765J-57188D01*
G03X4482360Y3412521I-5370J70611D01*
G03X4536859Y3481980I-30646J80155D01*
G01X4536859Y2639567D01*
G03X4482371Y2708831I-85119J-10897D01*
G03X4455089Y2842284I-32646J62841D01*
G03X4407959Y2714484I-5364J-70612D01*
G01X4341740Y2714484D01*
G03X4302887Y2705184I0J-85814D01*
G01X4302887Y3416149D01*
G37*
G36*
G01X4531753Y3787393D02*
G03X4536859Y3792971I-60680J60680D01*
G01X4536859Y3503373D01*
G03X4451714Y3578490I-85145J-10697D01*
G01X4341715Y3578490D01*
G03X4320077Y3575717I0J-85814D01*
G01X4531753Y3787393D01*
G37*
G36*
G01X4710087Y3450325D02*
G03X4784722Y3406862I74635J42351D01*
G01X4844722Y3406862D01*
G03X4879759Y3414341I0J85814D01*
G01X4879759Y2707005D01*
G03X4844722Y2714484I-35037J-78336D01*
G01X4784722Y2714484D01*
G03X4710087Y2671021I0J-85814D01*
G01X4710087Y3450325D01*
G37*
G36*
G01X4879759Y3571012D02*
G03X4844722Y3578490I-35037J-78336D01*
G01X4784722Y3578490D01*
G03X4710087Y3535027I0J-85814D01*
G01X4710087Y3674621D01*
G03X4820140Y3633597I65786J8352D01*
G01X4879759Y3573978D01*
G01X4879759Y3571012D01*
G37*
G54D10*
G01X35687Y649873D02*
G01X35687Y2361935D01*
G03X42569Y2353268I41186J25638D01*
G01X245769Y2150068D01*
G03X280073Y2135859I34305J34305D01*
G01X1174378Y2135859D01*
G01X1192475Y2117762D01*
G03X1168522Y2099333I27399J-60389D01*
G03X1067996Y2065444I-37549J-54659D01*
G03X1128637Y1978400I62977J-20771D01*
G01X1374559Y1732478D01*
G01X1374559Y1251683D01*
G03X1423073Y1140159I48514J-45210D01*
G03X1471587Y1251683I0J66314D01*
G01X1471587Y1737050D01*
G01X1641259Y1567378D01*
G01X1641259Y1142973D01*
G03X1655469Y1108668I48514J0D01*
G01X1998369Y765768D01*
G03X2032673Y751559I34305J34305D01*
G01X2361231Y751559D01*
G03X2335480Y688073I39742J-53086D01*
G03X2379631Y635687I65493J10400D01*
G01X1628687Y635687D01*
G01X1628687Y903473D01*
G03X1592873Y939287I-35814J0D01*
G01X1387873Y939287D01*
G03X1352059Y903473I0J-35814D01*
G01X1352059Y635687D01*
G01X902811Y635687D01*
G03X826167Y801992I-76644J65491D01*
G01X681658Y801992D01*
G01X653127Y830524D01*
G01X653127Y843644D01*
G01X764642Y955159D01*
G01X792871Y955159D01*
G03X1014593Y972717I108308J41015D01*
G03X818027Y1076787I-113414J23457D01*
G01X749763Y1076787D01*
G01X658387Y1168163D01*
G01X658387Y1887384D01*
G01X662313Y1891311D01*
G03X676167Y1890354I13854J99857D01*
G01X826167Y1890354D01*
G03X826167Y2091982I0J100814D01*
G01X676167Y2091982D01*
G03X576310Y1977314I0J-100814D01*
G01X554571Y1955576D01*
G03X536759Y1912574I43002J-43002D01*
G01X536759Y1142973D01*
G03X554571Y1099971I60814J0D01*
G01X646009Y1008534D01*
G01X549311Y911836D01*
G03X531499Y868834I43002J-43002D01*
G01X531499Y805334D01*
G03X549311Y762332I60814J0D01*
G01X580050Y731592D01*
G03X599523Y635687I96117J-30414D01*
G01X49873Y635687D01*
G02X35687Y649873I0J14186D01*
G01X1016993Y1776172D02*
G03X981179Y1811986I-35814J0D01*
G01X821179Y1811986D01*
G03X785365Y1776172I0J-35814D01*
G01X785365Y1616173D01*
G03X821179Y1580359I35814J0D01*
G01X981179Y1580359D01*
G03X1016993Y1616173I0J35814D01*
G01X1016993Y1776172D01*
G01X901179Y1130347D02*
G03X959599Y1346160I0J115814D01*
G03X901179Y1561974I-58420J100000D01*
G03X842759Y1346160I0J-115814D01*
G03X901179Y1130347I58420J-100000D01*
G01X42569Y4161778D02*
G03X35687Y4153111I34305J-34305D01*
G01X35687Y5439873D01*
G02X49873Y5454059I14186J0D01*
G01X57632Y5454059D01*
G03X122324Y5311862I64692J-56383D01*
G01X182324Y5311862D01*
G03X247015Y5454059I0J85814D01*
G01X450615Y5454059D01*
G03X484675Y5317515I64692J-56383D01*
G03X511957Y5184063I32646J-62841D01*
G03X559087Y5311862I5364J70612D01*
G01X625306Y5311862D01*
G03X689998Y5454059I0J85814D01*
G01X1352059Y5454059D01*
G01X1352059Y5189873D01*
G03X1387873Y5154059I35814J0D01*
G01X1592873Y5154059D01*
G03X1628687Y5189873I0J35814D01*
G01X1628687Y5454059D01*
G01X4929873Y5454059D01*
G02X4944059Y5439873I0J-14186D01*
G01X4944059Y3646896D01*
G01X4873678Y3717278D01*
G03X4839373Y3731487I-34305J-34305D01*
G01X4821083Y3731487D01*
G03X4710087Y3691325I-45210J-48514D01*
G01X4710087Y4158463D01*
G03X4692512Y4262328I-48514J45210D01*
G03X4596866Y4218184I-30938J-58655D01*
G03X4556887Y4212757I-11493J-65311D01*
G01X4556887Y5016473D01*
G03X4531753Y5077153I-85814J0D01*
G01X4430153Y5178753D01*
G03X4369473Y5203887I-60680J-60680D01*
G01X4204373Y5203887D01*
G03X4143693Y5178753I0J-85814D01*
G01X3965628Y5000687D01*
G01X3107044Y5000687D01*
G01X2916278Y5191453D01*
G03X2855598Y5216587I-60680J-60680D01*
G01X2248573Y5216587D01*
G03X2187893Y5191453I0J-85814D01*
G01X1806628Y4810187D01*
G01X1699918Y4810187D01*
G01X1623453Y4886653D01*
G03X1562773Y4911787I-60680J-60680D01*
G01X1357018Y4911787D01*
G01X1217053Y5051753D01*
G03X1095693Y4930393I-60680J-60680D01*
G01X1260793Y4765293D01*
G03X1321473Y4740159I60680J60680D01*
G01X1527228Y4740159D01*
G01X1603693Y4663693D01*
G03X1664373Y4638559I60680J60680D01*
G01X1842173Y4638559D01*
G03X1902853Y4663693I0J85814D01*
G01X2284118Y5044959D01*
G01X2385343Y5044959D01*
G03X2384925Y4988792I53730J-28486D01*
G03X2430699Y4956239I54149J27682D01*
G01X2936659Y4450278D01*
G01X2936659Y3525268D01*
G01X2773069Y3361678D01*
G03X2758859Y3327373I34305J-34305D01*
G01X2758859Y1890844D01*
G03X2753731Y1825522I48514J-36671D01*
G03X2810873Y1793460I53642J28651D01*
G03X2894863Y1747491I60001J9913D01*
G03X2919387Y1840044I-23989J55882D01*
G01X2919387Y2950721D01*
G03X2971028Y2894285I65786J8352D01*
G01X3170659Y2694654D01*
G01X3170659Y2131283D01*
G03X3226473Y2029159I55814J-35810D01*
G03X3282287Y2131283I0J66314D01*
G01X3282287Y2717773D01*
G03X3265940Y2757240I-55814J0D01*
G01X3049961Y2973218D01*
G03X2982234Y3025322I-64788J-14145D01*
G03X2919387Y2967425I2939J-66249D01*
G01X2919387Y3281878D01*
G01X3082978Y3445468D01*
G03X3097187Y3479773I-34305J34305D01*
G01X3097187Y4546573D01*
G03X3082978Y4580878I-48514J0D01*
G01X2626308Y5037548D01*
G03X2624802Y5044959I-60235J-8375D01*
G01X2820053Y5044959D01*
G01X3010819Y4854193D01*
G03X3071498Y4829059I60680J60680D01*
G01X4001173Y4829059D01*
G03X4061853Y4854193I0J85814D01*
G01X4239918Y5032259D01*
G01X4254623Y5032259D01*
G03X4244759Y4933163I38650J-53886D01*
G01X4244759Y4776971D01*
G03X4155301Y4768976I-40386J-52598D01*
G03X4155859Y4679163I49072J-44603D01*
G01X4155859Y3868168D01*
G01X4017669Y3729978D01*
G03X4003459Y3695673I34305J-34305D01*
G01X4003459Y2636268D01*
G01X3020937Y1653746D01*
G03X2956959Y1587683I2336J-66273D01*
G03X3020516Y1521216I66314J-210D01*
G03X3103039Y1459685I66257J2757D01*
G03X3146368Y1553059I-16266J64288D01*
G01X3826459Y2233150D01*
G01X3826459Y2044673D01*
G03X3851593Y1983993I85814J0D01*
G01X4025864Y1809723D01*
G01X3851328Y1635187D01*
G01X3547328Y1635187D01*
G01X3806878Y1894737D01*
G03X3821087Y1929041I-34305J34305D01*
G01X3821087Y2006573D01*
G03X3806878Y2040878I-48514J0D01*
G01X3800746Y2047009D01*
G03X3719756Y2109333I-66273J-2336D01*
G03X3673717Y2018097I14717J-64660D01*
G03X3641431Y1918640I22656J-62324D01*
G01X2787278Y1064487D01*
G01X2493219Y1064487D01*
G03X2447448Y1152408I-54146J27686D01*
G01X1317678Y2282178D01*
G03X1283373Y2296387I-34305J-34305D01*
G01X312868Y2296387D01*
G01X295411Y2313844D01*
G03X299546Y2313767I4135J110737D01*
G01X419548Y2313767D01*
G03X419548Y2535395I0J110814D01*
G01X299546Y2535395D01*
G03X201587Y2476386I0J-110814D01*
G01X201587Y3822760D01*
G03X299546Y3763751I97959J51805D01*
G01X419548Y3763751D01*
G03X419548Y3985379I0J110814D01*
G01X299546Y3985379D01*
G03X264351Y3979641I0J-110814D01*
G01X847778Y4563068D01*
G03X861987Y4597373I-34305J34305D01*
G01X861987Y4865503D01*
G03X813473Y4962987I-48514J36671D01*
G03X764959Y4865503I0J-60814D01*
G01X764959Y4617468D01*
G01X707124Y4559633D01*
G03X625331Y4619484I-81792J-25963D01*
G01X559087Y4619484D01*
G03X580340Y4708974I-41765J57188D01*
G03X495278Y4743969I-63019J-32302D01*
G01X770068Y5018759D01*
G01X798263Y5018759D01*
G03X895748Y5067273I36671J48514D01*
G03X798263Y5115787I-60814J0D01*
G01X749973Y5115787D01*
G03X715669Y5101578I0J-48514D01*
G01X271169Y4657078D01*
G03X256959Y4622773I34305J-34305D01*
G01X256959Y4576021D01*
G03X182324Y4619484I-74635J-42351D01*
G01X122324Y4619484D01*
G03X122324Y4447856I0J-85814D01*
G01X182324Y4447856D01*
G03X256959Y4491319I0J85814D01*
G01X256959Y4376168D01*
G01X42569Y4161778D01*
G01X1045557Y3985379D02*
G01X865560Y3985379D01*
G03X865560Y3763751I0J-110814D01*
G01X1045557Y3763751D01*
G03X1045557Y3985379I0J110814D01*
G01X1045557Y2535395D02*
G01X865560Y2535395D01*
G03X865560Y2313767I0J-110814D01*
G01X1045557Y2313767D01*
G03X1045557Y2535395I0J110814D01*
G01X2074569Y2942578D02*
G03X2060359Y2908273I34305J-34305D01*
G01X2060359Y2687068D01*
G01X2023769Y2650478D01*
G03X2009559Y2616173I34305J-34305D01*
G01X2009559Y2146273D01*
G03X2023769Y2111968I48514J0D01*
G01X2347400Y1788337D01*
G03X2455210Y1738979I66273J2336D01*
G03X2430225Y1854888I-41537J51694D01*
G01X2329611Y1955502D01*
G01X2657309Y2283200D01*
G03X2701864Y2396364I-2336J66273D01*
G03X2588700Y2351809I-46891J-46891D01*
G01X2254923Y2018032D01*
G01X2106587Y2166368D01*
G01X2106587Y2467922D01*
G03X2182274Y2519365I14986J59351D01*
G01X2446468Y2783559D01*
G01X2451773Y2783559D01*
G03X2479459Y2792235I0J48514D01*
G01X2479459Y2741829D01*
G03X2464449Y2625413I23114J-62155D01*
G03X2568884Y2678998I38124J54260D01*
G03X2576487Y2705073I-40911J26075D01*
G01X2576487Y3155163D01*
G03X2546077Y3264168I-48514J45210D01*
G01X2854378Y3572468D01*
G03X2868587Y3606773I-34305J34305D01*
G01X2868587Y3620243D01*
G03X2822449Y3718741I-48514J37330D01*
G03X2768810Y3624119I-2376J-61168D01*
G01X2417469Y3272778D01*
G03X2403259Y3238473I34305J-34305D01*
G01X2403259Y2874727D01*
G03X2392069Y2866378I23114J-42654D01*
G01X2113665Y2587974D01*
G03X2106587Y2586624I7908J-60701D01*
G01X2106587Y2596078D01*
G01X2143178Y2632668D01*
G03X2157387Y2666973I-34305J34305D01*
G01X2157387Y2737084D01*
G03X2232806Y2787597I15184J58888D01*
G01X2270178Y2824969D01*
G03X2284387Y2859274I-34305J34305D01*
G01X2284387Y3024575D01*
G03X2270178Y3058879I-48514J0D01*
G01X2238646Y3090411D01*
G03X2220887Y3133285I-66273J-2336D01*
G01X2220887Y3192978D01*
G01X2365209Y3337300D01*
G03X2409764Y3450464I-2336J66273D01*
G03X2296600Y3405909I-46891J-46891D01*
G01X2138069Y3247378D01*
G03X2123859Y3213073I34305J-34305D01*
G01X2123859Y3133285D01*
G03X2108152Y3104603I48514J-45210D01*
G01X2030387Y3182368D01*
G01X2030387Y3240759D01*
G01X2046803Y3240759D01*
G03X2144287Y3289273I36671J48514D01*
G03X2046803Y3337787I-60814J0D01*
G01X2030387Y3337787D01*
G01X2030387Y3408878D01*
G01X2238209Y3616700D01*
G03X2282764Y3729864I-2336J66273D01*
G03X2169600Y3685309I-46891J-46891D01*
G01X1947569Y3463278D01*
G03X1933359Y3428973I34305J-34305D01*
G01X1933359Y3162273D01*
G03X1947569Y3127968I48514J0D01*
G01X2103764Y2971773D01*
G01X2074569Y2942578D01*
G01X2428580Y3805480D02*
G03X2428580Y3683052I0J-61214D01*
G01X2601966Y3683052D01*
G03X2645251Y3700981I0J61214D01*
G01X2660158Y3715888D01*
G03X2576838Y3805480I-43285J43285D01*
G01X2428580Y3805480D01*
G01X3330359Y2343883D02*
G03X3365619Y2233697I48514J-45210D01*
G03X3441219Y2321269I13254J64976D01*
G03X3490887Y2432783I1154J66304D01*
G01X3490887Y3066263D01*
G03X3449871Y3177362I-48514J45210D01*
G01X3458080Y3185571D01*
G03X3523236Y3287525I9693J65602D01*
G03X3403752Y3268461I-55463J-36352D01*
G01X3344569Y3209278D01*
G03X3330359Y3174973I34305J-34305D01*
G01X3330359Y2343883D01*
G01X353987Y4356073D02*
G01X353987Y4602678D01*
G01X450025Y4698716D01*
G03X484686Y4613825I67297J-22044D01*
G03X515332Y4447856I30646J-80155D01*
G01X595347Y4447856D01*
G01X125387Y3977896D01*
G01X125387Y4107378D01*
G01X339778Y4321768D01*
G03X353987Y4356073I-34305J34305D01*
G01X2193113Y1117124D02*
G03X2194427Y1064487I55460J-24951D01*
G01X2090868Y1064487D01*
G01X2079678Y1075678D01*
G03X2045373Y1089887I-34305J-34305D01*
G01X1942344Y1089887D01*
G03X1884870Y1098518I-36671J-48514D01*
G03X1846396Y1054959I20803J-57145D01*
G01X1738287Y1163068D01*
G01X1738287Y1571950D01*
G01X2193113Y1117124D01*
G01X4102773Y751559D02*
G03X4137078Y765768I0J48514D01*
G01X4564332Y1193023D01*
G03X4649311Y1062376I109941J-21449D01*
G01X4634273Y1062376D01*
G03X4634273Y850749I0J-105814D01*
G01X4714273Y850749D01*
G03X4734488Y852698I0J105814D01*
G01X4628778Y746987D01*
G01X2446183Y746987D01*
G03X2440715Y751559I-45210J-48514D01*
G01X4102773Y751559D01*
G01X4700362Y2612945D02*
G03X4784722Y2542856I84361J15725D01*
G01X4844722Y2542856D01*
G03X4879759Y2550334I0J85814D01*
G01X4879759Y997968D01*
G01X4818138Y936347D01*
G03X4714273Y1062376I-103865J20215D01*
G01X4699235Y1062376D01*
G03X4724743Y1271573I-24962J109197D01*
G03X4724743Y1471573I-50470J100000D01*
G03X4699235Y1680770I-50470J100000D01*
G01X4714273Y1680770D01*
G03X4714273Y1892398I0J105814D01*
G01X4634273Y1892398D01*
G03X4634273Y1680770I0J-105814D01*
G01X4649311Y1680770D01*
G03X4623804Y1471573I24962J-109197D01*
G03X4568577Y1334486I50470J-100000D01*
G01X4082678Y848587D01*
G01X2926446Y848587D01*
G01X3541418Y1463559D01*
G01X3886873Y1463559D01*
G03X3947553Y1488693I0J85814D01*
G01X4328553Y1869693D01*
G03X4353687Y1930373I-60680J60680D01*
G01X4353687Y2108173D01*
G03X4182059Y2108173I-85814J0D01*
G01X4182059Y1965918D01*
G01X4147223Y1931082D01*
G01X3998087Y2080218D01*
G01X3998087Y2099089D01*
G03X4057962Y2100558I28486J59884D01*
G03X4154843Y2080211I57511J33015D01*
G03X4163987Y2178783I-39370J53362D01*
G01X4163987Y2265878D01*
G01X4331078Y2432969D01*
G03X4392537Y2384800I63795J18104D01*
G01X4447959Y2329378D01*
G01X4447959Y2293083D01*
G03X4496473Y2181559I48514J-45210D01*
G03X4544987Y2293083I0J66314D01*
G01X4544987Y2349473D01*
G03X4530778Y2383778I-48514J0D01*
G01X4461146Y2453409D01*
G03X4459472Y2466059I-66273J-2336D01*
G01X4534063Y2466059D01*
G03X4568367Y2480268I0J48514D01*
G01X4695878Y2607779D01*
G03X4700362Y2612945I-34305J34305D01*
G01X4302887Y3416149D02*
G03X4341715Y3406862I38828J76527D01*
G01X4407959Y3406862D01*
G03X4455095Y3279063I41765J-57188D01*
G03X4482360Y3412521I-5370J70611D01*
G03X4536859Y3481980I-30646J80155D01*
G01X4536859Y2639567D01*
G03X4482371Y2708831I-85119J-10897D01*
G03X4455089Y2842284I-32646J62841D01*
G03X4407959Y2714484I-5364J-70612D01*
G01X4341740Y2714484D01*
G03X4302887Y2705184I0J-85814D01*
G01X4302887Y3416149D01*
G01X4531753Y3787393D02*
G03X4536859Y3792971I-60680J60680D01*
G01X4536859Y3503373D01*
G03X4451714Y3578490I-85145J-10697D01*
G01X4341715Y3578490D01*
G03X4320077Y3575717I0J-85814D01*
G01X4531753Y3787393D01*
G01X4710087Y3450325D02*
G03X4784722Y3406862I74635J42351D01*
G01X4844722Y3406862D01*
G03X4879759Y3414341I0J85814D01*
G01X4879759Y2707005D01*
G03X4844722Y2714484I-35037J-78336D01*
G01X4784722Y2714484D01*
G03X4710087Y2671021I0J-85814D01*
G01X4710087Y3450325D01*
G01X4879759Y3571012D02*
G03X4844722Y3578490I-35037J-78336D01*
G01X4784722Y3578490D01*
G03X4710087Y3535027I0J-85814D01*
G01X4710087Y3674621D01*
G03X4820140Y3633597I65786J8352D01*
G01X4879759Y3573978D01*
G01X4879759Y3571012D01*
G54D11*
G01X570332Y4583416D02*
G01X570332Y4609324D01*
G01X570332Y4483924D02*
G01X570332Y4458016D01*
G01X465586Y4533670D02*
G01X439678Y4533670D01*
G01X152324Y4583416D02*
G01X152324Y4609324D01*
G01X152324Y4483924D02*
G01X152324Y4458016D01*
G01X72578Y4533670D02*
G01X46670Y4533670D01*
G01X955558Y2499327D02*
G01X955558Y2525235D01*
G01X955558Y2349835D02*
G01X955558Y2323927D01*
G01X1120303Y2424581D02*
G01X1146211Y2424581D01*
G01X790814Y2424581D02*
G01X764906Y2424581D01*
G01X359547Y2499327D02*
G01X359547Y2525235D01*
G01X359547Y2349835D02*
G01X359547Y2323927D01*
G01X494294Y2424581D02*
G01X520202Y2424581D01*
G01X570306Y5347930D02*
G01X570306Y5322022D01*
G01X675052Y5397676D02*
G01X700960Y5397676D01*
G01X465560Y5397676D02*
G01X439652Y5397676D01*
G01X152324Y5347930D02*
G01X152324Y5322022D01*
G01X232070Y5397676D02*
G01X257978Y5397676D01*
G01X72578Y5397676D02*
G01X46670Y5397676D01*
G01X359547Y3949311D02*
G01X359547Y3975219D01*
G01X359547Y3799819D02*
G01X359547Y3773911D01*
G01X494294Y3874565D02*
G01X520202Y3874565D01*
G01X955558Y3949311D02*
G01X955558Y3975219D01*
G01X955558Y3799819D02*
G01X955558Y3773911D01*
G01X1120303Y3874565D02*
G01X1146211Y3874565D01*
G01X790814Y3874565D02*
G01X764906Y3874565D01*
G01X4396715Y3442930D02*
G01X4396715Y3417022D01*
G01X4396715Y3542422D02*
G01X4396715Y3568330D01*
G01X4396740Y2678416D02*
G01X4396740Y2704324D01*
G01X4674273Y886817D02*
G01X4674273Y860909D01*
G01X4564527Y956562D02*
G01X4538619Y956562D01*
G01X4784019Y956562D02*
G01X4809927Y956562D01*
G01X4674273Y1856330D02*
G01X4674273Y1882238D01*
G01X4564527Y1786584D02*
G01X4538619Y1786584D01*
G01X4784019Y1786584D02*
G01X4809927Y1786584D01*
G01X4814722Y2578924D02*
G01X4814722Y2553016D01*
G01X4814722Y2678416D02*
G01X4814722Y2704324D01*
G01X4814722Y3442930D02*
G01X4814722Y3417022D01*
G01X4814722Y3542422D02*
G01X4814722Y3568330D01*
G04 Copper End*

G04 Pad Start*
G54D12*
G01X359547Y2424581D03*
G01X359547Y3874565D03*
G54D13*
G01X955558Y2424581D03*
G01X955558Y3874565D03*
G54D14*
G01X751167Y701178D03*
G01X751167Y1991168D03*
G54D15*
G01X901179Y996174D03*
G01X901179Y1246161D03*
G01X901179Y1446160D03*
G54D17*
G01X901179Y1696172D03*
G54D18*
G01X4674273Y1171573D03*
G01X4674273Y1371573D03*
G01X4674273Y1571573D03*
G54D19*
G01X4674273Y1786584D03*
G01X4674273Y956562D03*
G54D20*
G01X152324Y5397676D03*
G01X152324Y4533670D03*
G54D21*
G01X570332Y4533670D03*
G01X570306Y5397676D03*
G54D20*
G01X4814722Y2628670D03*
G01X4814722Y3492676D03*
G54D21*
G01X4396715Y3492676D03*
G01X4396740Y2628670D03*
G04 Pad End*

G04 Via Start*
G54D22*
G01X3734473Y2044673D03*
G01X3696373Y1955773D03*
G01X2362873Y3403573D03*
G01X2172373Y3088075D03*
G01X2502573Y2679673D03*
G01X2527973Y3200373D03*
G01X2654973Y2349473D03*
G01X2413673Y1790673D03*
G01X2235873Y3682973D03*
G54D23*
G01X2820073Y3657573D03*
G01X2121573Y2527273D03*
G54D24*
G01X2083473Y3289273D03*
G01X2172373Y2971773D03*
G01X2172571Y2795972D03*
G01X2616873Y3759173D03*
G01X2428580Y3744266D03*
G54D22*
G01X341873Y2798472D03*
G01X341873Y3098472D03*
G01X341873Y3398472D03*
G01X341873Y3698472D03*
G01X341873Y4260372D03*
G01X394373Y4559273D03*
G01X341873Y4860372D03*
G01X341873Y5160372D03*
G01X641873Y2460373D03*
G01X641873Y2798472D03*
G01X641873Y3098472D03*
G01X641873Y3398472D03*
G01X641873Y4260372D03*
G01X941873Y3698472D03*
G01X967273Y4036572D03*
G01X940473Y4559273D03*
G01X1257973Y3682973D03*
G01X1334173Y4559273D03*
G01X1541872Y3698472D03*
G01X1841872Y3698472D03*
G01X1829473Y4571973D03*
G01X1511973Y4724373D03*
G01X2058073Y3962373D03*
G01X4841871Y2460373D03*
G54D24*
G01X1296073Y3276573D03*
G01X1410373Y3276573D03*
G01X1531096Y3276573D03*
G01X1651673Y3276573D03*
G01X1346873Y3695673D03*
G01X1448473Y3695673D03*
G01X1156373Y3670273D03*
G01X1042073Y3670273D03*
G01X889673Y3657573D03*
G01X940473Y2578073D03*
G01X1074730Y2578073D03*
G01X1208987Y2578073D03*
G01X1343244Y2578073D03*
G01X1477502Y2578073D03*
G01X1880273Y2578073D03*
G01X1994573Y2539973D03*
G01X2350173Y3235573D03*
G01X851573Y3479773D03*
G01X1943773Y3695673D03*
G01X2053306Y3695673D03*
G01X2146973Y3695673D03*
G01X1632269Y3695673D03*
G01X1702473Y3111473D03*
G01X1677073Y2793973D03*
G01X2312073Y3721073D03*
G01X1931073Y3949673D03*
G01X1611759Y2578073D03*
G01X1746016Y2578073D03*
G01X2426373Y1917673D03*
G01X2439073Y1092173D03*
G01X2248573Y1092173D03*
G01X2807373Y1854173D03*
G01X2870873Y1803373D03*
G01X1905673Y1041373D03*
G01X1969173Y965173D03*
G01X3505873Y1549373D03*
G01X2426373Y2514573D03*
G01X2439073Y5016473D03*
G01X2566073Y5029173D03*
G01X834934Y5067273D03*
G01X813473Y4902173D03*
G01X1156373Y4991073D03*
G01X2096173Y1854173D03*
G01X2718473Y2197073D03*
G54D22*
G01X1727873Y3695673D03*
G01X1638973Y4067428D03*
G01X1219873Y2057373D03*
G01X1130973Y2044673D03*
G01X1423073Y1206473D03*
G01X1232573Y1765273D03*
G01X1016673Y1981173D03*
G01X2182447Y1620272D03*
G01X3023273Y1587473D03*
G01X3086773Y1523973D03*
G01X4267873Y2108173D03*
G01X4204373Y4724373D03*
G01X4293273Y4978373D03*
G01X2400973Y698473D03*
G01X4775873Y3682973D03*
G01X4026573Y2158973D03*
G01X4115473Y2133573D03*
G01X4661573Y4203673D03*
G01X4585373Y4152873D03*
G01X4394873Y2451073D03*
G01X4496473Y2247873D03*
G01X2985173Y2959073D03*
G01X3442373Y2387573D03*
G01X3378873Y2298673D03*
G01X3442373Y3111473D03*
G01X3467773Y3251173D03*
G01X3071498Y4914873D03*
G01X3226473Y2095473D03*
G01X2388273Y888973D03*
G01X3302673Y4190973D03*
G01X3132515Y4442413D03*
G01X1943773Y5333973D03*
G01X2299373Y5029173D03*
G01X1370713Y4952973D03*
G01X3518573Y1409673D03*
G01X3074073Y2616173D03*
G01X3010573Y2120873D03*
G01X2934373Y1727173D03*
G01X775373Y850873D03*
G01X1157973Y1003306D03*
G01X1880273Y2158973D03*
G01X3505873Y1828773D03*
G54D25*
G01X3361873Y1650973D03*
G54D22*
G01X3404273Y3898873D03*
G01X3409873Y964996D03*
G01X4293273Y838173D03*
G01X4178973Y2231924D03*
G01X3099473Y952473D03*
G01X3569373Y5067273D03*
G01X3213773Y1257273D03*
G01X4471073Y3985368D03*
G01X1740573Y914373D03*
G01X2134273Y1079473D03*
G01X1880273Y1295373D03*
G01X1588173Y1358873D03*
G01X3848773Y901673D03*
G54D26*
G01X4763897Y3943350D03*
G01X4776597Y5245100D03*
G04 Via End*

G04 Track Start*
G54D11*
G01X1981873Y3428973D02*
G01X2235873Y3682973D01*
G01X2527973Y2705073D02*
G01X2527973Y3200373D01*
G01X2502573Y2679673D02*
G01X2527973Y2705073D01*
G01X2083473Y3289273D02*
G01X1984097Y3289273D01*
G01X1981873Y3287050D01*
G01X1981873Y3428973D01*
G01X1981873Y3287050D02*
G01X1981873Y3162273D01*
G01X2172373Y2971773D01*
G01X2172373Y3088075D02*
G01X2235873Y3024575D01*
G01X2235873Y2859274D02*
G01X2172571Y2795972D01*
G01X2235873Y3024575D02*
G01X2235873Y2859274D01*
G54D23*
G01X2616873Y3759173D02*
G01X2601966Y3744266D01*
G01X2428580Y3744266D01*
G54D11*
G01X2121573Y2527273D02*
G01X2426373Y2832073D01*
G01X2820073Y3606773D02*
G01X2451773Y3238473D01*
G01X2172373Y3213073D02*
G01X2172373Y3088075D01*
G01X2362873Y3403573D02*
G01X2172373Y3213073D01*
G01X2172373Y2971773D02*
G01X2108873Y2908273D01*
G01X2108873Y2666973D01*
G01X2058073Y2616173D01*
G01X2820073Y3657573D02*
G01X2820073Y3606773D01*
G01X2451773Y2844773D02*
G01X2451773Y3238473D01*
G01X2439073Y5016473D02*
G01X2985173Y4470373D01*
G01X2985173Y3505173D01*
G01X2058073Y2146273D02*
G01X2058073Y2616173D01*
G01X2808705Y965173D02*
G01X3772573Y1929041D01*
G01X1969173Y965173D02*
G01X2808705Y965173D01*
G01X2261002Y1955502D02*
G01X2654973Y2349473D01*
G01X2870873Y1803373D02*
G01X2870873Y3301973D01*
G01X3048673Y3479773D01*
G01X3048673Y4546573D02*
G01X3048673Y3479773D01*
G01X2566073Y5029173D02*
G01X3048673Y4546573D01*
G01X2807373Y3327373D02*
G01X2985173Y3505173D01*
G01X2807373Y1854173D02*
G01X2807373Y3327373D01*
G01X2413673Y1790673D02*
G01X2058073Y2146273D01*
G01X2413673Y1790673D02*
G01X2425831Y1790673D01*
G01X2261002Y1955502D01*
G01X280073Y2184373D02*
G01X76873Y2387573D01*
G01X813473Y4597373D02*
G01X813473Y4902173D01*
G01X153073Y2387573D02*
G01X153073Y3936973D01*
G01X292773Y2247873D02*
G01X153073Y2387573D01*
G01X153073Y3936973D02*
G01X813473Y4597373D01*
G01X76873Y2387573D02*
G01X76873Y4127473D01*
G01X305473Y4356073D01*
G01X305473Y4622773D01*
G01X749973Y5067273D01*
G01X813473Y5067273D01*
G01X2426373Y2832073D02*
G01X2451773Y2832073D01*
G01X1689773Y1587473D02*
G01X1219873Y2057373D01*
G01X2439073Y1092173D02*
G01X1283373Y2247873D01*
G01X292773Y2247873D01*
G01X3734473Y2044673D02*
G01X3772573Y2006573D01*
G01X3772573Y1929041D01*
G01X3023273Y1587473D02*
G01X4051973Y2616173D01*
G01X4293273Y3848073D02*
G01X4293273Y4978373D01*
G01X4204373Y4698973D02*
G01X4204373Y3848073D01*
G01X4051973Y3695673D01*
G01X4051973Y2616173D02*
G01X4051973Y3695673D01*
G01X1905673Y1041373D02*
G01X2045373Y1041373D01*
G01X2070773Y1015973D01*
G01X1689773Y1142973D02*
G01X1689773Y1587473D01*
G01X4648873Y698473D02*
G01X2400973Y698473D01*
G01X4928273Y977873D02*
G01X4648873Y698473D01*
G01X4585373Y2616173D02*
G01X4585373Y4152873D01*
G01X4026573Y2158973D02*
G01X4026573Y2273273D01*
G01X4661573Y4203673D02*
G01X4661573Y2642084D01*
G01X4115473Y2133573D02*
G01X4115473Y2285973D01*
G01X4026573Y2273273D02*
G01X4304030Y2550730D01*
G01X4519930Y2550730D01*
G01X4585373Y2616173D01*
G01X4661573Y2642084D02*
G01X4534063Y2514573D01*
G01X4344073Y2514573D01*
G01X4115473Y2285973D02*
G01X4344073Y2514573D01*
G01X4394873Y2451073D02*
G01X4496473Y2349473D01*
G01X4496473Y2247873D01*
G01X4775873Y3682973D02*
G01X4839373Y3682973D01*
G01X4928273Y3594073D01*
G01X4928273Y977873D01*
G54D26*
G01X3505873Y1549373D02*
G01X3886873Y1549373D01*
G54D11*
G01X2070773Y1015973D02*
G01X2807373Y1015973D01*
G01X3696373Y1904973D01*
G01X3696373Y1955773D01*
G01X3442373Y3111473D02*
G01X3442373Y2387573D01*
G01X3467773Y3251173D02*
G01X3455073Y3251173D01*
G01X3378873Y3174973D01*
G01X3378873Y2298673D01*
G54D26*
G01X4001173Y4914873D02*
G01X3071498Y4914873D01*
G01X4204373Y5118073D02*
G01X4001173Y4914873D01*
G01X4369473Y5118073D02*
G01X4204373Y5118073D01*
G01X4471073Y5016473D02*
G01X4369473Y5118073D01*
G01X4169562Y1832062D02*
G01X4124884Y1832062D01*
G01X4267873Y1930373D02*
G01X4169562Y1832062D01*
G01X3886873Y1549373D02*
G01X4169562Y1832062D01*
G54D27*
G01X2985173Y2959073D02*
G01X3226473Y2717773D01*
G01X3226473Y2095473D01*
G54D11*
G01X1130973Y2044673D02*
G01X1423073Y1752573D01*
G01X1423073Y1206473D01*
G01X2248573Y1092173D02*
G01X2248573Y1130273D01*
G01X1194473Y2184373D01*
G01X280073Y2184373D01*
G54D26*
G01X4217073Y3594073D02*
G01X4471073Y3848073D01*
G54D11*
G01X4128173Y3682973D02*
G01X4293273Y3848073D01*
G54D26*
G01X4267873Y2108173D02*
G01X4267873Y1930373D01*
G01X1664373Y4724373D02*
G01X1562773Y4825973D01*
G01X1842173Y4724373D02*
G01X1664373Y4724373D01*
G01X1562773Y4825973D02*
G01X1321473Y4825973D01*
G01X1156373Y4991073D01*
G01X3071498Y4914873D02*
G01X2855598Y5130773D01*
G01X2248573Y5130773D01*
G01X1842173Y4724373D01*
G54D11*
G01X3086773Y1523973D02*
G01X3086773Y1562073D01*
G01X4128173Y2603473D01*
G01X4128173Y3682973D01*
G54D26*
G01X4217073Y2578073D02*
G01X4217073Y3594073D01*
G01X4124884Y1832062D02*
G01X3912273Y2044673D01*
G01X3912273Y2273273D01*
G01X4217073Y2578073D01*
G54D11*
G01X4674273Y1371573D02*
G01X4102773Y800073D01*
G01X2032673Y800073D01*
G01X1689773Y1142973D01*
G54D26*
G01X2845473Y888973D02*
G01X2388273Y888973D01*
G01X3213773Y1257273D02*
G01X2845473Y888973D01*
G01X3213773Y1257273D02*
G01X3505873Y1549373D01*
G01X4471073Y3848073D02*
G01X4471073Y3985368D01*
G01X4471073Y5016473D01*
G54D24*
G01X751167Y1991168D02*
G01X676167Y1991168D01*
G01X724573Y1015973D02*
G01X881380Y1015973D01*
G01X901179Y996174D01*
G01X592313Y868834D02*
G01X724573Y1001094D01*
G01X724573Y1015973D01*
G01X751167Y701178D02*
G01X696468Y701178D01*
G01X592313Y805334D01*
G01X592313Y868834D01*
G01X676167Y1991168D02*
G01X597573Y1912574D01*
G01X597573Y1142973D01*
G01X724573Y1015973D01*
G04 Track End*

M02*

