G04 Layer: TopSilkscreenLayer*
G04 EasyEDA Pro v2.2.27.1, 2024-09-30 12:04:34*
G04 Gerber Generator version 0.3*
G04 Scale: 100 percent, Rotated: No, Reflected: No*
G04 Dimensions in millimeters*
G04 Leading zeros omitted, absolute positions, 3 integers and 5 decimals*
%FSLAX35Y35*%
%MOMM*%
%ADD10C,0.1*%
%ADD11C,0.15*%
%ADD12C,0.1524*%
%ADD13C,0.1016*%
%ADD14C,0.102*%
%ADD15C,0.254*%
%ADD16C,0.2*%
%ADD17C,0.3*%
%ADD18C,0.2012*%
%ADD19C,0.20066*%
%ADD20C,0.15199*%
G75*


G04 Text Start*
G54D10*
G01X824903Y3233901D02*
G01X785025Y3233901D01*
G01X777405Y3236441D01*
G01X774865Y3238981D01*
G01X772579Y3243807D01*
G01X772579Y3248887D01*
G01X774865Y3253967D01*
G01X777405Y3256253D01*
G01X785025Y3258793D01*
G01X789851Y3258793D01*
G01X824903Y3211803D02*
G01X772579Y3211803D01*
G01X772579Y3211803D02*
G01X772579Y3181831D01*
G01X812457Y3122395D02*
G01X817537Y3124935D01*
G01X822363Y3129761D01*
G01X824903Y3134841D01*
G01X824903Y3144747D01*
G01X822363Y3149827D01*
G01X817537Y3154907D01*
G01X812457Y3157447D01*
G01X805091Y3159733D01*
G01X792391Y3159733D01*
G01X785025Y3157447D01*
G01X779945Y3154907D01*
G01X774865Y3149827D01*
G01X772579Y3144747D01*
G01X772579Y3134841D01*
G01X774865Y3129761D01*
G01X779945Y3124935D01*
G01X785025Y3122395D01*
G01X824903Y3075405D02*
G01X785025Y3075405D01*
G01X777405Y3077945D01*
G01X774865Y3080485D01*
G01X772579Y3085311D01*
G01X772579Y3090391D01*
G01X774865Y3095471D01*
G01X777405Y3098011D01*
G01X785025Y3100297D01*
G01X789851Y3100297D01*
G01X824903Y3053307D02*
G01X772579Y3053307D01*
G01X772579Y3053307D02*
G01X772579Y3023335D01*
G01X812457Y2963899D02*
G01X817537Y2966439D01*
G01X822363Y2971265D01*
G01X824903Y2976345D01*
G01X824903Y2986251D01*
G01X822363Y2991331D01*
G01X817537Y2996411D01*
G01X812457Y2998951D01*
G01X805091Y3001237D01*
G01X792391Y3001237D01*
G01X785025Y2998951D01*
G01X779945Y2996411D01*
G01X774865Y2991331D01*
G01X772579Y2986251D01*
G01X772579Y2976345D01*
G01X774865Y2971265D01*
G01X779945Y2966439D01*
G01X785025Y2963899D01*
G01X824903Y2916909D02*
G01X785025Y2916909D01*
G01X777405Y2919449D01*
G01X774865Y2921989D01*
G01X772579Y2926815D01*
G01X772579Y2931895D01*
G01X774865Y2936975D01*
G01X777405Y2939515D01*
G01X785025Y2941801D01*
G01X789851Y2941801D01*
G01X824903Y2894811D02*
G01X772579Y2894811D01*
G01X772579Y2894811D02*
G01X772579Y2864839D01*
G01X812457Y2805403D02*
G01X817537Y2807943D01*
G01X822363Y2812769D01*
G01X824903Y2817849D01*
G01X824903Y2827755D01*
G01X822363Y2832835D01*
G01X817537Y2837915D01*
G01X812457Y2840455D01*
G01X805091Y2842741D01*
G01X792391Y2842741D01*
G01X785025Y2840455D01*
G01X779945Y2837915D01*
G01X774865Y2832835D01*
G01X772579Y2827755D01*
G01X772579Y2817849D01*
G01X774865Y2812769D01*
G01X779945Y2807943D01*
G01X785025Y2805403D01*
G01X824903Y2758413D02*
G01X785025Y2758413D01*
G01X777405Y2760953D01*
G01X774865Y2763493D01*
G01X772579Y2768319D01*
G01X772579Y2773399D01*
G01X774865Y2778479D01*
G01X777405Y2781019D01*
G01X785025Y2783305D01*
G01X789851Y2783305D01*
G01X824903Y2736315D02*
G01X772579Y2736315D01*
G01X772579Y2736315D02*
G01X772579Y2706343D01*
G01X812457Y2646907D02*
G01X817537Y2649447D01*
G01X822363Y2654273D01*
G01X824903Y2659353D01*
G01X824903Y2669259D01*
G01X822363Y2674339D01*
G01X817537Y2679419D01*
G01X812457Y2681959D01*
G01X805091Y2684245D01*
G01X792391Y2684245D01*
G01X785025Y2681959D01*
G01X779945Y2679419D01*
G01X774865Y2674339D01*
G01X772579Y2669259D01*
G01X772579Y2659353D01*
G01X774865Y2654273D01*
G01X779945Y2649447D01*
G01X785025Y2646907D01*
G01X4387253Y1878303D02*
G01X4387253Y1825979D01*
G01X4422051Y1878303D02*
G01X4422051Y1825979D01*
G01X4387253Y1853411D02*
G01X4422051Y1853411D01*
G01X4379379Y1014703D02*
G01X4379379Y962379D01*
G01X4361853Y1014703D02*
G01X4396651Y1014703D01*
G01X3616276Y5244057D02*
G01X3613736Y5249137D01*
G01X3608910Y5253963D01*
G01X3603830Y5256503D01*
G01X3593924Y5256503D01*
G01X3588844Y5253963D01*
G01X3583764Y5249137D01*
G01X3581478Y5244057D01*
G01X3578938Y5236691D01*
G01X3578938Y5223991D01*
G01X3581478Y5216625D01*
G01X3583764Y5211545D01*
G01X3588844Y5206465D01*
G01X3593924Y5204179D01*
G01X3603830Y5204179D01*
G01X3608910Y5206465D01*
G01X3613736Y5211545D01*
G01X3616276Y5216625D01*
G01X3616276Y5223991D01*
G01X3603830Y5223991D02*
G01X3616276Y5223991D01*
G01X3638374Y5256503D02*
G01X3638374Y5204179D01*
G01X3638374Y5256503D02*
G01X3673172Y5204179D01*
G01X3673172Y5256503D02*
G01X3673172Y5204179D01*
G01X3695270Y5256503D02*
G01X3695270Y5204179D01*
G01X3695270Y5256503D02*
G01X3712796Y5256503D01*
G01X3720162Y5253963D01*
G01X3725242Y5249137D01*
G01X3727782Y5244057D01*
G01X3730068Y5236691D01*
G01X3730068Y5223991D01*
G01X3727782Y5216625D01*
G01X3725242Y5211545D01*
G01X3720162Y5206465D01*
G01X3712796Y5204179D01*
G01X3695270Y5204179D01*
G01X3596464Y5003663D02*
G01X3596464Y4951339D01*
G01X3578938Y5003663D02*
G01X3613736Y5003663D01*
G01X3635834Y5003663D02*
G01X3635834Y4951339D01*
G01X3635834Y5003663D02*
G01X3653360Y5003663D01*
G01X3660726Y5001123D01*
G01X3665806Y4996297D01*
G01X3668346Y4991217D01*
G01X3670632Y4983851D01*
G01X3670632Y4971151D01*
G01X3668346Y4963785D01*
G01X3665806Y4958705D01*
G01X3660726Y4953625D01*
G01X3653360Y4951339D01*
G01X3635834Y4951339D01*
G01X3692730Y4973691D02*
G01X3737688Y4973691D01*
G54D11*
G01X4899914Y5249418D02*
G01X4831080Y5275580D01*
G01X4899914Y5249418D02*
G01X4831080Y5223256D01*
G01X4853940Y5265928D02*
G01X4853940Y5233162D01*
G54D10*
G01X3596464Y4750823D02*
G01X3596464Y4698499D01*
G01X3578938Y4750823D02*
G01X3613736Y4750823D01*
G01X3635834Y4750823D02*
G01X3635834Y4698499D01*
G01X3635834Y4750823D02*
G01X3653360Y4750823D01*
G01X3660726Y4748283D01*
G01X3665806Y4743457D01*
G01X3668346Y4738377D01*
G01X3670632Y4731011D01*
G01X3670632Y4718311D01*
G01X3668346Y4710945D01*
G01X3665806Y4705865D01*
G01X3660726Y4700785D01*
G01X3653360Y4698499D01*
G01X3635834Y4698499D01*
G01X3715082Y4743457D02*
G01X3715082Y4698499D01*
G01X3692730Y4720851D02*
G01X3737688Y4720851D01*
G01X3578938Y4497983D02*
G01X3578938Y4445659D01*
G01X3613736Y4497983D02*
G01X3613736Y4445659D01*
G01X3578938Y4473091D02*
G01X3613736Y4473091D01*
G01X3635834Y4497983D02*
G01X3635834Y4445659D01*
G01X3635834Y4497983D02*
G01X3653360Y4497983D01*
G01X3660726Y4495443D01*
G01X3665806Y4490617D01*
G01X3668346Y4485537D01*
G01X3670632Y4478171D01*
G01X3670632Y4465471D01*
G01X3668346Y4458105D01*
G01X3665806Y4453025D01*
G01X3660726Y4447945D01*
G01X3653360Y4445659D01*
G01X3635834Y4445659D01*
G01X3692730Y4468011D02*
G01X3737688Y4468011D01*
G01X3578938Y4245143D02*
G01X3578938Y4192819D01*
G01X3613736Y4245143D02*
G01X3613736Y4192819D01*
G01X3578938Y4220251D02*
G01X3613736Y4220251D01*
G01X3635834Y4245143D02*
G01X3635834Y4192819D01*
G01X3635834Y4245143D02*
G01X3653360Y4245143D01*
G01X3660726Y4242603D01*
G01X3665806Y4237777D01*
G01X3668346Y4232697D01*
G01X3670632Y4225331D01*
G01X3670632Y4212631D01*
G01X3668346Y4205265D01*
G01X3665806Y4200185D01*
G01X3660726Y4195105D01*
G01X3653360Y4192819D01*
G01X3635834Y4192819D01*
G01X3715082Y4237777D02*
G01X3715082Y4192819D01*
G01X3692730Y4215171D02*
G01X3737688Y4215171D01*
G01X3578938Y3992303D02*
G01X3598750Y3939979D01*
G01X3618816Y3992303D02*
G01X3598750Y3939979D01*
G01X3678252Y3979857D02*
G01X3675712Y3984937D01*
G01X3670886Y3989763D01*
G01X3665806Y3992303D01*
G01X3655900Y3992303D01*
G01X3650820Y3989763D01*
G01X3645740Y3984937D01*
G01X3643200Y3979857D01*
G01X3640914Y3972491D01*
G01X3640914Y3959791D01*
G01X3643200Y3952425D01*
G01X3645740Y3947345D01*
G01X3650820Y3942265D01*
G01X3655900Y3939979D01*
G01X3665806Y3939979D01*
G01X3670886Y3942265D01*
G01X3675712Y3947345D01*
G01X3678252Y3952425D01*
G01X3737688Y3979857D02*
G01X3735148Y3984937D01*
G01X3730322Y3989763D01*
G01X3725242Y3992303D01*
G01X3715336Y3992303D01*
G01X3710256Y3989763D01*
G01X3705176Y3984937D01*
G01X3702636Y3979857D01*
G01X3700350Y3972491D01*
G01X3700350Y3959791D01*
G01X3702636Y3952425D01*
G01X3705176Y3947345D01*
G01X3710256Y3942265D01*
G01X3715336Y3939979D01*
G01X3725242Y3939979D01*
G01X3730322Y3942265D01*
G01X3735148Y3947345D01*
G01X3737688Y3952425D01*
G54D11*
G01X4887214Y3941318D02*
G01X4818380Y3967480D01*
G01X4887214Y3941318D02*
G01X4818380Y3915156D01*
G01X4841240Y3957828D02*
G01X4841240Y3925062D01*
G54D12*
G01X2853093Y5440907D02*
G01X2853093Y5375883D01*
G01X2896527Y5440907D02*
G01X2896527Y5375883D01*
G01X2853093Y5409919D02*
G01X2896527Y5409919D01*
G01X2926753Y5440907D02*
G01X2926753Y5375883D01*
G01X2956979Y5440907D02*
G01X2956979Y5375883D01*
G01X2956979Y5440907D02*
G01X2978569Y5440907D01*
G01X2987713Y5437859D01*
G01X2994063Y5431763D01*
G01X2997111Y5425413D01*
G01X3000159Y5416269D01*
G01X3000159Y5400775D01*
G01X2997111Y5391377D01*
G01X2994063Y5385281D01*
G01X2987713Y5378931D01*
G01X2978569Y5375883D01*
G01X2956979Y5375883D01*
G54D10*
G01X3041053Y4685003D02*
G01X3041053Y4632679D01*
G01X3041053Y4685003D02*
G01X3063405Y4685003D01*
G01X3071025Y4682463D01*
G01X3073565Y4680177D01*
G01X3075851Y4675097D01*
G01X3075851Y4670017D01*
G01X3073565Y4665191D01*
G01X3071025Y4662651D01*
G01X3063405Y4660111D01*
G01X3041053Y4660111D01*
G01X3058579Y4660111D02*
G01X3075851Y4632679D01*
G01X3102775Y4685003D02*
G01X3130461Y4685003D01*
G01X3115475Y4665191D01*
G01X3122841Y4665191D01*
G01X3127921Y4662651D01*
G01X3130461Y4660111D01*
G01X3132747Y4652491D01*
G01X3132747Y4647665D01*
G01X3130461Y4640045D01*
G01X3125381Y4634965D01*
G01X3117761Y4632679D01*
G01X3110395Y4632679D01*
G01X3102775Y4634965D01*
G01X3100235Y4637505D01*
G01X3097949Y4642585D01*
G01X3169831Y4685003D02*
G01X3162211Y4682463D01*
G01X3157131Y4675097D01*
G01X3154845Y4662651D01*
G01X3154845Y4655031D01*
G01X3157131Y4642585D01*
G01X3162211Y4634965D01*
G01X3169831Y4632679D01*
G01X3174657Y4632679D01*
G01X3182277Y4634965D01*
G01X3187357Y4642585D01*
G01X3189643Y4655031D01*
G01X3189643Y4662651D01*
G01X3187357Y4675097D01*
G01X3182277Y4682463D01*
G01X3174657Y4685003D01*
G01X3169831Y4685003D01*
G01X3053753Y4545303D02*
G01X3053753Y4492979D01*
G01X3053753Y4545303D02*
G01X3076105Y4545303D01*
G01X3083725Y4542763D01*
G01X3086265Y4540477D01*
G01X3088551Y4535397D01*
G01X3088551Y4530317D01*
G01X3086265Y4525491D01*
G01X3083725Y4522951D01*
G01X3076105Y4520411D01*
G01X3053753Y4520411D01*
G01X3071279Y4520411D02*
G01X3088551Y4492979D01*
G01X3115475Y4545303D02*
G01X3143161Y4545303D01*
G01X3128175Y4525491D01*
G01X3135541Y4525491D01*
G01X3140621Y4522951D01*
G01X3143161Y4520411D01*
G01X3145447Y4512791D01*
G01X3145447Y4507965D01*
G01X3143161Y4500345D01*
G01X3138081Y4495265D01*
G01X3130461Y4492979D01*
G01X3123095Y4492979D01*
G01X3115475Y4495265D01*
G01X3112935Y4497805D01*
G01X3110649Y4502885D01*
G01X3167545Y4535397D02*
G01X3172371Y4537937D01*
G01X3179991Y4545303D01*
G01X3179991Y4492979D01*
G01X1186853Y5307303D02*
G01X1186853Y5254979D01*
G01X1186853Y5254979D02*
G01X1216825Y5254979D01*
G01X1241209Y5294857D02*
G01X1241209Y5297397D01*
G01X1243749Y5302477D01*
G01X1246289Y5304763D01*
G01X1251369Y5307303D01*
G01X1261275Y5307303D01*
G01X1266355Y5304763D01*
G01X1268895Y5302477D01*
G01X1271435Y5297397D01*
G01X1271435Y5292317D01*
G01X1268895Y5287491D01*
G01X1263815Y5279871D01*
G01X1238923Y5254979D01*
G01X1273721Y5254979D01*
G54D13*
G01X3053753Y4863311D02*
G01X3053753Y4820131D01*
G01X3053753Y4820131D02*
G01X3078645Y4820131D01*
G01X3102775Y4863311D02*
G01X3125635Y4863311D01*
G01X3113189Y4846801D01*
G01X3119285Y4846801D01*
G01X3123603Y4844769D01*
G01X3125635Y4842737D01*
G01X3127667Y4836641D01*
G01X3127667Y4832577D01*
G01X3125635Y4826227D01*
G01X3121317Y4822163D01*
G01X3115221Y4820131D01*
G01X3109125Y4820131D01*
G01X3102775Y4822163D01*
G01X3100743Y4824195D01*
G01X3098711Y4828259D01*
G01X3701453Y2374111D02*
G01X3701453Y2330931D01*
G01X3730409Y2374111D02*
G01X3730409Y2330931D01*
G01X3701453Y2353537D02*
G01X3730409Y2353537D01*
G01X3750475Y2374111D02*
G01X3750475Y2343377D01*
G01X3752507Y2337027D01*
G01X3756571Y2332963D01*
G01X3762921Y2330931D01*
G01X3766985Y2330931D01*
G01X3773081Y2332963D01*
G01X3777399Y2337027D01*
G01X3779431Y2343377D01*
G01X3779431Y2374111D01*
G01X3799497Y2374111D02*
G01X3799497Y2330931D01*
G01X3799497Y2374111D02*
G01X3818039Y2374111D01*
G01X3824389Y2372079D01*
G01X3826421Y2370047D01*
G01X3828453Y2365983D01*
G01X3828453Y2361919D01*
G01X3826421Y2357601D01*
G01X3824389Y2355569D01*
G01X3818039Y2353537D01*
G01X3799497Y2353537D02*
G01X3818039Y2353537D01*
G01X3824389Y2351505D01*
G01X3826421Y2349473D01*
G01X3828453Y2345409D01*
G01X3828453Y2339059D01*
G01X3826421Y2334995D01*
G01X3824389Y2332963D01*
G01X3818039Y2330931D01*
G01X3799497Y2330931D01*
G01X3848519Y2365983D02*
G01X3852583Y2368015D01*
G01X3858933Y2374111D01*
G01X3858933Y2330931D01*
G54D12*
G01X4326293Y1338807D02*
G01X4369727Y1273783D01*
G01X4369727Y1338807D02*
G01X4326293Y1273783D01*
G01X4399953Y1326361D02*
G01X4406049Y1329663D01*
G01X4415193Y1338807D01*
G01X4415193Y1273783D01*
G54D10*
G01X4404779Y2202153D02*
G01X4450753Y2202153D01*
G01X4404779Y2202153D02*
G01X4404779Y2221711D01*
G01X4407065Y2228315D01*
G01X4409097Y2230601D01*
G01X4413669Y2232633D01*
G01X4417987Y2232633D01*
G01X4422305Y2230601D01*
G01X4424591Y2228315D01*
G01X4426623Y2221711D01*
G01X4426623Y2202153D01*
G01X4426623Y2217393D02*
G01X4450753Y2232633D01*
G01X4413669Y2253207D02*
G01X4411383Y2257525D01*
G01X4404779Y2264129D01*
G01X4450753Y2264129D01*
G01X4413669Y2284703D02*
G01X4411383Y2289021D01*
G01X4404779Y2295625D01*
G01X4450753Y2295625D01*
G54D14*
G01X4557311Y2193121D02*
G01X4603285Y2193121D01*
G01X4557311Y2193121D02*
G01X4557311Y2212679D01*
G01X4559597Y2219283D01*
G01X4561883Y2221569D01*
G01X4566201Y2223601D01*
G01X4570519Y2223601D01*
G01X4574837Y2221569D01*
G01X4577123Y2219283D01*
G01X4579155Y2212679D01*
G01X4579155Y2193121D01*
G01X4579155Y2208361D02*
G01X4603285Y2223601D01*
G01X4566201Y2244175D02*
G01X4563915Y2248747D01*
G01X4557311Y2255097D01*
G01X4603285Y2255097D01*
G01X4568233Y2277957D02*
G01X4566201Y2277957D01*
G01X4561883Y2280243D01*
G01X4559597Y2282275D01*
G01X4557311Y2286593D01*
G01X4557311Y2295483D01*
G01X4559597Y2299801D01*
G01X4561883Y2301833D01*
G01X4566201Y2304119D01*
G01X4570519Y2304119D01*
G01X4574837Y2301833D01*
G01X4581441Y2297515D01*
G01X4603285Y2275671D01*
G01X4603285Y2306405D01*
G54D13*
G01X1923453Y2615411D02*
G01X1923453Y2584677D01*
G01X1925485Y2578327D01*
G01X1929549Y2574263D01*
G01X1935899Y2572231D01*
G01X1939963Y2572231D01*
G01X1946059Y2574263D01*
G01X1950377Y2578327D01*
G01X1952409Y2584677D01*
G01X1952409Y2615411D01*
G01X1972475Y2607283D02*
G01X1976539Y2609315D01*
G01X1982889Y2615411D01*
G01X1982889Y2572231D01*
G01X2027847Y2615411D02*
G01X2007019Y2615411D01*
G01X2004987Y2596869D01*
G01X2007019Y2598901D01*
G01X2013369Y2601187D01*
G01X2019465Y2601187D01*
G01X2025561Y2598901D01*
G01X2029879Y2594837D01*
G01X2031911Y2588741D01*
G01X2031911Y2584677D01*
G01X2029879Y2578327D01*
G01X2025561Y2574263D01*
G01X2019465Y2572231D01*
G01X2013369Y2572231D01*
G01X2007019Y2574263D01*
G01X2004987Y2576295D01*
G01X2002955Y2580359D01*
G54D12*
G01X71793Y4056607D02*
G01X71793Y3991583D01*
G01X115227Y4056607D02*
G01X115227Y3991583D01*
G01X71793Y4025619D02*
G01X115227Y4025619D01*
G01X145453Y4056607D02*
G01X145453Y3991583D01*
G01X145453Y4056607D02*
G01X167043Y4056607D01*
G01X176187Y4053559D01*
G01X182537Y4047463D01*
G01X185585Y4041113D01*
G01X188633Y4031969D01*
G01X188633Y4016475D01*
G01X185585Y4007077D01*
G01X182537Y4000981D01*
G01X176187Y3994631D01*
G01X167043Y3991583D01*
G01X145453Y3991583D01*
G01X218859Y4056607D02*
G01X218859Y3991583D01*
G01X218859Y4056607D02*
G01X243497Y3991583D01*
G01X268389Y4056607D02*
G01X243497Y3991583D01*
G01X268389Y4056607D02*
G01X268389Y3991583D01*
G01X298615Y4056607D02*
G01X298615Y3991583D01*
G01X328841Y4044161D02*
G01X334937Y4047463D01*
G01X344081Y4056607D01*
G01X344081Y3991583D01*
G01X2789593Y4374107D02*
G01X2789593Y4327625D01*
G01X2792641Y4318481D01*
G01X2798991Y4312131D01*
G01X2808135Y4309083D01*
G01X2814485Y4309083D01*
G01X2823629Y4312131D01*
G01X2829725Y4318481D01*
G01X2833027Y4327625D01*
G01X2833027Y4374107D01*
G01X2869349Y4374107D02*
G01X2903385Y4374107D01*
G01X2884843Y4349469D01*
G01X2893987Y4349469D01*
G01X2900337Y4346421D01*
G01X2903385Y4343119D01*
G01X2906433Y4333975D01*
G01X2906433Y4327625D01*
G01X2903385Y4318481D01*
G01X2897289Y4312131D01*
G01X2887891Y4309083D01*
G01X2878493Y4309083D01*
G01X2869349Y4312131D01*
G01X2866301Y4315433D01*
G01X2863253Y4321529D01*
G54D13*
G01X2640241Y2262351D02*
G01X2638209Y2266415D01*
G01X2634145Y2270479D01*
G01X2629827Y2272511D01*
G01X2621699Y2272511D01*
G01X2617635Y2270479D01*
G01X2613317Y2266415D01*
G01X2611285Y2262351D01*
G01X2609253Y2256001D01*
G01X2609253Y2245841D01*
G01X2611285Y2239491D01*
G01X2613317Y2235427D01*
G01X2617635Y2231363D01*
G01X2621699Y2229331D01*
G01X2629827Y2229331D01*
G01X2634145Y2231363D01*
G01X2638209Y2235427D01*
G01X2640241Y2239491D01*
G01X2685199Y2272511D02*
G01X2664371Y2272511D01*
G01X2662339Y2253969D01*
G01X2664371Y2256001D01*
G01X2670721Y2258287D01*
G01X2676817Y2258287D01*
G01X2682913Y2256001D01*
G01X2687231Y2251937D01*
G01X2689263Y2245841D01*
G01X2689263Y2241777D01*
G01X2687231Y2235427D01*
G01X2682913Y2231363D01*
G01X2676817Y2229331D01*
G01X2670721Y2229331D01*
G01X2664371Y2231363D01*
G01X2662339Y2233395D01*
G01X2660307Y2237459D01*
G01X2411641Y2440151D02*
G01X2409609Y2444215D01*
G01X2405545Y2448279D01*
G01X2401227Y2450311D01*
G01X2393099Y2450311D01*
G01X2389035Y2448279D01*
G01X2384717Y2444215D01*
G01X2382685Y2440151D01*
G01X2380653Y2433801D01*
G01X2380653Y2423641D01*
G01X2382685Y2417291D01*
G01X2384717Y2413227D01*
G01X2389035Y2409163D01*
G01X2393099Y2407131D01*
G01X2401227Y2407131D01*
G01X2405545Y2409163D01*
G01X2409609Y2413227D01*
G01X2411641Y2417291D01*
G01X2456599Y2444215D02*
G01X2454313Y2448279D01*
G01X2448217Y2450311D01*
G01X2444153Y2450311D01*
G01X2437803Y2448279D01*
G01X2433739Y2442183D01*
G01X2431707Y2431769D01*
G01X2431707Y2421609D01*
G01X2433739Y2413227D01*
G01X2437803Y2409163D01*
G01X2444153Y2407131D01*
G01X2446185Y2407131D01*
G01X2452281Y2409163D01*
G01X2456599Y2413227D01*
G01X2458631Y2419577D01*
G01X2458631Y2421609D01*
G01X2456599Y2427705D01*
G01X2452281Y2431769D01*
G01X2446185Y2433801D01*
G01X2444153Y2433801D01*
G01X2437803Y2431769D01*
G01X2433739Y2427705D01*
G01X2431707Y2421609D01*
G01X2018195Y1217141D02*
G01X2014131Y1215109D01*
G01X2010067Y1211045D01*
G01X2008035Y1206727D01*
G01X2008035Y1198599D01*
G01X2010067Y1194535D01*
G01X2014131Y1190217D01*
G01X2018195Y1188185D01*
G01X2024545Y1186153D01*
G01X2034705Y1186153D01*
G01X2041055Y1188185D01*
G01X2045119Y1190217D01*
G01X2049183Y1194535D01*
G01X2051215Y1198599D01*
G01X2051215Y1206727D01*
G01X2049183Y1211045D01*
G01X2045119Y1215109D01*
G01X2041055Y1217141D01*
G01X2016163Y1237207D02*
G01X2014131Y1241271D01*
G01X2008035Y1247621D01*
G01X2051215Y1247621D01*
G01X2008035Y1280133D02*
G01X2010067Y1273783D01*
G01X2016163Y1269719D01*
G01X2026577Y1267687D01*
G01X2032673Y1267687D01*
G01X2043087Y1269719D01*
G01X2049183Y1273783D01*
G01X2051215Y1280133D01*
G01X2051215Y1284197D01*
G01X2049183Y1290293D01*
G01X2043087Y1294611D01*
G01X2032673Y1296643D01*
G01X2026577Y1296643D01*
G01X2016163Y1294611D01*
G01X2010067Y1290293D01*
G01X2008035Y1284197D01*
G01X2008035Y1280133D01*
G01X2551595Y1979141D02*
G01X2547531Y1977109D01*
G01X2543467Y1973045D01*
G01X2541435Y1968727D01*
G01X2541435Y1960599D01*
G01X2543467Y1956535D01*
G01X2547531Y1952217D01*
G01X2551595Y1950185D01*
G01X2557945Y1948153D01*
G01X2568105Y1948153D01*
G01X2574455Y1950185D01*
G01X2578519Y1952217D01*
G01X2582583Y1956535D01*
G01X2584615Y1960599D01*
G01X2584615Y1968727D01*
G01X2582583Y1973045D01*
G01X2578519Y1977109D01*
G01X2574455Y1979141D01*
G01X2549563Y1999207D02*
G01X2547531Y2003271D01*
G01X2541435Y2009621D01*
G01X2584615Y2009621D01*
G01X2551595Y2031719D02*
G01X2549563Y2031719D01*
G01X2545499Y2033751D01*
G01X2543467Y2035783D01*
G01X2541435Y2040101D01*
G01X2541435Y2048229D01*
G01X2543467Y2052293D01*
G01X2545499Y2054579D01*
G01X2549563Y2056611D01*
G01X2553627Y2056611D01*
G01X2557945Y2054579D01*
G01X2564041Y2050261D01*
G01X2584615Y2029687D01*
G01X2584615Y2058643D01*
G01X1586141Y3125951D02*
G01X1584109Y3130015D01*
G01X1580045Y3134079D01*
G01X1575727Y3136111D01*
G01X1567599Y3136111D01*
G01X1563535Y3134079D01*
G01X1559217Y3130015D01*
G01X1557185Y3125951D01*
G01X1555153Y3119601D01*
G01X1555153Y3109441D01*
G01X1557185Y3103091D01*
G01X1559217Y3099027D01*
G01X1563535Y3094963D01*
G01X1567599Y3092931D01*
G01X1575727Y3092931D01*
G01X1580045Y3094963D01*
G01X1584109Y3099027D01*
G01X1586141Y3103091D01*
G01X1606207Y3127983D02*
G01X1610271Y3130015D01*
G01X1616621Y3136111D01*
G01X1616621Y3092931D01*
G01X1665643Y3136111D02*
G01X1645069Y3092931D01*
G01X1636687Y3136111D02*
G01X1665643Y3136111D01*
G01X1992541Y2211551D02*
G01X1990509Y2215615D01*
G01X1986445Y2219679D01*
G01X1982127Y2221711D01*
G01X1973999Y2221711D01*
G01X1969935Y2219679D01*
G01X1965617Y2215615D01*
G01X1963585Y2211551D01*
G01X1961553Y2205201D01*
G01X1961553Y2195041D01*
G01X1963585Y2188691D01*
G01X1965617Y2184627D01*
G01X1969935Y2180563D01*
G01X1973999Y2178531D01*
G01X1982127Y2178531D01*
G01X1986445Y2180563D01*
G01X1990509Y2184627D01*
G01X1992541Y2188691D01*
G01X2012607Y2213583D02*
G01X2016671Y2215615D01*
G01X2023021Y2221711D01*
G01X2023021Y2178531D01*
G01X2047151Y2221711D02*
G01X2070011Y2221711D01*
G01X2057565Y2205201D01*
G01X2063661Y2205201D01*
G01X2067979Y2203169D01*
G01X2070011Y2201137D01*
G01X2072043Y2195041D01*
G01X2072043Y2190977D01*
G01X2070011Y2184627D01*
G01X2065693Y2180563D01*
G01X2059597Y2178531D01*
G01X2053501Y2178531D01*
G01X2047151Y2180563D01*
G01X2045119Y2182595D01*
G01X2043087Y2186659D01*
G54D10*
G01X1892719Y2277845D02*
G01X1890433Y2282163D01*
G01X1886115Y2286481D01*
G01X1881797Y2288767D01*
G01X1872907Y2288767D01*
G01X1868589Y2286481D01*
G01X1864271Y2282163D01*
G01X1861985Y2277845D01*
G01X1859953Y2271241D01*
G01X1859953Y2260319D01*
G01X1861985Y2253715D01*
G01X1864271Y2249397D01*
G01X1868589Y2245079D01*
G01X1872907Y2242793D01*
G01X1881797Y2242793D01*
G01X1886115Y2245079D01*
G01X1890433Y2249397D01*
G01X1892719Y2253715D01*
G01X1913293Y2279877D02*
G01X1917611Y2282163D01*
G01X1924215Y2288767D01*
G01X1924215Y2242793D01*
G01X1966633Y2288767D02*
G01X1944789Y2258033D01*
G01X1977555Y2258033D01*
G01X1966633Y2288767D02*
G01X1966633Y2242793D01*
G01X1567091Y2869157D02*
G01X1564551Y2874237D01*
G01X1559725Y2879063D01*
G01X1554645Y2881603D01*
G01X1544739Y2881603D01*
G01X1539659Y2879063D01*
G01X1534579Y2874237D01*
G01X1532293Y2869157D01*
G01X1529753Y2861791D01*
G01X1529753Y2849091D01*
G01X1532293Y2841725D01*
G01X1534579Y2836645D01*
G01X1539659Y2831565D01*
G01X1544739Y2829279D01*
G01X1554645Y2829279D01*
G01X1559725Y2831565D01*
G01X1564551Y2836645D01*
G01X1567091Y2841725D01*
G01X1589189Y2871697D02*
G01X1594015Y2874237D01*
G01X1601635Y2881603D01*
G01X1601635Y2829279D01*
G01X1653705Y2874237D02*
G01X1651165Y2879063D01*
G01X1643545Y2881603D01*
G01X1638719Y2881603D01*
G01X1631099Y2879063D01*
G01X1626019Y2871697D01*
G01X1623733Y2859251D01*
G01X1623733Y2846551D01*
G01X1626019Y2836645D01*
G01X1631099Y2831565D01*
G01X1638719Y2829279D01*
G01X1641259Y2829279D01*
G01X1648625Y2831565D01*
G01X1653705Y2836645D01*
G01X1656245Y2844265D01*
G01X1656245Y2846551D01*
G01X1653705Y2854171D01*
G01X1648625Y2859251D01*
G01X1641259Y2861791D01*
G01X1638719Y2861791D01*
G01X1631099Y2859251D01*
G01X1626019Y2854171D01*
G01X1623733Y2846551D01*
G54D13*
G01X2067471Y4027651D02*
G01X2065439Y4031715D01*
G01X2061375Y4035779D01*
G01X2057057Y4037811D01*
G01X2048929Y4037811D01*
G01X2044865Y4035779D01*
G01X2040547Y4031715D01*
G01X2038515Y4027651D01*
G01X2036483Y4021301D01*
G01X2036483Y4011141D01*
G01X2038515Y4004791D01*
G01X2040547Y4000727D01*
G01X2044865Y3996663D01*
G01X2048929Y3994631D01*
G01X2057057Y3994631D01*
G01X2061375Y3996663D01*
G01X2065439Y4000727D01*
G01X2067471Y4004791D01*
G01X2097951Y4037811D02*
G01X2091601Y4035779D01*
G01X2089569Y4031715D01*
G01X2089569Y4027651D01*
G01X2091601Y4023587D01*
G01X2095919Y4021301D01*
G01X2104047Y4019269D01*
G01X2110143Y4017237D01*
G01X2114461Y4013173D01*
G01X2116493Y4009109D01*
G01X2116493Y4002759D01*
G01X2114461Y3998695D01*
G01X2112429Y3996663D01*
G01X2106079Y3994631D01*
G01X2097951Y3994631D01*
G01X2091601Y3996663D01*
G01X2089569Y3998695D01*
G01X2087537Y4002759D01*
G01X2087537Y4009109D01*
G01X2089569Y4013173D01*
G01X2093633Y4017237D01*
G01X2099983Y4019269D01*
G01X2108111Y4021301D01*
G01X2112429Y4023587D01*
G01X2114461Y4027651D01*
G01X2114461Y4031715D01*
G01X2112429Y4035779D01*
G01X2106079Y4037811D01*
G01X2097951Y4037811D01*
G54D10*
G01X1745653Y3622267D02*
G01X1745653Y3576293D01*
G01X1745653Y3622267D02*
G01X1765211Y3622267D01*
G01X1771815Y3619981D01*
G01X1774101Y3617949D01*
G01X1776133Y3613377D01*
G01X1776133Y3609059D01*
G01X1774101Y3604741D01*
G01X1771815Y3602455D01*
G01X1765211Y3600423D01*
G01X1745653Y3600423D01*
G01X1760893Y3600423D02*
G01X1776133Y3576293D01*
G01X1798739Y3611345D02*
G01X1798739Y3613377D01*
G01X1801025Y3617949D01*
G01X1803311Y3619981D01*
G01X1807629Y3622267D01*
G01X1816265Y3622267D01*
G01X1820583Y3619981D01*
G01X1822869Y3617949D01*
G01X1825155Y3613377D01*
G01X1825155Y3609059D01*
G01X1822869Y3604741D01*
G01X1818551Y3598137D01*
G01X1796707Y3576293D01*
G01X1827187Y3576293D01*
G01X285153Y4164303D02*
G01X285153Y4111979D01*
G01X285153Y4164303D02*
G01X307505Y4164303D01*
G01X315125Y4161763D01*
G01X317665Y4159477D01*
G01X319951Y4154397D01*
G01X319951Y4149317D01*
G01X317665Y4144491D01*
G01X315125Y4141951D01*
G01X307505Y4139411D01*
G01X285153Y4139411D01*
G01X302679Y4139411D02*
G01X319951Y4111979D01*
G01X346875Y4164303D02*
G01X374561Y4164303D01*
G01X359575Y4144491D01*
G01X366941Y4144491D01*
G01X372021Y4141951D01*
G01X374561Y4139411D01*
G01X376847Y4131791D01*
G01X376847Y4126965D01*
G01X374561Y4119345D01*
G01X369481Y4114265D01*
G01X361861Y4111979D01*
G01X354495Y4111979D01*
G01X346875Y4114265D01*
G01X344335Y4116805D01*
G01X342049Y4121885D01*
G01X1447203Y3563593D02*
G01X1394879Y3563593D01*
G01X1447203Y3563593D02*
G01X1447203Y3541241D01*
G01X1444663Y3533621D01*
G01X1442377Y3531081D01*
G01X1437297Y3528795D01*
G01X1432217Y3528795D01*
G01X1427391Y3531081D01*
G01X1424851Y3533621D01*
G01X1422311Y3541241D01*
G01X1422311Y3563593D01*
G01X1422311Y3546067D02*
G01X1394879Y3528795D01*
G01X1447203Y3481805D02*
G01X1412151Y3506697D01*
G01X1412151Y3469359D01*
G01X1447203Y3481805D02*
G01X1394879Y3481805D01*
G54D14*
G01X3193453Y2568167D02*
G01X3193453Y2522193D01*
G01X3193453Y2568167D02*
G01X3213011Y2568167D01*
G01X3219615Y2565881D01*
G01X3221901Y2563595D01*
G01X3223933Y2559277D01*
G01X3223933Y2554959D01*
G01X3221901Y2550641D01*
G01X3219615Y2548355D01*
G01X3213011Y2546323D01*
G01X3193453Y2546323D01*
G01X3208693Y2546323D02*
G01X3223933Y2522193D01*
G01X3244507Y2559277D02*
G01X3249079Y2561563D01*
G01X3255429Y2568167D01*
G01X3255429Y2522193D01*
G54D13*
G01X2723553Y3885411D02*
G01X2723553Y3842231D01*
G01X2723553Y3885411D02*
G01X2742095Y3885411D01*
G01X2748445Y3883379D01*
G01X2750477Y3881347D01*
G01X2752509Y3877283D01*
G01X2752509Y3873219D01*
G01X2750477Y3868901D01*
G01X2748445Y3866869D01*
G01X2742095Y3864837D01*
G01X2723553Y3864837D01*
G01X2738031Y3864837D02*
G01X2752509Y3842231D01*
G01X2797467Y3879315D02*
G01X2795181Y3883379D01*
G01X2789085Y3885411D01*
G01X2785021Y3885411D01*
G01X2778671Y3883379D01*
G01X2774607Y3877283D01*
G01X2772575Y3866869D01*
G01X2772575Y3856709D01*
G01X2774607Y3848327D01*
G01X2778671Y3844263D01*
G01X2785021Y3842231D01*
G01X2787053Y3842231D01*
G01X2793149Y3844263D01*
G01X2797467Y3848327D01*
G01X2799499Y3854677D01*
G01X2799499Y3856709D01*
G01X2797467Y3862805D01*
G01X2793149Y3866869D01*
G01X2787053Y3868901D01*
G01X2785021Y3868901D01*
G01X2778671Y3866869D01*
G01X2774607Y3862805D01*
G01X2772575Y3856709D01*
G54D10*
G01X2812453Y3605503D02*
G01X2812453Y3553179D01*
G01X2812453Y3605503D02*
G01X2834805Y3605503D01*
G01X2842425Y3602963D01*
G01X2844965Y3600677D01*
G01X2847251Y3595597D01*
G01X2847251Y3590517D01*
G01X2844965Y3585691D01*
G01X2842425Y3583151D01*
G01X2834805Y3580611D01*
G01X2812453Y3580611D01*
G01X2829979Y3580611D02*
G01X2847251Y3553179D01*
G01X2904147Y3605503D02*
G01X2879255Y3553179D01*
G01X2869349Y3605503D02*
G01X2904147Y3605503D01*
G54D13*
G01X2374811Y4147793D02*
G01X2331631Y4147793D01*
G01X2374811Y4147793D02*
G01X2374811Y4129251D01*
G01X2372779Y4122901D01*
G01X2370747Y4120869D01*
G01X2366683Y4118837D01*
G01X2362619Y4118837D01*
G01X2358301Y4120869D01*
G01X2356269Y4122901D01*
G01X2354237Y4129251D01*
G01X2354237Y4147793D01*
G01X2354237Y4133315D02*
G01X2331631Y4118837D01*
G01X2360587Y4071847D02*
G01X2354237Y4073879D01*
G01X2350173Y4078197D01*
G01X2348141Y4084293D01*
G01X2348141Y4086325D01*
G01X2350173Y4092675D01*
G01X2354237Y4096739D01*
G01X2360587Y4098771D01*
G01X2362619Y4098771D01*
G01X2368715Y4096739D01*
G01X2372779Y4092675D01*
G01X2374811Y4086325D01*
G01X2374811Y4084293D01*
G01X2372779Y4078197D01*
G01X2368715Y4073879D01*
G01X2360587Y4071847D01*
G01X2350173Y4071847D01*
G01X2339759Y4073879D01*
G01X2333663Y4078197D01*
G01X2331631Y4084293D01*
G01X2331631Y4088357D01*
G01X2333663Y4094707D01*
G01X2337727Y4096739D01*
G01X1789341Y1360651D02*
G01X1787309Y1364715D01*
G01X1783245Y1368779D01*
G01X1778927Y1370811D01*
G01X1770799Y1370811D01*
G01X1766735Y1368779D01*
G01X1762417Y1364715D01*
G01X1760385Y1360651D01*
G01X1758353Y1354301D01*
G01X1758353Y1344141D01*
G01X1760385Y1337791D01*
G01X1762417Y1333727D01*
G01X1766735Y1329663D01*
G01X1770799Y1327631D01*
G01X1778927Y1327631D01*
G01X1783245Y1329663D01*
G01X1787309Y1333727D01*
G01X1789341Y1337791D01*
G01X1811439Y1360651D02*
G01X1811439Y1362683D01*
G01X1813471Y1366747D01*
G01X1815503Y1368779D01*
G01X1819821Y1370811D01*
G01X1827949Y1370811D01*
G01X1832013Y1368779D01*
G01X1834299Y1366747D01*
G01X1836331Y1362683D01*
G01X1836331Y1358619D01*
G01X1834299Y1354301D01*
G01X1829981Y1348205D01*
G01X1809407Y1327631D01*
G01X1838363Y1327631D01*
G01X1858429Y1362683D02*
G01X1862493Y1364715D01*
G01X1868843Y1370811D01*
G01X1868843Y1327631D01*
G01X1435519Y4081245D02*
G01X1433233Y4085563D01*
G01X1428915Y4089881D01*
G01X1424597Y4092167D01*
G01X1415961Y4092167D01*
G01X1411389Y4089881D01*
G01X1407071Y4085563D01*
G01X1405039Y4081245D01*
G01X1402753Y4074641D01*
G01X1402753Y4063719D01*
G01X1405039Y4057115D01*
G01X1407071Y4052797D01*
G01X1411389Y4048479D01*
G01X1415961Y4046193D01*
G01X1424597Y4046193D01*
G01X1428915Y4048479D01*
G01X1433233Y4052797D01*
G01X1435519Y4057115D01*
G01X1458379Y4081245D02*
G01X1458379Y4083277D01*
G01X1460411Y4087595D01*
G01X1462697Y4089881D01*
G01X1467015Y4092167D01*
G01X1475905Y4092167D01*
G01X1480223Y4089881D01*
G01X1482255Y4087595D01*
G01X1484541Y4083277D01*
G01X1484541Y4078959D01*
G01X1482255Y4074641D01*
G01X1477937Y4068037D01*
G01X1456093Y4046193D01*
G01X1486827Y4046193D01*
G01X1520609Y4092167D02*
G01X1514005Y4089881D01*
G01X1509687Y4083277D01*
G01X1507401Y4072355D01*
G01X1507401Y4065751D01*
G01X1509687Y4055083D01*
G01X1514005Y4048479D01*
G01X1520609Y4046193D01*
G01X1524927Y4046193D01*
G01X1531531Y4048479D01*
G01X1535849Y4055083D01*
G01X1538135Y4065751D01*
G01X1538135Y4072355D01*
G01X1535849Y4083277D01*
G01X1531531Y4089881D01*
G01X1524927Y4092167D01*
G01X1520609Y4092167D01*
G54D14*
G01X3937419Y1338045D02*
G01X3935133Y1342363D01*
G01X3930815Y1346681D01*
G01X3926497Y1348967D01*
G01X3917861Y1348967D01*
G01X3913289Y1346681D01*
G01X3908971Y1342363D01*
G01X3906939Y1338045D01*
G01X3904653Y1331441D01*
G01X3904653Y1320519D01*
G01X3906939Y1313915D01*
G01X3908971Y1309597D01*
G01X3913289Y1305279D01*
G01X3917861Y1302993D01*
G01X3926497Y1302993D01*
G01X3930815Y1305279D01*
G01X3935133Y1309597D01*
G01X3937419Y1313915D01*
G01X3960279Y1338045D02*
G01X3960279Y1340077D01*
G01X3962565Y1344395D01*
G01X3964597Y1346681D01*
G01X3968915Y1348967D01*
G01X3977805Y1348967D01*
G01X3982123Y1346681D01*
G01X3984155Y1344395D01*
G01X3986441Y1340077D01*
G01X3986441Y1335759D01*
G01X3984155Y1331441D01*
G01X3979837Y1324837D01*
G01X3957993Y1302993D01*
G01X3988727Y1302993D01*
G01X4035463Y1348967D02*
G01X4013873Y1348967D01*
G01X4011587Y1329155D01*
G01X4013873Y1331441D01*
G01X4020223Y1333473D01*
G01X4026827Y1333473D01*
G01X4033431Y1331441D01*
G01X4037749Y1327123D01*
G01X4040035Y1320519D01*
G01X4040035Y1316201D01*
G01X4037749Y1309597D01*
G01X4033431Y1305279D01*
G01X4026827Y1302993D01*
G01X4020223Y1302993D01*
G01X4013873Y1305279D01*
G01X4011587Y1307311D01*
G01X4009301Y1311883D01*
G54D13*
G01X1433741Y2097251D02*
G01X1431709Y2101315D01*
G01X1427645Y2105379D01*
G01X1423327Y2107411D01*
G01X1415199Y2107411D01*
G01X1411135Y2105379D01*
G01X1406817Y2101315D01*
G01X1404785Y2097251D01*
G01X1402753Y2090901D01*
G01X1402753Y2080741D01*
G01X1404785Y2074391D01*
G01X1406817Y2070327D01*
G01X1411135Y2066263D01*
G01X1415199Y2064231D01*
G01X1423327Y2064231D01*
G01X1427645Y2066263D01*
G01X1431709Y2070327D01*
G01X1433741Y2074391D01*
G01X1455839Y2097251D02*
G01X1455839Y2099283D01*
G01X1457871Y2103347D01*
G01X1459903Y2105379D01*
G01X1464221Y2107411D01*
G01X1472349Y2107411D01*
G01X1476413Y2105379D01*
G01X1478699Y2103347D01*
G01X1480731Y2099283D01*
G01X1480731Y2095219D01*
G01X1478699Y2090901D01*
G01X1474381Y2084805D01*
G01X1453807Y2064231D01*
G01X1482763Y2064231D01*
G01X1523403Y2107411D02*
G01X1502829Y2078709D01*
G01X1533817Y2078709D01*
G01X1523403Y2107411D02*
G01X1523403Y2064231D01*
G54D10*
G01X3772319Y982445D02*
G01X3770033Y986763D01*
G01X3765715Y991081D01*
G01X3761397Y993367D01*
G01X3752507Y993367D01*
G01X3748189Y991081D01*
G01X3743871Y986763D01*
G01X3741585Y982445D01*
G01X3739553Y975841D01*
G01X3739553Y964919D01*
G01X3741585Y958315D01*
G01X3743871Y953997D01*
G01X3748189Y949679D01*
G01X3752507Y947393D01*
G01X3761397Y947393D01*
G01X3765715Y949679D01*
G01X3770033Y953997D01*
G01X3772319Y958315D01*
G01X3794925Y982445D02*
G01X3794925Y984477D01*
G01X3797211Y989049D01*
G01X3799497Y991081D01*
G01X3803815Y993367D01*
G01X3812451Y993367D01*
G01X3816769Y991081D01*
G01X3819055Y989049D01*
G01X3821341Y984477D01*
G01X3821341Y980159D01*
G01X3819055Y975841D01*
G01X3814737Y969237D01*
G01X3792893Y947393D01*
G01X3823373Y947393D01*
G01X3870109Y986763D02*
G01X3867823Y991081D01*
G01X3861473Y993367D01*
G01X3856901Y993367D01*
G01X3850551Y991081D01*
G01X3845979Y984477D01*
G01X3843947Y973555D01*
G01X3843947Y962633D01*
G01X3845979Y953997D01*
G01X3850551Y949679D01*
G01X3856901Y947393D01*
G01X3859187Y947393D01*
G01X3865791Y949679D01*
G01X3870109Y953997D01*
G01X3872395Y960601D01*
G01X3872395Y962633D01*
G01X3870109Y969237D01*
G01X3865791Y973555D01*
G01X3859187Y975841D01*
G01X3856901Y975841D01*
G01X3850551Y973555D01*
G01X3845979Y969237D01*
G01X3843947Y962633D01*
G01X2811691Y1611857D02*
G01X2809151Y1616937D01*
G01X2804325Y1621763D01*
G01X2799245Y1624303D01*
G01X2789339Y1624303D01*
G01X2784259Y1621763D01*
G01X2779179Y1616937D01*
G01X2776893Y1611857D01*
G01X2774353Y1604491D01*
G01X2774353Y1591791D01*
G01X2776893Y1584425D01*
G01X2779179Y1579345D01*
G01X2784259Y1574265D01*
G01X2789339Y1571979D01*
G01X2799245Y1571979D01*
G01X2804325Y1574265D01*
G01X2809151Y1579345D01*
G01X2811691Y1584425D01*
G01X2838615Y1624303D02*
G01X2866301Y1624303D01*
G01X2851315Y1604491D01*
G01X2858681Y1604491D01*
G01X2863761Y1601951D01*
G01X2866301Y1599411D01*
G01X2868587Y1591791D01*
G01X2868587Y1586965D01*
G01X2866301Y1579345D01*
G01X2861221Y1574265D01*
G01X2853601Y1571979D01*
G01X2846235Y1571979D01*
G01X2838615Y1574265D01*
G01X2836075Y1576805D01*
G01X2833789Y1581885D01*
G01X2925483Y1624303D02*
G01X2900591Y1571979D01*
G01X2890685Y1624303D02*
G01X2925483Y1624303D01*
G54D13*
G01X2805341Y1754351D02*
G01X2803309Y1758415D01*
G01X2799245Y1762479D01*
G01X2794927Y1764511D01*
G01X2786799Y1764511D01*
G01X2782735Y1762479D01*
G01X2778417Y1758415D01*
G01X2776385Y1754351D01*
G01X2774353Y1748001D01*
G01X2774353Y1737841D01*
G01X2776385Y1731491D01*
G01X2778417Y1727427D01*
G01X2782735Y1723363D01*
G01X2786799Y1721331D01*
G01X2794927Y1721331D01*
G01X2799245Y1723363D01*
G01X2803309Y1727427D01*
G01X2805341Y1731491D01*
G01X2829471Y1764511D02*
G01X2852331Y1764511D01*
G01X2839885Y1748001D01*
G01X2845981Y1748001D01*
G01X2850299Y1745969D01*
G01X2852331Y1743937D01*
G01X2854363Y1737841D01*
G01X2854363Y1733777D01*
G01X2852331Y1727427D01*
G01X2848013Y1723363D01*
G01X2841917Y1721331D01*
G01X2835821Y1721331D01*
G01X2829471Y1723363D01*
G01X2827439Y1725395D01*
G01X2825407Y1729459D01*
G01X2884843Y1764511D02*
G01X2878493Y1762479D01*
G01X2876461Y1758415D01*
G01X2876461Y1754351D01*
G01X2878493Y1750287D01*
G01X2882811Y1748001D01*
G01X2890939Y1745969D01*
G01X2897035Y1743937D01*
G01X2901353Y1739873D01*
G01X2903385Y1735809D01*
G01X2903385Y1729459D01*
G01X2901353Y1725395D01*
G01X2899321Y1723363D01*
G01X2892971Y1721331D01*
G01X2884843Y1721331D01*
G01X2878493Y1723363D01*
G01X2876461Y1725395D01*
G01X2874429Y1729459D01*
G01X2874429Y1735809D01*
G01X2876461Y1739873D01*
G01X2880525Y1743937D01*
G01X2886875Y1745969D01*
G01X2895003Y1748001D01*
G01X2899321Y1750287D01*
G01X2901353Y1754351D01*
G01X2901353Y1758415D01*
G01X2899321Y1762479D01*
G01X2892971Y1764511D01*
G01X2884843Y1764511D01*
G01X2170595Y1140941D02*
G01X2166531Y1138909D01*
G01X2162467Y1134845D01*
G01X2160435Y1130527D01*
G01X2160435Y1122399D01*
G01X2162467Y1118335D01*
G01X2166531Y1114017D01*
G01X2170595Y1111985D01*
G01X2176945Y1109953D01*
G01X2187105Y1109953D01*
G01X2193455Y1111985D01*
G01X2197519Y1114017D01*
G01X2201583Y1118335D01*
G01X2203615Y1122399D01*
G01X2203615Y1130527D01*
G01X2201583Y1134845D01*
G01X2197519Y1138909D01*
G01X2193455Y1140941D01*
G01X2160435Y1165071D02*
G01X2160435Y1187931D01*
G01X2176945Y1175485D01*
G01X2176945Y1181581D01*
G01X2178977Y1185899D01*
G01X2181009Y1187931D01*
G01X2187105Y1189963D01*
G01X2191169Y1189963D01*
G01X2197519Y1187931D01*
G01X2201583Y1183613D01*
G01X2203615Y1177517D01*
G01X2203615Y1171421D01*
G01X2201583Y1165071D01*
G01X2199551Y1163039D01*
G01X2195487Y1161007D01*
G01X2166531Y1234921D02*
G01X2162467Y1232635D01*
G01X2160435Y1226539D01*
G01X2160435Y1222475D01*
G01X2162467Y1216125D01*
G01X2168563Y1212061D01*
G01X2178977Y1210029D01*
G01X2189137Y1210029D01*
G01X2197519Y1212061D01*
G01X2201583Y1216125D01*
G01X2203615Y1222475D01*
G01X2203615Y1224507D01*
G01X2201583Y1230603D01*
G01X2197519Y1234921D01*
G01X2191169Y1236953D01*
G01X2189137Y1236953D01*
G01X2183041Y1234921D01*
G01X2178977Y1230603D01*
G01X2176945Y1224507D01*
G01X2176945Y1222475D01*
G01X2178977Y1216125D01*
G01X2183041Y1212061D01*
G01X2189137Y1210029D01*
G01X2348395Y1140941D02*
G01X2344331Y1138909D01*
G01X2340267Y1134845D01*
G01X2338235Y1130527D01*
G01X2338235Y1122399D01*
G01X2340267Y1118335D01*
G01X2344331Y1114017D01*
G01X2348395Y1111985D01*
G01X2354745Y1109953D01*
G01X2364905Y1109953D01*
G01X2371255Y1111985D01*
G01X2375319Y1114017D01*
G01X2379383Y1118335D01*
G01X2381415Y1122399D01*
G01X2381415Y1130527D01*
G01X2379383Y1134845D01*
G01X2375319Y1138909D01*
G01X2371255Y1140941D01*
G01X2338235Y1165071D02*
G01X2338235Y1187931D01*
G01X2354745Y1175485D01*
G01X2354745Y1181581D01*
G01X2356777Y1185899D01*
G01X2358809Y1187931D01*
G01X2364905Y1189963D01*
G01X2368969Y1189963D01*
G01X2375319Y1187931D01*
G01X2379383Y1183613D01*
G01X2381415Y1177517D01*
G01X2381415Y1171421D01*
G01X2379383Y1165071D01*
G01X2377351Y1163039D01*
G01X2373287Y1161007D01*
G01X2338235Y1234921D02*
G01X2338235Y1214093D01*
G01X2356777Y1212061D01*
G01X2354745Y1214093D01*
G01X2352459Y1220443D01*
G01X2352459Y1226539D01*
G01X2354745Y1232635D01*
G01X2358809Y1236953D01*
G01X2364905Y1238985D01*
G01X2368969Y1238985D01*
G01X2375319Y1236953D01*
G01X2379383Y1232635D01*
G01X2381415Y1226539D01*
G01X2381415Y1220443D01*
G01X2379383Y1214093D01*
G01X2377351Y1212061D01*
G01X2373287Y1210029D01*
G54D12*
G01X1583093Y1711933D02*
G01X1583093Y1671801D01*
G01X1583093Y1711933D02*
G01X1600365Y1711933D01*
G01X1605953Y1709901D01*
G01X1607985Y1708123D01*
G01X1609763Y1704313D01*
G01X1609763Y1700503D01*
G01X1607985Y1696693D01*
G01X1605953Y1694661D01*
G01X1600365Y1692883D01*
G01X1583093Y1692883D01*
G01X1596555Y1692883D02*
G01X1609763Y1671801D01*
G01X1634147Y1704313D02*
G01X1637957Y1706091D01*
G01X1643799Y1711933D01*
G01X1643799Y1671801D01*
G01X1671993Y1711933D02*
G01X1693075Y1711933D01*
G01X1681645Y1696693D01*
G01X1687233Y1696693D01*
G01X1691043Y1694661D01*
G01X1693075Y1692883D01*
G01X1694853Y1687041D01*
G01X1694853Y1683231D01*
G01X1693075Y1677643D01*
G01X1689265Y1673833D01*
G01X1683423Y1671801D01*
G01X1677835Y1671801D01*
G01X1671993Y1673833D01*
G01X1670215Y1675611D01*
G01X1668183Y1679421D01*
G54D13*
G01X1347635Y1490953D02*
G01X1390815Y1490953D01*
G01X1347635Y1490953D02*
G01X1347635Y1509495D01*
G01X1349667Y1515845D01*
G01X1351699Y1517877D01*
G01X1355763Y1519909D01*
G01X1359827Y1519909D01*
G01X1364145Y1517877D01*
G01X1366177Y1515845D01*
G01X1368209Y1509495D01*
G01X1368209Y1490953D01*
G01X1368209Y1505431D02*
G01X1390815Y1519909D01*
G01X1355763Y1539975D02*
G01X1353731Y1544039D01*
G01X1347635Y1550389D01*
G01X1390815Y1550389D01*
G01X1347635Y1595347D02*
G01X1347635Y1574519D01*
G01X1366177Y1572487D01*
G01X1364145Y1574519D01*
G01X1361859Y1580869D01*
G01X1361859Y1586965D01*
G01X1364145Y1593061D01*
G01X1368209Y1597379D01*
G01X1374305Y1599411D01*
G01X1378369Y1599411D01*
G01X1384719Y1597379D01*
G01X1388783Y1593061D01*
G01X1390815Y1586965D01*
G01X1390815Y1580869D01*
G01X1388783Y1574519D01*
G01X1386751Y1572487D01*
G01X1382687Y1570455D01*
G54D10*
G01X1208443Y3891253D02*
G01X1260767Y3891253D01*
G01X1208443Y3891253D02*
G01X1208443Y3913605D01*
G01X1210983Y3921225D01*
G01X1213269Y3923765D01*
G01X1218349Y3926051D01*
G01X1223429Y3926051D01*
G01X1228255Y3923765D01*
G01X1230795Y3921225D01*
G01X1233335Y3913605D01*
G01X1233335Y3891253D01*
G01X1233335Y3908779D02*
G01X1260767Y3926051D01*
G01X1218349Y3948149D02*
G01X1215809Y3952975D01*
G01X1208443Y3960595D01*
G01X1260767Y3960595D01*
G01X1215809Y4012665D02*
G01X1210983Y4010125D01*
G01X1208443Y4002505D01*
G01X1208443Y3997679D01*
G01X1210983Y3990059D01*
G01X1218349Y3984979D01*
G01X1230795Y3982693D01*
G01X1243495Y3982693D01*
G01X1253401Y3984979D01*
G01X1258481Y3990059D01*
G01X1260767Y3997679D01*
G01X1260767Y4000219D01*
G01X1258481Y4007585D01*
G01X1253401Y4012665D01*
G01X1245781Y4015205D01*
G01X1243495Y4015205D01*
G01X1235875Y4012665D01*
G01X1230795Y4007585D01*
G01X1228255Y4000219D01*
G01X1228255Y3997679D01*
G01X1230795Y3990059D01*
G01X1235875Y3984979D01*
G01X1243495Y3982693D01*
G54D13*
G01X2012353Y3847311D02*
G01X2012353Y3816577D01*
G01X2014385Y3810227D01*
G01X2018449Y3806163D01*
G01X2024799Y3804131D01*
G01X2028863Y3804131D01*
G01X2034959Y3806163D01*
G01X2039277Y3810227D01*
G01X2041309Y3816577D01*
G01X2041309Y3847311D01*
G01X2061375Y3839183D02*
G01X2065439Y3841215D01*
G01X2071789Y3847311D01*
G01X2071789Y3804131D01*
G01X2120811Y3847311D02*
G01X2100237Y3804131D01*
G01X2091855Y3847311D02*
G01X2120811Y3847311D01*
G01X1593253Y1878811D02*
G01X1593253Y1848077D01*
G01X1595285Y1841727D01*
G01X1599349Y1837663D01*
G01X1605699Y1835631D01*
G01X1609763Y1835631D01*
G01X1615859Y1837663D01*
G01X1620177Y1841727D01*
G01X1622209Y1848077D01*
G01X1622209Y1878811D01*
G01X1667167Y1872715D02*
G01X1664881Y1876779D01*
G01X1658785Y1878811D01*
G01X1654721Y1878811D01*
G01X1648371Y1876779D01*
G01X1644307Y1870683D01*
G01X1642275Y1860269D01*
G01X1642275Y1850109D01*
G01X1644307Y1841727D01*
G01X1648371Y1837663D01*
G01X1654721Y1835631D01*
G01X1656753Y1835631D01*
G01X1662849Y1837663D01*
G01X1667167Y1841727D01*
G01X1669199Y1848077D01*
G01X1669199Y1850109D01*
G01X1667167Y1856205D01*
G01X1662849Y1860269D01*
G01X1656753Y1862301D01*
G01X1654721Y1862301D01*
G01X1648371Y1860269D01*
G01X1644307Y1856205D01*
G01X1642275Y1850109D01*
G54D10*
G01X1771053Y4075403D02*
G01X1771053Y4038065D01*
G01X1773593Y4030445D01*
G01X1778419Y4025365D01*
G01X1786039Y4023079D01*
G01X1790865Y4023079D01*
G01X1798485Y4025365D01*
G01X1803565Y4030445D01*
G01X1805851Y4038065D01*
G01X1805851Y4075403D01*
G01X1827949Y4065497D02*
G01X1832775Y4068037D01*
G01X1840395Y4075403D01*
G01X1840395Y4023079D01*
G01X1892465Y4068037D02*
G01X1889925Y4072863D01*
G01X1882305Y4075403D01*
G01X1877479Y4075403D01*
G01X1869859Y4072863D01*
G01X1864779Y4065497D01*
G01X1862493Y4053051D01*
G01X1862493Y4040351D01*
G01X1864779Y4030445D01*
G01X1869859Y4025365D01*
G01X1877479Y4023079D01*
G01X1880019Y4023079D01*
G01X1887385Y4025365D01*
G01X1892465Y4030445D01*
G01X1895005Y4038065D01*
G01X1895005Y4040351D01*
G01X1892465Y4047971D01*
G01X1887385Y4053051D01*
G01X1880019Y4055591D01*
G01X1877479Y4055591D01*
G01X1869859Y4053051D01*
G01X1864779Y4047971D01*
G01X1862493Y4040351D01*
G54D12*
G01X2129193Y4424907D02*
G01X2129193Y4359883D01*
G01X2129193Y4359883D02*
G01X2166277Y4359883D01*
G01X2227237Y4424907D02*
G01X2196503Y4381727D01*
G01X2242731Y4381727D01*
G01X2227237Y4424907D02*
G01X2227237Y4359883D01*
G54D13*
G01X2012353Y2056611D02*
G01X2012353Y2013431D01*
G01X2012353Y2013431D02*
G01X2037245Y2013431D01*
G01X2082203Y2056611D02*
G01X2061375Y2056611D01*
G01X2059343Y2038069D01*
G01X2061375Y2040101D01*
G01X2067725Y2042387D01*
G01X2073821Y2042387D01*
G01X2079917Y2040101D01*
G01X2084235Y2036037D01*
G01X2086267Y2029941D01*
G01X2086267Y2025877D01*
G01X2084235Y2019527D01*
G01X2079917Y2015463D01*
G01X2073821Y2013431D01*
G01X2067725Y2013431D01*
G01X2061375Y2015463D01*
G01X2059343Y2017495D01*
G01X2057311Y2021559D01*
G54D14*
G01X3726853Y752067D02*
G01X3726853Y706093D01*
G01X3726853Y706093D02*
G01X3753015Y706093D01*
G01X3773589Y752067D02*
G01X3773589Y706093D01*
G01X3773589Y752067D02*
G01X3788829Y752067D01*
G01X3795433Y749781D01*
G01X3799751Y745463D01*
G01X3802037Y741145D01*
G01X3804323Y734541D01*
G01X3804323Y723619D01*
G01X3802037Y717015D01*
G01X3799751Y712697D01*
G01X3795433Y708379D01*
G01X3788829Y706093D01*
G01X3773589Y706093D01*
G01X3838105Y752067D02*
G01X3833787Y749781D01*
G01X3829469Y745463D01*
G01X3827183Y741145D01*
G01X3824897Y734541D01*
G01X3824897Y723619D01*
G01X3827183Y717015D01*
G01X3829469Y712697D01*
G01X3833787Y708379D01*
G01X3838105Y706093D01*
G01X3846741Y706093D01*
G01X3851059Y708379D01*
G01X3855631Y712697D01*
G01X3857663Y717015D01*
G01X3859949Y723619D01*
G01X3859949Y734541D01*
G01X3857663Y741145D01*
G01X3855631Y745463D01*
G01X3851059Y749781D01*
G01X3846741Y752067D01*
G01X3838105Y752067D01*
G01X3880523Y743177D02*
G01X3885095Y745463D01*
G01X3891445Y752067D01*
G01X3891445Y706093D01*
G54D12*
G01X220383Y2189707D02*
G01X220383Y2124683D01*
G01X198793Y2189707D02*
G01X242227Y2189707D01*
G01X287693Y2168117D02*
G01X281597Y2165069D01*
G01X275501Y2158719D01*
G01X272453Y2149575D01*
G01X272453Y2143225D01*
G01X275501Y2134081D01*
G01X281597Y2127731D01*
G01X287693Y2124683D01*
G01X297091Y2124683D01*
G01X303187Y2127731D01*
G01X309537Y2134081D01*
G01X312585Y2143225D01*
G01X312585Y2149575D01*
G01X309537Y2158719D01*
G01X303187Y2165069D01*
G01X297091Y2168117D01*
G01X287693Y2168117D01*
G01X379895Y2168117D02*
G01X379895Y2118587D01*
G01X376847Y2109189D01*
G01X373545Y2106141D01*
G01X367449Y2103093D01*
G01X358051Y2103093D01*
G01X351955Y2106141D01*
G01X379895Y2158719D02*
G01X373545Y2165069D01*
G01X367449Y2168117D01*
G01X358051Y2168117D01*
G01X351955Y2165069D01*
G01X345859Y2158719D01*
G01X342811Y2149575D01*
G01X342811Y2143225D01*
G01X345859Y2134081D01*
G01X351955Y2127731D01*
G01X358051Y2124683D01*
G01X367449Y2124683D01*
G01X373545Y2127731D01*
G01X379895Y2134081D01*
G01X447205Y2168117D02*
G01X447205Y2118587D01*
G01X444157Y2109189D01*
G01X440855Y2106141D01*
G01X434759Y2103093D01*
G01X425361Y2103093D01*
G01X419265Y2106141D01*
G01X447205Y2158719D02*
G01X440855Y2165069D01*
G01X434759Y2168117D01*
G01X425361Y2168117D01*
G01X419265Y2165069D01*
G01X413169Y2158719D01*
G01X410121Y2149575D01*
G01X410121Y2143225D01*
G01X413169Y2134081D01*
G01X419265Y2127731D01*
G01X425361Y2124683D01*
G01X434759Y2124683D01*
G01X440855Y2127731D01*
G01X447205Y2134081D01*
G01X477431Y2189707D02*
G01X477431Y2124683D01*
G01X507657Y2149575D02*
G01X544741Y2149575D01*
G01X544741Y2155671D01*
G01X541693Y2162021D01*
G01X538391Y2165069D01*
G01X532295Y2168117D01*
G01X522897Y2168117D01*
G01X516801Y2165069D01*
G01X510705Y2158719D01*
G01X507657Y2149575D01*
G01X507657Y2143225D01*
G01X510705Y2134081D01*
G01X516801Y2127731D01*
G01X522897Y2124683D01*
G01X532295Y2124683D01*
G01X538391Y2127731D01*
G01X544741Y2134081D01*
G01X574967Y2152623D02*
G01X630593Y2152623D01*
G01X660819Y2189707D02*
G01X660819Y2143225D01*
G01X663867Y2134081D01*
G01X669963Y2127731D01*
G01X679361Y2124683D01*
G01X685457Y2124683D01*
G01X694855Y2127731D01*
G01X700951Y2134081D01*
G01X703999Y2143225D01*
G01X703999Y2189707D01*
G01X777405Y2180563D02*
G01X771309Y2186659D01*
G01X761911Y2189707D01*
G01X749465Y2189707D01*
G01X740321Y2186659D01*
G01X734225Y2180563D01*
G01X734225Y2174213D01*
G01X737273Y2168117D01*
G01X740321Y2165069D01*
G01X746417Y2162021D01*
G01X764959Y2155671D01*
G01X771309Y2152623D01*
G01X774357Y2149575D01*
G01X777405Y2143225D01*
G01X777405Y2134081D01*
G01X771309Y2127731D01*
G01X761911Y2124683D01*
G01X749465Y2124683D01*
G01X740321Y2127731D01*
G01X734225Y2134081D01*
G01X807631Y2189707D02*
G01X807631Y2124683D01*
G01X807631Y2189707D02*
G01X835317Y2189707D01*
G01X844715Y2186659D01*
G01X847763Y2183611D01*
G01X850811Y2177261D01*
G01X850811Y2171165D01*
G01X847763Y2165069D01*
G01X844715Y2162021D01*
G01X835317Y2158719D01*
G01X807631Y2158719D02*
G01X835317Y2158719D01*
G01X844715Y2155671D01*
G01X847763Y2152623D01*
G01X850811Y2146527D01*
G01X850811Y2137129D01*
G01X847763Y2131033D01*
G01X844715Y2127731D01*
G01X835317Y2124683D01*
G01X807631Y2124683D01*
G54D10*
G01X2774353Y1510003D02*
G01X2774353Y1457679D01*
G01X2809151Y1510003D02*
G01X2809151Y1457679D01*
G01X2774353Y1485111D02*
G01X2809151Y1485111D01*
G01X2831249Y1510003D02*
G01X2831249Y1472665D01*
G01X2833535Y1465045D01*
G01X2838615Y1459965D01*
G01X2846235Y1457679D01*
G01X2851061Y1457679D01*
G01X2858681Y1459965D01*
G01X2863761Y1465045D01*
G01X2866047Y1472665D01*
G01X2866047Y1510003D01*
G01X2888145Y1510003D02*
G01X2888145Y1457679D01*
G01X2888145Y1510003D02*
G01X2910497Y1510003D01*
G01X2918117Y1507463D01*
G01X2920657Y1505177D01*
G01X2922943Y1500097D01*
G01X2922943Y1495017D01*
G01X2920657Y1490191D01*
G01X2918117Y1487651D01*
G01X2910497Y1485111D01*
G01X2888145Y1485111D02*
G01X2910497Y1485111D01*
G01X2918117Y1482571D01*
G01X2920657Y1480031D01*
G01X2922943Y1474951D01*
G01X2922943Y1467585D01*
G01X2920657Y1462505D01*
G01X2918117Y1459965D01*
G01X2910497Y1457679D01*
G01X2888145Y1457679D01*
G01X2947327Y1497557D02*
G01X2947327Y1500097D01*
G01X2949867Y1505177D01*
G01X2952407Y1507463D01*
G01X2957487Y1510003D01*
G01X2967393Y1510003D01*
G01X2972473Y1507463D01*
G01X2975013Y1505177D01*
G01X2977553Y1500097D01*
G01X2977553Y1495017D01*
G01X2975013Y1490191D01*
G01X2969933Y1482571D01*
G01X2945041Y1457679D01*
G01X2979839Y1457679D01*
G54D12*
G01X3513493Y729207D02*
G01X3556927Y664183D01*
G01X3556927Y729207D02*
G01X3513493Y664183D01*
G01X3593249Y729207D02*
G01X3627285Y729207D01*
G01X3608743Y704569D01*
G01X3617887Y704569D01*
G01X3624237Y701521D01*
G01X3627285Y698219D01*
G01X3630333Y689075D01*
G01X3630333Y682725D01*
G01X3627285Y673581D01*
G01X3621189Y667231D01*
G01X3611791Y664183D01*
G01X3602393Y664183D01*
G01X3593249Y667231D01*
G01X3590201Y670533D01*
G01X3587153Y676629D01*
G01X1240193Y1440407D02*
G01X1240193Y1393925D01*
G01X1243241Y1384781D01*
G01X1249591Y1378431D01*
G01X1258735Y1375383D01*
G01X1265085Y1375383D01*
G01X1274229Y1378431D01*
G01X1280325Y1384781D01*
G01X1283627Y1393925D01*
G01X1283627Y1440407D01*
G01X1313853Y1427961D02*
G01X1319949Y1431263D01*
G01X1329093Y1440407D01*
G01X1329093Y1375383D01*
G01X1374559Y1440407D02*
G01X1365415Y1437359D01*
G01X1362367Y1431263D01*
G01X1362367Y1424913D01*
G01X1365415Y1418817D01*
G01X1371511Y1415769D01*
G01X1383957Y1412721D01*
G01X1393355Y1409419D01*
G01X1399451Y1403323D01*
G01X1402499Y1397227D01*
G01X1402499Y1387829D01*
G01X1399451Y1381733D01*
G01X1396403Y1378431D01*
G01X1387005Y1375383D01*
G01X1374559Y1375383D01*
G01X1365415Y1378431D01*
G01X1362367Y1381733D01*
G01X1359319Y1387829D01*
G01X1359319Y1397227D01*
G01X1362367Y1403323D01*
G01X1368463Y1409419D01*
G01X1377861Y1412721D01*
G01X1390053Y1415769D01*
G01X1396403Y1418817D01*
G01X1399451Y1424913D01*
G01X1399451Y1431263D01*
G01X1396403Y1437359D01*
G01X1387005Y1440407D01*
G01X1374559Y1440407D01*
G01X4623727Y808963D02*
G01X4617377Y815059D01*
G01X4608233Y818107D01*
G01X4595787Y818107D01*
G01X4586389Y815059D01*
G01X4580293Y808963D01*
G01X4580293Y802613D01*
G01X4583341Y796517D01*
G01X4586389Y793469D01*
G01X4592739Y790421D01*
G01X4611281Y784071D01*
G01X4617377Y781023D01*
G01X4620425Y777975D01*
G01X4623727Y771625D01*
G01X4623727Y762481D01*
G01X4617377Y756131D01*
G01X4608233Y753083D01*
G01X4595787Y753083D01*
G01X4586389Y756131D01*
G01X4580293Y762481D01*
G01X4653953Y818107D02*
G01X4669193Y753083D01*
G01X4684687Y818107D02*
G01X4669193Y753083D01*
G01X4684687Y818107D02*
G01X4700181Y753083D01*
G01X4715675Y818107D02*
G01X4700181Y753083D01*
G01X4745901Y805661D02*
G01X4751997Y808963D01*
G01X4761141Y818107D01*
G01X4761141Y753083D01*
G54D10*
G01X1097953Y5434303D02*
G01X1097953Y5381979D01*
G01X1097953Y5434303D02*
G01X1120305Y5434303D01*
G01X1127925Y5431763D01*
G01X1130465Y5429477D01*
G01X1132751Y5424397D01*
G01X1132751Y5419317D01*
G01X1130465Y5414491D01*
G01X1127925Y5411951D01*
G01X1120305Y5409411D01*
G01X1097953Y5409411D01*
G01X1115479Y5409411D02*
G01X1132751Y5381979D01*
G01X1154849Y5424397D02*
G01X1159675Y5426937D01*
G01X1167295Y5434303D01*
G01X1167295Y5381979D01*
G01X1201839Y5434303D02*
G01X1194219Y5431763D01*
G01X1191679Y5426937D01*
G01X1191679Y5421857D01*
G01X1194219Y5416777D01*
G01X1199299Y5414491D01*
G01X1209205Y5411951D01*
G01X1216825Y5409411D01*
G01X1221905Y5404331D01*
G01X1224191Y5399251D01*
G01X1224191Y5391885D01*
G01X1221905Y5386805D01*
G01X1219365Y5384265D01*
G01X1211745Y5381979D01*
G01X1201839Y5381979D01*
G01X1194219Y5384265D01*
G01X1191679Y5386805D01*
G01X1189393Y5391885D01*
G01X1189393Y5399251D01*
G01X1191679Y5404331D01*
G01X1196759Y5409411D01*
G01X1204379Y5411951D01*
G01X1214285Y5414491D01*
G01X1219365Y5416777D01*
G01X1221905Y5421857D01*
G01X1221905Y5426937D01*
G01X1219365Y5431763D01*
G01X1211745Y5434303D01*
G01X1201839Y5434303D01*
G01X882053Y4773903D02*
G01X882053Y4721579D01*
G01X882053Y4773903D02*
G01X904405Y4773903D01*
G01X912025Y4771363D01*
G01X914565Y4769077D01*
G01X916851Y4763997D01*
G01X916851Y4758917D01*
G01X914565Y4754091D01*
G01X912025Y4751551D01*
G01X904405Y4749011D01*
G01X882053Y4749011D01*
G01X899579Y4749011D02*
G01X916851Y4721579D01*
G01X938949Y4763997D02*
G01X943775Y4766537D01*
G01X951395Y4773903D01*
G01X951395Y4721579D01*
G01X1006005Y4756377D02*
G01X1003465Y4749011D01*
G01X998385Y4743931D01*
G01X991019Y4741391D01*
G01X988479Y4741391D01*
G01X980859Y4743931D01*
G01X975779Y4749011D01*
G01X973493Y4756377D01*
G01X973493Y4758917D01*
G01X975779Y4766537D01*
G01X980859Y4771363D01*
G01X988479Y4773903D01*
G01X991019Y4773903D01*
G01X998385Y4771363D01*
G01X1003465Y4766537D01*
G01X1006005Y4756377D01*
G01X1006005Y4743931D01*
G01X1003465Y4731485D01*
G01X998385Y4723865D01*
G01X991019Y4721579D01*
G01X985939Y4721579D01*
G01X978319Y4723865D01*
G01X975779Y4728945D01*
G54D12*
G01X93383Y4412207D02*
G01X93383Y4347183D01*
G01X71793Y4412207D02*
G01X115227Y4412207D01*
G01X182537Y4390617D02*
G01X182537Y4347183D01*
G01X182537Y4381219D02*
G01X176187Y4387569D01*
G01X170091Y4390617D01*
G01X160693Y4390617D01*
G01X154597Y4387569D01*
G01X148501Y4381219D01*
G01X145453Y4372075D01*
G01X145453Y4365725D01*
G01X148501Y4356581D01*
G01X154597Y4350231D01*
G01X160693Y4347183D01*
G01X170091Y4347183D01*
G01X176187Y4350231D01*
G01X182537Y4356581D01*
G01X212763Y4390617D02*
G01X212763Y4347183D01*
G01X212763Y4372075D02*
G01X215811Y4381219D01*
G01X221907Y4387569D01*
G01X228003Y4390617D01*
G01X237401Y4390617D01*
G01X304711Y4390617D02*
G01X304711Y4341087D01*
G01X301663Y4331689D01*
G01X298361Y4328641D01*
G01X292265Y4325593D01*
G01X282867Y4325593D01*
G01X276771Y4328641D01*
G01X304711Y4381219D02*
G01X298361Y4387569D01*
G01X292265Y4390617D01*
G01X282867Y4390617D01*
G01X276771Y4387569D01*
G01X270675Y4381219D01*
G01X267627Y4372075D01*
G01X267627Y4365725D01*
G01X270675Y4356581D01*
G01X276771Y4350231D01*
G01X282867Y4347183D01*
G01X292265Y4347183D01*
G01X298361Y4350231D01*
G01X304711Y4356581D01*
G01X334937Y4372075D02*
G01X372021Y4372075D01*
G01X372021Y4378171D01*
G01X368973Y4384521D01*
G01X365671Y4387569D01*
G01X359575Y4390617D01*
G01X350177Y4390617D01*
G01X344081Y4387569D01*
G01X337985Y4381219D01*
G01X334937Y4372075D01*
G01X334937Y4365725D01*
G01X337985Y4356581D01*
G01X344081Y4350231D01*
G01X350177Y4347183D01*
G01X359575Y4347183D01*
G01X365671Y4350231D01*
G01X372021Y4356581D01*
G01X411391Y4412207D02*
G01X411391Y4359629D01*
G01X414439Y4350231D01*
G01X420789Y4347183D01*
G01X426885Y4347183D01*
G01X402247Y4390617D02*
G01X423837Y4390617D01*
G01X457111Y4375123D02*
G01X512737Y4375123D01*
G01X542963Y4412207D02*
G01X542963Y4365725D01*
G01X546011Y4356581D01*
G01X552107Y4350231D01*
G01X561505Y4347183D01*
G01X567601Y4347183D01*
G01X576999Y4350231D01*
G01X583095Y4356581D01*
G01X586143Y4365725D01*
G01X586143Y4412207D01*
G01X659549Y4403063D02*
G01X653453Y4409159D01*
G01X644055Y4412207D01*
G01X631609Y4412207D01*
G01X622465Y4409159D01*
G01X616369Y4403063D01*
G01X616369Y4396713D01*
G01X619417Y4390617D01*
G01X622465Y4387569D01*
G01X628561Y4384521D01*
G01X647103Y4378171D01*
G01X653453Y4375123D01*
G01X656501Y4372075D01*
G01X659549Y4365725D01*
G01X659549Y4356581D01*
G01X653453Y4350231D01*
G01X644055Y4347183D01*
G01X631609Y4347183D01*
G01X622465Y4350231D01*
G01X616369Y4356581D01*
G01X689775Y4412207D02*
G01X689775Y4347183D01*
G01X689775Y4412207D02*
G01X717461Y4412207D01*
G01X726859Y4409159D01*
G01X729907Y4406111D01*
G01X732955Y4399761D01*
G01X732955Y4393665D01*
G01X729907Y4387569D01*
G01X726859Y4384521D01*
G01X717461Y4381219D01*
G01X689775Y4381219D02*
G01X717461Y4381219D01*
G01X726859Y4378171D01*
G01X729907Y4375123D01*
G01X732955Y4369027D01*
G01X732955Y4359629D01*
G01X729907Y4353533D01*
G01X726859Y4350231D01*
G01X717461Y4347183D01*
G01X689775Y4347183D01*
G01X4415193Y3650207D02*
G01X4415193Y3585183D01*
G01X4458627Y3650207D02*
G01X4458627Y3585183D01*
G01X4415193Y3619219D02*
G01X4458627Y3619219D01*
G01X4504093Y3628617D02*
G01X4497997Y3625569D01*
G01X4491901Y3619219D01*
G01X4488853Y3610075D01*
G01X4488853Y3603725D01*
G01X4491901Y3594581D01*
G01X4497997Y3588231D01*
G01X4504093Y3585183D01*
G01X4513491Y3585183D01*
G01X4519587Y3588231D01*
G01X4525937Y3594581D01*
G01X4528985Y3603725D01*
G01X4528985Y3610075D01*
G01X4525937Y3619219D01*
G01X4519587Y3625569D01*
G01X4513491Y3628617D01*
G01X4504093Y3628617D01*
G01X4593247Y3619219D02*
G01X4589945Y3625569D01*
G01X4580801Y3628617D01*
G01X4571403Y3628617D01*
G01X4562259Y3625569D01*
G01X4559211Y3619219D01*
G01X4562259Y3613123D01*
G01X4568355Y3610075D01*
G01X4583849Y3607027D01*
G01X4589945Y3603725D01*
G01X4593247Y3597629D01*
G01X4593247Y3594581D01*
G01X4589945Y3588231D01*
G01X4580801Y3585183D01*
G01X4571403Y3585183D01*
G01X4562259Y3588231D01*
G01X4559211Y3594581D01*
G01X4632617Y3650207D02*
G01X4632617Y3597629D01*
G01X4635665Y3588231D01*
G01X4642015Y3585183D01*
G01X4648111Y3585183D01*
G01X4623473Y3628617D02*
G01X4645063Y3628617D01*
G01X4678337Y3613123D02*
G01X4733963Y3613123D01*
G01X4764189Y3650207D02*
G01X4764189Y3603725D01*
G01X4767237Y3594581D01*
G01X4773333Y3588231D01*
G01X4782731Y3585183D01*
G01X4788827Y3585183D01*
G01X4798225Y3588231D01*
G01X4804321Y3594581D01*
G01X4807369Y3603725D01*
G01X4807369Y3650207D01*
G01X4880775Y3641063D02*
G01X4874679Y3647159D01*
G01X4865281Y3650207D01*
G01X4852835Y3650207D01*
G01X4843691Y3647159D01*
G01X4837595Y3641063D01*
G01X4837595Y3634713D01*
G01X4840643Y3628617D01*
G01X4843691Y3625569D01*
G01X4849787Y3622521D01*
G01X4868329Y3616171D01*
G01X4874679Y3613123D01*
G01X4877727Y3610075D01*
G01X4880775Y3603725D01*
G01X4880775Y3594581D01*
G01X4874679Y3588231D01*
G01X4865281Y3585183D01*
G01X4852835Y3585183D01*
G01X4843691Y3588231D01*
G01X4837595Y3594581D01*
G01X4911001Y3650207D02*
G01X4911001Y3585183D01*
G01X4911001Y3650207D02*
G01X4938687Y3650207D01*
G01X4948085Y3647159D01*
G01X4951133Y3644111D01*
G01X4954181Y3637761D01*
G01X4954181Y3631665D01*
G01X4951133Y3625569D01*
G01X4948085Y3622521D01*
G01X4938687Y3619219D01*
G01X4911001Y3619219D02*
G01X4938687Y3619219D01*
G01X4948085Y3616171D01*
G01X4951133Y3613123D01*
G01X4954181Y3607027D01*
G01X4954181Y3597629D01*
G01X4951133Y3591533D01*
G01X4948085Y3588231D01*
G01X4938687Y3585183D01*
G01X4911001Y3585183D01*
G54D10*
G01X1085253Y4558003D02*
G01X1085253Y4520665D01*
G01X1087793Y4513045D01*
G01X1092619Y4507965D01*
G01X1100239Y4505679D01*
G01X1105065Y4505679D01*
G01X1112685Y4507965D01*
G01X1117765Y4513045D01*
G01X1120051Y4520665D01*
G01X1120051Y4558003D01*
G01X1144435Y4545557D02*
G01X1144435Y4548097D01*
G01X1146975Y4553177D01*
G01X1149515Y4555463D01*
G01X1154595Y4558003D01*
G01X1164501Y4558003D01*
G01X1169581Y4555463D01*
G01X1172121Y4553177D01*
G01X1174661Y4548097D01*
G01X1174661Y4543017D01*
G01X1172121Y4538191D01*
G01X1167041Y4530571D01*
G01X1142149Y4505679D01*
G01X1176947Y4505679D01*
G01X1214031Y4558003D02*
G01X1206411Y4555463D01*
G01X1201331Y4548097D01*
G01X1199045Y4535651D01*
G01X1199045Y4528031D01*
G01X1201331Y4515585D01*
G01X1206411Y4507965D01*
G01X1214031Y4505679D01*
G01X1218857Y4505679D01*
G01X1226477Y4507965D01*
G01X1231557Y4515585D01*
G01X1233843Y4528031D01*
G01X1233843Y4535651D01*
G01X1231557Y4548097D01*
G01X1226477Y4555463D01*
G01X1218857Y4558003D01*
G01X1214031Y4558003D01*
G01X3968153Y2564103D02*
G01X3968153Y2526765D01*
G01X3970693Y2519145D01*
G01X3975519Y2514065D01*
G01X3983139Y2511779D01*
G01X3987965Y2511779D01*
G01X3995585Y2514065D01*
G01X4000665Y2519145D01*
G01X4002951Y2526765D01*
G01X4002951Y2564103D01*
G01X4025049Y2554197D02*
G01X4029875Y2556737D01*
G01X4037495Y2564103D01*
G01X4037495Y2511779D01*
G01X4092105Y2546577D02*
G01X4089565Y2539211D01*
G01X4084485Y2534131D01*
G01X4077119Y2531591D01*
G01X4074579Y2531591D01*
G01X4066959Y2534131D01*
G01X4061879Y2539211D01*
G01X4059593Y2546577D01*
G01X4059593Y2549117D01*
G01X4061879Y2556737D01*
G01X4066959Y2561563D01*
G01X4074579Y2564103D01*
G01X4077119Y2564103D01*
G01X4084485Y2561563D01*
G01X4089565Y2556737D01*
G01X4092105Y2546577D01*
G01X4092105Y2534131D01*
G01X4089565Y2521685D01*
G01X4084485Y2514065D01*
G01X4077119Y2511779D01*
G01X4072039Y2511779D01*
G01X4064419Y2514065D01*
G01X4061879Y2519145D01*
G01X1707553Y3872203D02*
G01X1707553Y3819879D01*
G01X1707553Y3872203D02*
G01X1729905Y3872203D01*
G01X1737525Y3869663D01*
G01X1740065Y3867377D01*
G01X1742351Y3862297D01*
G01X1742351Y3857217D01*
G01X1740065Y3852391D01*
G01X1737525Y3849851D01*
G01X1729905Y3847311D01*
G01X1707553Y3847311D01*
G01X1725079Y3847311D02*
G01X1742351Y3819879D01*
G01X1776895Y3872203D02*
G01X1769275Y3869663D01*
G01X1766735Y3864837D01*
G01X1766735Y3859757D01*
G01X1769275Y3854677D01*
G01X1774355Y3852391D01*
G01X1784261Y3849851D01*
G01X1791881Y3847311D01*
G01X1796961Y3842231D01*
G01X1799247Y3837151D01*
G01X1799247Y3829785D01*
G01X1796961Y3824705D01*
G01X1794421Y3822165D01*
G01X1786801Y3819879D01*
G01X1776895Y3819879D01*
G01X1769275Y3822165D01*
G01X1766735Y3824705D01*
G01X1764449Y3829785D01*
G01X1764449Y3837151D01*
G01X1766735Y3842231D01*
G01X1771815Y3847311D01*
G01X1779435Y3849851D01*
G01X1789341Y3852391D01*
G01X1794421Y3854677D01*
G01X1796961Y3859757D01*
G01X1796961Y3864837D01*
G01X1794421Y3869663D01*
G01X1786801Y3872203D01*
G01X1776895Y3872203D01*
G01X1503591Y4863057D02*
G01X1501051Y4868137D01*
G01X1496225Y4872963D01*
G01X1491145Y4875503D01*
G01X1481239Y4875503D01*
G01X1476159Y4872963D01*
G01X1471079Y4868137D01*
G01X1468793Y4863057D01*
G01X1466253Y4855691D01*
G01X1466253Y4842991D01*
G01X1468793Y4835625D01*
G01X1471079Y4830545D01*
G01X1476159Y4825465D01*
G01X1481239Y4823179D01*
G01X1491145Y4823179D01*
G01X1496225Y4825465D01*
G01X1501051Y4830545D01*
G01X1503591Y4835625D01*
G01X1527975Y4863057D02*
G01X1527975Y4865597D01*
G01X1530515Y4870677D01*
G01X1533055Y4872963D01*
G01X1538135Y4875503D01*
G01X1548041Y4875503D01*
G01X1553121Y4872963D01*
G01X1555661Y4870677D01*
G01X1558201Y4865597D01*
G01X1558201Y4860517D01*
G01X1555661Y4855691D01*
G01X1550581Y4848071D01*
G01X1525689Y4823179D01*
G01X1560487Y4823179D01*
G01X1615097Y4857977D02*
G01X1612557Y4850611D01*
G01X1607477Y4845531D01*
G01X1600111Y4842991D01*
G01X1597571Y4842991D01*
G01X1589951Y4845531D01*
G01X1584871Y4850611D01*
G01X1582585Y4857977D01*
G01X1582585Y4860517D01*
G01X1584871Y4868137D01*
G01X1589951Y4872963D01*
G01X1597571Y4875503D01*
G01X1600111Y4875503D01*
G01X1607477Y4872963D01*
G01X1612557Y4868137D01*
G01X1615097Y4857977D01*
G01X1615097Y4845531D01*
G01X1612557Y4833085D01*
G01X1607477Y4825465D01*
G01X1600111Y4823179D01*
G01X1595031Y4823179D01*
G01X1587411Y4825465D01*
G01X1584871Y4830545D01*
G01X3103791Y5066257D02*
G01X3101251Y5071337D01*
G01X3096425Y5076163D01*
G01X3091345Y5078703D01*
G01X3081439Y5078703D01*
G01X3076359Y5076163D01*
G01X3071279Y5071337D01*
G01X3068993Y5066257D01*
G01X3066453Y5058891D01*
G01X3066453Y5046191D01*
G01X3068993Y5038825D01*
G01X3071279Y5033745D01*
G01X3076359Y5028665D01*
G01X3081439Y5026379D01*
G01X3091345Y5026379D01*
G01X3096425Y5028665D01*
G01X3101251Y5033745D01*
G01X3103791Y5038825D01*
G01X3130715Y5078703D02*
G01X3158401Y5078703D01*
G01X3143415Y5058891D01*
G01X3150781Y5058891D01*
G01X3155861Y5056351D01*
G01X3158401Y5053811D01*
G01X3160687Y5046191D01*
G01X3160687Y5041365D01*
G01X3158401Y5033745D01*
G01X3153321Y5028665D01*
G01X3145701Y5026379D01*
G01X3138335Y5026379D01*
G01X3130715Y5028665D01*
G01X3128175Y5031205D01*
G01X3125889Y5036285D01*
G01X3182785Y5068797D02*
G01X3187611Y5071337D01*
G01X3195231Y5078703D01*
G01X3195231Y5026379D01*
G01X1342301Y1765019D02*
G01X1337983Y1762733D01*
G01X1333665Y1758415D01*
G01X1331379Y1754097D01*
G01X1331379Y1745207D01*
G01X1333665Y1740889D01*
G01X1337983Y1736571D01*
G01X1342301Y1734285D01*
G01X1348905Y1732253D01*
G01X1359827Y1732253D01*
G01X1366431Y1734285D01*
G01X1370749Y1736571D01*
G01X1375067Y1740889D01*
G01X1377353Y1745207D01*
G01X1377353Y1754097D01*
G01X1375067Y1758415D01*
G01X1370749Y1762733D01*
G01X1366431Y1765019D01*
G01X1342301Y1787625D02*
G01X1340269Y1787625D01*
G01X1335697Y1789911D01*
G01X1333665Y1792197D01*
G01X1331379Y1796515D01*
G01X1331379Y1805151D01*
G01X1333665Y1809469D01*
G01X1335697Y1811755D01*
G01X1340269Y1814041D01*
G01X1344587Y1814041D01*
G01X1348905Y1811755D01*
G01X1355509Y1807437D01*
G01X1377353Y1785593D01*
G01X1377353Y1816073D01*
G01X1342301Y1838679D02*
G01X1340269Y1838679D01*
G01X1335697Y1840965D01*
G01X1333665Y1843251D01*
G01X1331379Y1847569D01*
G01X1331379Y1856205D01*
G01X1333665Y1860523D01*
G01X1335697Y1862809D01*
G01X1340269Y1865095D01*
G01X1344587Y1865095D01*
G01X1348905Y1862809D01*
G01X1355509Y1858491D01*
G01X1377353Y1836647D01*
G01X1377353Y1867127D01*
G01X1211491Y4240757D02*
G01X1208951Y4245837D01*
G01X1204125Y4250663D01*
G01X1199045Y4253203D01*
G01X1189139Y4253203D01*
G01X1184059Y4250663D01*
G01X1178979Y4245837D01*
G01X1176693Y4240757D01*
G01X1174153Y4233391D01*
G01X1174153Y4220691D01*
G01X1176693Y4213325D01*
G01X1178979Y4208245D01*
G01X1184059Y4203165D01*
G01X1189139Y4200879D01*
G01X1199045Y4200879D01*
G01X1204125Y4203165D01*
G01X1208951Y4208245D01*
G01X1211491Y4213325D01*
G01X1238415Y4253203D02*
G01X1266101Y4253203D01*
G01X1251115Y4233391D01*
G01X1258481Y4233391D01*
G01X1263561Y4230851D01*
G01X1266101Y4228311D01*
G01X1268387Y4220691D01*
G01X1268387Y4215865D01*
G01X1266101Y4208245D01*
G01X1261021Y4203165D01*
G01X1253401Y4200879D01*
G01X1246035Y4200879D01*
G01X1238415Y4203165D01*
G01X1235875Y4205705D01*
G01X1233589Y4210785D01*
G01X1315377Y4253203D02*
G01X1290485Y4218151D01*
G01X1327823Y4218151D01*
G01X1315377Y4253203D02*
G01X1315377Y4200879D01*
G01X2299119Y1630145D02*
G01X2296833Y1634463D01*
G01X2292515Y1638781D01*
G01X2288197Y1641067D01*
G01X2279307Y1641067D01*
G01X2274989Y1638781D01*
G01X2270671Y1634463D01*
G01X2268385Y1630145D01*
G01X2266353Y1623541D01*
G01X2266353Y1612619D01*
G01X2268385Y1606015D01*
G01X2270671Y1601697D01*
G01X2274989Y1597379D01*
G01X2279307Y1595093D01*
G01X2288197Y1595093D01*
G01X2292515Y1597379D01*
G01X2296833Y1601697D01*
G01X2299119Y1606015D01*
G01X2321725Y1630145D02*
G01X2321725Y1632177D01*
G01X2324011Y1636749D01*
G01X2326297Y1638781D01*
G01X2330615Y1641067D01*
G01X2339251Y1641067D01*
G01X2343569Y1638781D01*
G01X2345855Y1636749D01*
G01X2348141Y1632177D01*
G01X2348141Y1627859D01*
G01X2345855Y1623541D01*
G01X2341537Y1616937D01*
G01X2319693Y1595093D01*
G01X2350173Y1595093D01*
G01X2375065Y1641067D02*
G01X2399195Y1641067D01*
G01X2385987Y1623541D01*
G01X2392591Y1623541D01*
G01X2396909Y1621255D01*
G01X2399195Y1619223D01*
G01X2401227Y1612619D01*
G01X2401227Y1608301D01*
G01X2399195Y1601697D01*
G01X2394623Y1597379D01*
G01X2388273Y1595093D01*
G01X2381669Y1595093D01*
G01X2375065Y1597379D01*
G01X2372779Y1599411D01*
G01X2370747Y1603729D01*
G54D14*
G01X3213519Y2417545D02*
G01X3211233Y2421863D01*
G01X3206915Y2426181D01*
G01X3202597Y2428467D01*
G01X3193961Y2428467D01*
G01X3189389Y2426181D01*
G01X3185071Y2421863D01*
G01X3183039Y2417545D01*
G01X3180753Y2410941D01*
G01X3180753Y2400019D01*
G01X3183039Y2393415D01*
G01X3185071Y2389097D01*
G01X3189389Y2384779D01*
G01X3193961Y2382493D01*
G01X3202597Y2382493D01*
G01X3206915Y2384779D01*
G01X3211233Y2389097D01*
G01X3213519Y2393415D01*
G01X3234093Y2419577D02*
G01X3238665Y2421863D01*
G01X3245015Y2428467D01*
G01X3245015Y2382493D01*
G01X3294037Y2412973D02*
G01X3291751Y2406623D01*
G01X3287433Y2402051D01*
G01X3280829Y2400019D01*
G01X3278797Y2400019D01*
G01X3272193Y2402051D01*
G01X3267875Y2406623D01*
G01X3265589Y2412973D01*
G01X3265589Y2415259D01*
G01X3267875Y2421863D01*
G01X3272193Y2426181D01*
G01X3278797Y2428467D01*
G01X3280829Y2428467D01*
G01X3287433Y2426181D01*
G01X3291751Y2421863D01*
G01X3294037Y2412973D01*
G01X3294037Y2402051D01*
G01X3291751Y2391383D01*
G01X3287433Y2384779D01*
G01X3280829Y2382493D01*
G01X3276511Y2382493D01*
G01X3270161Y2384779D01*
G01X3267875Y2389097D01*
G54D10*
G01X1288453Y2237967D02*
G01X1288453Y2191993D01*
G01X1288453Y2237967D02*
G01X1308011Y2237967D01*
G01X1314615Y2235681D01*
G01X1316901Y2233649D01*
G01X1318933Y2229077D01*
G01X1318933Y2224759D01*
G01X1316901Y2220441D01*
G01X1314615Y2218155D01*
G01X1308011Y2216123D01*
G01X1288453Y2216123D01*
G01X1303693Y2216123D02*
G01X1318933Y2191993D01*
G01X1343825Y2237967D02*
G01X1367955Y2237967D01*
G01X1354747Y2220441D01*
G01X1361351Y2220441D01*
G01X1365669Y2218155D01*
G01X1367955Y2216123D01*
G01X1369987Y2209519D01*
G01X1369987Y2205201D01*
G01X1367955Y2198597D01*
G01X1363383Y2194279D01*
G01X1357033Y2191993D01*
G01X1350429Y2191993D01*
G01X1343825Y2194279D01*
G01X1341539Y2196311D01*
G01X1339507Y2200629D01*
G01X1392593Y2227045D02*
G01X1392593Y2229077D01*
G01X1394879Y2233649D01*
G01X1397165Y2235681D01*
G01X1401483Y2237967D01*
G01X1410119Y2237967D01*
G01X1414437Y2235681D01*
G01X1416723Y2233649D01*
G01X1419009Y2229077D01*
G01X1419009Y2224759D01*
G01X1416723Y2220441D01*
G01X1412405Y2213837D01*
G01X1390561Y2191993D01*
G01X1421041Y2191993D01*
G01X2050453Y3507967D02*
G01X2050453Y3461993D01*
G01X2050453Y3507967D02*
G01X2070011Y3507967D01*
G01X2076615Y3505681D01*
G01X2078901Y3503649D01*
G01X2080933Y3499077D01*
G01X2080933Y3494759D01*
G01X2078901Y3490441D01*
G01X2076615Y3488155D01*
G01X2070011Y3486123D01*
G01X2050453Y3486123D01*
G01X2065693Y3486123D02*
G01X2080933Y3461993D01*
G01X2127669Y3507967D02*
G01X2105825Y3507967D01*
G01X2103539Y3488155D01*
G01X2105825Y3490441D01*
G01X2112429Y3492727D01*
G01X2119033Y3492727D01*
G01X2125383Y3490441D01*
G01X2129955Y3486123D01*
G01X2131987Y3479519D01*
G01X2131987Y3475201D01*
G01X2129955Y3468597D01*
G01X2125383Y3464279D01*
G01X2119033Y3461993D01*
G01X2112429Y3461993D01*
G01X2105825Y3464279D01*
G01X2103539Y3466311D01*
G01X2101507Y3470629D01*
G01X3035719Y1706345D02*
G01X3033433Y1710663D01*
G01X3029115Y1714981D01*
G01X3024797Y1717267D01*
G01X3015907Y1717267D01*
G01X3011589Y1714981D01*
G01X3007271Y1710663D01*
G01X3004985Y1706345D01*
G01X3002953Y1699741D01*
G01X3002953Y1688819D01*
G01X3004985Y1682215D01*
G01X3007271Y1677897D01*
G01X3011589Y1673579D01*
G01X3015907Y1671293D01*
G01X3024797Y1671293D01*
G01X3029115Y1673579D01*
G01X3033433Y1677897D01*
G01X3035719Y1682215D01*
G01X3056293Y1708377D02*
G01X3060611Y1710663D01*
G01X3067215Y1717267D01*
G01X3067215Y1671293D01*
G01X3098711Y1717267D02*
G01X3092107Y1714981D01*
G01X3089821Y1710663D01*
G01X3089821Y1706345D01*
G01X3092107Y1702027D01*
G01X3096425Y1699741D01*
G01X3105315Y1697455D01*
G01X3111665Y1695423D01*
G01X3116237Y1690851D01*
G01X3118269Y1686533D01*
G01X3118269Y1679929D01*
G01X3116237Y1675611D01*
G01X3113951Y1673579D01*
G01X3107347Y1671293D01*
G01X3098711Y1671293D01*
G01X3092107Y1673579D01*
G01X3089821Y1675611D01*
G01X3087789Y1679929D01*
G01X3087789Y1686533D01*
G01X3089821Y1690851D01*
G01X3094393Y1695423D01*
G01X3100743Y1697455D01*
G01X3109633Y1699741D01*
G01X3113951Y1702027D01*
G01X3116237Y1706345D01*
G01X3116237Y1710663D01*
G01X3113951Y1714981D01*
G01X3107347Y1717267D01*
G01X3098711Y1717267D01*
G01X1415453Y2479267D02*
G01X1415453Y2433293D01*
G01X1415453Y2479267D02*
G01X1435011Y2479267D01*
G01X1441615Y2476981D01*
G01X1443901Y2474949D01*
G01X1445933Y2470377D01*
G01X1445933Y2466059D01*
G01X1443901Y2461741D01*
G01X1441615Y2459455D01*
G01X1435011Y2457423D01*
G01X1415453Y2457423D01*
G01X1430693Y2457423D02*
G01X1445933Y2433293D01*
G01X1468539Y2468345D02*
G01X1468539Y2470377D01*
G01X1470825Y2474949D01*
G01X1473111Y2476981D01*
G01X1477429Y2479267D01*
G01X1486065Y2479267D01*
G01X1490383Y2476981D01*
G01X1492669Y2474949D01*
G01X1494955Y2470377D01*
G01X1494955Y2466059D01*
G01X1492669Y2461741D01*
G01X1488351Y2455137D01*
G01X1466507Y2433293D01*
G01X1496987Y2433293D01*
G01X1517561Y2470377D02*
G01X1521879Y2472663D01*
G01X1528483Y2479267D01*
G01X1528483Y2433293D01*
G54D14*
G01X4684179Y2202153D02*
G01X4730153Y2202153D01*
G01X4684179Y2202153D02*
G01X4684179Y2221711D01*
G01X4686465Y2228315D01*
G01X4688751Y2230601D01*
G01X4693069Y2232633D01*
G01X4697387Y2232633D01*
G01X4701705Y2230601D01*
G01X4703991Y2228315D01*
G01X4706023Y2221711D01*
G01X4706023Y2202153D01*
G01X4706023Y2217393D02*
G01X4730153Y2232633D01*
G01X4695101Y2255493D02*
G01X4693069Y2255493D01*
G01X4688751Y2257779D01*
G01X4686465Y2259811D01*
G01X4684179Y2264129D01*
G01X4684179Y2273019D01*
G01X4686465Y2277337D01*
G01X4688751Y2279369D01*
G01X4693069Y2281655D01*
G01X4697387Y2281655D01*
G01X4701705Y2279369D01*
G01X4708309Y2275051D01*
G01X4730153Y2253207D01*
G01X4730153Y2283941D01*
G01X4684179Y2317723D02*
G01X4686465Y2311119D01*
G01X4693069Y2306801D01*
G01X4703991Y2304515D01*
G01X4710595Y2304515D01*
G01X4721263Y2306801D01*
G01X4727867Y2311119D01*
G01X4730153Y2317723D01*
G01X4730153Y2322041D01*
G01X4727867Y2328645D01*
G01X4721263Y2332963D01*
G01X4710595Y2335249D01*
G01X4703991Y2335249D01*
G01X4693069Y2332963D01*
G01X4686465Y2328645D01*
G01X4684179Y2322041D01*
G01X4684179Y2317723D01*
G54D12*
G01X4312323Y3777207D02*
G01X4312323Y3712183D01*
G01X4312323Y3777207D02*
G01X4340263Y3777207D01*
G01X4349407Y3774159D01*
G01X4352455Y3771111D01*
G01X4355757Y3764761D01*
G01X4355757Y3755617D01*
G01X4352455Y3749521D01*
G01X4349407Y3746219D01*
G01X4340263Y3743171D01*
G01X4312323Y3743171D01*
G01X4385983Y3777207D02*
G01X4385983Y3712183D01*
G01X4385983Y3777207D02*
G01X4413669Y3777207D01*
G01X4423067Y3774159D01*
G01X4426115Y3771111D01*
G01X4429163Y3764761D01*
G01X4429163Y3758665D01*
G01X4426115Y3752569D01*
G01X4423067Y3749521D01*
G01X4413669Y3746219D01*
G01X4385983Y3746219D01*
G01X4407573Y3746219D02*
G01X4429163Y3712183D01*
G01X4477931Y3777207D02*
G01X4471581Y3774159D01*
G01X4465485Y3768063D01*
G01X4462437Y3761713D01*
G01X4459389Y3752569D01*
G01X4459389Y3737075D01*
G01X4462437Y3727677D01*
G01X4465485Y3721581D01*
G01X4471581Y3715231D01*
G01X4477931Y3712183D01*
G01X4490123Y3712183D01*
G01X4496473Y3715231D01*
G01X4502569Y3721581D01*
G01X4505617Y3727677D01*
G01X4508919Y3737075D01*
G01X4508919Y3752569D01*
G01X4505617Y3761713D01*
G01X4502569Y3768063D01*
G01X4496473Y3774159D01*
G01X4490123Y3777207D01*
G01X4477931Y3777207D01*
G01X4539145Y3777207D02*
G01X4539145Y3712183D01*
G01X4539145Y3777207D02*
G01X4566831Y3777207D01*
G01X4576229Y3774159D01*
G01X4579277Y3771111D01*
G01X4582325Y3764761D01*
G01X4582325Y3758665D01*
G01X4579277Y3752569D01*
G01X4576229Y3749521D01*
G01X4566831Y3746219D01*
G01X4539145Y3746219D02*
G01X4566831Y3746219D01*
G01X4576229Y3743171D01*
G01X4579277Y3740123D01*
G01X4582325Y3734027D01*
G01X4582325Y3724629D01*
G01X4579277Y3718533D01*
G01X4576229Y3715231D01*
G01X4566831Y3712183D01*
G01X4539145Y3712183D01*
G01X4612551Y3777207D02*
G01X4612551Y3712183D01*
G01X4612551Y3777207D02*
G01X4652683Y3777207D01*
G01X4612551Y3746219D02*
G01X4637189Y3746219D01*
G01X4612551Y3712183D02*
G01X4652683Y3712183D01*
G01X4682909Y3690593D02*
G01X4738535Y3690593D01*
G01X4768761Y3777207D02*
G01X4768761Y3730725D01*
G01X4771809Y3721581D01*
G01X4777905Y3715231D01*
G01X4787303Y3712183D01*
G01X4793399Y3712183D01*
G01X4802797Y3715231D01*
G01X4808893Y3721581D01*
G01X4811941Y3730725D01*
G01X4811941Y3777207D01*
G01X4885347Y3768063D02*
G01X4879251Y3774159D01*
G01X4869853Y3777207D01*
G01X4857407Y3777207D01*
G01X4848263Y3774159D01*
G01X4842167Y3768063D01*
G01X4842167Y3761713D01*
G01X4845215Y3755617D01*
G01X4848263Y3752569D01*
G01X4854359Y3749521D01*
G01X4872901Y3743171D01*
G01X4879251Y3740123D01*
G01X4882299Y3737075D01*
G01X4885347Y3730725D01*
G01X4885347Y3721581D01*
G01X4879251Y3715231D01*
G01X4869853Y3712183D01*
G01X4857407Y3712183D01*
G01X4848263Y3715231D01*
G01X4842167Y3721581D01*
G01X4915573Y3777207D02*
G01X4915573Y3712183D01*
G01X4915573Y3777207D02*
G01X4943259Y3777207D01*
G01X4952657Y3774159D01*
G01X4955705Y3771111D01*
G01X4958753Y3764761D01*
G01X4958753Y3758665D01*
G01X4955705Y3752569D01*
G01X4952657Y3749521D01*
G01X4943259Y3746219D01*
G01X4915573Y3746219D02*
G01X4943259Y3746219D01*
G01X4952657Y3743171D01*
G01X4955705Y3740123D01*
G01X4958753Y3734027D01*
G01X4958753Y3724629D01*
G01X4955705Y3718533D01*
G01X4952657Y3715231D01*
G01X4943259Y3712183D01*
G01X4915573Y3712183D01*
G54D10*
G01X3231553Y2754603D02*
G01X3231553Y2717265D01*
G01X3234093Y2709645D01*
G01X3238919Y2704565D01*
G01X3246539Y2702279D01*
G01X3251365Y2702279D01*
G01X3258985Y2704565D01*
G01X3264065Y2709645D01*
G01X3266351Y2717265D01*
G01X3266351Y2754603D01*
G01X3323247Y2747237D02*
G01X3318421Y2752063D01*
G01X3310801Y2754603D01*
G01X3300895Y2754603D01*
G01X3293275Y2752063D01*
G01X3288449Y2747237D01*
G01X3288449Y2742157D01*
G01X3290735Y2737077D01*
G01X3293275Y2734791D01*
G01X3298355Y2732251D01*
G01X3313341Y2727171D01*
G01X3318421Y2724631D01*
G01X3320961Y2722091D01*
G01X3323247Y2717265D01*
G01X3323247Y2709645D01*
G01X3318421Y2704565D01*
G01X3310801Y2702279D01*
G01X3300895Y2702279D01*
G01X3293275Y2704565D01*
G01X3288449Y2709645D01*
G01X3345345Y2754603D02*
G01X3345345Y2702279D01*
G01X3345345Y2754603D02*
G01X3367697Y2754603D01*
G01X3375317Y2752063D01*
G01X3377857Y2749777D01*
G01X3380143Y2744697D01*
G01X3380143Y2739617D01*
G01X3377857Y2734791D01*
G01X3375317Y2732251D01*
G01X3367697Y2729711D01*
G01X3345345Y2729711D02*
G01X3367697Y2729711D01*
G01X3375317Y2727171D01*
G01X3377857Y2724631D01*
G01X3380143Y2719551D01*
G01X3380143Y2712185D01*
G01X3377857Y2707105D01*
G01X3375317Y2704565D01*
G01X3367697Y2702279D01*
G01X3345345Y2702279D01*
G01X3402241Y2724631D02*
G01X3447199Y2724631D01*
G01X3486823Y2754603D02*
G01X3486823Y2702279D01*
G01X3469297Y2754603D02*
G01X3504095Y2754603D01*
G01X3543719Y2754603D02*
G01X3543719Y2702279D01*
G01X3526193Y2754603D02*
G01X3560991Y2754603D01*
G01X3583089Y2754603D02*
G01X3583089Y2702279D01*
G01X3583089Y2702279D02*
G01X3613061Y2702279D01*
G01X1239939Y722603D02*
G01X1234859Y720063D01*
G01X1229779Y715237D01*
G01X1227493Y710157D01*
G01X1224953Y702791D01*
G01X1224953Y690091D01*
G01X1227493Y682725D01*
G01X1229779Y677645D01*
G01X1234859Y672565D01*
G01X1239939Y670279D01*
G01X1249845Y670279D01*
G01X1254925Y672565D01*
G01X1259751Y677645D01*
G01X1262291Y682725D01*
G01X1264831Y690091D01*
G01X1264831Y702791D01*
G01X1262291Y710157D01*
G01X1259751Y715237D01*
G01X1254925Y720063D01*
G01X1249845Y722603D01*
G01X1239939Y722603D01*
G01X1247305Y680185D02*
G01X1262291Y665199D01*
G01X1286929Y712697D02*
G01X1291755Y715237D01*
G01X1299375Y722603D01*
G01X1299375Y670279D01*
G01X1321473Y712697D02*
G01X1326299Y715237D01*
G01X1333919Y722603D01*
G01X1333919Y670279D01*
G01X4209453Y1090903D02*
G01X4209453Y1038579D01*
G01X4209453Y1090903D02*
G01X4231805Y1090903D01*
G01X4239425Y1088363D01*
G01X4241965Y1086077D01*
G01X4244251Y1080997D01*
G01X4244251Y1075917D01*
G01X4241965Y1071091D01*
G01X4239425Y1068551D01*
G01X4231805Y1066011D01*
G01X4209453Y1066011D01*
G01X4226979Y1066011D02*
G01X4244251Y1038579D01*
G01X4266349Y1080997D02*
G01X4271175Y1083537D01*
G01X4278795Y1090903D01*
G01X4278795Y1038579D01*
G01X4335691Y1090903D02*
G01X4310799Y1038579D01*
G01X4300893Y1090903D02*
G01X4335691Y1090903D01*
G01X1745653Y684503D02*
G01X1745653Y632179D01*
G01X1745653Y684503D02*
G01X1768005Y684503D01*
G01X1775625Y681963D01*
G01X1778165Y679677D01*
G01X1780451Y674597D01*
G01X1780451Y669517D01*
G01X1778165Y664691D01*
G01X1775625Y662151D01*
G01X1768005Y659611D01*
G01X1745653Y659611D01*
G01X1763179Y659611D02*
G01X1780451Y632179D01*
G01X1804835Y672057D02*
G01X1804835Y674597D01*
G01X1807375Y679677D01*
G01X1809915Y681963D01*
G01X1814995Y684503D01*
G01X1824901Y684503D01*
G01X1829981Y681963D01*
G01X1832521Y679677D01*
G01X1835061Y674597D01*
G01X1835061Y669517D01*
G01X1832521Y664691D01*
G01X1827441Y657071D01*
G01X1802549Y632179D01*
G01X1837347Y632179D01*
G01X1861731Y672057D02*
G01X1861731Y674597D01*
G01X1864271Y679677D01*
G01X1866811Y681963D01*
G01X1871891Y684503D01*
G01X1881797Y684503D01*
G01X1886877Y681963D01*
G01X1889417Y679677D01*
G01X1891957Y674597D01*
G01X1891957Y669517D01*
G01X1889417Y664691D01*
G01X1884337Y657071D01*
G01X1859445Y632179D01*
G01X1894243Y632179D01*
G01X4520603Y820393D02*
G01X4468279Y820393D01*
G01X4520603Y820393D02*
G01X4520603Y798041D01*
G01X4518063Y790421D01*
G01X4515777Y787881D01*
G01X4510697Y785595D01*
G01X4505617Y785595D01*
G01X4500791Y787881D01*
G01X4498251Y790421D01*
G01X4495711Y798041D01*
G01X4495711Y820393D01*
G01X4495711Y802867D02*
G01X4468279Y785595D01*
G01X4510697Y763497D02*
G01X4513237Y758671D01*
G01X4520603Y751051D01*
G01X4468279Y751051D01*
G01X4520603Y704061D02*
G01X4485551Y728953D01*
G01X4485551Y691615D01*
G01X4520603Y704061D02*
G01X4468279Y704061D01*
G01X3421291Y1522957D02*
G01X3418751Y1528037D01*
G01X3413925Y1532863D01*
G01X3408845Y1535403D01*
G01X3398939Y1535403D01*
G01X3393859Y1532863D01*
G01X3388779Y1528037D01*
G01X3386493Y1522957D01*
G01X3383953Y1515591D01*
G01X3383953Y1502891D01*
G01X3386493Y1495525D01*
G01X3388779Y1490445D01*
G01X3393859Y1485365D01*
G01X3398939Y1483079D01*
G01X3408845Y1483079D01*
G01X3413925Y1485365D01*
G01X3418751Y1490445D01*
G01X3421291Y1495525D01*
G01X3445675Y1522957D02*
G01X3445675Y1525497D01*
G01X3448215Y1530577D01*
G01X3450755Y1532863D01*
G01X3455835Y1535403D01*
G01X3465741Y1535403D01*
G01X3470821Y1532863D01*
G01X3473361Y1530577D01*
G01X3475901Y1525497D01*
G01X3475901Y1520417D01*
G01X3473361Y1515591D01*
G01X3468281Y1507971D01*
G01X3443389Y1483079D01*
G01X3478187Y1483079D01*
G01X2049691Y672057D02*
G01X2047151Y677137D01*
G01X2042325Y681963D01*
G01X2037245Y684503D01*
G01X2027339Y684503D01*
G01X2022259Y681963D01*
G01X2017179Y677137D01*
G01X2014893Y672057D01*
G01X2012353Y664691D01*
G01X2012353Y651991D01*
G01X2014893Y644625D01*
G01X2017179Y639545D01*
G01X2022259Y634465D01*
G01X2027339Y632179D01*
G01X2037245Y632179D01*
G01X2042325Y634465D01*
G01X2047151Y639545D01*
G01X2049691Y644625D01*
G01X2076615Y684503D02*
G01X2104301Y684503D01*
G01X2089315Y664691D01*
G01X2096681Y664691D01*
G01X2101761Y662151D01*
G01X2104301Y659611D01*
G01X2106587Y651991D01*
G01X2106587Y647165D01*
G01X2104301Y639545D01*
G01X2099221Y634465D01*
G01X2091601Y632179D01*
G01X2084235Y632179D01*
G01X2076615Y634465D01*
G01X2074075Y637005D01*
G01X2071789Y642085D01*
G01X2189391Y672057D02*
G01X2186851Y677137D01*
G01X2182025Y681963D01*
G01X2176945Y684503D01*
G01X2167039Y684503D01*
G01X2161959Y681963D01*
G01X2156879Y677137D01*
G01X2154593Y672057D01*
G01X2152053Y664691D01*
G01X2152053Y651991D01*
G01X2154593Y644625D01*
G01X2156879Y639545D01*
G01X2161959Y634465D01*
G01X2167039Y632179D01*
G01X2176945Y632179D01*
G01X2182025Y634465D01*
G01X2186851Y639545D01*
G01X2189391Y644625D01*
G01X2236381Y684503D02*
G01X2211489Y649451D01*
G01X2248827Y649451D01*
G01X2236381Y684503D02*
G01X2236381Y632179D01*
G01X3230791Y1522957D02*
G01X3228251Y1528037D01*
G01X3223425Y1532863D01*
G01X3218345Y1535403D01*
G01X3208439Y1535403D01*
G01X3203359Y1532863D01*
G01X3198279Y1528037D01*
G01X3195993Y1522957D01*
G01X3193453Y1515591D01*
G01X3193453Y1502891D01*
G01X3195993Y1495525D01*
G01X3198279Y1490445D01*
G01X3203359Y1485365D01*
G01X3208439Y1483079D01*
G01X3218345Y1483079D01*
G01X3223425Y1485365D01*
G01X3228251Y1490445D01*
G01X3230791Y1495525D01*
G01X3277781Y1535403D02*
G01X3252889Y1500351D01*
G01X3290227Y1500351D01*
G01X3277781Y1535403D02*
G01X3277781Y1483079D01*
G01X3317151Y1535403D02*
G01X3344837Y1535403D01*
G01X3329851Y1515591D01*
G01X3337217Y1515591D01*
G01X3342297Y1513051D01*
G01X3344837Y1510511D01*
G01X3347123Y1502891D01*
G01X3347123Y1498065D01*
G01X3344837Y1490445D01*
G01X3339757Y1485365D01*
G01X3332137Y1483079D01*
G01X3324771Y1483079D01*
G01X3317151Y1485365D01*
G01X3314611Y1487905D01*
G01X3312325Y1492985D01*
G01X932091Y4151857D02*
G01X929551Y4156937D01*
G01X924725Y4161763D01*
G01X919645Y4164303D01*
G01X909739Y4164303D01*
G01X904659Y4161763D01*
G01X899579Y4156937D01*
G01X897293Y4151857D01*
G01X894753Y4144491D01*
G01X894753Y4131791D01*
G01X897293Y4124425D01*
G01X899579Y4119345D01*
G01X904659Y4114265D01*
G01X909739Y4111979D01*
G01X919645Y4111979D01*
G01X924725Y4114265D01*
G01X929551Y4119345D01*
G01X932091Y4124425D01*
G01X986701Y4146777D02*
G01X984161Y4139411D01*
G01X979081Y4134331D01*
G01X971715Y4131791D01*
G01X969175Y4131791D01*
G01X961555Y4134331D01*
G01X956475Y4139411D01*
G01X954189Y4146777D01*
G01X954189Y4149317D01*
G01X956475Y4156937D01*
G01X961555Y4161763D01*
G01X969175Y4164303D01*
G01X971715Y4164303D01*
G01X979081Y4161763D01*
G01X984161Y4156937D01*
G01X986701Y4146777D01*
G01X986701Y4134331D01*
G01X984161Y4121885D01*
G01X979081Y4114265D01*
G01X971715Y4111979D01*
G01X966635Y4111979D01*
G01X959015Y4114265D01*
G01X956475Y4119345D01*
G01X1719491Y4659857D02*
G01X1716951Y4664937D01*
G01X1712125Y4669763D01*
G01X1707045Y4672303D01*
G01X1697139Y4672303D01*
G01X1692059Y4669763D01*
G01X1686979Y4664937D01*
G01X1684693Y4659857D01*
G01X1682153Y4652491D01*
G01X1682153Y4639791D01*
G01X1684693Y4632425D01*
G01X1686979Y4627345D01*
G01X1692059Y4622265D01*
G01X1697139Y4619979D01*
G01X1707045Y4619979D01*
G01X1712125Y4622265D01*
G01X1716951Y4627345D01*
G01X1719491Y4632425D01*
G01X1746415Y4672303D02*
G01X1774101Y4672303D01*
G01X1759115Y4652491D01*
G01X1766481Y4652491D01*
G01X1771561Y4649951D01*
G01X1774101Y4647411D01*
G01X1776387Y4639791D01*
G01X1776387Y4634965D01*
G01X1774101Y4627345D01*
G01X1769021Y4622265D01*
G01X1761401Y4619979D01*
G01X1754035Y4619979D01*
G01X1746415Y4622265D01*
G01X1743875Y4624805D01*
G01X1741589Y4629885D01*
G01X1803311Y4672303D02*
G01X1830997Y4672303D01*
G01X1816011Y4652491D01*
G01X1823377Y4652491D01*
G01X1828457Y4649951D01*
G01X1830997Y4647411D01*
G01X1833283Y4639791D01*
G01X1833283Y4634965D01*
G01X1830997Y4627345D01*
G01X1825917Y4622265D01*
G01X1818297Y4619979D01*
G01X1810931Y4619979D01*
G01X1803311Y4622265D01*
G01X1800771Y4624805D01*
G01X1798485Y4629885D01*
G54D12*
G01X3826675Y2580613D02*
G01X3823627Y2586963D01*
G01X3817277Y2593059D01*
G01X3811181Y2596107D01*
G01X3798735Y2596107D01*
G01X3792639Y2593059D01*
G01X3786289Y2586963D01*
G01X3783241Y2580613D01*
G01X3780193Y2571469D01*
G01X3780193Y2555975D01*
G01X3783241Y2546577D01*
G01X3786289Y2540481D01*
G01X3792639Y2534131D01*
G01X3798735Y2531083D01*
G01X3811181Y2531083D01*
G01X3817277Y2534131D01*
G01X3823627Y2540481D01*
G01X3826675Y2546577D01*
G01X3856901Y2583661D02*
G01X3862997Y2586963D01*
G01X3872141Y2596107D01*
G01X3872141Y2531083D01*
G01X1743875Y5311113D02*
G01X1740827Y5317463D01*
G01X1734477Y5323559D01*
G01X1728381Y5326607D01*
G01X1715935Y5326607D01*
G01X1709839Y5323559D01*
G01X1703489Y5317463D01*
G01X1700441Y5311113D01*
G01X1697393Y5301969D01*
G01X1697393Y5286475D01*
G01X1700441Y5277077D01*
G01X1703489Y5270981D01*
G01X1709839Y5264631D01*
G01X1715935Y5261583D01*
G01X1728381Y5261583D01*
G01X1734477Y5264631D01*
G01X1740827Y5270981D01*
G01X1743875Y5277077D01*
G01X1777149Y5311113D02*
G01X1777149Y5314161D01*
G01X1780197Y5320511D01*
G01X1783245Y5323559D01*
G01X1789341Y5326607D01*
G01X1801787Y5326607D01*
G01X1808137Y5323559D01*
G01X1811185Y5320511D01*
G01X1814233Y5314161D01*
G01X1814233Y5308065D01*
G01X1811185Y5301969D01*
G01X1804835Y5292571D01*
G01X1774101Y5261583D01*
G01X1817281Y5261583D01*
G01X1890687Y5326607D02*
G01X1859699Y5261583D01*
G01X1847507Y5326607D02*
G01X1890687Y5326607D01*
G01X1553375Y5019013D02*
G01X1550327Y5025363D01*
G01X1543977Y5031459D01*
G01X1537881Y5034507D01*
G01X1525435Y5034507D01*
G01X1519339Y5031459D01*
G01X1512989Y5025363D01*
G01X1509941Y5019013D01*
G01X1506893Y5009869D01*
G01X1506893Y4994375D01*
G01X1509941Y4984977D01*
G01X1512989Y4978881D01*
G01X1519339Y4972531D01*
G01X1525435Y4969483D01*
G01X1537881Y4969483D01*
G01X1543977Y4972531D01*
G01X1550327Y4978881D01*
G01X1553375Y4984977D01*
G01X1586649Y5019013D02*
G01X1586649Y5022061D01*
G01X1589697Y5028411D01*
G01X1592745Y5031459D01*
G01X1598841Y5034507D01*
G01X1611287Y5034507D01*
G01X1617637Y5031459D01*
G01X1620685Y5028411D01*
G01X1623733Y5022061D01*
G01X1623733Y5015965D01*
G01X1620685Y5009869D01*
G01X1614335Y5000471D01*
G01X1583601Y4969483D01*
G01X1626781Y4969483D01*
G01X1672247Y5034507D02*
G01X1663103Y5031459D01*
G01X1660055Y5025363D01*
G01X1660055Y5019013D01*
G01X1663103Y5012917D01*
G01X1669199Y5009869D01*
G01X1681645Y5006821D01*
G01X1691043Y5003519D01*
G01X1697139Y4997423D01*
G01X1700187Y4991327D01*
G01X1700187Y4981929D01*
G01X1697139Y4975833D01*
G01X1694091Y4972531D01*
G01X1684693Y4969483D01*
G01X1672247Y4969483D01*
G01X1663103Y4972531D01*
G01X1660055Y4975833D01*
G01X1657007Y4981929D01*
G01X1657007Y4991327D01*
G01X1660055Y4997423D01*
G01X1666151Y5003519D01*
G01X1675549Y5006821D01*
G01X1687741Y5009869D01*
G01X1694091Y5012917D01*
G01X1697139Y5019013D01*
G01X1697139Y5025363D01*
G01X1694091Y5031459D01*
G01X1684693Y5034507D01*
G01X1672247Y5034507D01*
G01X3369475Y4295113D02*
G01X3366427Y4301463D01*
G01X3360077Y4307559D01*
G01X3353981Y4310607D01*
G01X3341535Y4310607D01*
G01X3335439Y4307559D01*
G01X3329089Y4301463D01*
G01X3326041Y4295113D01*
G01X3322993Y4285969D01*
G01X3322993Y4270475D01*
G01X3326041Y4261077D01*
G01X3329089Y4254981D01*
G01X3335439Y4248631D01*
G01X3341535Y4245583D01*
G01X3353981Y4245583D01*
G01X3360077Y4248631D01*
G01X3366427Y4254981D01*
G01X3369475Y4261077D01*
G01X3405797Y4310607D02*
G01X3439833Y4310607D01*
G01X3421291Y4285969D01*
G01X3430435Y4285969D01*
G01X3436785Y4282921D01*
G01X3439833Y4279619D01*
G01X3442881Y4270475D01*
G01X3442881Y4264125D01*
G01X3439833Y4254981D01*
G01X3433737Y4248631D01*
G01X3424339Y4245583D01*
G01X3414941Y4245583D01*
G01X3405797Y4248631D01*
G01X3402749Y4251933D01*
G01X3399701Y4258029D01*
G01X3491649Y4310607D02*
G01X3482251Y4307559D01*
G01X3476155Y4298161D01*
G01X3473107Y4282921D01*
G01X3473107Y4273523D01*
G01X3476155Y4258029D01*
G01X3482251Y4248631D01*
G01X3491649Y4245583D01*
G01X3497745Y4245583D01*
G01X3507143Y4248631D01*
G01X3513239Y4258029D01*
G01X3516287Y4273523D01*
G01X3516287Y4282921D01*
G01X3513239Y4298161D01*
G01X3507143Y4307559D01*
G01X3497745Y4310607D01*
G01X3491649Y4310607D01*
G01X3128175Y5222213D02*
G01X3125127Y5228563D01*
G01X3118777Y5234659D01*
G01X3112681Y5237707D01*
G01X3100235Y5237707D01*
G01X3094139Y5234659D01*
G01X3087789Y5228563D01*
G01X3084741Y5222213D01*
G01X3081693Y5213069D01*
G01X3081693Y5197575D01*
G01X3084741Y5188177D01*
G01X3087789Y5182081D01*
G01X3094139Y5175731D01*
G01X3100235Y5172683D01*
G01X3112681Y5172683D01*
G01X3118777Y5175731D01*
G01X3125127Y5182081D01*
G01X3128175Y5188177D01*
G01X3164497Y5237707D02*
G01X3198533Y5237707D01*
G01X3179991Y5213069D01*
G01X3189135Y5213069D01*
G01X3195485Y5210021D01*
G01X3198533Y5206719D01*
G01X3201581Y5197575D01*
G01X3201581Y5191225D01*
G01X3198533Y5182081D01*
G01X3192437Y5175731D01*
G01X3183039Y5172683D01*
G01X3173641Y5172683D01*
G01X3164497Y5175731D01*
G01X3161449Y5179033D01*
G01X3158401Y5185129D01*
G01X3234855Y5222213D02*
G01X3234855Y5225261D01*
G01X3237903Y5231611D01*
G01X3240951Y5234659D01*
G01X3247047Y5237707D01*
G01X3259493Y5237707D01*
G01X3265843Y5234659D01*
G01X3268891Y5231611D01*
G01X3271939Y5225261D01*
G01X3271939Y5219165D01*
G01X3268891Y5213069D01*
G01X3262541Y5203671D01*
G01X3231807Y5172683D01*
G01X3274987Y5172683D01*
G54D10*
G01X3593846Y1414272D02*
G01X3591560Y1418590D01*
G01X3587242Y1422908D01*
G01X3582924Y1425194D01*
G01X3574034Y1425194D01*
G01X3569716Y1422908D01*
G01X3565398Y1418590D01*
G01X3563112Y1414272D01*
G01X3561080Y1407668D01*
G01X3561080Y1396746D01*
G01X3563112Y1390142D01*
G01X3565398Y1385824D01*
G01X3569716Y1381506D01*
G01X3574034Y1379220D01*
G01X3582924Y1379220D01*
G01X3587242Y1381506D01*
G01X3591560Y1385824D01*
G01X3593846Y1390142D01*
G01X3618738Y1425194D02*
G01X3642868Y1425194D01*
G01X3629660Y1407668D01*
G01X3636264Y1407668D01*
G01X3640582Y1405382D01*
G01X3642868Y1403350D01*
G01X3644900Y1396746D01*
G01X3644900Y1392428D01*
G01X3642868Y1385824D01*
G01X3638296Y1381506D01*
G01X3631946Y1379220D01*
G01X3625342Y1379220D01*
G01X3618738Y1381506D01*
G01X3616452Y1383538D01*
G01X3614420Y1387856D01*
G01X3693922Y1409954D02*
G01X3691636Y1403350D01*
G01X3687318Y1398778D01*
G01X3680714Y1396746D01*
G01X3678428Y1396746D01*
G01X3672078Y1398778D01*
G01X3667506Y1403350D01*
G01X3665474Y1409954D01*
G01X3665474Y1411986D01*
G01X3667506Y1418590D01*
G01X3672078Y1422908D01*
G01X3678428Y1425194D01*
G01X3680714Y1425194D01*
G01X3687318Y1422908D01*
G01X3691636Y1418590D01*
G01X3693922Y1409954D01*
G01X3693922Y1398778D01*
G01X3691636Y1387856D01*
G01X3687318Y1381506D01*
G01X3680714Y1379220D01*
G01X3676396Y1379220D01*
G01X3669792Y1381506D01*
G01X3667506Y1385824D01*
G01X3771646Y1426972D02*
G01X3769360Y1431290D01*
G01X3765042Y1435608D01*
G01X3760724Y1437894D01*
G01X3751834Y1437894D01*
G01X3747516Y1435608D01*
G01X3743198Y1431290D01*
G01X3740912Y1426972D01*
G01X3738880Y1420368D01*
G01X3738880Y1409446D01*
G01X3740912Y1402842D01*
G01X3743198Y1398524D01*
G01X3747516Y1394206D01*
G01X3751834Y1391920D01*
G01X3760724Y1391920D01*
G01X3765042Y1394206D01*
G01X3769360Y1398524D01*
G01X3771646Y1402842D01*
G01X3814064Y1437894D02*
G01X3792220Y1407160D01*
G01X3824986Y1407160D01*
G01X3814064Y1437894D02*
G01X3814064Y1391920D01*
G01X3858514Y1437894D02*
G01X3852164Y1435608D01*
G01X3847592Y1429004D01*
G01X3845560Y1418082D01*
G01X3845560Y1411478D01*
G01X3847592Y1400556D01*
G01X3852164Y1394206D01*
G01X3858514Y1391920D01*
G01X3863086Y1391920D01*
G01X3869436Y1394206D01*
G01X3874008Y1400556D01*
G01X3876040Y1411478D01*
G01X3876040Y1418082D01*
G01X3874008Y1429004D01*
G01X3869436Y1435608D01*
G01X3863086Y1437894D01*
G01X3858514Y1437894D01*
G54D12*
G01X2992773Y701013D02*
G01X2989725Y707363D01*
G01X2983375Y713459D01*
G01X2977279Y716507D01*
G01X2964833Y716507D01*
G01X2958737Y713459D01*
G01X2952387Y707363D01*
G01X2949339Y701013D01*
G01X2946291Y691869D01*
G01X2946291Y676375D01*
G01X2949339Y666977D01*
G01X2952387Y660881D01*
G01X2958737Y654531D01*
G01X2964833Y651483D01*
G01X2977279Y651483D01*
G01X2983375Y654531D01*
G01X2989725Y660881D01*
G01X2992773Y666977D01*
G01X3053733Y716507D02*
G01X3022999Y673327D01*
G01X3069227Y673327D01*
G01X3053733Y716507D02*
G01X3053733Y651483D01*
G01X3099453Y704061D02*
G01X3105549Y707363D01*
G01X3114693Y716507D01*
G01X3114693Y651483D01*
G01X2658275Y701013D02*
G01X2655227Y707363D01*
G01X2648877Y713459D01*
G01X2642781Y716507D01*
G01X2630335Y716507D01*
G01X2624239Y713459D01*
G01X2617889Y707363D01*
G01X2614841Y701013D01*
G01X2611793Y691869D01*
G01X2611793Y676375D01*
G01X2614841Y666977D01*
G01X2617889Y660881D01*
G01X2624239Y654531D01*
G01X2630335Y651483D01*
G01X2642781Y651483D01*
G01X2648877Y654531D01*
G01X2655227Y660881D01*
G01X2658275Y666977D01*
G01X2719235Y716507D02*
G01X2688501Y673327D01*
G01X2734729Y673327D01*
G01X2719235Y716507D02*
G01X2719235Y651483D01*
G01X2768003Y701013D02*
G01X2768003Y704061D01*
G01X2771051Y710411D01*
G01X2774099Y713459D01*
G01X2780195Y716507D01*
G01X2792641Y716507D01*
G01X2798991Y713459D01*
G01X2802039Y710411D01*
G01X2805087Y704061D01*
G01X2805087Y697965D01*
G01X2802039Y691869D01*
G01X2795689Y682471D01*
G01X2764955Y651483D01*
G01X2808135Y651483D01*
G01X2751239Y2255493D02*
G01X2816263Y2298927D01*
G01X2751239Y2298927D02*
G01X2816263Y2255493D01*
G01X2766733Y2332201D02*
G01X2763685Y2332201D01*
G01X2757335Y2335249D01*
G01X2754287Y2338297D01*
G01X2751239Y2344393D01*
G01X2751239Y2356839D01*
G01X2754287Y2363189D01*
G01X2757335Y2366237D01*
G01X2763685Y2369285D01*
G01X2769781Y2369285D01*
G01X2775877Y2366237D01*
G01X2785275Y2359887D01*
G01X2816263Y2329153D01*
G01X2816263Y2372333D01*
G04 Text End*

G04 PolygonModel Start*
G01X1999973Y4800832D02*
G01X1999953Y5105114D01*
G01X1999953Y5105114D02*
G01X3005193Y5105114D01*
G01X3005193Y5105114D02*
G01X3005193Y4800832D01*
G01X3005193Y4800832D02*
G01X1999953Y4800832D01*
G01X3396094Y4594813D02*
G01X3491982Y4594813D01*
G01X3491982Y4594813D02*
G01X3491982Y4726933D01*
G01X3491982Y4726933D02*
G01X3396094Y4726933D01*
G01X3310852Y4594813D02*
G01X3214964Y4594813D01*
G01X3214964Y4594813D02*
G01X3214964Y4726933D01*
G01X3214964Y4726933D02*
G01X3310852Y4726933D01*
G01X3396094Y4442413D02*
G01X3491982Y4442413D01*
G01X3491982Y4442413D02*
G01X3491982Y4574533D01*
G01X3491982Y4574533D02*
G01X3396094Y4574533D01*
G01X3310852Y4442413D02*
G01X3214964Y4442413D01*
G01X3214964Y4442413D02*
G01X3214964Y4574533D01*
G01X3214964Y4574533D02*
G01X3310852Y4574533D01*
G54D15*
G01X1088847Y5232368D02*
G01X974547Y5232368D01*
G01X974547Y5232368D02*
G01X961847Y5232368D01*
G01X961847Y5232368D02*
G01X936447Y5206968D01*
G01X936447Y5206968D02*
G01X936447Y5067268D01*
G01X936447Y5067268D02*
G01X936447Y5054568D01*
G01X936447Y5054568D02*
G01X961847Y5029168D01*
G01X961847Y5029168D02*
G01X1088847Y5029168D01*
G01X1165047Y5029168D02*
G01X1279347Y5029168D01*
G01X1279347Y5029168D02*
G01X1292047Y5029168D01*
G01X1292047Y5029168D02*
G01X1317447Y5054568D01*
G01X1317447Y5054568D02*
G01X1317447Y5194268D01*
G01X1317447Y5194268D02*
G01X1317447Y5206968D01*
G01X1317447Y5206968D02*
G01X1292047Y5232368D01*
G01X1292047Y5232368D02*
G01X1165047Y5232368D01*
G01X3311347Y4952968D02*
G01X3197047Y4952968D01*
G01X3197047Y4952968D02*
G01X3184347Y4952968D01*
G01X3184347Y4952968D02*
G01X3158947Y4927568D01*
G01X3158947Y4927568D02*
G01X3158947Y4787868D01*
G01X3158947Y4787868D02*
G01X3158947Y4775168D01*
G01X3158947Y4775168D02*
G01X3184347Y4749768D01*
G01X3184347Y4749768D02*
G01X3311347Y4749768D01*
G01X3387547Y4749768D02*
G01X3501847Y4749768D01*
G01X3501847Y4749768D02*
G01X3514547Y4749768D01*
G01X3514547Y4749768D02*
G01X3539947Y4775168D01*
G01X3539947Y4775168D02*
G01X3539947Y4914868D01*
G01X3539947Y4914868D02*
G01X3539947Y4927568D01*
G01X3539947Y4927568D02*
G01X3514547Y4952968D01*
G01X3514547Y4952968D02*
G01X3387547Y4952968D01*
G01X3579073Y2307774D02*
G01X3659073Y2307774D01*
G01X3839073Y2307774D02*
G01X3759073Y2307774D01*
G01X3579073Y1857772D02*
G01X3579073Y1861661D01*
G01X3579073Y2307774D02*
G01X3579073Y2303888D01*
G01X3839073Y1861661D02*
G01X3839073Y1857772D01*
G01X3839073Y2307774D02*
G01X3839073Y2303885D01*
G01X3839073Y1857772D02*
G01X3579073Y1857772D01*
G01X3659073Y2307774D02*
G03X3759111Y2307817I50019J377D01*
G54D12*
G01X4308721Y1371913D02*
G01X3972999Y1371913D01*
G01X3972999Y1371913D02*
G01X3972999Y1777633D01*
G01X3972999Y1777633D02*
G01X4308721Y1777633D01*
G01X4308721Y1777633D02*
G01X4308721Y1371913D01*
G01X4165862Y1349053D02*
G01X4331581Y1349053D01*
G01X4331581Y1349053D02*
G01X4331581Y1534773D01*
G01X4482833Y2060152D02*
G01X4482833Y1988349D01*
G01X4482833Y1988349D02*
G01X4383113Y1988349D01*
G01X4383113Y1988349D02*
G01X4383113Y2060152D01*
G01X4482833Y2105394D02*
G01X4482833Y2177198D01*
G01X4482833Y2177198D02*
G01X4383113Y2177198D01*
G01X4383113Y2177198D02*
G01X4383113Y2105394D01*
G01X4535513Y2105394D02*
G01X4535513Y2177198D01*
G01X4535513Y2177198D02*
G01X4635233Y2177198D01*
G01X4635233Y2177198D02*
G01X4635233Y2105394D01*
G01X4535513Y2060152D02*
G01X4535513Y1988349D01*
G01X4535513Y1988349D02*
G01X4635233Y1988349D01*
G01X4635233Y1988349D02*
G01X4635233Y2060152D01*
G54D16*
G01X2098853Y2573869D02*
G01X2053869Y2573869D01*
G01X2053869Y2573869D02*
G01X2053869Y2618853D01*
G01X2098853Y3318851D02*
G01X2053869Y3318851D01*
G01X2053869Y3318851D02*
G01X2053869Y3273868D01*
G01X2798851Y3273868D02*
G01X2798851Y3318851D01*
G01X2798851Y3318851D02*
G01X2753868Y3318851D01*
G01X2798851Y2618853D02*
G01X2798851Y2573869D01*
G01X2798851Y2573869D02*
G01X2753868Y2573869D01*
G54D17*
G01X2836316Y2593808D02*
G03X2866323Y2593935I15003J127D01*
G03X2836316Y2594062I-15003J0D01*
G54D16*
G01X511617Y2399562D02*
G01X773483Y2399562D01*
G01X-104452Y2399562D02*
G01X207480Y2399562D01*
G01X511625Y3899559D02*
G01X773476Y3899559D01*
G01X-104452Y3899559D02*
G01X207472Y3899559D01*
G01X-104452Y3899559D02*
G01X-104452Y2399562D01*
G01X955650Y2666569D02*
G01X955650Y2541573D01*
G01X955650Y2541573D02*
G01X956648Y2541573D01*
G01X956648Y2541573D02*
G01X956648Y2535073D01*
G01X956648Y2535073D02*
G01X1055449Y2535073D01*
G01X1055449Y2535073D02*
G01X1055449Y2514375D01*
G01X1055449Y2514375D02*
G01X1054821Y2514375D01*
G01X1054849Y3784616D02*
G01X1054849Y3760273D01*
G01X1054849Y3760273D02*
G01X1053648Y3760273D01*
G01X1053648Y3760273D02*
G01X1053648Y3761571D01*
G01X1053648Y3761571D02*
G01X958350Y3761571D01*
G01X958350Y3761571D02*
G01X958350Y3633273D01*
G54D15*
G01X158786Y3399560D02*
G01X508798Y3449572D01*
G01X508798Y3449572D02*
G01X508798Y3549572D01*
G01X508798Y3549572D02*
G01X158786Y3599559D01*
G01X158786Y2899561D02*
G01X508798Y2849574D01*
G01X508798Y2849574D02*
G01X508798Y2749574D01*
G01X508798Y2749574D02*
G01X158786Y2699561D01*
G54D16*
G01X448803Y3469562D02*
G01X448803Y3529582D01*
G01X448803Y2829584D02*
G01X448803Y2769564D01*
G54D19*
G01X1317155Y2924021D02*
G01X1427391Y2924021D01*
G01X1317155Y2663925D02*
G01X1427391Y2663925D01*
G01X1317155Y3228821D02*
G01X1427391Y3228821D01*
G01X1317155Y2968725D02*
G01X1427391Y2968725D01*
G54D12*
G01X2997614Y3920654D02*
G01X2693332Y3920654D01*
G01X2693332Y3920654D02*
G01X2693332Y4435893D01*
G01X2693332Y4435893D02*
G01X2997614Y4435893D01*
G01X2997614Y4435893D02*
G01X2997614Y3920654D01*
G01X2578804Y2259633D02*
G01X2499794Y2259633D01*
G01X2499794Y2159913D02*
G01X2578804Y2159913D01*
G01X2594044Y2175153D02*
G01X2594044Y2244393D01*
G01X2375543Y2259633D02*
G01X2454552Y2259633D01*
G01X2454552Y2159913D02*
G01X2375543Y2159913D01*
G01X2360303Y2175153D02*
G01X2360303Y2244393D01*
G01X2578804Y2159913D02*
G03X2594044Y2175153I0J15240D01*
G01X2594044Y2244393D02*
G03X2578804Y2259633I-15240J0D01*
G01X2375543Y2159913D02*
G02X2360303Y2175153I0J15240D01*
G01X2360303Y2244393D02*
G02X2375543Y2259633I15240J0D01*
G01X2578804Y2386633D02*
G01X2499794Y2386633D01*
G01X2499794Y2286913D02*
G01X2578804Y2286913D01*
G01X2594044Y2302153D02*
G01X2594044Y2371393D01*
G01X2375543Y2386633D02*
G01X2454552Y2386633D01*
G01X2454552Y2286913D02*
G01X2375543Y2286913D01*
G01X2360303Y2302153D02*
G01X2360303Y2371393D01*
G01X2578804Y2286913D02*
G03X2594044Y2302153I0J15240D01*
G01X2594044Y2371393D02*
G03X2578804Y2386633I-15240J0D01*
G01X2375543Y2286913D02*
G02X2360303Y2302153I0J15240D01*
G01X2360303Y2371393D02*
G02X2375543Y2386633I15240J0D01*
G01X2566104Y3694733D02*
G01X2487094Y3694733D01*
G01X2487094Y3595013D02*
G01X2566104Y3595013D01*
G01X2581344Y3610253D02*
G01X2581344Y3679493D01*
G01X2362843Y3694733D02*
G01X2441852Y3694733D01*
G01X2441852Y3595013D02*
G01X2362843Y3595013D01*
G01X2347603Y3610253D02*
G01X2347603Y3679493D01*
G01X2566104Y3595013D02*
G03X2581344Y3610253I0J15240D01*
G01X2581344Y3679493D02*
G03X2566104Y3694733I-15240J0D01*
G01X2362843Y3595013D02*
G02X2347603Y3610253I0J15240D01*
G01X2347603Y3679493D02*
G02X2362843Y3694733I15240J0D01*
G01X1982813Y1549404D02*
G01X1982813Y1470394D01*
G01X2082533Y1470394D02*
G01X2082533Y1549404D01*
G01X2067293Y1564644D02*
G01X1998053Y1564644D01*
G01X1982813Y1346143D02*
G01X1982813Y1425152D01*
G01X2082533Y1425152D02*
G01X2082533Y1346143D01*
G01X2067293Y1330903D02*
G01X1998053Y1330903D01*
G01X2082533Y1549404D02*
G03X2067293Y1564644I-15240J0D01*
G01X1998053Y1564644D02*
G03X1982813Y1549404I0J-15240D01*
G01X2082533Y1346143D02*
G02X2067293Y1330903I-15240J0D01*
G01X1998053Y1330903D02*
G02X1982813Y1346143I0J15240D01*
G01X1994604Y3351833D02*
G01X1915594Y3351833D01*
G01X1915594Y3252113D02*
G01X1994604Y3252113D01*
G01X2009844Y3267353D02*
G01X2009844Y3336593D01*
G01X1791343Y3351833D02*
G01X1870352Y3351833D01*
G01X1870352Y3252113D02*
G01X1791343Y3252113D01*
G01X1776103Y3267353D02*
G01X1776103Y3336593D01*
G01X1994604Y3252113D02*
G03X2009844Y3267353I0J15240D01*
G01X2009844Y3336593D02*
G03X1994604Y3351833I-15240J0D01*
G01X1791343Y3252113D02*
G02X1776103Y3267353I0J15240D01*
G01X1776103Y3336593D02*
G02X1791343Y3351833I15240J0D01*
G01X2605113Y2070104D02*
G01X2605113Y1991094D01*
G01X2704833Y1991094D02*
G01X2704833Y2070104D01*
G01X2689593Y2085344D02*
G01X2620353Y2085344D01*
G01X2605113Y1866843D02*
G01X2605113Y1945852D01*
G01X2704833Y1945852D02*
G01X2704833Y1866843D01*
G01X2689593Y1851603D02*
G01X2620353Y1851603D01*
G01X2704833Y2070104D02*
G03X2689593Y2085344I-15240J0D01*
G01X2620353Y2085344D02*
G03X2605113Y2070104I0J-15240D01*
G01X2704833Y1866843D02*
G02X2689593Y1851603I-15240J0D01*
G01X2620353Y1851603D02*
G02X2605113Y1866843I0J15240D01*
G01X1931104Y3161333D02*
G01X1852094Y3161333D01*
G01X1852094Y3061613D02*
G01X1931104Y3061613D01*
G01X1946344Y3076853D02*
G01X1946344Y3146093D01*
G01X1727843Y3161333D02*
G01X1806852Y3161333D01*
G01X1806852Y3061613D02*
G01X1727843Y3061613D01*
G01X1712603Y3076853D02*
G01X1712603Y3146093D01*
G01X1931104Y3061613D02*
G03X1946344Y3076853I0J15240D01*
G01X1946344Y3146093D02*
G03X1931104Y3161333I-15240J0D01*
G01X1727843Y3061613D02*
G02X1712603Y3076853I0J15240D01*
G01X1712603Y3146093D02*
G02X1727843Y3161333I15240J0D01*
G01X2324804Y2246933D02*
G01X2245794Y2246933D01*
G01X2245794Y2147213D02*
G01X2324804Y2147213D01*
G01X2340044Y2162453D02*
G01X2340044Y2231693D01*
G01X2121543Y2246933D02*
G01X2200552Y2246933D01*
G01X2200552Y2147213D02*
G01X2121543Y2147213D01*
G01X2106303Y2162453D02*
G01X2106303Y2231693D01*
G01X2324804Y2147213D02*
G03X2340044Y2162453I0J15240D01*
G01X2340044Y2231693D02*
G03X2324804Y2246933I-15240J0D01*
G01X2121543Y2147213D02*
G02X2106303Y2162453I0J15240D01*
G01X2106303Y2231693D02*
G02X2121543Y2246933I15240J0D01*
G01X1741513Y2286004D02*
G01X1741513Y2206994D01*
G01X1841233Y2206994D02*
G01X1841233Y2286004D01*
G01X1825993Y2301244D02*
G01X1756753Y2301244D01*
G01X1741513Y2082743D02*
G01X1741513Y2161752D01*
G01X1841233Y2161752D02*
G01X1841233Y2082743D01*
G01X1825993Y2067503D02*
G01X1756753Y2067503D01*
G01X1841233Y2286004D02*
G03X1825993Y2301244I-15240J0D01*
G01X1756753Y2301244D02*
G03X1741513Y2286004I0J-15240D01*
G01X1841233Y2082743D02*
G02X1825993Y2067503I-15240J0D01*
G01X1756753Y2067503D02*
G02X1741513Y2082743I0J15240D01*
G01X1943804Y2856533D02*
G01X1864794Y2856533D01*
G01X1864794Y2756813D02*
G01X1943804Y2756813D01*
G01X1959044Y2772053D02*
G01X1959044Y2841293D01*
G01X1740543Y2856533D02*
G01X1819552Y2856533D01*
G01X1819552Y2756813D02*
G01X1740543Y2756813D01*
G01X1725303Y2772053D02*
G01X1725303Y2841293D01*
G01X1943804Y2756813D02*
G03X1959044Y2772053I0J15240D01*
G01X1959044Y2841293D02*
G03X1943804Y2856533I-15240J0D01*
G01X1740543Y2756813D02*
G02X1725303Y2772053I0J15240D01*
G01X1725303Y2841293D02*
G02X1740543Y2856533I15240J0D01*
G01X2362904Y4024933D02*
G01X2283894Y4024933D01*
G01X2283894Y3925213D02*
G01X2362904Y3925213D01*
G01X2378144Y3940453D02*
G01X2378144Y4009693D01*
G01X2159643Y4024933D02*
G01X2238652Y4024933D01*
G01X2238652Y3925213D02*
G01X2159643Y3925213D01*
G01X2144403Y3940453D02*
G01X2144403Y4009693D01*
G01X2362904Y3925213D02*
G03X2378144Y3940453I0J15240D01*
G01X2378144Y4009693D02*
G03X2362904Y4024933I-15240J0D01*
G01X2159643Y3925213D02*
G02X2144403Y3940453I0J15240D01*
G01X2144403Y4009693D02*
G02X2159643Y4024933I15240J0D01*
G01X1826694Y3555033D02*
G01X1898498Y3555033D01*
G01X1898498Y3555033D02*
G01X1898498Y3455313D01*
G01X1898498Y3455313D02*
G01X1826694Y3455313D01*
G01X1781452Y3555033D02*
G01X1709649Y3555033D01*
G01X1709649Y3555033D02*
G01X1709649Y3455313D01*
G01X1709649Y3455313D02*
G01X1781452Y3455313D01*
G01X518594Y4190033D02*
G01X590398Y4190033D01*
G01X590398Y4190033D02*
G01X590398Y4090313D01*
G01X590398Y4090313D02*
G01X518594Y4090313D01*
G01X473352Y4190033D02*
G01X401549Y4190033D01*
G01X401549Y4190033D02*
G01X401549Y4090313D01*
G01X401549Y4090313D02*
G01X473352Y4090313D01*
G01X1271613Y3527794D02*
G01X1271613Y3599598D01*
G01X1271613Y3599598D02*
G01X1371333Y3599598D01*
G01X1371333Y3599598D02*
G01X1371333Y3527794D01*
G01X1271613Y3482552D02*
G01X1271613Y3410749D01*
G01X1271613Y3410749D02*
G01X1371333Y3410749D01*
G01X1371333Y3410749D02*
G01X1371333Y3482552D01*
G01X3071294Y2589833D02*
G01X3143098Y2589833D01*
G01X3143098Y2589833D02*
G01X3143098Y2490113D01*
G01X3143098Y2490113D02*
G01X3071294Y2490113D01*
G01X3026052Y2589833D02*
G01X2954249Y2589833D01*
G01X2954249Y2589833D02*
G01X2954249Y2490113D01*
G01X2954249Y2490113D02*
G01X3026052Y2490113D01*
G01X2791894Y3809033D02*
G01X2863698Y3809033D01*
G01X2863698Y3809033D02*
G01X2863698Y3709313D01*
G01X2863698Y3709313D02*
G01X2791894Y3709313D01*
G01X2746652Y3809033D02*
G01X2674849Y3809033D01*
G01X2674849Y3809033D02*
G01X2674849Y3709313D01*
G01X2674849Y3709313D02*
G01X2746652Y3709313D01*
G01X2781033Y3596852D02*
G01X2781033Y3525049D01*
G01X2781033Y3525049D02*
G01X2681313Y3525049D01*
G01X2681313Y3525049D02*
G01X2681313Y3596852D01*
G01X2781033Y3642094D02*
G01X2781033Y3713898D01*
G01X2781033Y3713898D02*
G01X2681313Y3713898D01*
G01X2681313Y3713898D02*
G01X2681313Y3642094D01*
G01X2211413Y4175494D02*
G01X2211413Y4247298D01*
G01X2211413Y4247298D02*
G01X2311133Y4247298D01*
G01X2311133Y4247298D02*
G01X2311133Y4175494D01*
G01X2211413Y4130252D02*
G01X2211413Y4058449D01*
G01X2211413Y4058449D02*
G01X2311133Y4058449D01*
G01X2311133Y4058449D02*
G01X2311133Y4130252D01*
G01X1854904Y1497633D02*
G01X1775894Y1497633D01*
G01X1775894Y1397913D02*
G01X1854904Y1397913D01*
G01X1870144Y1413153D02*
G01X1870144Y1482393D01*
G01X1651643Y1497633D02*
G01X1730652Y1497633D01*
G01X1730652Y1397913D02*
G01X1651643Y1397913D01*
G01X1636403Y1413153D02*
G01X1636403Y1482393D01*
G01X1854904Y1397913D02*
G03X1870144Y1413153I0J15240D01*
G01X1870144Y1482393D02*
G03X1854904Y1497633I-15240J0D01*
G01X1651643Y1397913D02*
G02X1636403Y1413153I0J15240D01*
G01X1636403Y1482393D02*
G02X1651643Y1497633I15240J0D01*
G01X1549133Y3797243D02*
G01X1549133Y3876252D01*
G01X1449413Y3876252D02*
G01X1449413Y3797243D01*
G01X1464653Y3782003D02*
G01X1533893Y3782003D01*
G01X1549133Y4000504D02*
G01X1549133Y3921494D01*
G01X1449413Y3921494D02*
G01X1449413Y4000504D01*
G01X1464653Y4015744D02*
G01X1533893Y4015744D01*
G01X1449413Y3797243D02*
G03X1464653Y3782003I15240J0D01*
G01X1533893Y3782003D02*
G03X1549133Y3797243I0J15240D01*
G01X1449413Y4000504D02*
G02X1464653Y4015744I15240J0D01*
G01X1533893Y4015744D02*
G02X1549133Y4000504I0J-15240D01*
G01X3913213Y1270004D02*
G01X3913213Y1190994D01*
G01X4012933Y1190994D02*
G01X4012933Y1270004D01*
G01X3997693Y1285244D02*
G01X3928453Y1285244D01*
G01X3913213Y1066743D02*
G01X3913213Y1145752D01*
G01X4012933Y1145752D02*
G01X4012933Y1066743D01*
G01X3997693Y1051503D02*
G01X3928453Y1051503D01*
G01X4012933Y1270004D02*
G03X3997693Y1285244I-15240J0D01*
G01X3928453Y1285244D02*
G03X3913213Y1270004I0J-15240D01*
G01X4012933Y1066743D02*
G02X3997693Y1051503I-15240J0D01*
G01X3928453Y1051503D02*
G02X3913213Y1066743I0J15240D01*
G54D15*
G01X1598996Y2310675D02*
G01X1678998Y2310675D01*
G01X1568011Y2199699D02*
G01X1568011Y2279697D01*
G01X1709976Y2199699D02*
G01X1709976Y2279697D01*
G01X1567429Y2142110D02*
G01X1567429Y2062110D01*
G01X1598412Y2031127D02*
G01X1678409Y2031127D01*
G01X1709390Y2142110D02*
G01X1709390Y2062110D01*
G01X1598412Y2031122D02*
G02X1567429Y2062105I0J30983D01*
G01X1709395Y2062105D02*
G02X1678409Y2031122I-30983J0D01*
G01X1568011Y2279692D02*
G02X1598996Y2310675I30983J0D01*
G01X1678993Y2310675D02*
G02X1709976Y2279692I0J-30983D01*
G01X3770696Y1307375D02*
G01X3850698Y1307375D01*
G01X3739711Y1196399D02*
G01X3739711Y1276397D01*
G01X3881676Y1196399D02*
G01X3881676Y1276397D01*
G01X3739129Y1138810D02*
G01X3739129Y1058810D01*
G01X3770112Y1027827D02*
G01X3850109Y1027827D01*
G01X3881090Y1138810D02*
G01X3881090Y1058810D01*
G01X3770112Y1027822D02*
G02X3739129Y1058805I0J30983D01*
G01X3881095Y1058805D02*
G02X3850109Y1027822I-30983J0D01*
G01X3739711Y1276392D02*
G02X3770696Y1307375I30983J0D01*
G01X3850693Y1307375D02*
G02X3881676Y1276392I0J-30983D01*
G01X2465172Y1560196D02*
G01X2465172Y1640198D01*
G01X2576147Y1529211D02*
G01X2496149Y1529211D01*
G01X2576147Y1671176D02*
G01X2496149Y1671176D01*
G01X2633736Y1528629D02*
G01X2713736Y1528629D01*
G01X2744719Y1559612D02*
G01X2744719Y1639609D01*
G01X2633736Y1670589D02*
G01X2713736Y1670589D01*
G01X2744724Y1559612D02*
G02X2713741Y1528629I-30983J0D01*
G01X2713741Y1670595D02*
G02X2744724Y1639609I0J-30983D01*
G01X2496155Y1529211D02*
G02X2465172Y1560196I0J30983D01*
G01X2465172Y1640193D02*
G02X2496155Y1671176I30983J0D01*
G01X2465172Y1725296D02*
G01X2465172Y1805298D01*
G01X2576147Y1694311D02*
G01X2496149Y1694311D01*
G01X2576147Y1836276D02*
G01X2496149Y1836276D01*
G01X2633736Y1693729D02*
G01X2713736Y1693729D01*
G01X2744719Y1724712D02*
G01X2744719Y1804709D01*
G01X2633736Y1835689D02*
G01X2713736Y1835689D01*
G01X2744724Y1724712D02*
G02X2713741Y1693729I-30983J0D01*
G01X2713741Y1835695D02*
G02X2744724Y1804709I0J-30983D01*
G01X2496155Y1694311D02*
G02X2465172Y1725296I0J30983D01*
G01X2465172Y1805293D02*
G02X2496155Y1836276I30983J0D01*
G01X2145096Y1574075D02*
G01X2225098Y1574075D01*
G01X2114111Y1463099D02*
G01X2114111Y1543097D01*
G01X2256076Y1463099D02*
G01X2256076Y1543097D01*
G01X2113529Y1405510D02*
G01X2113529Y1325510D01*
G01X2144512Y1294527D02*
G01X2224509Y1294527D01*
G01X2255490Y1405510D02*
G01X2255490Y1325510D01*
G01X2144512Y1294522D02*
G02X2113529Y1325505I0J30983D01*
G01X2255495Y1325505D02*
G02X2224509Y1294522I-30983J0D01*
G01X2114111Y1543092D02*
G02X2145096Y1574075I30983J0D01*
G01X2225093Y1574075D02*
G02X2256076Y1543092I0J-30983D01*
G01X2335596Y1574075D02*
G01X2415598Y1574075D01*
G01X2304611Y1463099D02*
G01X2304611Y1543097D01*
G01X2446576Y1463099D02*
G01X2446576Y1543097D01*
G01X2304029Y1405510D02*
G01X2304029Y1325510D01*
G01X2335012Y1294527D02*
G01X2415009Y1294527D01*
G01X2445990Y1405510D02*
G01X2445990Y1325510D01*
G01X2335012Y1294522D02*
G02X2304029Y1325505I0J30983D01*
G01X2445995Y1325505D02*
G02X2415009Y1294522I-30983J0D01*
G01X2304611Y1543092D02*
G02X2335596Y1574075I30983J0D01*
G01X2415593Y1574075D02*
G02X2446576Y1543092I0J-30983D01*
G54D12*
G01X1808594Y1521413D02*
G01X1904482Y1521413D01*
G01X1904482Y1521413D02*
G01X1904482Y1653533D01*
G01X1904482Y1653533D02*
G01X1808594Y1653533D01*
G01X1723352Y1521413D02*
G01X1627464Y1521413D01*
G01X1627464Y1521413D02*
G01X1627464Y1653533D01*
G01X1627464Y1653533D02*
G01X1723352Y1653533D01*
G01X1420513Y1494052D02*
G01X1420513Y1398164D01*
G01X1420513Y1398164D02*
G01X1552633Y1398164D01*
G01X1552633Y1398164D02*
G01X1552633Y1494052D01*
G01X1420513Y1579294D02*
G01X1420513Y1675182D01*
G01X1420513Y1675182D02*
G01X1552633Y1675182D01*
G01X1552633Y1675182D02*
G01X1552633Y1579294D01*
G01X1425633Y3928794D02*
G01X1425633Y4024682D01*
G01X1425633Y4024682D02*
G01X1293513Y4024682D01*
G01X1293513Y4024682D02*
G01X1293513Y3928794D01*
G01X1425633Y3843552D02*
G01X1425633Y3747664D01*
G01X1425633Y3747664D02*
G01X1293513Y3747664D01*
G01X1293513Y3747664D02*
G01X1293513Y3843552D01*
G54D20*
G01X2401141Y3900509D02*
G01X2324941Y3900509D01*
G01X2148139Y3900509D02*
G01X2224339Y3900509D01*
G01X2148139Y3768388D02*
G01X2224339Y3768388D01*
G54D12*
G01X2148139Y3768388D02*
G01X2132909Y3783631D01*
G01X2132909Y3783631D02*
G01X2132909Y3885274D01*
G01X2132909Y3885274D02*
G01X2148139Y3900509D01*
G54D20*
G01X2401141Y3768388D02*
G01X2324941Y3768388D01*
G54D12*
G01X2401141Y3900509D02*
G01X2416383Y3885274D01*
G01X2416383Y3885274D02*
G01X2416383Y3783631D01*
G01X2416383Y3783631D02*
G01X2401141Y3768388D01*
G54D15*
G01X1714068Y1711867D02*
G01X1894070Y1711867D01*
G01X1714068Y1826866D02*
G01X1714068Y1906868D01*
G01X1714068Y2021869D02*
G01X1894070Y2021869D01*
G01X1548968Y4112167D02*
G01X1728970Y4112167D01*
G01X1548968Y4227166D02*
G01X1548968Y4307168D01*
G01X1548968Y4422169D02*
G01X1728970Y4422169D01*
G54D20*
G01X2096173Y4368773D02*
G01X2096173Y4140173D01*
G01X1892973Y4140173D02*
G01X1892973Y4368773D01*
G01X2121573Y2120873D02*
G01X2350173Y2120873D01*
G01X2350173Y1917673D02*
G01X2121573Y1917673D01*
G54D12*
G01X4175194Y710952D02*
G01X4004953Y710952D01*
G01X4175194Y1016194D02*
G01X4004953Y1016194D01*
G01X4004953Y911213D02*
G01X4004953Y815933D01*
G54D15*
G01X927778Y896558D02*
G01X927778Y685773D01*
G01X927778Y1146557D02*
G01X927778Y1095790D01*
G01X927778Y1346557D02*
G01X927778Y1345790D01*
G01X927778Y1593061D02*
G01X927778Y1545789D01*
G01X912934Y2006573D02*
G01X927778Y2006573D01*
G01X927778Y2006573D02*
G01X927778Y1799289D01*
G01X589425Y685773D02*
G01X-100922Y685773D01*
G01X-100922Y685773D02*
G01X-100922Y2006573D01*
G01X-100922Y2006573D02*
G01X589425Y2006573D01*
G01X927778Y685773D02*
G01X912934Y685773D01*
G01X2702773Y1431474D02*
G01X2782773Y1431474D01*
G01X2962773Y1431474D02*
G01X2882773Y1431474D01*
G01X2702773Y981472D02*
G01X2702773Y985361D01*
G01X2702773Y1431474D02*
G01X2702773Y1427588D01*
G01X2962773Y985361D02*
G01X2962773Y981472D01*
G01X2962773Y1431474D02*
G01X2962773Y1427585D01*
G01X2962773Y981472D02*
G01X2702773Y981472D01*
G01X2782773Y1431474D02*
G03X2882811Y1431517I50019J377D01*
G54D12*
G01X3261825Y1180733D02*
G01X3597547Y1180733D01*
G01X3597547Y1180733D02*
G01X3597547Y775013D01*
G01X3597547Y775013D02*
G01X3261825Y775013D01*
G01X3261825Y775013D02*
G01X3261825Y1180733D01*
G01X3404685Y1203593D02*
G01X3238965Y1203593D01*
G01X3238965Y1203593D02*
G01X3238965Y1017873D01*
G01X1379433Y1313293D02*
G01X1593713Y1313293D01*
G01X1593713Y1313293D02*
G01X1593713Y998053D01*
G01X1593713Y998053D02*
G01X1379433Y998053D01*
G01X1379433Y998053D02*
G01X1379433Y1313293D01*
G54D15*
G01X4454274Y936573D02*
G01X4454274Y1806573D01*
G01X4894171Y1806675D02*
G01X4894171Y936674D01*
G01X4894273Y1164093D02*
G01X5294272Y1164093D01*
G01X5294272Y1164093D02*
G01X5294272Y1371573D01*
G01X5294272Y1371573D02*
G01X4894273Y1371573D01*
G01X4454274Y1806573D02*
G01X4543336Y1806573D01*
G01X4805210Y1806573D02*
G01X4894171Y1806573D01*
G01X4894171Y936674D02*
G01X4805233Y936674D01*
G01X4543313Y936674D02*
G01X4454274Y936674D01*
G54D12*
G01X1001194Y5383833D02*
G01X1072998Y5383833D01*
G01X1072998Y5383833D02*
G01X1072998Y5284113D01*
G01X1072998Y5284113D02*
G01X1001194Y5284113D01*
G01X955952Y5383833D02*
G01X884149Y5383833D01*
G01X884149Y5383833D02*
G01X884149Y5284113D01*
G01X884149Y5284113D02*
G01X955952Y5284113D01*
G01X990333Y4879552D02*
G01X990333Y4807749D01*
G01X990333Y4807749D02*
G01X890613Y4807749D01*
G01X890613Y4807749D02*
G01X890613Y4879552D01*
G01X990333Y4924794D02*
G01X990333Y4996598D01*
G01X990333Y4996598D02*
G01X890613Y4996598D01*
G01X890613Y4996598D02*
G01X890613Y4924794D01*
G54D15*
G01X-107683Y4517673D02*
G01X-107683Y5413673D01*
G01X253652Y5413673D02*
G01X443979Y5413673D01*
G01X-107683Y5413673D02*
G01X50980Y5413673D01*
G01X253657Y4517673D02*
G01X443984Y4517673D01*
G01X-107683Y4517673D02*
G01X50985Y4517673D01*
G01X5074730Y3508673D02*
G01X5074730Y2612673D01*
G01X4713394Y2612673D02*
G01X4523067Y2612673D01*
G01X5074730Y2612673D02*
G01X4916066Y2612673D01*
G01X4713389Y3508673D02*
G01X4523062Y3508673D01*
G01X5074730Y3508673D02*
G01X4916061Y3508673D01*
G54D12*
G01X1243980Y4890692D02*
G01X1068741Y4890692D01*
G01X1068741Y4890692D02*
G01X1068741Y4786532D01*
G01X1243980Y4583454D02*
G01X1068741Y4583454D01*
G01X1068741Y4583454D02*
G01X1068741Y4687614D01*
G01X1243980Y4782613D02*
G01X1243980Y4691533D01*
G01X4332592Y2299966D02*
G01X4332592Y2475206D01*
G01X4332592Y2475206D02*
G01X4228432Y2475206D01*
G01X4025354Y2299966D02*
G01X4025354Y2475206D01*
G01X4025354Y2475206D02*
G01X4129514Y2475206D01*
G01X4224513Y2299966D02*
G01X4133433Y2299966D01*
G01X1589113Y3934194D02*
G01X1589113Y4005998D01*
G01X1589113Y4005998D02*
G01X1688833Y4005998D01*
G01X1688833Y4005998D02*
G01X1688833Y3934194D01*
G01X1589113Y3888952D02*
G01X1589113Y3817149D01*
G01X1589113Y3817149D02*
G01X1688833Y3817149D01*
G01X1688833Y3817149D02*
G01X1688833Y3888952D01*
G54D15*
G01X1930375Y4891350D02*
G01X1930375Y4811348D01*
G01X1819399Y4922336D02*
G01X1899397Y4922336D01*
G01X1819399Y4780370D02*
G01X1899397Y4780370D01*
G01X1761810Y4922917D02*
G01X1681810Y4922917D01*
G01X1650827Y4891934D02*
G01X1650827Y4811937D01*
G01X1761810Y4780957D02*
G01X1681810Y4780957D01*
G01X1650822Y4891934D02*
G02X1681805Y4922917I30983J0D01*
G01X1681805Y4780952D02*
G02X1650822Y4811937I0J30983D01*
G01X1899392Y4922336D02*
G02X1930375Y4891350I0J-30983D01*
G01X1930375Y4811353D02*
G02X1899392Y4780370I-30983J0D01*
G01X3505175Y5094550D02*
G01X3505175Y5014548D01*
G01X3394199Y5125536D02*
G01X3474197Y5125536D01*
G01X3394199Y4983570D02*
G01X3474197Y4983570D01*
G01X3336610Y5126117D02*
G01X3256610Y5126117D01*
G01X3225627Y5095134D02*
G01X3225627Y5015137D01*
G01X3336610Y4984157D02*
G01X3256610Y4984157D01*
G01X3225622Y5095134D02*
G02X3256605Y5126117I30983J0D01*
G01X3256605Y4984152D02*
G02X3225622Y5015137I0J30983D01*
G01X3474192Y5125536D02*
G02X3505175Y5094550I0J-30983D01*
G01X3505175Y5014553D02*
G02X3474192Y4983570I-30983J0D01*
G01X1459296Y2018575D02*
G01X1539298Y2018575D01*
G01X1428311Y1907599D02*
G01X1428311Y1987597D01*
G01X1570276Y1907599D02*
G01X1570276Y1987597D01*
G01X1427729Y1850010D02*
G01X1427729Y1770010D01*
G01X1458712Y1739027D02*
G01X1538709Y1739027D01*
G01X1569690Y1850010D02*
G01X1569690Y1770010D01*
G01X1458712Y1739022D02*
G02X1427729Y1770005I0J30983D01*
G01X1569695Y1770005D02*
G02X1538709Y1739022I-30983J0D01*
G01X1428311Y1987592D02*
G02X1459296Y2018575I30983J0D01*
G01X1539293Y2018575D02*
G02X1570276Y1987592I0J-30983D01*
G01X1384275Y4396050D02*
G01X1384275Y4316048D01*
G01X1273299Y4427036D02*
G01X1353297Y4427036D01*
G01X1273299Y4285070D02*
G01X1353297Y4285070D01*
G01X1215710Y4427617D02*
G01X1135710Y4427617D01*
G01X1104727Y4396634D02*
G01X1104727Y4316637D01*
G01X1215710Y4285657D02*
G01X1135710Y4285657D01*
G01X1104722Y4396634D02*
G02X1135705Y4427617I30983J0D01*
G01X1135705Y4285652D02*
G02X1104722Y4316637I0J30983D01*
G01X1353292Y4427036D02*
G02X1384275Y4396050I0J-30983D01*
G01X1384275Y4316053D02*
G02X1353292Y4285070I-30983J0D01*
G01X2071472Y1699896D02*
G01X2071472Y1779898D01*
G01X2182447Y1668911D02*
G01X2102449Y1668911D01*
G01X2182447Y1810876D02*
G01X2102449Y1810876D01*
G01X2240036Y1668329D02*
G01X2320036Y1668329D01*
G01X2351019Y1699312D02*
G01X2351019Y1779309D01*
G01X2240036Y1810289D02*
G01X2320036Y1810289D01*
G01X2351024Y1699312D02*
G02X2320041Y1668329I-30983J0D01*
G01X2320041Y1810295D02*
G02X2351024Y1779309I0J-30983D01*
G01X2102455Y1668911D02*
G02X2071472Y1699896I0J30983D01*
G01X2071472Y1779893D02*
G02X2102455Y1810876I30983J0D01*
G54D12*
G01X2934343Y2363113D02*
G01X3013352Y2363113D01*
G01X3013352Y2462833D02*
G01X2934343Y2462833D01*
G01X2919103Y2447593D02*
G01X2919103Y2378353D01*
G01X3137604Y2363113D02*
G01X3058594Y2363113D01*
G01X3058594Y2462833D02*
G01X3137604Y2462833D01*
G01X3152844Y2447593D02*
G01X3152844Y2378353D01*
G01X2934343Y2462833D02*
G03X2919103Y2447593I0J-15240D01*
G01X2919103Y2378353D02*
G03X2934343Y2363113I15240J0D01*
G01X3137604Y2462833D02*
G02X3152844Y2447593I0J-15240D01*
G01X3152844Y2378353D02*
G02X3137604Y2363113I-15240J0D01*
G01X1436713Y2257794D02*
G01X1436713Y2329598D01*
G01X1436713Y2329598D02*
G01X1536433Y2329598D01*
G01X1536433Y2329598D02*
G01X1536433Y2257794D01*
G01X1436713Y2212552D02*
G01X1436713Y2140749D01*
G01X1436713Y2140749D02*
G01X1536433Y2140749D01*
G01X1536433Y2140749D02*
G01X1536433Y2212552D01*
G01X2156894Y3656633D02*
G01X2228698Y3656633D01*
G01X2228698Y3656633D02*
G01X2228698Y3556913D01*
G01X2228698Y3556913D02*
G01X2156894Y3556913D01*
G01X2111652Y3656633D02*
G01X2039849Y3656633D01*
G01X2039849Y3656633D02*
G01X2039849Y3556913D01*
G01X2039849Y3556913D02*
G01X2111652Y3556913D01*
G01X2947043Y1740813D02*
G01X3026052Y1740813D01*
G01X3026052Y1840533D02*
G01X2947043Y1840533D01*
G01X2931803Y1825293D02*
G01X2931803Y1756053D01*
G01X3150304Y1740813D02*
G01X3071294Y1740813D01*
G01X3071294Y1840533D02*
G01X3150304Y1840533D01*
G01X3165544Y1825293D02*
G01X3165544Y1756053D01*
G01X2947043Y1840533D02*
G03X2931803Y1825293I0J-15240D01*
G01X2931803Y1756053D02*
G03X2947043Y1740813I15240J0D01*
G01X3150304Y1840533D02*
G02X3165544Y1825293I0J-15240D01*
G01X3165544Y1756053D02*
G02X3150304Y1740813I-15240J0D01*
G01X1318694Y2526333D02*
G01X1390498Y2526333D01*
G01X1390498Y2526333D02*
G01X1390498Y2426613D01*
G01X1390498Y2426613D02*
G01X1318694Y2426613D01*
G01X1273452Y2526333D02*
G01X1201649Y2526333D01*
G01X1201649Y2526333D02*
G01X1201649Y2426613D01*
G01X1201649Y2426613D02*
G01X1273452Y2426613D01*
G01X4662513Y2105394D02*
G01X4662513Y2177198D01*
G01X4662513Y2177198D02*
G01X4762233Y2177198D01*
G01X4762233Y2177198D02*
G01X4762233Y2105394D01*
G01X4662513Y2060152D02*
G01X4662513Y1988349D01*
G01X4662513Y1988349D02*
G01X4762233Y1988349D01*
G01X4762233Y1988349D02*
G01X4762233Y2060152D01*
G54D15*
G01X4124574Y3835376D02*
G01X4974572Y3835376D01*
G01X4974572Y3835376D02*
G01X4974572Y5359371D01*
G01X4974572Y5359371D02*
G01X4124574Y5359371D01*
G01X4124574Y5359371D02*
G01X4124574Y3835376D01*
G54D12*
G01X3404532Y3804593D02*
G01X3708814Y3804593D01*
G01X3708814Y3804593D02*
G01X3708814Y2799353D01*
G01X3708814Y2799353D02*
G01X3404532Y2799353D01*
G01X3404532Y2799353D02*
G01X3404532Y3804593D01*
G01X1016452Y898094D02*
G01X1016452Y752852D01*
G01X1016452Y752852D02*
G01X1119614Y752852D01*
G01X1321694Y898094D02*
G01X1321694Y752852D01*
G01X1321694Y752852D02*
G01X1218532Y752852D01*
G01X1123533Y898094D02*
G01X1214613Y898094D01*
G01X4078313Y1203694D02*
G01X4078313Y1275498D01*
G01X4078313Y1275498D02*
G01X4178033Y1275498D01*
G01X4178033Y1275498D02*
G01X4178033Y1203694D01*
G01X4078313Y1158452D02*
G01X4078313Y1086649D01*
G01X4078313Y1086649D02*
G01X4178033Y1086649D01*
G01X4178033Y1086649D02*
G01X4178033Y1158452D01*
G01X1866633Y790152D02*
G01X1866633Y718349D01*
G01X1866633Y718349D02*
G01X1766913Y718349D01*
G01X1766913Y718349D02*
G01X1766913Y790152D01*
G01X1866633Y835394D02*
G01X1866633Y907198D01*
G01X1866633Y907198D02*
G01X1766913Y907198D01*
G01X1766913Y907198D02*
G01X1766913Y835394D01*
G01X4432033Y790152D02*
G01X4432033Y718349D01*
G01X4432033Y718349D02*
G01X4332313Y718349D01*
G01X4332313Y718349D02*
G01X4332313Y790152D01*
G01X4432033Y835394D02*
G01X4432033Y907198D01*
G01X4432033Y907198D02*
G01X4332313Y907198D01*
G01X4332313Y907198D02*
G01X4332313Y835394D01*
G01X3479533Y1574743D02*
G01X3479533Y1653752D01*
G01X3379813Y1653752D02*
G01X3379813Y1574743D01*
G01X3395053Y1559503D02*
G01X3464293Y1559503D01*
G01X3479533Y1778004D02*
G01X3479533Y1698994D01*
G01X3379813Y1698994D02*
G01X3379813Y1778004D01*
G01X3395053Y1793244D02*
G01X3464293Y1793244D01*
G01X3379813Y1574743D02*
G03X3395053Y1559503I15240J0D01*
G01X3464293Y1559503D02*
G03X3479533Y1574743I0J15240D01*
G01X3379813Y1778004D02*
G02X3395053Y1793244I15240J0D01*
G01X3464293Y1793244D02*
G02X3479533Y1778004I0J-15240D01*
G01X2008213Y927104D02*
G01X2008213Y848094D01*
G01X2107933Y848094D02*
G01X2107933Y927104D01*
G01X2092693Y942344D02*
G01X2023453Y942344D01*
G01X2008213Y723843D02*
G01X2008213Y802852D01*
G01X2107933Y802852D02*
G01X2107933Y723843D01*
G01X2092693Y708603D02*
G01X2023453Y708603D01*
G01X2107933Y927104D02*
G03X2092693Y942344I-15240J0D01*
G01X2023453Y942344D02*
G03X2008213Y927104I0J-15240D01*
G01X2107933Y723843D02*
G02X2092693Y708603I-15240J0D01*
G01X2023453Y708603D02*
G02X2008213Y723843I0J15240D01*
G01X2147913Y927104D02*
G01X2147913Y848094D01*
G01X2247633Y848094D02*
G01X2247633Y927104D01*
G01X2232393Y942344D02*
G01X2163153Y942344D01*
G01X2147913Y723843D02*
G01X2147913Y802852D01*
G01X2247633Y802852D02*
G01X2247633Y723843D01*
G01X2232393Y708603D02*
G01X2163153Y708603D01*
G01X2247633Y927104D02*
G03X2232393Y942344I-15240J0D01*
G01X2163153Y942344D02*
G03X2147913Y927104I0J-15240D01*
G01X2247633Y723843D02*
G02X2232393Y708603I-15240J0D01*
G01X2163153Y708603D02*
G02X2147913Y723843I0J15240D01*
G01X3365233Y1574743D02*
G01X3365233Y1653752D01*
G01X3265513Y1653752D02*
G01X3265513Y1574743D01*
G01X3280753Y1559503D02*
G01X3349993Y1559503D01*
G01X3365233Y1778004D02*
G01X3365233Y1698994D01*
G01X3265513Y1698994D02*
G01X3265513Y1778004D01*
G01X3280753Y1793244D02*
G01X3349993Y1793244D01*
G01X3265513Y1574743D02*
G03X3280753Y1559503I15240J0D01*
G01X3349993Y1559503D02*
G03X3365233Y1574743I0J15240D01*
G01X3265513Y1778004D02*
G02X3280753Y1793244I15240J0D01*
G01X3349993Y1793244D02*
G02X3365233Y1778004I0J-15240D01*
G01X648343Y4090313D02*
G01X727352Y4090313D01*
G01X727352Y4190033D02*
G01X648343Y4190033D01*
G01X633103Y4174793D02*
G01X633103Y4105553D01*
G01X851604Y4090313D02*
G01X772594Y4090313D01*
G01X772594Y4190033D02*
G01X851604Y4190033D01*
G01X866844Y4174793D02*
G01X866844Y4105553D01*
G01X648343Y4190033D02*
G03X633103Y4174793I0J-15240D01*
G01X633103Y4105553D02*
G03X648343Y4090313I15240J0D01*
G01X851604Y4190033D02*
G02X866844Y4174793I0J-15240D01*
G01X866844Y4105553D02*
G02X851604Y4090313I-15240J0D01*
G01X1435743Y4547513D02*
G01X1514752Y4547513D01*
G01X1514752Y4647233D02*
G01X1435743Y4647233D01*
G01X1420503Y4631993D02*
G01X1420503Y4562753D01*
G01X1639004Y4547513D02*
G01X1559994Y4547513D01*
G01X1559994Y4647233D02*
G01X1639004Y4647233D01*
G01X1654244Y4631993D02*
G01X1654244Y4562753D01*
G01X1435743Y4647233D02*
G03X1420503Y4631993I0J-15240D01*
G01X1420503Y4562753D02*
G03X1435743Y4547513I15240J0D01*
G01X1639004Y4647233D02*
G02X1654244Y4631993I0J-15240D01*
G01X1654244Y4562753D02*
G02X1639004Y4547513I-15240J0D01*
G01X3963104Y2716833D02*
G01X3884094Y2716833D01*
G01X3884094Y2617113D02*
G01X3963104Y2617113D01*
G01X3978344Y2632353D02*
G01X3978344Y2701593D01*
G01X3759843Y2716833D02*
G01X3838852Y2716833D01*
G01X3838852Y2617113D02*
G01X3759843Y2617113D01*
G01X3744603Y2632353D02*
G01X3744603Y2701593D01*
G01X3963104Y2617113D02*
G03X3978344Y2632353I0J15240D01*
G01X3978344Y2701593D02*
G03X3963104Y2716833I-15240J0D01*
G01X3759843Y2617113D02*
G02X3744603Y2632353I0J15240D01*
G01X3744603Y2701593D02*
G02X3759843Y2716833I15240J0D01*
G01X1905704Y5231433D02*
G01X1826694Y5231433D01*
G01X1826694Y5131713D02*
G01X1905704Y5131713D01*
G01X1920944Y5146953D02*
G01X1920944Y5216193D01*
G01X1702443Y5231433D02*
G01X1781452Y5231433D01*
G01X1781452Y5131713D02*
G01X1702443Y5131713D01*
G01X1687203Y5146953D02*
G01X1687203Y5216193D01*
G01X1905704Y5131713D02*
G03X1920944Y5146953I0J15240D01*
G01X1920944Y5216193D02*
G03X1905704Y5231433I-15240J0D01*
G01X1702443Y5131713D02*
G02X1687203Y5146953I0J15240D01*
G01X1687203Y5216193D02*
G02X1702443Y5231433I15240J0D01*
G01X1702443Y4941213D02*
G01X1781452Y4941213D01*
G01X1781452Y5040933D02*
G01X1702443Y5040933D01*
G01X1687203Y5025693D02*
G01X1687203Y4956453D01*
G01X1905704Y4941213D02*
G01X1826694Y4941213D01*
G01X1826694Y5040933D02*
G01X1905704Y5040933D01*
G01X1920944Y5025693D02*
G01X1920944Y4956453D01*
G01X1702443Y5040933D02*
G03X1687203Y5025693I0J-15240D01*
G01X1687203Y4956453D02*
G03X1702443Y4941213I15240J0D01*
G01X1905704Y5040933D02*
G02X1920944Y5025693I0J-15240D01*
G01X1920944Y4956453D02*
G02X1905704Y4941213I-15240J0D01*
G01X3264543Y4318913D02*
G01X3343552Y4318913D01*
G01X3343552Y4418633D02*
G01X3264543Y4418633D01*
G01X3249303Y4403393D02*
G01X3249303Y4334153D01*
G01X3467804Y4318913D02*
G01X3388794Y4318913D01*
G01X3388794Y4418633D02*
G01X3467804Y4418633D01*
G01X3483044Y4403393D02*
G01X3483044Y4334153D01*
G01X3264543Y4418633D02*
G03X3249303Y4403393I0J-15240D01*
G01X3249303Y4334153D02*
G03X3264543Y4318913I15240J0D01*
G01X3467804Y4418633D02*
G02X3483044Y4403393I0J-15240D01*
G01X3483044Y4334153D02*
G02X3467804Y4318913I-15240J0D01*
G01X3277243Y5157113D02*
G01X3356252Y5157113D01*
G01X3356252Y5256833D02*
G01X3277243Y5256833D01*
G01X3262003Y5241593D02*
G01X3262003Y5172353D01*
G01X3480504Y5157113D02*
G01X3401494Y5157113D01*
G01X3401494Y5256833D02*
G01X3480504Y5256833D01*
G01X3495744Y5241593D02*
G01X3495744Y5172353D01*
G01X3277243Y5256833D02*
G03X3262003Y5241593I0J-15240D01*
G01X3262003Y5172353D02*
G03X3277243Y5157113I15240J0D01*
G01X3480504Y5256833D02*
G02X3495744Y5241593I0J-15240D01*
G01X3495744Y5172353D02*
G02X3480504Y5157113I-15240J0D01*
G01X3670033Y1473143D02*
G01X3670033Y1552152D01*
G01X3570313Y1552152D02*
G01X3570313Y1473143D01*
G01X3585553Y1457903D02*
G01X3654793Y1457903D01*
G01X3670033Y1676404D02*
G01X3670033Y1597394D01*
G01X3570313Y1597394D02*
G01X3570313Y1676404D01*
G01X3585553Y1691644D02*
G01X3654793Y1691644D01*
G01X3570313Y1473143D02*
G03X3585553Y1457903I15240J0D01*
G01X3654793Y1457903D02*
G03X3670033Y1473143I0J15240D01*
G01X3570313Y1676404D02*
G02X3585553Y1691644I15240J0D01*
G01X3654793Y1691644D02*
G02X3670033Y1676404I0J-15240D01*
G01X3847833Y1473143D02*
G01X3847833Y1552152D01*
G01X3748113Y1552152D02*
G01X3748113Y1473143D01*
G01X3763353Y1457903D02*
G01X3832593Y1457903D01*
G01X3847833Y1676404D02*
G01X3847833Y1597394D01*
G01X3748113Y1597394D02*
G01X3748113Y1676404D01*
G01X3763353Y1691644D02*
G01X3832593Y1691644D01*
G01X3748113Y1473143D02*
G03X3763353Y1457903I15240J0D01*
G01X3832593Y1457903D02*
G03X3847833Y1473143I0J15240D01*
G01X3748113Y1676404D02*
G02X3763353Y1691644I15240J0D01*
G01X3832593Y1691644D02*
G02X3847833Y1676404I0J-15240D01*
G01X2896243Y737513D02*
G01X2975252Y737513D01*
G01X2975252Y837233D02*
G01X2896243Y837233D01*
G01X2881003Y821993D02*
G01X2881003Y752753D01*
G01X3099504Y737513D02*
G01X3020494Y737513D01*
G01X3020494Y837233D02*
G01X3099504Y837233D01*
G01X3114744Y821993D02*
G01X3114744Y752753D01*
G01X2896243Y837233D02*
G03X2881003Y821993I0J-15240D01*
G01X2881003Y752753D02*
G03X2896243Y737513I15240J0D01*
G01X3099504Y837233D02*
G02X3114744Y821993I0J-15240D01*
G01X3114744Y752753D02*
G02X3099504Y737513I-15240J0D01*
G01X2782004Y837233D02*
G01X2702994Y837233D01*
G01X2702994Y737513D02*
G01X2782004Y737513D01*
G01X2797244Y752753D02*
G01X2797244Y821993D01*
G01X2578743Y837233D02*
G01X2657752Y837233D01*
G01X2657752Y737513D02*
G01X2578743Y737513D01*
G01X2563503Y752753D02*
G01X2563503Y821993D01*
G01X2782004Y737513D02*
G03X2797244Y752753I0J15240D01*
G01X2797244Y821993D02*
G03X2782004Y837233I-15240J0D01*
G01X2578743Y737513D02*
G02X2563503Y752753I0J15240D01*
G01X2563503Y821993D02*
G02X2578743Y837233I15240J0D01*
G01X3178421Y1918013D02*
G01X2842699Y1918013D01*
G01X2842699Y1918013D02*
G01X2842699Y2323733D01*
G01X2842699Y2323733D02*
G01X3178421Y2323733D01*
G01X3178421Y2323733D02*
G01X3178421Y1918013D01*
G01X3035562Y1895153D02*
G01X3201281Y1895153D01*
G01X3201281Y1895153D02*
G01X3201281Y2080873D01*

G04 Rect Start*
G54D15*
G01X4776597Y5194300D02*
G01X4776597Y5308600D01*
G01X4928997Y5308600D01*
G01X4928997Y5194300D01*
G01X4776597Y5194300D01*
G01X4776597Y3886200D02*
G01X4776597Y4000500D01*
G01X4928997Y4000500D01*
G01X4928997Y3886200D01*
G01X4776597Y3886200D01*
G04 Rect End*

G04 Circle Start*
G54D17*
G01X2043062Y4876062D02*
G03X2073085Y4876062I15011J0D01*
G03X2043062Y4876062I-15011J0D01*
G01X1969122Y4676062D02*
G03X1999145Y4676062I15011J0D01*
G03X1969122Y4676062I-15011J0D01*
G54D15*
G01X3510547Y2314777D02*
G03X3535591Y2314777I12522J0D01*
G03X3510547Y2314777I-12522J0D01*
G54D19*
G01X1452283Y2654019D02*
G03X1460411Y2654019I4064J0D01*
G03X1452283Y2654019I-4064J0D01*
G01X1452283Y2958819D02*
G03X1460411Y2958819I4064J0D01*
G03X1452283Y2958819I-4064J0D01*
G54D17*
G01X2907373Y3987773D02*
G03X2937396Y3987773I15011J0D01*
G03X2907373Y3987773I-15011J0D01*
G01X3098711Y3911040D02*
G03X3128734Y3911040I15011J0D01*
G03X3098711Y3911040I-15011J0D01*
G54D15*
G01X1943760Y1701773D02*
G03X1969160Y1701773I12700J0D01*
G03X1943760Y1701773I-12700J0D01*
G01X1778660Y4102073D02*
G03X1804060Y4102073I12700J0D01*
G03X1778660Y4102073I-12700J0D01*
G54D17*
G01X4189362Y698473D02*
G03X4219385Y698473I15011J0D01*
G03X4189362Y698473I-15011J0D01*
G54D15*
G01X2634247Y1438477D02*
G03X2659291Y1438477I12522J0D01*
G03X2634247Y1438477I-12522J0D01*
G54D17*
G01X1439659Y1255673D02*
G03X1469682Y1255673I15011J0D01*
G03X1439659Y1255673I-15011J0D01*
G01X1260564Y1314906D02*
G03X1290587Y1314906I15011J0D01*
G03X1260564Y1314906I-15011J0D01*
G01X3464751Y3746473D02*
G03X3494773Y3746473I15011J0D01*
G03X3464751Y3746473I-15011J0D01*
G01X3274962Y3822673D02*
G03X3304985Y3822673I15011J0D01*
G03X3274962Y3822673I-15011J0D01*
G04 Circle End*

M02*

